<svg width="99" height="92" viewBox="0 0 99 92" fill="none" xmlns="http://www.w3.org/2000/svg">
<path d="M33.0871 19.0827C30.9049 22.2587 28.643 24.1535 26.3278 24.7407C25.6758 24.9008 21.9902 25.6214 19.8347 26.0351L18.6638 26.2619L18.0517 27.2895C17.5461 28.1301 15.1511 32.5071 17.4796 35.6964C18.7569 37.4445 20.7128 37.7113 22.4426 37.9515L22.6155 37.9782C23.3873 38.085 24.1856 38.1384 24.9839 38.1384C26.1282 38.1384 26.9798 38.0183 27.3257 37.9782C27.339 37.9782 28.9224 37.7647 31.0513 37.7647C32.3153 37.7647 33.5128 37.8314 34.6172 37.9782C36.2804 38.1917 37.0654 38.7789 39.3141 40.5937C40.5116 41.5678 42.0018 42.7688 44.0908 44.21C46.8185 46.0916 49.759 47.7996 52.8326 49.3075C53.1253 50.2016 53.2052 51.109 53.0322 51.3359C53.0189 51.3492 52.939 51.4159 52.7395 51.4827C51.9145 51.7629 51.2625 51.7896 50.5573 51.8296C46.8052 52.0164 45.3548 53.6578 44.317 58.8354C42.8933 65.9879 39.2077 71.6592 37.7973 71.9528C36.4933 71.7526 36.2937 71.6726 36.2804 66.0546C36.2804 61.3174 32.7544 58.3817 30.1864 56.2332C29.3615 55.5527 28.2438 54.6052 28.0176 54.1649C27.8313 53.7912 27.8846 52.5502 27.9245 51.6561C28.0309 48.9873 28.2039 44.9706 24.4517 42.4619C23.7066 41.9682 23.0147 41.4744 22.3627 41.0074C19.848 39.2059 17.6792 37.658 15.1378 37.658C14.885 37.658 14.6455 37.6713 14.406 37.698C14.406 37.6446 14.406 37.6046 14.406 37.5646C14.2862 36.0433 14.1398 34.3086 13.3947 32.814C12.8093 31.6397 11.9311 30.7323 10.8268 30.1184C12.7162 27.7031 15.364 25.0743 18.9964 22.9659C24.2255 19.9234 29.4413 19.1494 33.0738 19.0827M33.6592 16.4005C29.6542 16.4005 23.7066 17.1344 17.6658 20.644C11.3058 24.3537 7.85961 29.3845 6.34277 31.9733C6.34277 31.9733 6.70202 31.9066 7.23425 31.9066C8.32531 31.9066 10.1216 32.2002 11.013 33.9883C12.1972 36.3636 11.2658 40.8739 12.9423 40.8739C13.1419 40.8739 13.3814 40.8072 13.6742 40.6604C14.1665 40.4202 14.6455 40.3001 15.1511 40.3001C17.3598 40.3001 19.7282 42.4753 22.9881 44.6637C26.9798 47.3326 24.3187 52.6703 25.6492 55.3392C26.9798 58.008 33.6326 60.6769 33.6326 66.0413C33.6326 71.4057 33.6326 74.0212 37.4646 74.595C37.5844 74.6083 37.6908 74.6217 37.8106 74.6217C41.5494 74.6217 45.6476 65.8278 46.9382 59.3558C48.2688 52.6836 49.5993 55.3525 53.591 54.0181C54.2962 53.7779 54.7885 53.4176 55.1345 52.9906C56.6513 51.0556 55.0812 47.6662 54.9216 47.3459C50.7303 45.371 47.6168 43.396 45.6076 42.0082C39.7399 37.9649 38.7419 35.8165 34.9632 35.3361C33.5927 35.1626 32.2488 35.1092 31.0646 35.1092C28.6962 35.1092 26.9798 35.3361 26.9798 35.3361C26.7137 35.3761 25.9952 35.4695 24.9972 35.4695C24.4118 35.4695 23.7332 35.4295 22.9881 35.3361C21.4979 35.1226 20.2604 34.9891 19.6218 34.1217C18.2114 32.2002 20.327 28.6639 20.327 28.6639C20.327 28.6639 26.0085 27.5697 26.9798 27.3295C29.8272 26.6089 33.6592 24.2203 37.6243 16.6541C36.7594 16.5473 35.3889 16.4139 33.6592 16.4139V16.4005Z" fill="#072811"/>
<path d="M24.9833 15.9868C24.2648 14.7592 23.3867 13.8651 22.3222 13.318C20.2465 12.2371 18.9027 13.1979 17 11.9835C15.4033 10.9694 15.7359 9.90184 14.3388 9.31469C12.0636 8.3539 9.34924 10.3956 9.0166 10.6491C6.80786 12.3572 5.55714 15.3997 6.34217 16.4138C6.43531 16.5473 6.52845 16.5606 6.54175 16.6807C6.60828 17.5214 1.83157 18.4689 1.45901 20.4572C1.11307 22.272 1.04652 27.1293 3.26856 28.0234C3.70765 28.1969 4.14674 28.1168 5.02491 27.9967C6.79456 27.7432 8.15173 27.1293 9.0166 26.6623" stroke="#072811" stroke-width="2" stroke-miterlimit="10"/>
<path d="M38.2901 21.3246C37.2256 24.1002 37.2789 28.0768 39.6206 30.6656C41.3238 32.5472 43.6522 33.0542 44.9429 33.3345C47.2182 33.8282 49.1475 33.5747 50.2651 33.3345C48.9346 35.4162 48.6285 37.5513 49.5599 38.7923C50.3317 39.8331 51.7421 40.0066 52.9263 40.0066C59.5791 40.0066 62.2402 37.3378 62.2402 37.3378C63.1317 37.8448 66.8706 39.7798 71.5541 38.6722C75.1999 37.8048 77.4086 35.563 78.2069 34.6689C78.9121 35.4429 80.2294 36.6705 82.1986 37.3378C87.5076 39.1392 92.3375 35.1093 92.8431 34.6689C93.6814 33.935 96.0365 31.7198 96.8348 27.9968C97.7263 23.8867 96.409 19.4297 93.3221 16.4139C90.0755 13.2246 85.2988 12.0503 80.8681 13.318C81.0144 12.7976 82.2518 8.10042 79.3246 4.47077C77.5017 2.21558 75.0003 1.52168 74.2153 1.30817C72.1795 0.774402 70.5562 1.04129 68.893 1.30817C66.5246 1.69516 64.0897 2.09549 62.2402 3.97703C61.9342 4.28395 59.5791 7.98032 59.5791 7.98032C59.3928 7.68674 56.8514 3.88362 52.9263 3.97703C50.9703 4.03041 49.387 5.01789 48.9346 5.31146C48.2028 5.77851 47.0319 6.51245 46.2735 7.98032C45.4219 9.62167 45.1026 12.1571 46.2735 13.318C46.7791 13.8118 47.5109 14.0253 47.4577 14.2922C47.3911 14.5991 46.473 14.6391 46.2735 14.6525C44.3042 14.7859 39.8734 17.1879 38.2901 21.3246Z" stroke="#072811" stroke-width="2" stroke-miterlimit="10"/>
<path d="M74.8794 55.3526H73.5488C73.9879 56.2467 74.4403 57.1274 74.8794 58.0215C75.3185 57.1274 75.7709 56.2467 76.21 55.3526H74.8794ZM74.8794 55.3526V43.3428" stroke="#072811" stroke-width="2" stroke-miterlimit="10"/>
<path d="M84.1938 63.3591H82.8633C83.3024 64.2532 83.7548 65.1339 84.1938 66.028C84.6329 65.1339 85.0853 64.2532 85.5244 63.3591H84.1938ZM84.1938 63.3591V51.3492" stroke="#072811" stroke-width="2" stroke-miterlimit="10"/>
<path d="M10.3492 70.6986C10.3492 70.6986 10.3492 65.3608 14.3408 65.3608C17.1749 65.3608 19.6365 65.3608 20.9537 66.7887C21.5658 67.4425 21.7388 68.5101 21.9517 69.3641C22.2311 70.445 22.3109 71.3658 22.3242 72.033C23.056 71.7394 24.972 71.0855 27.3138 71.6327C29.3097 72.0997 30.6003 73.1272 31.0793 73.6476C35.6431 78.7051 35.7097 82.7751 30.3608 83.4023C24.9986 84.0428 23.6681 84.0428 23.6681 84.0428C24.2136 86.2046 23.7213 88.3531 22.3375 89.3806C20.7541 90.5549 18.5321 89.861 17.0153 89.3806C16.3899 89.1804 15.392 88.8601 14.3541 88.0461C12.5712 86.6583 11.9192 84.8302 11.693 84.0428C7.70133 85.8977 3.97576 85.9511 2.33917 84.0962C1.72711 83.4023 1.34126 82.6417 1.28804 81.3873C1.14168 77.1839 1.60738 75.0888 2.64522 73.7944C3.37702 72.8737 4.24187 72.4733 5.04021 72.0463C7.1558 70.9121 9.17826 70.7252 10.3625 70.7119L10.3492 70.6986Z" stroke="#072811" stroke-width="2" stroke-miterlimit="10"/>
<path d="M11.0127 25.9953C13.5275 23.4598 15.9225 21.7518 17.6655 20.6575C20.646 18.776 26.8464 14.8795 34.9628 15.3198C37.8102 15.4799 40.1121 16.1205 41.6156 16.6542" stroke="#072811" stroke-width="2" stroke-miterlimit="10"/>
<path d="M64.2357 38.0049C65.074 40.5937 68.3073 51.5093 62.9052 63.359C61.9605 65.4274 55.3343 79.6524 41.6162 82.041C38.3297 82.6149 35.5089 82.3613 33.6328 82.041" stroke="#072811" stroke-width="2" stroke-miterlimit="10"/>
<path d="M8.35218 70.0312C6.07692 66.9087 2.81704 61.4509 1.69937 54.0181C1.27359 51.2024 -0.349691 40.3535 6.34304 30.8391C8.41871 27.89 10.7073 25.9017 12.3439 24.6606" stroke="#072811" stroke-width="2" stroke-miterlimit="10"/>
<path d="M61.5751 17.9886C61.4154 17.6016 60.6703 16.0003 58.9139 15.3197C56.9314 14.5457 54.8025 15.3864 53.5917 16.6541C52.5938 17.695 52.3277 18.8826 52.2611 19.323C51.9418 21.2312 52.7002 23.5531 54.6162 24.7541C56.1863 25.7416 58.6478 26.0752 60.2445 24.6607C61.269 23.7533 61.5085 22.4856 61.5751 21.9918" stroke="#072811" stroke-width="2" stroke-miterlimit="10"/>
<path d="M74.8816 17.9884C74.1631 15.9067 70.9431 14.0385 68.2287 15.3196C66.2861 16.2403 65.1818 18.4955 65.5676 20.6573C65.9269 22.6456 67.5102 24.3536 69.5593 24.6606C71.0895 24.8874 72.593 24.3003 73.551 23.3261C74.509 22.3653 74.7485 21.2311 74.8816 20.6573C74.988 20.1635 75.2408 19.0293 74.8816 17.9884Z" stroke="#072811" stroke-width="2" stroke-miterlimit="10"/>
<path d="M80.2021 21.9918C80.3751 21.5781 81.1202 19.9635 82.8633 19.323C83.329 19.1495 84.4866 18.7225 85.5244 19.323C86.4026 19.83 87.0279 20.9776 86.855 21.9918C86.5888 23.5798 84.5797 23.7132 82.8633 25.9951C82.1049 27.0093 81.719 28.0234 81.5327 28.664H88.1855" stroke="#072811" stroke-width="2" stroke-miterlimit="10"/>
</svg>
