<svg width="122" height="106" viewBox="0 0 122 106" fill="none" xmlns="http://www.w3.org/2000/svg">
<path d="M47.8703 29.0827C45.6881 32.2586 43.4262 34.1535 41.111 34.7406C40.459 34.9008 36.7734 35.6214 34.6179 36.035L33.447 36.2619L32.8349 37.2894C32.3293 38.1301 29.9343 42.507 32.2628 45.6963C33.5401 47.4444 35.496 47.7113 37.2258 47.9515L37.3987 47.9782C38.1705 48.0849 38.9688 48.1383 39.7671 48.1383C40.9114 48.1383 41.763 48.0182 42.1089 47.9782C42.1222 47.9782 43.7056 47.7647 45.8345 47.7647C47.0985 47.7647 48.2961 47.8314 49.4004 47.9782C51.0636 48.1917 51.8486 48.7788 54.0973 50.5937C55.2948 51.5678 56.785 52.7688 58.874 54.21C61.6017 56.0915 64.5422 57.7996 67.6158 59.3075C67.9085 60.2015 67.9884 61.109 67.8154 61.3358C67.8021 61.3492 67.7222 61.4159 67.5227 61.4826C66.6977 61.7628 66.0457 61.7895 65.3405 61.8295C61.5884 62.0164 60.138 63.6577 59.1002 68.8353C57.6765 75.9878 53.9909 81.6592 52.5805 81.9527C51.2765 81.7526 51.0769 81.6725 51.0636 76.0546C51.0636 71.3173 47.5376 68.3816 44.9696 66.2332C44.1447 65.5526 43.027 64.6052 42.8008 64.1648C42.6145 63.7912 42.6678 62.5501 42.7077 61.6561C42.8141 58.9872 42.9871 54.9706 39.2349 52.4619C38.4898 51.9681 37.7979 51.4744 37.1459 51.0073C34.6312 49.2058 32.4624 47.6579 29.921 47.6579C29.6682 47.6579 29.4287 47.6713 29.1892 47.6979C29.1892 47.6446 29.1892 47.6045 29.1892 47.5645C29.0694 46.0432 28.9231 44.3085 28.1779 42.8139C27.5925 41.6396 26.7143 40.7322 25.61 40.1184C27.4994 37.7031 30.1472 35.0742 33.7796 32.9658C39.0087 29.9233 44.2245 29.1494 47.857 29.0827M48.4424 26.4005C44.4374 26.4005 38.4898 27.1344 32.4491 30.6439C26.089 34.3536 22.6428 39.3844 21.126 41.9732C21.126 41.9732 21.4852 41.9065 22.0175 41.9065C23.1085 41.9065 24.9048 42.2001 25.7962 43.9882C26.9804 46.3635 26.049 50.8739 27.7256 50.8739C27.9251 50.8739 28.1646 50.8072 28.4574 50.6604C28.9497 50.4202 29.4287 50.3001 29.9343 50.3001C32.143 50.3001 34.5114 52.4752 37.7713 54.6637C41.763 57.3325 39.1019 62.6702 40.4324 65.3391C41.763 68.008 48.4158 70.6768 48.4158 76.0412C48.4158 81.4056 48.4158 84.0211 52.2478 84.5949C52.3676 84.6083 52.474 84.6216 52.5938 84.6216C56.3326 84.6216 60.4308 75.8277 61.7214 69.3557C63.052 62.6836 64.3825 65.3524 68.3742 64.018C69.0794 63.7778 69.5717 63.4175 69.9177 62.9905C71.4345 61.0556 69.8645 57.6661 69.7048 57.3459C65.5135 55.3709 62.4 53.396 60.3909 52.0082C54.5231 47.9648 53.5252 45.8164 49.7464 45.336C48.3759 45.1625 47.032 45.1091 45.8478 45.1091C43.4794 45.1091 41.763 45.336 41.763 45.336C41.4969 45.376 40.7784 45.4694 39.7804 45.4694C39.195 45.4694 38.5164 45.4294 37.7713 45.336C36.2811 45.1225 35.0436 44.989 34.405 44.1217C32.9946 42.2001 35.1102 38.6639 35.1102 38.6639C35.1102 38.6639 40.7917 37.5696 41.763 37.3294C44.6104 36.6088 48.4424 34.2202 52.4075 26.654C51.5426 26.5472 50.1721 26.4138 48.4424 26.4138V26.4005Z" fill="#072811"/>
<path d="M39.7665 25.9868C39.048 24.7592 38.1699 23.8651 37.1054 23.318C35.0297 22.2371 33.6859 23.1979 31.7832 21.9835C30.1865 20.9694 30.5191 19.9018 29.122 19.3147C26.8468 18.3539 24.1324 20.3956 23.7998 20.6491C21.5911 22.3572 20.3403 25.3997 21.1254 26.4138C21.2185 26.5473 21.3116 26.5606 21.325 26.6807C21.3915 27.5214 16.6148 28.4689 16.2422 30.4572C15.8963 32.272 15.8297 37.1293 18.0518 38.0234C18.4908 38.1969 18.9299 38.1168 19.8081 37.9967C21.5778 37.7432 22.9349 37.1293 23.7998 36.6623" stroke="#072811" stroke-width="2" stroke-miterlimit="10"/>
<path d="M53.0733 31.3246C52.0088 34.1002 52.0621 38.0768 54.4038 40.6656C56.107 42.5472 58.4354 43.0542 59.7261 43.3345C62.0014 43.8282 63.9307 43.5747 65.0483 43.3345C63.7178 45.4162 63.4118 47.5513 64.3431 48.7923C65.1149 49.8331 66.5253 50.0066 67.7095 50.0066C74.3623 50.0066 77.0234 47.3378 77.0234 47.3378C77.9149 47.8448 81.6538 49.7798 86.3373 48.6722C89.9831 47.8048 92.1918 45.563 92.9901 44.6689C93.6953 45.4429 95.0126 46.6705 96.9818 47.3378C102.291 49.1392 107.121 45.1093 107.626 44.6689C108.465 43.935 110.82 41.7198 111.618 37.9968C112.509 33.8867 111.192 29.4297 108.105 26.4139C104.859 23.2246 100.082 22.0503 95.6513 23.318C95.7976 22.7976 97.035 18.1004 94.1078 14.4708C92.2849 12.2156 89.7835 11.5217 88.9985 11.3082C86.9627 10.7744 85.3394 11.0413 83.6762 11.3082C81.3078 11.6952 78.8729 12.0955 77.0234 13.977C76.7174 14.284 74.3623 17.9803 74.3623 17.9803C74.176 17.6867 71.6346 13.8836 67.7095 13.977C65.7535 14.0304 64.1702 15.0179 63.7178 15.3115C62.986 15.7785 61.8151 16.5124 61.0567 17.9803C60.2051 19.6217 59.8858 22.1571 61.0567 23.318C61.5623 23.8118 62.2941 24.0253 62.2409 24.2922C62.1743 24.5991 61.2562 24.6391 61.0567 24.6525C59.0874 24.7859 54.6567 27.1879 53.0733 31.3246Z" stroke="#072811" stroke-width="2" stroke-miterlimit="10"/>
<path d="M89.6626 65.3526H88.332C88.7711 66.2467 89.2235 67.1274 89.6626 68.0215C90.1017 67.1274 90.5541 66.2467 90.9932 65.3526H89.6626ZM89.6626 65.3526V53.3428" stroke="#072811" stroke-width="2" stroke-miterlimit="10"/>
<path d="M98.977 73.3591H97.6465C98.0856 74.2532 98.538 75.1339 98.977 76.028C99.4161 75.1339 99.8685 74.2532 100.308 73.3591H98.977ZM98.977 73.3591V61.3492" stroke="#072811" stroke-width="2" stroke-miterlimit="10"/>
<path d="M25.1324 80.6986C25.1324 80.6986 25.1324 75.3608 29.124 75.3608C31.9581 75.3608 34.4197 75.3608 35.7369 76.7887C36.349 77.4425 36.522 78.5101 36.7349 79.3641C37.0143 80.445 37.0941 81.3658 37.1074 82.033C37.8392 81.7394 39.7552 81.0855 42.097 81.6327C44.0929 82.0997 45.3835 83.1272 45.8625 83.6476C50.4263 88.7051 50.4929 92.7751 45.144 93.4023C39.7818 94.0428 38.4513 94.0428 38.4513 94.0428C38.9968 96.2046 38.5045 98.3531 37.1207 99.3806C35.5373 100.555 33.3153 99.861 31.7985 99.3806C31.1731 99.1804 30.1752 98.8601 29.1373 98.0461C27.3544 96.6583 26.7024 94.8302 26.4762 94.0428C22.4845 95.8977 18.759 95.9511 17.1224 94.0962C16.5103 93.4023 16.1245 92.6417 16.0712 91.3873C15.9249 87.1839 16.3906 85.0888 17.4284 83.7944C18.1602 82.8737 19.0251 82.4733 19.8234 82.0463C21.939 80.9121 23.9615 80.7252 25.1457 80.7119L25.1324 80.6986Z" stroke="#072811" stroke-width="2" stroke-miterlimit="10"/>
<path d="M25.7959 35.9953C28.3107 33.4598 30.7057 31.7518 32.4487 30.6575C35.4292 28.776 41.6296 24.8795 49.746 25.3198C52.5934 25.4799 54.8953 26.1205 56.3988 26.6542" stroke="#072811" stroke-width="2" stroke-miterlimit="10"/>
<path d="M79.0189 48.0049C79.8572 50.5937 83.0905 61.5094 77.6884 73.3591C76.7437 75.4275 70.1175 89.6525 56.3994 92.0411C53.1129 92.6149 50.2921 92.3614 48.416 92.0411" stroke="#072811" stroke-width="2" stroke-miterlimit="10"/>
<path d="M23.1354 80.0312C20.8601 76.9087 17.6002 71.4509 16.4826 64.0181C16.0568 61.2024 14.4335 50.3535 21.1262 40.8391C23.2019 37.89 25.4905 35.9017 27.1271 34.6606" stroke="#072811" stroke-width="2" stroke-miterlimit="10"/>
<path d="M76.3583 27.9885C76.1986 27.6015 75.4535 26.0002 73.6971 25.3196C71.7146 24.5457 69.5857 25.3864 68.3749 26.6541C67.377 27.6949 67.1109 28.8826 67.0443 29.3229C66.725 31.2312 67.4834 33.5531 69.3994 34.7541C70.9695 35.7415 73.431 36.0751 75.0277 34.6606C76.0522 33.7532 76.2917 32.4855 76.3583 31.9918" stroke="#072811" stroke-width="2" stroke-miterlimit="10"/>
<path d="M89.6648 27.9885C88.9463 25.9068 85.7263 24.0386 83.0119 25.3196C81.0693 26.2404 79.965 28.4956 80.3508 30.6573C80.7101 32.6456 82.2934 34.3537 84.3425 34.6606C85.8727 34.8875 87.3762 34.3003 88.3342 33.3262C89.2922 32.3654 89.5317 31.2311 89.6648 30.6573C89.7712 30.1636 90.024 29.0293 89.6648 27.9885Z" stroke="#072811" stroke-width="2" stroke-miterlimit="10"/>
<path d="M94.9854 31.9919C95.1583 31.5782 95.9034 29.9635 97.6465 29.323C98.1122 29.1495 99.2698 28.7225 100.308 29.323C101.186 29.8301 101.811 30.9777 101.638 31.9919C101.372 33.5798 99.3629 33.7133 97.6465 35.9952C96.8881 37.0093 96.5022 38.0235 96.3159 38.664H102.969" stroke="#072811" stroke-width="2" stroke-miterlimit="10"/>
</svg>
