<svg width="496" height="427" viewBox="0 0 496 427" fill="none" xmlns="http://www.w3.org/2000/svg">
<path d="M61.3217 256.721L17.6419 64.2896C17.6419 64.2896 10.2925 39.5166 17.6419 31.259C24.9914 23.0013 59.9491 28.4969 142.722 23.0013C225.494 17.5057 282.865 16.4806 282.865 16.4806C282.865 16.4806 290.597 16.2528 299.719 16.6799C314.087 17.3348 321.28 17.6765 324.842 20.6664C330.385 25.3362 332.921 33.3376 334.711 39.4881C352.642 101.449 359.782 207.346 367.827 226.709C368.4 228.104 371.111 234.169 369.669 237.729C368.47 240.69 364.977 240.491 364.144 240.491C357.02 240.348 233.295 247.125 61.339 256.721H61.3217Z" stroke="#072811" stroke-miterlimit="10"/>
<path d="M357.506 248.492C358.931 248.236 360.703 248.15 362.719 248.492C365.273 248.948 367.375 249.944 368.939 250.912C402.037 275.856 480.692 336.564 482.03 355.785C482.534 363.046 480.605 366.861 480.605 366.861C478.798 370.05 474.837 370.05 466.428 370.079C452.528 370.136 216.251 382.551 216.251 382.551C216.251 382.551 151.704 385.683 146.631 382.864C141.557 380.045 71.9201 297.753 68.4278 286.392C64.9355 275.03 59.7057 260.793 73.6054 263.584C87.5051 266.374 106.617 263.441 106.617 263.441C190.258 258.458 273.9 253.475 357.524 248.492H357.506Z" stroke="#072811" stroke-miterlimit="10"/>
<path d="M354.935 229.5C354.049 224.744 352.416 215.889 350.591 204.727C350.591 204.727 330.472 81.9154 321.836 50.5363C320.829 46.8631 318.831 40.5132 314.487 36.783C312.419 34.9891 310.404 34.3342 308.962 34.021C307.676 34.021 304.983 34.021 301.612 34.021C301.612 34.021 273.657 34.1064 212.637 36.783L51.3834 42.3071C51.3834 42.3071 38.144 39.0895 34.339 48.6C32.4451 53.3553 33.7309 59.3635 34.2 61.556C37.6923 77.7866 50.3931 140.63 67.9762 226.766C69.2098 232.262 70.426 237.786 71.6596 243.281C166.091 238.697 260.521 234.112 354.952 229.528L354.935 229.5Z" stroke="#072811" stroke-miterlimit="10"/>
<path d="M485.141 396.353C487.401 391.267 484.863 383.625 482.482 378.188L481.546 375C480.381 373.429 481.047 373 478.988 373.5C409.026 376.805 335.587 385.182 265.607 387.432C224.916 388.745 187.701 389.788 146.992 390.749C102.616 350.433 77.3251 310.567 72.3538 302.48L58.3986 276.063C58.3986 271.5 50.9138 272 44.9258 279.062C45.9239 287.5 74.7838 343.5 85.8434 355.5C105.329 376.642 117.443 397.91 126.134 407.238C127.611 409.442 129.871 412.231 133.087 414.27C139.466 418.302 145.741 416.848 146.992 416.614C162.306 413.801 401.551 411.119 476.624 401.627C478.519 401.392 483.194 400.713 485.141 396.353Z" stroke="#072811" stroke-miterlimit="10"/>
<path d="M151.293 135.552C150.467 135.601 149.744 135.467 149.125 135.151C148.509 134.832 148.023 134.366 147.667 133.754C147.311 133.138 147.113 132.412 147.073 131.574C147.033 130.73 147.161 129.983 147.457 129.332C147.753 128.678 148.193 128.158 148.775 127.772C149.361 127.381 150.067 127.162 150.893 127.114C151.719 127.065 152.44 127.201 153.056 127.52C153.675 127.836 154.163 128.302 154.519 128.918C154.875 129.53 155.073 130.258 155.113 131.102C155.153 131.939 155.025 132.685 154.729 133.339C154.432 133.99 153.991 134.51 153.406 134.9C152.823 135.286 152.119 135.504 151.293 135.552ZM151.22 133.796C151.596 133.774 151.905 133.649 152.146 133.421C152.388 133.19 152.564 132.885 152.673 132.505C152.787 132.125 152.833 131.697 152.81 131.221C152.787 130.746 152.702 130.326 152.553 129.961C152.408 129.596 152.204 129.313 151.942 129.112C151.68 128.91 151.361 128.82 150.986 128.842C150.606 128.865 150.292 128.991 150.044 129.223C149.799 129.454 149.62 129.76 149.506 130.14C149.396 130.52 149.352 130.948 149.375 131.423C149.397 131.899 149.481 132.319 149.627 132.684C149.775 133.048 149.983 133.331 150.248 133.533C150.517 133.73 150.841 133.818 151.22 133.796ZM163.743 126.466L161.274 134.806L158.722 134.956L155.479 126.951L157.872 126.81L159.845 132.558L159.93 132.553L161.344 126.606L163.743 126.466ZM168.756 134.527C167.916 134.576 167.184 134.448 166.562 134.143C165.943 133.835 165.456 133.376 165.1 132.767C164.744 132.155 164.545 131.418 164.504 130.556C164.464 129.715 164.593 128.968 164.889 128.314C165.185 127.66 165.62 127.138 166.195 126.748C166.774 126.359 167.464 126.14 168.265 126.093C168.804 126.062 169.31 126.119 169.783 126.266C170.259 126.408 170.678 126.642 171.042 126.965C171.409 127.289 171.703 127.705 171.923 128.215C172.142 128.722 172.268 129.323 172.301 130.018L172.331 130.64L165.434 131.046L165.367 129.641L170.132 129.361C170.116 129.035 170.032 128.75 169.878 128.506C169.724 128.263 169.518 128.077 169.26 127.95C169.005 127.819 168.712 127.764 168.383 127.783C168.039 127.803 167.738 127.901 167.48 128.076C167.225 128.248 167.029 128.471 166.893 128.746C166.756 129.017 166.694 129.314 166.706 129.637L166.769 130.972C166.788 131.377 166.879 131.722 167.042 132.008C167.208 132.293 167.434 132.507 167.718 132.651C168.002 132.794 168.333 132.855 168.713 132.832C168.964 132.818 169.193 132.769 169.399 132.685C169.605 132.602 169.779 132.485 169.921 132.335C170.063 132.184 170.168 132.004 170.237 131.793L172.338 131.808C172.256 132.318 172.059 132.771 171.747 133.166C171.438 133.558 171.03 133.874 170.522 134.113C170.018 134.349 169.429 134.487 168.756 134.527ZM173.975 134.06L173.588 125.887L175.784 125.758L175.852 127.184L175.937 127.179C176.062 126.663 176.293 126.266 176.632 125.986C176.971 125.703 177.368 125.548 177.826 125.521C177.939 125.514 178.062 125.514 178.194 125.521C178.326 125.527 178.442 125.54 178.542 125.559L178.637 127.57C178.53 127.545 178.381 127.525 178.192 127.511C178.003 127.497 177.83 127.495 177.674 127.504C177.341 127.524 177.047 127.614 176.791 127.775C176.539 127.932 176.343 128.142 176.203 128.407C176.066 128.671 176.006 128.97 176.021 129.303L176.241 133.927L173.975 134.06ZM180.145 133.698L179.629 122.801L181.894 122.668L182.088 126.765L182.157 126.761C182.246 126.535 182.379 126.303 182.556 126.065C182.737 125.823 182.976 125.617 183.273 125.446C183.574 125.272 183.953 125.172 184.411 125.145C185.006 125.11 185.563 125.234 186.081 125.516C186.599 125.795 187.024 126.238 187.355 126.845C187.686 127.448 187.873 128.218 187.917 129.154C187.961 130.066 187.85 130.844 187.586 131.489C187.324 132.13 186.95 132.627 186.462 132.98C185.977 133.328 185.424 133.521 184.804 133.557C184.364 133.583 183.987 133.532 183.672 133.405C183.36 133.278 183.101 133.11 182.896 132.901C182.69 132.689 182.531 132.473 182.417 132.252L182.316 132.257L182.378 133.566L180.145 133.698ZM182.169 129.481C182.192 129.967 182.279 130.387 182.431 130.741C182.583 131.095 182.791 131.365 183.056 131.552C183.321 131.736 183.636 131.817 184.001 131.796C184.369 131.774 184.677 131.655 184.922 131.437C185.168 131.217 185.347 130.922 185.462 130.552C185.579 130.179 185.626 129.755 185.604 129.279C185.581 128.807 185.496 128.396 185.348 128.046C185.2 127.695 184.993 127.426 184.729 127.239C184.464 127.052 184.145 126.969 183.773 126.991C183.404 127.013 183.097 127.129 182.851 127.339C182.609 127.549 182.428 127.837 182.311 128.203C182.193 128.569 182.146 128.995 182.169 129.481ZM193.352 133.082C192.512 133.131 191.781 133.003 191.158 132.699C190.539 132.39 190.052 131.931 189.696 131.322C189.34 130.71 189.141 129.973 189.101 129.111C189.061 128.271 189.189 127.523 189.485 126.869C189.781 126.215 190.217 125.693 190.792 125.304C191.371 124.914 192.06 124.696 192.862 124.649C193.4 124.617 193.906 124.674 194.379 124.821C194.855 124.964 195.275 125.197 195.638 125.52C196.006 125.844 196.299 126.261 196.519 126.771C196.738 127.277 196.865 127.878 196.898 128.573L196.927 129.196L190.03 129.601L189.964 128.196L194.728 127.916C194.713 127.59 194.628 127.305 194.474 127.061C194.321 126.818 194.115 126.633 193.856 126.506C193.601 126.375 193.309 126.319 192.979 126.338C192.635 126.359 192.334 126.456 192.076 126.631C191.821 126.803 191.625 127.026 191.489 127.301C191.353 127.572 191.29 127.869 191.302 128.192L191.365 129.528C191.384 129.932 191.475 130.277 191.638 130.563C191.805 130.848 192.03 131.063 192.314 131.206C192.598 131.349 192.93 131.41 193.309 131.388C193.561 131.373 193.789 131.324 193.995 131.241C194.201 131.157 194.375 131.041 194.517 130.89C194.659 130.739 194.765 130.559 194.833 130.348L196.934 130.364C196.852 130.874 196.655 131.326 196.343 131.722C196.034 132.113 195.626 132.429 195.119 132.669C194.614 132.905 194.026 133.042 193.352 133.082ZM200.32 121.585L200.837 132.482L198.572 132.615L198.055 121.718L200.32 121.585ZM204.988 132.393C204.467 132.424 203.998 132.361 203.582 132.204C203.165 132.043 202.83 131.791 202.575 131.446C202.324 131.098 202.186 130.655 202.16 130.115C202.139 129.661 202.204 129.275 202.356 128.957C202.508 128.638 202.723 128.377 203.001 128.172C203.28 127.967 203.599 127.806 203.96 127.689C204.324 127.571 204.707 127.481 205.109 127.419C205.582 127.341 205.963 127.272 206.251 127.213C206.54 127.15 206.748 127.07 206.875 126.973C207.002 126.877 207.061 126.742 207.053 126.568L207.051 126.536C207.035 126.199 206.916 125.945 206.695 125.773C206.477 125.601 206.175 125.526 205.789 125.549C205.381 125.573 205.061 125.682 204.828 125.877C204.596 126.069 204.447 126.301 204.382 126.576L202.278 126.528C202.361 126.026 202.55 125.584 202.845 125.204C203.139 124.82 203.529 124.516 204.012 124.292C204.499 124.065 205.068 123.931 205.721 123.893C206.175 123.867 206.611 123.894 207.031 123.976C207.455 124.058 207.833 124.201 208.166 124.406C208.503 124.61 208.773 124.882 208.978 125.223C209.182 125.559 209.296 125.97 209.319 126.456L209.58 131.969L207.432 132.095L207.378 130.961L207.314 130.965C207.195 131.228 207.03 131.464 206.82 131.672C206.609 131.876 206.352 132.043 206.049 132.171C205.746 132.295 205.392 132.369 204.988 132.393ZM205.562 130.791C205.896 130.771 206.187 130.688 206.436 130.542C206.685 130.392 206.876 130.2 207.011 129.964C207.146 129.728 207.206 129.467 207.192 129.18L207.151 128.312C207.083 128.363 206.987 128.411 206.865 128.457C206.746 128.5 206.611 128.541 206.46 128.582C206.309 128.62 206.158 128.655 206.007 128.689C205.855 128.719 205.718 128.747 205.595 128.772C205.331 128.827 205.101 128.902 204.907 128.999C204.712 129.096 204.564 129.22 204.461 129.372C204.358 129.52 204.311 129.701 204.321 129.914C204.336 130.222 204.459 130.452 204.69 130.602C204.924 130.748 205.215 130.811 205.562 130.791ZM217.857 125.624L215.789 125.874C215.745 125.698 215.661 125.543 215.537 125.408C215.414 125.27 215.254 125.163 215.058 125.089C214.866 125.012 214.639 124.981 214.377 124.996C214.026 125.017 213.733 125.109 213.499 125.272C213.265 125.431 213.154 125.633 213.165 125.878C213.175 126.073 213.261 126.234 213.423 126.359C213.585 126.485 213.858 126.577 214.241 126.637L215.734 126.848C216.535 126.964 217.14 127.192 217.547 127.531C217.954 127.87 218.172 128.334 218.2 128.923C218.225 129.458 218.089 129.937 217.793 130.36C217.5 130.783 217.086 131.124 216.551 131.383C216.019 131.638 215.399 131.787 214.69 131.829C213.609 131.892 212.737 131.717 212.074 131.305C211.414 130.888 211.011 130.293 210.864 129.519L213.086 129.271C213.169 129.597 213.344 129.839 213.611 129.998C213.878 130.153 214.214 130.218 214.618 130.195C215.015 130.171 215.33 130.076 215.564 129.91C215.801 129.739 215.916 129.532 215.908 129.287C215.895 129.081 215.8 128.918 215.623 128.796C215.447 128.672 215.18 128.584 214.822 128.534L213.394 128.335C212.589 128.222 211.982 127.981 211.573 127.61C211.168 127.239 210.951 126.748 210.922 126.138C210.897 125.613 211.018 125.152 211.283 124.756C211.552 124.36 211.941 124.044 212.449 123.807C212.96 123.571 213.565 123.432 214.263 123.391C215.295 123.331 216.117 123.501 216.73 123.903C217.346 124.304 217.722 124.878 217.857 125.624ZM223.703 122.944L223.784 124.646L218.865 124.935L218.784 123.233L223.703 122.944ZM219.808 121.209L222.074 121.076L222.435 128.695C222.445 128.904 222.484 129.066 222.554 129.179C222.623 129.289 222.715 129.363 222.831 129.403C222.95 129.442 223.086 129.457 223.238 129.448C223.345 129.442 223.45 129.427 223.556 129.403C223.661 129.375 223.742 129.355 223.798 129.341L224.234 131.006C224.123 131.049 223.965 131.099 223.762 131.157C223.558 131.219 223.31 131.264 223.016 131.291C222.471 131.345 221.989 131.3 221.57 131.158C221.155 131.015 220.825 130.775 220.582 130.437C220.338 130.099 220.205 129.662 220.183 129.126L219.808 121.209ZM229.208 130.976C228.368 131.025 227.637 130.897 227.014 130.592C226.395 130.284 225.908 129.825 225.552 129.216C225.196 128.604 224.998 127.867 224.957 127.005C224.917 126.164 225.045 125.417 225.341 124.763C225.637 124.109 226.073 123.587 226.648 123.198C227.227 122.808 227.917 122.589 228.718 122.542C229.257 122.511 229.762 122.568 230.235 122.715C230.711 122.857 231.131 123.091 231.495 123.414C231.862 123.738 232.155 124.155 232.375 124.665C232.595 125.171 232.721 125.772 232.754 126.467L232.783 127.09L225.886 127.495L225.82 126.09L230.584 125.81C230.569 125.484 230.484 125.199 230.331 124.955C230.177 124.712 229.971 124.527 229.712 124.399C229.457 124.269 229.165 124.213 228.835 124.232C228.491 124.252 228.19 124.35 227.932 124.525C227.677 124.697 227.481 124.92 227.345 125.195C227.209 125.466 227.146 125.763 227.158 126.086L227.221 127.422C227.241 127.826 227.332 128.171 227.494 128.457C227.661 128.742 227.886 128.957 228.17 129.1C228.454 129.243 228.786 129.304 229.165 129.282C229.417 129.267 229.646 129.218 229.851 129.135C230.057 129.051 230.231 128.934 230.373 128.784C230.516 128.633 230.621 128.453 230.689 128.242L232.791 128.258C232.708 128.768 232.511 129.22 232.199 129.616C231.891 130.007 231.483 130.323 230.975 130.563C230.471 130.798 229.882 130.936 229.208 130.976ZM238.385 122.081L238.466 123.784L233.547 124.073L233.466 122.37L238.385 122.081ZM234.49 120.347L236.755 120.214L237.116 127.833C237.126 128.042 237.166 128.203 237.235 128.317C237.304 128.426 237.397 128.501 237.512 128.541C237.632 128.58 237.767 128.595 237.92 128.586C238.026 128.58 238.132 128.565 238.238 128.541C238.343 128.513 238.424 128.492 238.48 128.478L238.916 130.144C238.804 130.186 238.647 130.236 238.443 130.295C238.24 130.356 237.992 130.401 237.698 130.429C237.153 130.482 236.671 130.438 236.252 130.295C235.836 130.152 235.507 129.912 235.263 129.574C235.02 129.236 234.887 128.8 234.865 128.264L234.49 120.347Z" fill="#072811"/>
<path d="M162.831 115.711L163.125 120.747L160.71 120.916L160.032 109.299L162.378 109.136L162.638 113.577L162.74 113.57C162.906 113.042 163.2 112.617 163.621 112.295C164.043 111.97 164.584 111.784 165.245 111.738C165.85 111.696 166.384 111.791 166.85 112.024C167.318 112.254 167.692 112.605 167.97 113.08C168.251 113.55 168.41 114.125 168.446 114.806L168.77 120.354L166.355 120.522L166.057 115.406C166.029 114.869 165.869 114.46 165.575 114.181C165.286 113.901 164.896 113.778 164.404 113.812C164.076 113.835 163.789 113.926 163.544 114.083C163.302 114.241 163.118 114.458 162.99 114.737C162.866 115.011 162.813 115.336 162.831 115.711ZM173.162 120.212C172.607 120.251 172.106 120.189 171.661 120.027C171.215 119.86 170.854 119.595 170.578 119.231C170.306 118.863 170.154 118.391 170.12 117.816C170.092 117.332 170.157 116.919 170.315 116.578C170.474 116.237 170.7 115.955 170.994 115.733C171.289 115.512 171.628 115.336 172.011 115.207C172.398 115.077 172.806 114.977 173.234 114.905C173.737 114.817 174.142 114.739 174.45 114.672C174.757 114.601 174.977 114.514 175.111 114.41C175.246 114.305 175.308 114.161 175.297 113.975L175.295 113.941C175.274 113.582 175.144 113.312 174.906 113.131C174.672 112.95 174.348 112.874 173.936 112.903C173.502 112.933 173.162 113.053 172.916 113.264C172.67 113.471 172.514 113.721 172.448 114.015L170.204 113.989C170.286 113.452 170.483 112.978 170.793 112.569C171.102 112.157 171.514 111.828 172.027 111.584C172.544 111.335 173.15 111.186 173.845 111.138C174.328 111.104 174.795 111.128 175.243 111.211C175.696 111.293 176.101 111.442 176.459 111.656C176.82 111.87 177.112 112.157 177.334 112.518C177.556 112.874 177.682 113.311 177.713 113.83L178.056 119.706L175.766 119.866L175.695 118.657L175.627 118.662C175.503 118.944 175.33 119.197 175.108 119.422C174.886 119.642 174.614 119.823 174.292 119.963C173.97 120.099 173.593 120.182 173.162 120.212ZM173.757 118.497C174.112 118.472 174.421 118.38 174.685 118.221C174.949 118.058 175.151 117.851 175.292 117.598C175.433 117.345 175.494 117.065 175.476 116.759L175.422 115.835C175.35 115.889 175.248 115.942 175.119 115.992C174.992 116.039 174.849 116.085 174.688 116.131C174.528 116.172 174.367 116.212 174.206 116.25C174.045 116.284 173.899 116.315 173.767 116.343C173.486 116.404 173.243 116.488 173.037 116.593C172.83 116.699 172.673 116.833 172.565 116.996C172.457 117.156 172.409 117.349 172.422 117.576C172.442 117.905 172.575 118.148 172.823 118.305C173.075 118.459 173.386 118.522 173.757 118.497ZM179.929 119.575L179.42 110.863L181.761 110.699L181.85 112.22L181.941 112.213C182.068 111.661 182.31 111.235 182.668 110.932C183.026 110.626 183.449 110.456 183.936 110.422C184.057 110.414 184.188 110.413 184.329 110.418C184.469 110.423 184.593 110.436 184.701 110.455L184.826 112.599C184.71 112.573 184.552 112.553 184.35 112.541C184.148 112.528 183.964 112.528 183.798 112.539C183.443 112.564 183.13 112.664 182.859 112.838C182.592 113.009 182.385 113.236 182.239 113.52C182.096 113.803 182.035 114.122 182.056 114.478L182.344 119.407L179.929 119.575ZM189.271 119.066C188.61 119.112 188.001 118.984 187.445 118.681C186.892 118.374 186.439 117.899 186.087 117.255C185.738 116.607 185.535 115.797 185.478 114.826C185.42 113.827 185.532 112.986 185.814 112.302C186.097 111.614 186.495 111.087 187.008 110.721C187.525 110.351 188.103 110.143 188.742 110.099C189.229 110.065 189.64 110.12 189.975 110.263C190.313 110.403 190.59 110.589 190.804 110.82C191.023 111.048 191.191 111.276 191.311 111.503L191.385 111.498L191.13 107.13L193.538 106.962L194.217 118.579L191.836 118.745L191.755 117.349L191.653 117.356C191.553 117.606 191.407 117.858 191.213 118.11C191.023 118.359 190.768 118.572 190.448 118.75C190.132 118.928 189.74 119.033 189.271 119.066ZM189.924 117.09C190.313 117.063 190.636 116.934 190.892 116.703C191.151 116.469 191.342 116.154 191.463 115.758C191.587 115.362 191.635 114.905 191.604 114.387C191.574 113.869 191.476 113.424 191.31 113.052C191.144 112.68 190.919 112.4 190.635 112.211C190.351 112.022 190.014 111.941 189.625 111.968C189.228 111.995 188.9 112.127 188.641 112.361C188.381 112.596 188.193 112.909 188.075 113.3C187.958 113.692 187.914 114.139 187.943 114.642C187.973 115.149 188.069 115.592 188.231 115.972C188.397 116.348 188.621 116.636 188.902 116.836C189.187 117.033 189.527 117.117 189.924 117.09ZM199.418 118.358C198.757 118.404 198.148 118.276 197.592 117.973C197.039 117.666 196.586 117.191 196.234 116.547C195.885 115.899 195.682 115.09 195.625 114.118C195.567 113.119 195.679 112.278 195.962 111.594C196.244 110.906 196.642 110.379 197.155 110.013C197.673 109.643 198.25 109.435 198.889 109.391C199.377 109.357 199.788 109.412 200.122 109.555C200.461 109.695 200.737 109.881 200.952 110.113C201.17 110.34 201.339 110.568 201.458 110.795L201.532 110.79L201.277 106.422L203.686 106.254L204.364 117.871L201.983 118.037L201.902 116.641L201.8 116.649C201.701 116.898 201.554 117.15 201.36 117.403C201.17 117.651 200.915 117.865 200.595 118.043C200.279 118.22 199.887 118.325 199.418 118.358ZM200.071 116.382C200.461 116.355 200.783 116.226 201.039 115.995C201.298 115.761 201.489 115.446 201.61 115.05C201.735 114.654 201.782 114.197 201.752 113.679C201.721 113.161 201.623 112.716 201.457 112.344C201.292 111.972 201.067 111.692 200.782 111.503C200.498 111.314 200.161 111.233 199.772 111.26C199.375 111.288 199.047 111.419 198.788 111.653C198.528 111.888 198.34 112.201 198.222 112.593C198.105 112.984 198.061 113.431 198.09 113.934C198.12 114.441 198.216 114.884 198.378 115.264C198.544 115.64 198.768 115.928 199.049 116.129C199.334 116.325 199.675 116.41 200.071 116.382ZM206.349 117.732L205.84 109.02L208.255 108.851L208.764 117.564L206.349 117.732ZM206.988 107.812C206.629 107.837 206.314 107.74 206.043 107.519C205.776 107.295 205.632 107.014 205.613 106.678C205.593 106.345 205.703 106.051 205.942 105.795C206.185 105.535 206.486 105.392 206.845 105.367C207.204 105.342 207.517 105.442 207.785 105.666C208.055 105.887 208.201 106.163 208.22 106.496C208.24 106.833 208.128 107.131 207.885 107.391C207.646 107.647 207.347 107.787 206.988 107.812ZM217.578 110.696L215.376 110.986C215.327 110.799 215.236 110.635 215.102 110.492C214.968 110.346 214.797 110.235 214.587 110.158C214.382 110.078 214.139 110.047 213.859 110.067C213.485 110.093 213.174 110.194 212.927 110.371C212.679 110.544 212.562 110.761 212.578 111.022C212.59 111.23 212.683 111.4 212.858 111.532C213.032 111.664 213.324 111.759 213.734 111.818L215.328 112.026C216.185 112.141 216.832 112.376 217.27 112.733C217.708 113.09 217.946 113.582 217.983 114.21C218.016 114.781 217.877 115.294 217.566 115.748C217.258 116.202 216.821 116.571 216.253 116.853C215.689 117.132 215.029 117.298 214.273 117.35C213.121 117.431 212.188 117.255 211.476 116.822C210.768 116.386 210.331 115.755 210.165 114.932L212.533 114.641C212.625 114.988 212.815 115.244 213.101 115.41C213.388 115.573 213.746 115.639 214.177 115.609C214.6 115.579 214.936 115.474 215.183 115.294C215.434 115.109 215.554 114.886 215.542 114.625C215.526 114.406 215.423 114.233 215.233 114.105C215.044 113.974 214.757 113.884 214.375 113.835L212.85 113.64C211.99 113.529 211.34 113.278 210.899 112.887C210.463 112.496 210.226 111.975 210.188 111.325C210.155 110.765 210.278 110.273 210.557 109.847C210.839 109.421 211.25 109.079 211.789 108.821C212.332 108.563 212.975 108.408 213.72 108.356C214.819 108.28 215.698 108.452 216.356 108.873C217.018 109.294 217.425 109.901 217.578 110.696ZM221.702 114.144L221.539 111.245L221.89 111.221L224.486 107.719L227.257 107.526L223.766 112.166L223.194 112.206L221.702 114.144ZM219.661 116.804L218.982 105.187L221.397 105.019L222.075 116.635L219.661 116.804ZM225.102 116.424L222.318 112.808L223.828 110.989L227.93 116.227L225.102 116.424Z" fill="#072811"/>
<rect x="116.531" y="102.061" width="149.978" height="80.2645" rx="7.5" transform="rotate(-3.64338 116.531 102.061)" stroke="#072811"/>
<path d="M214.542 157.379L214.597 158.23L211.212 158.449L211.157 157.598L214.542 157.379ZM212.042 155.97L213.046 155.905L213.449 162.13C213.467 162.414 213.522 162.624 213.614 162.76C213.708 162.894 213.821 162.98 213.955 163.02C214.091 163.057 214.233 163.07 214.38 163.061C214.491 163.054 214.581 163.042 214.651 163.026C214.721 163.007 214.777 162.992 214.819 162.981L215.082 163.869C215.015 163.899 214.922 163.931 214.802 163.964C214.682 164.001 214.528 164.025 214.341 164.037C214.058 164.055 213.776 164.012 213.496 163.908C213.218 163.804 212.982 163.632 212.788 163.394C212.596 163.156 212.488 162.847 212.463 162.467L212.042 155.97ZM217.125 164.13L216.45 163.73L220.571 156.681L221.246 157.082L217.125 164.13ZM219.067 163.782C218.477 163.82 217.951 163.713 217.487 163.462C217.027 163.21 216.656 162.839 216.373 162.351C216.094 161.862 215.933 161.281 215.889 160.606C215.845 159.925 215.93 159.324 216.143 158.8C216.36 158.276 216.68 157.86 217.105 157.551C217.531 157.241 218.04 157.067 218.629 157.029C219.219 156.991 219.744 157.098 220.205 157.35C220.668 157.602 221.039 157.974 221.319 158.465C221.601 158.956 221.764 159.542 221.808 160.223C221.852 160.897 221.765 161.495 221.549 162.016C221.335 162.536 221.014 162.951 220.587 163.261C220.163 163.57 219.656 163.744 219.067 163.782ZM219.008 162.881C219.456 162.852 219.817 162.713 220.092 162.465C220.366 162.216 220.56 161.9 220.675 161.517C220.79 161.134 220.833 160.724 220.805 160.288C220.776 159.851 220.681 159.449 220.517 159.081C220.354 158.713 220.12 158.422 219.816 158.208C219.512 157.994 219.136 157.902 218.688 157.931C218.24 157.96 217.879 158.1 217.605 158.351C217.331 158.602 217.136 158.921 217.022 159.307C216.907 159.693 216.864 160.104 216.892 160.541C216.921 160.977 217.016 161.378 217.18 161.744C217.343 162.109 217.576 162.397 217.88 162.608C218.184 162.819 218.56 162.91 219.008 162.881ZM223.55 163.355L223.127 156.823L224.096 156.761L224.162 157.781L224.247 157.776C224.361 157.418 224.563 157.133 224.854 156.921C225.145 156.706 225.502 156.584 225.928 156.557C226.359 156.529 226.724 156.603 227.023 156.78C227.324 156.954 227.567 157.211 227.751 157.549L227.819 157.544C227.965 157.196 228.198 156.912 228.52 156.692C228.841 156.469 229.236 156.342 229.704 156.312C230.288 156.274 230.777 156.426 231.172 156.768C231.567 157.107 231.79 157.66 231.839 158.429L232.122 162.8L231.119 162.865L230.836 158.494C230.805 158.012 230.651 157.676 230.373 157.486C230.096 157.296 229.779 157.213 229.422 157.236C228.963 157.265 228.616 157.427 228.382 157.722C228.147 158.013 228.044 158.37 228.071 158.792L228.346 163.045L227.326 163.111L227.036 158.637C227.012 158.266 226.872 157.974 226.616 157.763C226.361 157.549 226.043 157.455 225.663 157.479C225.402 157.496 225.163 157.581 224.945 157.735C224.73 157.888 224.561 158.093 224.438 158.348C224.318 158.601 224.268 158.888 224.289 159.208L224.553 163.29L223.55 163.355Z" fill="#072811"/>
<rect x="189.432" y="152.628" width="63" height="20" rx="1.5" transform="rotate(-4.00129 189.432 152.628)" stroke="#072811"/>
</svg>
