<svg width="497" height="427" viewBox="0 0 497 427" fill="none" xmlns="http://www.w3.org/2000/svg">
<path d="M435.555 256.722L479.323 64.2897C479.323 64.2897 486.687 39.5167 479.323 31.2591C471.958 23.0014 436.93 28.497 353.991 23.0014C271.051 17.5058 213.565 16.4807 213.565 16.4807C213.565 16.4807 205.817 16.2529 196.677 16.68C182.28 17.335 175.072 17.6767 171.503 20.6665C165.949 25.3363 163.407 33.3377 161.614 39.4883C143.648 101.449 136.492 207.346 128.432 226.709C127.857 228.104 125.141 234.17 126.586 237.729C127.787 240.69 131.287 240.491 132.122 240.491C139.26 240.349 263.234 247.126 435.537 256.722H435.555Z" stroke="#072811" stroke-miterlimit="10"/>
<path d="M138.773 248.492C137.345 248.236 135.569 248.151 133.55 248.492C130.991 248.948 128.884 249.944 127.317 250.913C94.152 275.856 15.3386 336.564 13.9981 355.785C13.4932 363.046 15.4257 366.861 15.4257 366.861C17.2363 370.051 21.2057 370.051 29.6319 370.079C43.5596 370.136 280.313 382.551 280.313 382.551C280.313 382.551 344.99 385.683 350.073 382.864C355.157 380.045 424.935 297.753 428.434 286.392C431.934 275.031 437.174 260.793 423.246 263.584C409.318 266.374 390.168 263.441 390.168 263.441C306.358 258.458 222.548 253.475 138.755 248.492H138.773Z" stroke="#072811" stroke-miterlimit="10"/>
<path d="M141.349 229.5C142.237 224.744 143.874 215.889 145.702 204.727C145.702 204.727 165.862 81.9155 174.515 50.5364C175.525 46.8632 177.527 40.5133 181.879 36.7832C183.951 34.9893 185.97 34.3343 187.415 34.0211C188.704 34.0211 191.402 34.0211 194.78 34.0211C194.78 34.0211 222.792 34.1065 283.934 36.7832L445.513 42.3072C445.513 42.3072 458.779 39.0896 462.592 48.6002C464.489 53.3554 463.201 59.3636 462.731 61.5561C459.232 77.7867 446.505 140.63 428.887 226.766C427.651 232.262 426.432 237.786 425.196 243.281C330.575 238.697 235.953 234.113 141.332 229.528L141.349 229.5Z" stroke="#072811" stroke-miterlimit="10"/>
<path d="M265.228 133.397C264.403 133.347 263.701 133.127 263.124 132.739C262.551 132.348 262.125 131.827 261.844 131.177C261.565 130.523 261.455 129.778 261.516 128.942C261.578 128.099 261.795 127.373 262.167 126.762C262.539 126.148 263.038 125.685 263.662 125.371C264.291 125.054 265.018 124.921 265.844 124.972C266.67 125.023 267.369 125.244 267.942 125.635C268.519 126.022 268.947 126.543 269.227 127.197C269.507 127.848 269.617 128.595 269.555 129.438C269.494 130.274 269.277 130.998 268.905 131.612C268.533 132.223 268.033 132.686 267.404 133.003C266.78 133.317 266.054 133.448 265.228 133.397ZM265.367 131.645C265.743 131.668 266.064 131.581 266.331 131.384C266.599 131.184 266.81 130.901 266.965 130.537C267.123 130.174 267.219 129.754 267.254 129.28C267.289 128.805 267.254 128.378 267.15 127.998C267.05 127.618 266.881 127.313 266.646 127.081C266.41 126.849 266.104 126.722 265.728 126.699C265.349 126.676 265.022 126.764 264.748 126.964C264.477 127.164 264.262 127.446 264.104 127.81C263.949 128.174 263.854 128.593 263.82 129.068C263.785 129.543 263.818 129.97 263.918 130.35C264.022 130.73 264.194 131.035 264.433 131.267C264.677 131.496 264.988 131.622 265.367 131.645ZM278.678 125.87L275.227 133.854L272.675 133.696L270.416 125.36L272.809 125.508L274.078 131.451L274.163 131.456L276.28 125.722L278.678 125.87ZM282.688 134.474C281.848 134.422 281.138 134.207 280.556 133.83C279.979 133.449 279.55 132.936 279.27 132.289C278.99 131.638 278.881 130.882 278.944 130.022C279.005 129.182 279.222 128.456 279.594 127.842C279.967 127.228 280.462 126.762 281.08 126.445C281.701 126.127 282.412 125.993 283.213 126.043C283.752 126.076 284.247 126.193 284.699 126.396C285.154 126.594 285.543 126.876 285.865 127.241C286.191 127.606 286.432 128.055 286.589 128.588C286.746 129.117 286.8 129.729 286.749 130.423L286.704 131.045L279.808 130.619L279.91 129.217L284.674 129.511C284.698 129.185 284.648 128.892 284.525 128.632C284.401 128.371 284.219 128.163 283.978 128.005C283.74 127.845 283.457 127.755 283.127 127.734C282.783 127.713 282.472 127.774 282.195 127.917C281.921 128.057 281.7 128.255 281.532 128.511C281.364 128.764 281.267 129.051 281.239 129.374L281.142 130.707C281.113 131.111 281.162 131.464 281.289 131.767C281.42 132.071 281.618 132.311 281.883 132.487C282.147 132.663 282.47 132.763 282.849 132.787C283.1 132.802 283.333 132.781 283.548 132.723C283.762 132.665 283.949 132.57 284.108 132.437C284.267 132.305 284.393 132.138 284.486 131.938L286.571 132.205C286.428 132.701 286.178 133.127 285.821 133.482C285.467 133.834 285.025 134.098 284.492 134.275C283.963 134.449 283.362 134.515 282.688 134.474ZM287.926 134.637L288.522 126.477L290.718 126.612L290.614 128.036L290.699 128.041C290.885 127.544 291.162 127.177 291.532 126.94C291.902 126.699 292.316 126.593 292.773 126.621C292.886 126.628 293.008 126.643 293.138 126.665C293.268 126.687 293.382 126.714 293.48 126.745L293.333 128.753C293.229 128.715 293.084 128.677 292.898 128.641C292.712 128.604 292.541 128.581 292.385 128.572C292.052 128.551 291.749 128.605 291.476 128.735C291.207 128.86 290.987 129.046 290.816 129.292C290.648 129.537 290.552 129.827 290.528 130.16L290.191 134.776L287.926 134.637ZM294.095 135.017L294.889 124.137L297.154 124.276L296.855 128.367L296.924 128.371C297.04 128.158 297.2 127.944 297.404 127.729C297.612 127.51 297.874 127.334 298.19 127.201C298.51 127.064 298.898 127.009 299.356 127.038C299.951 127.074 300.489 127.264 300.97 127.607C301.45 127.946 301.819 128.436 302.074 129.078C302.33 129.717 302.424 130.503 302.356 131.438C302.29 132.349 302.086 133.108 301.746 133.717C301.41 134.322 300.979 134.771 300.452 135.062C299.929 135.35 299.357 135.475 298.737 135.437C298.297 135.409 297.929 135.314 297.631 135.15C297.337 134.986 297.1 134.788 296.921 134.556C296.743 134.321 296.61 134.087 296.524 133.854L296.423 133.848L296.328 135.155L294.095 135.017ZM296.61 131.074C296.574 131.559 296.611 131.986 296.719 132.356C296.827 132.725 297.002 133.019 297.242 133.236C297.483 133.451 297.786 133.569 298.151 133.591C298.519 133.614 298.839 133.532 299.109 133.346C299.379 133.156 299.593 132.885 299.75 132.532C299.911 132.175 300.009 131.76 300.044 131.285C300.079 130.814 300.043 130.396 299.938 130.03C299.833 129.664 299.66 129.373 299.42 129.155C299.18 128.937 298.873 128.817 298.501 128.794C298.132 128.771 297.813 128.85 297.544 129.029C297.278 129.208 297.065 129.472 296.904 129.822C296.743 130.171 296.645 130.588 296.61 131.074ZM307.28 135.99C306.44 135.938 305.73 135.724 305.148 135.346C304.571 134.965 304.142 134.452 303.862 133.805C303.582 133.154 303.473 132.399 303.536 131.538C303.597 130.698 303.814 129.972 304.186 129.358C304.559 128.744 305.054 128.278 305.671 127.961C306.293 127.643 307.004 127.509 307.805 127.559C308.344 127.592 308.839 127.709 309.291 127.912C309.746 128.11 310.135 128.392 310.457 128.757C310.783 129.123 311.024 129.571 311.181 130.104C311.338 130.633 311.392 131.245 311.341 131.939L311.296 132.561L304.4 132.135L304.502 130.733L309.266 131.027C309.29 130.701 309.24 130.408 309.117 130.148C308.993 129.887 308.811 129.679 308.57 129.522C308.332 129.361 308.049 129.271 307.719 129.25C307.375 129.229 307.064 129.29 306.787 129.433C306.513 129.573 306.292 129.771 306.124 130.027C305.956 130.28 305.859 130.568 305.831 130.89L305.734 132.223C305.705 132.627 305.754 132.98 305.881 133.283C306.012 133.587 306.21 133.827 306.475 134.003C306.739 134.179 307.062 134.279 307.441 134.303C307.692 134.318 307.925 134.297 308.14 134.239C308.354 134.181 308.541 134.086 308.7 133.953C308.859 133.821 308.985 133.654 309.078 133.454L311.163 133.721C311.02 134.217 310.77 134.643 310.413 134.998C310.059 135.35 309.616 135.614 309.084 135.792C308.555 135.965 307.954 136.031 307.28 135.99ZM315.577 125.412L314.783 136.292L312.518 136.153L313.312 125.273L315.577 125.412ZM318.915 136.702C318.394 136.67 317.936 136.551 317.541 136.345C317.147 136.136 316.845 135.845 316.633 135.473C316.426 135.097 316.342 134.64 316.381 134.101C316.414 133.648 316.525 133.273 316.714 132.975C316.903 132.677 317.148 132.443 317.449 132.273C317.75 132.103 318.086 131.981 318.458 131.908C318.834 131.835 319.225 131.792 319.632 131.778C320.111 131.757 320.497 131.735 320.79 131.71C321.084 131.682 321.3 131.628 321.438 131.548C321.575 131.467 321.651 131.34 321.663 131.167L321.666 131.135C321.69 130.798 321.603 130.531 321.404 130.334C321.208 130.137 320.917 130.027 320.531 130.003C320.123 129.978 319.792 130.048 319.538 130.214C319.284 130.376 319.108 130.589 319.011 130.854L316.928 130.554C317.071 130.065 317.311 129.65 317.649 129.307C317.988 128.962 318.411 128.707 318.918 128.543C319.428 128.375 320.01 128.311 320.662 128.351C321.116 128.379 321.546 128.459 321.953 128.591C322.363 128.723 322.722 128.91 323.028 129.153C323.338 129.397 323.574 129.699 323.736 130.062C323.899 130.42 323.962 130.842 323.927 131.327L323.525 136.831L321.377 136.699L321.459 135.567L321.396 135.563C321.246 135.81 321.054 136.024 320.82 136.206C320.586 136.383 320.311 136.518 319.995 136.608C319.679 136.696 319.319 136.727 318.915 136.702ZM319.677 135.18C320.01 135.2 320.309 135.153 320.574 135.038C320.839 134.919 321.053 134.751 321.215 134.533C321.376 134.315 321.468 134.063 321.489 133.776L321.552 132.91C321.478 132.952 321.377 132.988 321.25 133.02C321.127 133.048 320.988 133.073 320.834 133.095C320.679 133.114 320.525 133.131 320.371 133.147C320.217 133.159 320.077 133.17 319.952 133.18C319.683 133.202 319.446 133.25 319.241 133.323C319.037 133.395 318.874 133.501 318.754 133.639C318.634 133.774 318.566 133.948 318.55 134.161C318.528 134.469 318.622 134.711 318.833 134.888C319.049 135.061 319.33 135.158 319.677 135.18ZM332.502 131.525L330.42 131.525C330.397 131.346 330.333 131.182 330.226 131.033C330.12 130.88 329.974 130.756 329.789 130.659C329.607 130.559 329.385 130.501 329.123 130.484C328.772 130.463 328.471 130.519 328.219 130.653C327.967 130.783 327.833 130.971 327.815 131.215C327.801 131.41 327.866 131.579 328.013 131.723C328.159 131.868 328.418 131.992 328.792 132.097L330.248 132.486C331.03 132.697 331.603 132.996 331.966 133.381C332.33 133.767 332.49 134.253 332.447 134.841C332.408 135.376 332.216 135.835 331.871 136.22C331.53 136.604 331.078 136.893 330.516 137.086C329.957 137.276 329.323 137.349 328.614 137.305C327.533 137.238 326.689 136.96 326.08 136.471C325.475 135.978 325.146 135.339 325.093 134.553L327.329 134.574C327.372 134.907 327.517 135.169 327.763 135.358C328.01 135.544 328.335 135.65 328.739 135.674C329.136 135.699 329.46 135.642 329.712 135.505C329.968 135.364 330.107 135.172 330.128 134.928C330.14 134.722 330.065 134.548 329.905 134.407C329.745 134.262 329.49 134.143 329.14 134.05L327.747 133.682C326.961 133.473 326.387 133.16 326.026 132.743C325.669 132.326 325.512 131.813 325.557 131.204C325.595 130.68 325.77 130.237 326.081 129.875C326.396 129.514 326.819 129.247 327.352 129.073C327.888 128.9 328.505 128.835 329.203 128.878C330.234 128.941 331.03 129.209 331.59 129.681C332.154 130.154 332.458 130.768 332.502 131.525ZM338.628 129.566L338.504 131.266L333.586 130.962L333.71 129.262L338.628 129.566ZM334.97 127.376L337.235 127.516L336.679 135.123C336.664 135.332 336.684 135.497 336.739 135.618C336.795 135.735 336.877 135.82 336.987 135.873C337.101 135.927 337.234 135.958 337.386 135.967C337.493 135.974 337.6 135.972 337.707 135.961C337.815 135.946 337.898 135.935 337.955 135.928L338.189 137.634C338.073 137.662 337.91 137.693 337.701 137.727C337.492 137.763 337.24 137.778 336.945 137.771C336.398 137.758 335.924 137.656 335.525 137.464C335.13 137.273 334.832 136.995 334.63 136.63C334.429 136.265 334.35 135.816 334.392 135.281L334.97 127.376ZM343.13 138.2C342.29 138.148 341.579 137.934 340.998 137.556C340.421 137.176 339.992 136.662 339.711 136.015C339.431 135.364 339.323 134.609 339.386 133.748C339.447 132.909 339.664 132.182 340.036 131.568C340.409 130.954 340.904 130.488 341.521 130.171C342.143 129.853 342.854 129.719 343.655 129.769C344.194 129.802 344.689 129.92 345.141 130.122C345.596 130.321 345.985 130.603 346.307 130.967C346.633 131.333 346.874 131.782 347.031 132.314C347.188 132.843 347.242 133.455 347.191 134.149L347.146 134.771L340.25 134.346L340.352 132.943L345.116 133.237C345.14 132.911 345.09 132.618 344.967 132.358C344.843 132.097 344.661 131.889 344.419 131.732C344.182 131.571 343.898 131.481 343.569 131.46C343.225 131.439 342.914 131.5 342.637 131.643C342.363 131.783 342.142 131.981 341.974 132.237C341.806 132.49 341.708 132.778 341.681 133.1L341.584 134.433C341.555 134.837 341.603 135.19 341.731 135.494C341.862 135.797 342.06 136.037 342.325 136.213C342.589 136.39 342.911 136.49 343.291 136.513C343.542 136.528 343.775 136.507 343.99 136.449C344.204 136.391 344.391 136.296 344.55 136.164C344.709 136.031 344.835 135.865 344.928 135.664L347.013 135.931C346.87 136.428 346.62 136.853 346.263 137.208C345.909 137.56 345.466 137.825 344.934 138.002C344.405 138.175 343.804 138.242 343.13 138.2ZM353.307 130.47L353.183 132.171L348.265 131.867L348.39 130.167L353.307 130.47ZM349.649 128.281L351.914 128.421L351.358 136.028C351.343 136.237 351.363 136.402 351.418 136.523C351.474 136.64 351.557 136.725 351.667 136.778C351.78 136.832 351.913 136.863 352.066 136.872C352.172 136.879 352.279 136.877 352.387 136.866C352.494 136.851 352.577 136.84 352.635 136.833L352.868 138.539C352.752 138.567 352.589 138.598 352.38 138.632C352.171 138.668 351.919 138.683 351.624 138.676C351.077 138.663 350.604 138.561 350.205 138.369C349.809 138.178 349.511 137.9 349.31 137.535C349.108 137.17 349.029 136.721 349.072 136.186L349.649 128.281Z" fill="#072811"/>
<path d="M279.182 114.101L278.87 119.137L276.452 119.014L277.172 107.4L279.522 107.519L279.246 111.96L279.348 111.965C279.577 111.461 279.92 111.074 280.377 110.805C280.834 110.532 281.393 110.413 282.055 110.446C282.661 110.477 283.18 110.636 283.614 110.924C284.052 111.207 284.38 111.601 284.599 112.106C284.823 112.606 284.911 113.197 284.865 113.877L284.521 119.423L282.104 119.301L282.421 114.185C282.458 113.649 282.348 113.224 282.09 112.911C281.836 112.599 281.464 112.43 280.972 112.405C280.643 112.389 280.347 112.444 280.085 112.571C279.827 112.698 279.617 112.892 279.457 113.154C279.3 113.411 279.209 113.727 279.182 114.101ZM288.899 119.81C288.343 119.782 287.853 119.66 287.43 119.445C287.007 119.227 286.681 118.92 286.451 118.525C286.226 118.127 286.13 117.64 286.166 117.066C286.196 116.582 286.31 116.18 286.508 115.86C286.707 115.54 286.965 115.288 287.284 115.103C287.603 114.918 287.96 114.784 288.356 114.702C288.756 114.62 289.173 114.569 289.607 114.549C290.117 114.522 290.528 114.494 290.841 114.464C291.155 114.43 291.384 114.37 291.53 114.283C291.676 114.195 291.755 114.059 291.766 113.874L291.768 113.84C291.79 113.48 291.694 113.197 291.479 112.989C291.268 112.781 290.957 112.666 290.544 112.646C290.109 112.624 289.757 112.702 289.488 112.882C289.219 113.058 289.034 113.288 288.933 113.571L286.708 113.276C286.855 112.753 287.106 112.306 287.463 111.938C287.82 111.565 288.268 111.288 288.807 111.107C289.35 110.922 289.969 110.847 290.665 110.882C291.149 110.907 291.609 110.987 292.045 111.123C292.484 111.259 292.869 111.455 293.198 111.71C293.531 111.966 293.787 112.286 293.964 112.671C294.141 113.051 294.214 113.501 294.182 114.019L293.818 119.894L291.525 119.778L291.6 118.57L291.532 118.566C291.375 118.831 291.173 119.062 290.926 119.258C290.678 119.45 290.387 119.597 290.05 119.697C289.714 119.794 289.33 119.832 288.899 119.81ZM289.695 118.177C290.05 118.195 290.369 118.141 290.65 118.015C290.931 117.885 291.157 117.703 291.327 117.469C291.497 117.235 291.591 116.965 291.61 116.659L291.668 115.735C291.589 115.78 291.482 115.82 291.347 115.855C291.216 115.886 291.068 115.915 290.904 115.94C290.739 115.962 290.575 115.983 290.41 116.001C290.246 116.015 290.097 116.029 289.964 116.041C289.678 116.068 289.426 116.122 289.208 116.202C288.991 116.282 288.818 116.396 288.692 116.545C288.565 116.69 288.495 116.877 288.481 117.103C288.46 117.432 288.564 117.69 288.791 117.876C289.023 118.058 289.324 118.159 289.695 118.177ZM295.693 119.989L296.233 111.278L298.577 111.397L298.483 112.917L298.573 112.921C298.766 112.389 299.058 111.994 299.449 111.737C299.841 111.476 300.281 111.358 300.769 111.383C300.89 111.389 301.02 111.403 301.159 111.425C301.298 111.448 301.42 111.475 301.524 111.506L301.391 113.65C301.28 113.61 301.125 113.572 300.926 113.535C300.727 113.499 300.545 113.476 300.378 113.468C300.023 113.45 299.7 113.511 299.41 113.652C299.125 113.789 298.892 113.99 298.713 114.254C298.537 114.518 298.438 114.828 298.416 115.183L298.111 120.111L295.693 119.989ZM305.029 120.604C304.367 120.57 303.778 120.37 303.262 120.002C302.75 119.631 302.357 119.105 302.085 118.424C301.816 117.739 301.712 116.911 301.772 115.939C301.834 114.941 302.046 114.119 302.408 113.474C302.771 112.825 303.23 112.349 303.783 112.047C304.341 111.742 304.94 111.605 305.579 111.638C306.067 111.662 306.469 111.766 306.784 111.949C307.103 112.128 307.355 112.346 307.54 112.602C307.729 112.854 307.87 113.1 307.961 113.34L308.035 113.344L308.306 108.977L310.717 109.099L309.997 120.713L307.614 120.592L307.7 119.197L307.598 119.192C307.47 119.428 307.294 119.66 307.071 119.888C306.853 120.112 306.574 120.293 306.235 120.432C305.9 120.57 305.498 120.628 305.029 120.604ZM305.914 118.72C306.304 118.74 306.64 118.651 306.921 118.453C307.207 118.251 307.434 117.961 307.601 117.582C307.773 117.204 307.875 116.756 307.907 116.238C307.939 115.72 307.895 115.267 307.775 114.878C307.655 114.489 307.465 114.183 307.205 113.961C306.946 113.74 306.621 113.619 306.232 113.599C305.834 113.579 305.493 113.67 305.207 113.872C304.922 114.073 304.697 114.362 304.533 114.736C304.37 115.111 304.272 115.55 304.241 116.053C304.21 116.559 304.252 117.011 304.368 117.407C304.487 117.8 304.675 118.113 304.93 118.346C305.189 118.575 305.517 118.7 305.914 118.72ZM315.188 121.118C314.526 121.085 313.937 120.884 313.421 120.517C312.909 120.146 312.516 119.62 312.243 118.938C311.975 118.253 311.87 117.425 311.931 116.453C311.993 115.455 312.205 114.634 312.567 113.988C312.93 113.339 313.388 112.864 313.942 112.562C314.5 112.256 315.099 112.12 315.738 112.152C316.226 112.177 316.628 112.281 316.943 112.464C317.262 112.643 317.514 112.86 317.699 113.116C317.888 113.369 318.029 113.615 318.12 113.854L318.194 113.858L318.464 109.491L320.876 109.614L320.156 121.228L317.773 121.107L317.859 119.712L317.757 119.707C317.629 119.943 317.453 120.175 317.23 120.402C317.011 120.627 316.733 120.808 316.394 120.946C316.059 121.085 315.657 121.142 315.188 121.118ZM316.073 119.235C316.463 119.254 316.798 119.165 317.08 118.967C317.366 118.765 317.593 118.475 317.76 118.097C317.932 117.719 318.033 117.271 318.066 116.753C318.098 116.235 318.054 115.781 317.934 115.392C317.814 115.003 317.624 114.698 317.364 114.476C317.105 114.254 316.78 114.133 316.391 114.114C315.993 114.094 315.652 114.184 315.366 114.386C315.08 114.588 314.856 114.876 314.692 115.251C314.528 115.626 314.431 116.064 314.4 116.567C314.368 117.074 314.411 117.525 314.526 117.922C314.646 118.315 314.834 118.628 315.089 118.86C315.348 119.09 315.676 119.214 316.073 119.235ZM322.144 121.328L322.684 112.618L325.101 112.74L324.561 121.451L322.144 121.328ZM323.968 111.556C323.608 111.538 323.307 111.403 323.065 111.152C322.826 110.897 322.718 110.602 322.738 110.265C322.759 109.933 322.903 109.654 323.172 109.428C323.444 109.199 323.76 109.094 324.119 109.112C324.479 109.13 324.777 109.267 325.016 109.522C325.258 109.773 325.369 110.065 325.349 110.398C325.328 110.734 325.181 111.017 324.909 111.246C324.641 111.471 324.327 111.575 323.968 111.556ZM334.136 115.689L331.914 115.713C331.888 115.522 331.817 115.348 331.702 115.191C331.586 115.029 331.43 114.898 331.231 114.797C331.036 114.692 330.799 114.633 330.519 114.619C330.144 114.6 329.824 114.663 329.557 114.809C329.29 114.951 329.148 115.152 329.132 115.413C329.119 115.621 329.191 115.801 329.349 115.953C329.507 116.105 329.785 116.235 330.184 116.343L331.742 116.74C332.579 116.957 333.193 117.269 333.586 117.675C333.978 118.082 334.154 118.599 334.116 119.227C334.08 119.798 333.881 120.29 333.517 120.704C333.158 121.118 332.679 121.431 332.081 121.644C331.488 121.853 330.813 121.938 330.056 121.9C328.902 121.841 327.998 121.555 327.343 121.04C326.692 120.521 326.334 119.843 326.268 119.006L328.653 119.001C328.704 119.357 328.861 119.634 329.126 119.833C329.39 120.028 329.739 120.137 330.17 120.159C330.594 120.18 330.939 120.116 331.206 119.967C331.478 119.814 331.623 119.607 331.643 119.346C331.653 119.127 331.572 118.942 331.399 118.793C331.226 118.64 330.953 118.517 330.579 118.422L329.088 118.045C328.248 117.832 327.632 117.505 327.242 117.064C326.856 116.623 326.683 116.078 326.723 115.428C326.758 114.868 326.939 114.394 327.267 114.005C327.598 113.616 328.047 113.325 328.613 113.134C329.183 112.943 329.84 112.866 330.585 112.904C331.686 112.96 332.538 113.236 333.141 113.733C333.748 114.23 334.079 114.882 334.136 115.689ZM337.816 119.608L338.001 116.71L338.353 116.728L341.35 113.563L344.125 113.704L340.103 117.892L339.53 117.863L337.816 119.608ZM335.47 122.003L336.19 110.389L338.608 110.512L337.888 122.126L335.47 122.003ZM340.918 122.279L338.588 118.355L340.306 116.73L343.75 122.422L340.918 122.279Z" fill="#072811"/>
<rect x="234.735" y="95.9788" width="149.978" height="80.2645" rx="7.5" transform="rotate(3.24595 234.735 95.9788)" stroke="#072811"/>
<path d="M325.403 162.654L325.355 163.505L321.968 163.316L322.016 162.465L325.403 162.654ZM323.09 160.955L324.094 161.01L323.748 167.239C323.732 167.523 323.761 167.738 323.835 167.885C323.913 168.028 324.015 168.128 324.143 168.183C324.274 168.236 324.413 168.267 324.561 168.275C324.671 168.281 324.762 168.28 324.834 168.273C324.906 168.263 324.963 168.255 325.006 168.248L325.16 169.162C325.091 169.184 324.994 169.204 324.871 169.223C324.747 169.244 324.592 169.25 324.405 169.239C324.121 169.223 323.846 169.147 323.581 169.01C323.318 168.873 323.104 168.675 322.94 168.415C322.778 168.156 322.707 167.836 322.728 167.456L323.09 160.955ZM327.157 169.666L326.535 169.187L331.472 162.684L332.094 163.163L327.157 169.666ZM329.127 169.553C328.537 169.52 328.027 169.351 327.597 169.046C327.17 168.74 326.846 168.328 326.625 167.809C326.406 167.291 326.315 166.694 326.353 166.019C326.391 165.338 326.547 164.751 326.822 164.256C327.1 163.763 327.468 163.388 327.926 163.131C328.387 162.875 328.913 162.764 329.503 162.797C330.093 162.829 330.601 162.999 331.028 163.304C331.458 163.61 331.782 164.023 332 164.545C332.222 165.066 332.313 165.667 332.276 166.348C332.238 167.023 332.08 167.606 331.803 168.097C331.528 168.589 331.16 168.962 330.699 169.218C330.241 169.474 329.717 169.586 329.127 169.553ZM329.177 168.651C329.625 168.676 330 168.582 330.302 168.368C330.604 168.154 330.835 167.864 330.995 167.498C331.155 167.131 331.247 166.729 331.271 166.292C331.296 165.855 331.249 165.445 331.131 165.06C331.013 164.675 330.816 164.358 330.539 164.109C330.263 163.86 329.901 163.724 329.452 163.699C329.004 163.674 328.629 163.769 328.327 163.986C328.025 164.202 327.793 164.495 327.633 164.865C327.473 165.235 327.381 165.638 327.357 166.075C327.333 166.511 327.38 166.921 327.498 167.303C327.616 167.685 327.813 167.999 328.09 168.245C328.366 168.491 328.729 168.626 329.177 168.651ZM333.628 169.667L333.992 163.132L334.962 163.186L334.905 164.207L334.99 164.212C335.146 163.87 335.381 163.612 335.695 163.436C336.009 163.257 336.379 163.179 336.805 163.203C337.236 163.227 337.589 163.345 337.865 163.556C338.144 163.765 338.354 164.049 338.496 164.407L338.564 164.41C338.751 164.082 339.016 163.828 339.362 163.648C339.708 163.465 340.115 163.387 340.583 163.413C341.167 163.446 341.635 163.655 341.986 164.042C342.338 164.426 342.492 165.002 342.449 165.77L342.206 170.144L341.202 170.089L341.445 165.715C341.472 165.232 341.359 164.88 341.107 164.659C340.855 164.437 340.55 164.316 340.193 164.296C339.733 164.271 339.369 164.39 339.101 164.654C338.834 164.915 338.688 165.257 338.664 165.679L338.428 169.934L337.407 169.877L337.656 165.401C337.676 165.03 337.572 164.724 337.344 164.483C337.116 164.24 336.811 164.108 336.431 164.087C336.17 164.072 335.923 164.128 335.688 164.255C335.456 164.381 335.264 164.564 335.111 164.803C334.961 165.039 334.878 165.318 334.86 165.638L334.632 169.723L333.628 169.667Z" fill="#072811"/>
<path d="M10.8806 396.353C8.61639 391.267 11.1593 383.626 13.5454 378.188L14.4834 375C15.6503 373.43 14.9834 373 17.0462 373.5C87.1497 376.805 160.737 385.183 230.858 387.433C271.631 388.745 308.921 389.788 349.711 390.749C394.177 350.434 419.519 310.567 424.5 302.48L438.484 276.063C438.484 271.5 445.983 272 451.984 279.063C450.983 287.5 422.065 343.5 410.983 355.5C391.459 376.642 379.32 397.91 370.612 407.239C369.131 409.442 366.867 412.231 363.645 414.27C357.253 418.302 350.965 416.849 349.711 416.614C334.367 413.802 94.639 411.12 19.4149 401.627C17.5165 401.392 12.8313 400.713 10.8806 396.353Z" stroke="#072811" stroke-miterlimit="10"/>
<rect x="301.044" y="154.926" width="63" height="20" rx="1.5" transform="rotate(2.88805 301.044 154.926)" stroke="#072811"/>
</svg>
