<svg width="101" height="69" viewBox="0 0 101 69" fill="none" xmlns="http://www.w3.org/2000/svg">
<g clip-path="url(#clip0_95_243)">
<path d="M42.2093 55.6547H6.0302C3.8896 55.6935 3.51274 55.8356 3.01528 55.6547C2.44244 55.448 1.77916 54.8408 1.50781 53.0709V2.68709C1.55304 2.57082 1.94498 1.70525 3.01528 1.39519C3.70871 1.20141 4.29662 1.3306 4.52274 1.39519C5.23125 1.39519 5.75886 1.39519 6.0302 1.39519C6.0302 1.39519 71.1526 1.25309 84.4183 1.39519C85.3378 1.39519 87.4483 1.44687 88.9407 2.68709C89.9507 3.52682 90.2974 4.59909 90.4481 5.27087V36.2763" stroke="#072811" stroke-width="2" stroke-miterlimit="10"/>
<path d="M3.01465 45.3196H42.2087" stroke="#072811" stroke-width="2" stroke-miterlimit="10"/>
<path d="M45.2236 29.8169V65.6799C45.2236 65.6799 45.2236 67.2818 48.2386 67.2818H73.2775C73.2775 67.2818 76.8804 67.2818 76.8804 64.6981V31.1088C76.8804 31.1088 76.8804 27.2332 73.8654 27.2332H47.8315C47.8315 27.2332 45.2236 27.2332 45.2236 29.8169Z" stroke="#072811" stroke-width="2" stroke-miterlimit="10"/>
<path d="M45.9775 34.9845H75.7349" stroke="#072811" stroke-width="2" stroke-miterlimit="10"/>
<path d="M46.7314 60.8224H75.735" stroke="#072811" stroke-width="2" stroke-miterlimit="10"/>
<path d="M82.9106 41.9348V66.6099C82.9106 66.6099 82.9106 67.7081 84.4934 67.7081H97.6083C97.6083 67.7081 99.4927 67.7081 99.4927 65.9252V42.8133C99.4927 42.8133 99.4927 40.152 97.9098 40.152H84.2673C84.2673 40.152 82.8955 40.152 82.8955 41.9348H82.9106Z" stroke="#072811" stroke-width="2" stroke-miterlimit="10"/>
<path d="M83.3027 45.4875H98.8899" stroke="#072811" stroke-width="2" stroke-miterlimit="10"/>
<path d="M83.6943 63.2639H98.8896" stroke="#072811" stroke-width="2" stroke-miterlimit="10"/>
<path d="M36.1791 56.9467V67.2818H29.7422H42.2089" stroke="#072811" stroke-width="2" stroke-miterlimit="10"/>
</g>
<defs>
<clipPath id="clip0_95_243">
<rect width="101" height="69" fill="white"/>
</clipPath>
</defs>
</svg>
