<svg width="122" height="106" viewBox="0 0 122 106" fill="none" xmlns="http://www.w3.org/2000/svg">
<g clip-path="url(#clip0_199_162)">
<path d="M46.2093 84.6548H10.0302C7.8896 84.6935 7.51274 84.8356 7.01528 84.6548C6.44244 84.4481 5.77916 83.8409 5.50781 82.071V31.6871C5.55304 31.5709 5.94498 30.7053 7.01528 30.3953C7.70871 30.2015 8.29662 30.3307 8.52274 30.3953C9.23125 30.3953 9.75886 30.3953 10.0302 30.3953C10.0302 30.3953 75.1526 30.2531 88.4183 30.3953C89.3378 30.3953 91.4483 30.4469 92.9407 31.6871C93.9507 32.5269 94.2974 33.5991 94.4481 34.2709V65.2764" stroke="#072811" stroke-width="2" stroke-miterlimit="10"/>
<path d="M7.01465 74.3196H46.2087" stroke="#072811" stroke-width="2" stroke-miterlimit="10"/>
<path d="M49.2236 58.8169V94.6798C49.2236 94.6798 49.2236 96.2818 52.2386 96.2818H77.2775C77.2775 96.2818 80.8804 96.2818 80.8804 93.698V60.1088C80.8804 60.1088 80.8804 56.2331 77.8654 56.2331H51.8315C51.8315 56.2331 49.2236 56.2331 49.2236 58.8169Z" stroke="#072811" stroke-width="2" stroke-miterlimit="10"/>
<path d="M49.9775 63.9844H79.7349" stroke="#072811" stroke-width="2" stroke-miterlimit="10"/>
<path d="M50.7314 89.8223H79.735" stroke="#072811" stroke-width="2" stroke-miterlimit="10"/>
<path d="M86.9106 70.9348V95.61C86.9106 95.61 86.9106 96.7081 88.4934 96.7081H101.608C101.608 96.7081 103.493 96.7081 103.493 94.9253V71.8133C103.493 71.8133 103.493 69.152 101.91 69.152H88.2673C88.2673 69.152 86.8955 69.152 86.8955 70.9348H86.9106Z" stroke="#072811" stroke-width="2" stroke-miterlimit="10"/>
<path d="M87.3027 74.4875H102.89" stroke="#072811" stroke-width="2" stroke-miterlimit="10"/>
<path d="M87.6943 92.264H102.89" stroke="#072811" stroke-width="2" stroke-miterlimit="10"/>
<path d="M40.1791 85.9467V96.2818H33.7422H46.2089" stroke="#072811" stroke-width="2" stroke-miterlimit="10"/>
</g>
<defs>
<clipPath id="clip0_199_162">
<rect width="101" height="69" fill="white" transform="translate(4 29)"/>
</clipPath>
</defs>
</svg>
