<svg width="122" height="106" viewBox="0 0 122 106" fill="none" xmlns="http://www.w3.org/2000/svg">
<g clip-path="url(#clip0_211_68)">
<path d="M54.5758 19.015L78.6355 28.3439C78.6355 28.3439 80.4862 28.3439 80.4862 30.2096C80.4862 32.0754 62.5155 76.8538 62.5155 76.8538L28.6653 65.6592C28.6653 65.6592 26.8146 66.107 28.6653 62.1516C30.5161 58.1962 41.6206 24.6123 41.6206 24.6123L54.5758 19.015Z" stroke="#072811" stroke-width="2" stroke-miterlimit="10"/>
<path d="M43.4707 24.6123C45.3214 25.8624 47.1722 27.0938 49.0229 28.3439C50.2629 28.9596 51.4844 29.5939 52.7244 30.2096C53.9644 27.0938 55.1859 23.9966 56.4259 20.8808" stroke="#072811" stroke-width="2" stroke-miterlimit="10"/>
<path d="M76.7846 37.6727C79.1906 38.1392 85.1685 39.5758 86.0383 43.27C86.2234 44.091 86.1124 44.7626 86.0383 45.1358C84.9649 50.6398 79.8938 62.674 78.6353 65.6593C76.7846 70.6409 74.9338 75.6038 73.0831 80.5854C72.5834 82.3579 71.584 84.7647 69.3816 86.1827C66.7906 87.8619 63.8294 87.3395 54.5756 84.3169C38.03 78.9062 36.4198 76.9285 36.0682 74.9881C35.8461 73.7753 36.0127 71.9282 37.9189 69.3908" stroke="#072811" stroke-width="2" stroke-miterlimit="10"/>
</g>
<defs>
<clipPath id="clip0_211_68">
<rect width="62" height="72" fill="white" transform="translate(26 17)"/>
</clipPath>
</defs>
</svg>
