<svg width="1280" height="567" viewBox="0 0 1280 567" fill="none" xmlns="http://www.w3.org/2000/svg">
<path d="M1280 574V422.3V68.9946V45.6125C1259.19 52.2563 1240.29 92.0282 1228.3 83.549C1220.96 78.327 1221.79 60.4895 1212.14 54.4662C1204.21 49.4852 1195.83 56.6166 1192.05 59.8292L1191.97 59.8949C1190.78 60.9032 1189.53 62.144 1181.49 72.588C1165.17 93.7861 1163.88 97.1468 1159.73 97.974C1154.27 99.0081 1146.85 95.0011 1142.78 83.4455C1137.44 68.0898 1142.69 52.9151 1137.94 39.8084C1133.97 28.9509 1128.66 34.6899 1113.71 28.9509C1095.35 21.9969 1086.71 7.26158 1083.02 16.2579C1079.56 24.6595 1085 42.7813 1081.4 48.934C1080.63 50.2524 1079.58 50.7694 1078.39 50.7694C1073.45 50.7694 1066.08 41.6697 1066.08 41.6697C1066.03 41.6697 1054.17 39.705 1043.47 47.0985C1038.89 50.2524 1032.2 54.8798 1027.31 68.8912C1022.74 81.9979 1021.91 97.2502 1021.68 101.567C1020.81 118.965 1023.66 123.98 1021.68 134.218C1020.43 140.68 1018.13 144.972 1009.58 154.201C994.495 170.461 993.213 166.48 988.599 174.158C978.636 190.858 983.658 211.229 974.068 230.462C965.06 248.481 949.831 252.177 944.983 239.588C943.093 234.687 943.184 227.541 943.362 213.35L943.375 212.34C943.55 196.183 943.737 183.077 947.384 177.855C949.237 175.192 953.198 176.614 961.099 179.69C969.442 182.973 972.075 185.326 974.021 181.526C976.329 177.131 974.476 170.358 977.249 163.404C979.883 156.657 982.784 159.914 984.497 154.304C985.045 152.546 986.152 147.634 982.096 123.463C978.857 104.23 977.203 101.464 978.076 98.0774C979.976 90.7098 988.785 100.326 1003.91 96.242L1004.02 96.213C1007.85 95.1659 1016.2 92.8889 1016.83 85.3844C1016.97 83.7558 1016.88 80.8863 1011.2 68.9946C1004.88 55.7846 1003.63 56.7152 1001.51 50.8728C996.161 36.241 1001.23 23.4445 996.662 10.9325C992.525 -0.519674 984.45 -0.209458 976.503 0.100758L976.44 0.103456C969.733 0.386516 964.221 0.619184 960.353 9.20044C955.692 19.541 957.953 31.717 953.898 36.4478C950.891 39.9118 948.864 34.0953 938.575 29.1577C933.494 26.8052 929.567 26.1072 926.479 25.5902L926.442 25.5835C919.592 24.3471 916.185 23.7323 913.557 25.5902C906.402 30.502 906.495 42.2643 899.853 45.5474C894.12 48.3135 891.638 40.9459 888.539 45.5474C885.812 49.5544 885.952 57.9302 885.311 78.2236L885.268 79.6457C884.516 104.399 884.134 116.98 882.91 125.428C879.217 151.331 871.002 157.561 872.435 165.343C874.789 178.346 896.346 155.209 912.823 178.036C921.725 190.444 929.427 216.658 926.526 232.53C919.744 269.782 855.084 249.721 853.884 227.102C853.511 220.018 859.466 214.9 858.72 203.551C858.126 194.529 854.106 194.012 849.037 178.139C845.483 166.997 846.357 163.714 843.397 158.182C840.029 151.926 835.007 148.772 830.474 150.918C824.52 153.684 824.893 163.094 818.391 169.039C810.455 176.304 804.967 166.79 802.24 174.468C799.665 181.629 804.14 191.142 802.24 205.283C800.104 221.135 791.862 228.42 789.419 230.579L789.318 230.669C781.429 237.546 777.922 231.393 765.092 230.669C749.536 229.868 748.988 238.554 731.999 237.959C720.603 237.546 721.291 233.642 711.001 234.366C701.12 235.09 697.659 238.864 685.156 241.63C676.895 243.465 670.754 243.465 664.986 243.465C645.095 243.465 642.741 237.856 612.515 230.772C595.257 226.791 589.443 227.102 586.669 216.244C583.535 204.249 585.562 183.775 590.69 176.304C597.658 166.17 606.98 185.016 610.86 176.304C614.321 168.626 610.627 145.282 605.232 130.934C599.369 115.389 591.683 110.84 585.974 107.462L585.842 107.384L585.815 107.368C579.583 103.699 571.112 98.7104 562.444 107.384C553.949 115.889 546.794 135.872 548.74 145.489C549.661 150.401 552.295 149.367 559.216 154.588L559.437 154.756C566.532 160.138 574.241 165.987 576.986 178.242C579.608 190.031 577.907 209.187 572.966 220.018C563.924 240.001 552.155 214.693 526.95 229.144C520.448 232.815 514.727 238.243 504.333 240.001C498.938 240.906 494.277 240.518 489.01 240.001C474.433 238.657 474.619 235.374 467.231 236.408C457.175 237.856 456.161 244.086 446.245 243.672L446.171 243.669C441.318 243.462 433.484 243.129 430.922 232.815C429.116 225.654 431.843 221.569 430.13 211.022C429 204.068 426.576 198.174 424.443 194.012C422.299 189.876 420.447 187.471 420.447 187.471C420.447 187.471 410.752 170.978 405.904 176.614C402.677 180.311 404.378 190.651 401.057 194.736C400.09 195.977 398.423 196.881 387.354 187.471C380.793 181.939 380.747 181.009 378.486 180.207C376.505 179.38 369.304 176.717 364.783 185.636C361.462 192.176 363.163 197.915 359.201 211.849L359.198 211.861C357.857 216.465 355.503 224.547 351.068 230.074C349.506 232.117 344.006 238.967 338.471 235.477C330.909 230.669 331.27 211.332 325.409 209.368H325.362C324.966 209.368 321.762 210.143 309.445 232.22L289.135 222.371C289.135 222.371 287.993 184.292 296.383 166.894C301.463 156.45 305.518 162.783 310.925 150.607C311.286 149.677 317.147 136.156 316.74 117.931C316.367 101.671 311.519 101.464 308.012 78.7147C308.012 78.7147 307.779 77.2412 307.301 70.7784C306.823 64.3414 306.101 52.9409 305.099 33.0612L287.713 3.66825L265.935 10.2345C272.81 5.32273 251.439 16.9817 245.624 26.495C240.392 35.0518 236.757 48.1067 234.426 59.016C232.096 69.9511 231.082 78.7147 231.082 78.7147C231.082 78.9215 232.189 100.533 233.995 111.391C239.204 142.723 259.374 137.811 268.836 173.434C269.722 176.717 271.47 183.981 272.029 193.908C272.25 197.812 273.404 218.183 268.836 225.654C267.426 227.929 265.585 228.782 263.592 228.782C256.939 228.782 248.537 219.113 248.537 219.113L245.624 186.437C245.624 186.437 240.917 178.966 235.883 171.082C233.249 166.894 231.921 164.826 231.129 163.507C227.808 158.078 225.78 154.485 222.96 149.677C217.192 139.853 214.337 134.838 213.731 134.114C204.363 122.145 196.835 132.382 194.854 124.291C194.575 123.153 194.458 121.861 194.458 120.413C194.458 107.048 205.004 81.8945 205.004 81.8945C183.552 69.4082 180.312 68.7878 180.312 68.7878C165.315 65.8149 162.088 77.7065 154.199 68.7878C146.998 60.6963 147.138 48.0033 141.136 45.9611C136.743 44.4358 135.089 50.666 123.728 65.5047C118.041 72.9499 112.238 79.4644 107.857 84.1435C103.487 88.8226 100.528 91.6404 100.528 91.6404C100.528 91.6404 85.9503 105.548 74.4027 101.464C59.6856 96.3454 59.5924 65.4271 42.4632 55.7846C35.1645 51.6405 28.71 53.6981 22.366 55.7204L22.1646 55.7846C15.8373 57.801 4.95231 61.9372 0 65.5047V78.3011V574H1280Z" fill="#072811"/>
</svg>
