<svg width="1661" height="340" viewBox="0 0 1661 340" fill="none" xmlns="http://www.w3.org/2000/svg">
<path d="M1661 208.649V339.695H0V208.649H0.0259549L9.72443 184.006L37.0376 132.461L36.8213 134.103C36.9511 133.756 37.0809 133.455 37.202 133.214V133.335H37.2366C48.6135 110.484 57.7323 110.484 57.7323 110.484C61.8418 110.484 64.6536 113.346 69.5764 110.484C69.5764 110.484 72.0421 109.053 80.3736 99.0817C80.3736 99.0817 82.1126 103.48 84.8638 108.059C87.615 112.638 91.3871 117.398 95.4448 118.121C98.4988 118.663 98.4642 116.329 106.242 112.397C114.47 108.21 118.614 106.131 122.421 108.571C128.684 112.638 127.317 123.483 134.273 129.524C137.189 132.024 141.264 131.843 149.353 131.422C155.729 131.12 163.369 129.524 163.369 129.524C163.369 129.524 165.125 124.523 168.162 118.694C171.19 112.879 175.498 106.221 180.603 102.908C183.925 100.754 188.208 100.814 196.773 100.995C207.561 101.236 212.294 103.676 214.007 99.0817C216.161 93.3578 210.987 83.2808 212.943 80.0574C214.552 77.3762 218.185 84.531 225.859 85.7812C231.855 86.7453 238.785 83.8683 238.785 83.8683C238.785 83.8683 241.675 81.5034 246.225 77.9335C250.767 74.3787 256.953 69.6188 263.555 64.8439C271.54 59.0598 270.208 60.4305 274.352 57.2071C286.447 47.838 287.719 44.0271 292.685 43.9066C299.883 43.6656 301.146 51.6037 306.7 49.6305C312.488 47.597 313.042 38.3484 319.617 28.6931C325.474 20.1525 334.757 13.2387 343.323 15.3776C356.066 18.601 367.037 41.9936 367.037 41.9936C367.037 41.9936 369.537 40.2011 373.214 38.1225C376.891 36.0438 381.736 33.6789 386.434 32.504C391.192 31.3141 396.028 30.0639 401.505 32.504C414.223 38.1225 414.292 56.1376 425.219 59.12C433.793 61.5 444.616 53.3962 444.616 53.3962C444.616 53.3962 446.813 51.7543 450.058 49.0279C453.311 46.3016 457.619 42.5057 461.841 38.1677C470.277 29.5216 471.505 25.8915 474.767 26.7802C479.222 27.9701 479.118 35.366 484.465 40.0806C490.322 45.2773 492.719 38.3484 503.853 40.0806C503.853 40.0806 506.259 40.4421 522.186 47.7175C522.186 47.7175 514.357 62.3736 514.357 70.1611C514.357 71.0046 514.443 71.7578 514.651 72.4205C516.121 77.1352 521.71 71.1703 528.666 78.1444C529.116 78.5661 531.236 81.4883 535.518 87.2122C537.612 90.0139 539.117 92.1076 541.583 95.2708C542.172 96.039 543.158 97.244 545.113 99.6842C548.851 104.278 552.346 108.632 552.346 108.632L554.509 127.671C554.509 127.671 560.747 133.304 565.687 133.304C567.166 133.304 568.533 132.807 569.58 131.482C572.971 127.129 572.115 115.259 571.95 112.985C571.535 107.201 570.237 102.968 569.58 101.055C562.555 80.2984 547.579 83.1603 543.712 64.9042C542.371 58.5778 541.549 45.9853 541.549 45.8648C541.549 45.8648 542.301 40.7585 544.032 34.3869C545.762 28.0304 548.461 20.4236 552.346 15.4379C556.663 9.89473 572.53 3.1014 567.426 5.96334L583.596 2.13738L596.504 19.2638C597.248 30.8471 597.784 37.4898 598.139 41.2405C598.494 45.0062 598.667 45.8648 598.667 45.8648C601.271 59.12 604.87 59.2405 605.147 68.7151C605.45 79.3343 601.098 87.2122 600.83 87.7545C596.815 94.8491 593.804 91.1587 590.032 97.244C583.803 107.381 584.651 129.569 584.651 129.569L599.731 135.308C608.876 122.444 611.255 121.992 611.549 121.992H611.584C615.935 123.137 615.667 134.404 621.282 137.206C625.392 139.239 629.475 135.248 630.634 134.058C633.931 130.834 635.678 126.119 636.673 123.438C639.615 115.319 638.352 111.975 640.817 108.165C644.174 102.968 649.521 104.519 650.992 105.001C652.67 105.468 652.705 106.011 657.576 109.234C665.795 114.717 667.032 114.19 667.75 113.467C670.216 111.087 668.952 105.062 671.349 102.908C674.948 99.624 682.146 109.234 682.146 109.234C682.146 109.234 683.522 110.635 685.114 113.045C686.697 115.47 688.497 118.904 689.336 122.956C690.608 129.102 688.583 131.482 689.924 135.654C691.836 141.694 697.702 141.86 701.301 141.981C708.663 142.222 709.416 138.591 716.882 137.748C722.368 137.145 722.229 139.058 733.052 139.842C736.963 140.143 740.424 140.369 744.429 139.842C752.147 138.817 756.394 135.654 761.222 133.515C779.936 125.095 788.674 139.842 795.387 128.198C799.056 121.887 800.319 110.725 798.372 103.857C796.313 96.6415 790.491 93.2373 785.178 90.0741C780.039 87.0315 778.084 87.634 777.401 84.772C775.956 79.1687 781.268 67.5251 787.575 62.5694C794.02 57.5083 800.319 60.4305 804.947 62.5694C809.195 64.5427 814.957 67.1636 819.344 76.2917C823.349 84.6515 826.092 98.2533 823.522 102.727C820.641 107.803 813.72 96.8223 808.546 102.727C804.74 107.08 803.234 119.01 805.562 125.999C807.621 132.325 811.938 132.145 824.751 134.464C847.193 138.591 848.941 141.86 863.709 141.86C867.992 141.86 872.551 141.86 878.685 140.791C887.968 139.179 890.538 136.98 897.875 136.558C905.514 136.136 905.003 138.411 913.465 138.652C926.079 138.998 926.485 133.937 938.035 134.404C947.561 134.826 950.165 138.411 956.022 134.404C957.735 133.214 964.008 128.981 965.617 119.612C967.027 111.373 963.705 105.83 965.617 101.657C967.641 97.1838 971.716 102.727 977.608 98.4943C982.436 95.0298 982.159 89.5469 986.58 87.9352C989.945 86.685 993.674 88.5227 996.174 92.1679C998.372 95.3913 997.723 97.3043 1000.36 103.796C1004.13 113.045 1007.11 113.346 1007.55 118.603C1008.1 125.216 1003.68 128.198 1003.96 132.325C1004.85 145.505 1052.86 157.194 1057.9 135.489C1060.05 126.24 1054.33 110.966 1047.72 103.736C1035.49 90.4357 1019.48 103.917 1017.73 96.3403C1016.67 91.8064 1022.77 88.1762 1025.51 73.0833C1026.44 68.0674 1026.71 60.551 1027.29 45.5786C1027.77 33.7542 1027.67 28.8739 1029.69 26.5392C1031.99 23.858 1033.83 28.1509 1038.09 26.5392C1043.02 24.6262 1042.95 17.7726 1048.27 14.9107C1050.22 13.8261 1052.76 14.1876 1057.86 14.9107C1060.15 15.2119 1063.07 15.6186 1066.84 16.9893C1074.48 19.8663 1075.99 23.2555 1078.22 21.237C1081.23 18.4805 1079.55 11.386 1083.01 5.36082C1085.89 0.344903 1090 0.2244 1095 0.0587087C1100.9 -0.122045 1106.9 -0.302799 1109.97 6.37003C1113.36 13.6604 1109.6 21.1165 1113.57 29.6421C1115.14 33.0463 1116.07 32.504 1120.77 40.2011C1124.98 47.13 1125.05 48.802 1124.95 49.751C1124.47 54.1644 1118.16 55.4748 1115.35 56.0774C1104.12 58.4573 1097.58 52.8539 1096.17 57.1468C1095.52 59.12 1096.75 60.7318 1099.15 71.9385C1102.17 86.0222 1101.34 88.8842 1100.94 89.9085C1099.67 93.1771 1097.51 91.2792 1095.56 95.2106C1093.5 99.2625 1094.87 103.209 1093.16 105.77C1091.71 107.984 1089.76 106.613 1083.56 104.7C1077.7 102.908 1074.76 102.079 1073.38 103.631C1070.67 106.673 1070.54 114.31 1070.41 123.724C1070.27 132.386 1070.16 136.679 1071.6 139.601C1075.2 146.936 1086.51 144.782 1093.19 134.284C1100.31 123.077 1096.59 111.207 1103.98 101.477C1107.41 97.003 1108.36 99.3227 1119.56 89.8482C1125.91 84.4708 1127.62 81.9703 1128.54 78.2046C1130.02 72.2398 1127.9 69.3176 1128.54 59.1803C1128.72 56.6648 1129.33 47.7777 1132.72 40.1409C1136.36 31.9768 1141.32 29.2806 1144.72 27.4429C1152.66 23.135 1161.47 24.2797 1161.51 24.2797C1161.51 24.2797 1166.98 29.5818 1170.65 29.5818C1171.53 29.5818 1172.31 29.2806 1172.88 28.5124C1175.56 24.9274 1171.52 14.3684 1174.09 9.47297C1176.83 4.23111 1183.24 12.8169 1196.87 16.8688C1207.97 20.2128 1211.92 16.8688 1214.86 23.1952C1218.39 30.8321 1214.49 39.6739 1218.46 48.6213C1221.48 55.3543 1226.99 57.6891 1231.04 57.0866C1234.12 56.6046 1235.08 54.6464 1247.2 42.2949C1253.17 36.2095 1254.1 35.4865 1254.98 34.899C1257.76 33.0463 1264.03 28.8136 1269.96 31.7358C1277.12 35.2455 1276.5 45.6388 1281.95 48.6815C1290.86 53.6221 1295.83 27.7291 1311.28 23.858C1323.52 20.755 1338.15 32.504 1338.15 32.504C1338.15 32.504 1339.65 38.7099 1341.43 45.202C1343.2 51.6941 1345.24 58.4874 1346.31 59.6472C1350.04 63.7142 1352.3 59.4213 1363.78 58.0958C1365.98 57.8698 1374.02 57.0866 1383 59.6472C1393.34 62.5694 1392.97 66.5159 1402.22 68.8958C1411.85 71.4113 1411.27 66.8774 1424.08 68.8958C1432.45 70.2063 1435.77 72.6615 1440.7 68.8958C1445.98 64.9042 1445.7 59.361 1449.44 58.0958C1456.81 55.5953 1459.79 76.2917 1470.41 79.6959C1475.48 81.3076 1474.94 76.6532 1492.28 70.4473C1502.31 66.8774 1506.11 67.1033 1508 67.3443C1514.23 68.1879 1514.44 70.7485 1522.87 73.49C1527.29 74.9209 1532.22 75.4632 1542.09 76.5929C1552.82 77.7829 1555.97 77.6172 1556.96 81.2473C1558.54 87.0917 1552.03 94.0206 1553.47 102.847C1554.43 108.692 1558.47 113.286 1562.21 113.647C1569.95 114.355 1573.04 96.521 1578.83 98.193C1584.17 99.8047 1583.46 115.621 1590.2 119.793C1595.55 123.077 1598.6 114.717 1606.82 115.139C1606.82 115.139 1612.78 115.485 1620.35 123.875C1620.37 123.905 1620.41 123.935 1620.43 123.981L1620.54 124.222C1620.47 124.131 1620.39 124.056 1620.32 123.981L1620.23 123.785V123.875C1620.23 123.875 1620.29 123.935 1620.32 123.981L1622.69 128.951C1622.6 128.68 1622.52 128.424 1622.43 128.168L1622.8 128.951L1660.6 208.649H1661Z" fill="#072811"/>
</svg>
