<svg width="345" height="769" viewBox="0 0 345 769" fill="none" xmlns="http://www.w3.org/2000/svg">
<path d="M246.722 291.3C246.722 291.3 242.5 296 230.41 310.769C212.058 322.937 132.537 347.273 128.459 374.044C119.711 431.478 117.937 485.359 118.264 756.126C118.264 760.215 118.264 763.573 118.264 765.861C133.923 765.471 146.565 765.642 154.966 765.861C169.239 766.226 183.512 765.812 197.785 765.861C215.423 765.909 222.029 765.982 224.293 760.993C224.293 760.993 225.781 757.708 218.175 734.223C218.175 734.223 171.339 467.423 182.533 430.48C193.707 393.513 238.566 352.141 256.917 332.672C275.268 313.202 272.882 291.3 272.882 291.3L240.605 320.503C240.605 320.503 275.268 296.167 279.346 276.698C280.141 272.95 279.183 271.782 278.959 271.514C275.492 267.474 256 276.698 246.722 291.3Z" stroke="#072811" stroke-width="2" stroke-miterlimit="10"/>
<path d="M126.419 359.442C123.789 364.139 120.69 370.661 118.263 378.911C113.94 393.683 114.124 406.168 114.185 410.548C115.939 529.164 119.058 766.42 119.058 766.42L2.03906 759.119V748.801C2.03906 748.801 10.1951 325.371 18.3512 298.601C26.5073 271.83 55.0535 225.591 50.9755 220.724C46.8975 215.857 20.3902 186.653 34.6634 169.617C45.776 156.354 48.2432 138.686 59.3559 131.482C62.1289 129.706 65.3098 129.511 71.3657 128.245C79.8684 126.469 92.0006 123.913 93.7949 128.245C94.3658 129.608 94.1415 132.261 89.7169 137.98C74.9136 168.766 61.3541 195.414 59.2947 194.148C59.2131 194.1 59.1724 194.027 59.1316 193.954C57.4188 189.841 49.8744 164.92 58.6014 155.794C58.9277 155.453 62.863 151.146 65.2486 152.582C68.8373 154.723 64.3311 167.086 67.2877 169.617C74.7301 175.993 122.239 113.765 122.341 113.643C122.341 113.643 138.653 89.307 152.926 84.4397C167.2 79.5724 216.136 74.7051 240.604 120.944C265.072 167.184 299.736 196.387 285.463 237.759C271.189 279.131 168.505 339.315 145.423 354.234C140.815 357.203 133.576 359.588 125.012 360.853C90.6344 365.891 35.0712 352.676 44.8788 286.432C53.4631 228.439 61.0279 220.651 64.8001 221.186C65.9215 221.357 66.7779 222.33 67.308 223.158" stroke="#072811" stroke-width="2" stroke-miterlimit="10"/>
<g clip-path="url(#clip0_121_789)">
<path d="M276.941 63.3035C275.796 63.5986 273.467 64.3621 271.652 66.3302C269.475 68.6947 268.106 72.7252 270.328 76.4765C272.585 80.2841 277.636 82.2755 281.74 81.5315C284.26 81.0743 285.779 79.7 286.432 79.0843C288.654 77.0098 290.934 72.8672 288.737 68.7273C286.756 64.9863 281.876 62.6749 276.939 63.3095L276.941 63.3035Z" stroke="#072811" stroke-width="2" stroke-miterlimit="10"/>
<path d="M282.474 53.1826L295.838 60.136C296.738 57.837 298.45 54.8096 301.913 53.1872C304.411 52.011 306.446 52.2179 310.381 51.8141C315.398 51.3084 320.149 50.1581 323.113 49.0508C325.212 48.267 333.691 45.0957 336.481 37.2281C338.878 30.4738 335.635 24.3153 334.724 22.5868C331.38 16.2471 325.717 13.0228 321.85 10.8269C314.457 6.63277 307.41 5.60045 305.834 5.38782C304.856 5.25619 301.413 5.02403 294.521 4.55769L293.738 17.876C297.569 18.1548 300.755 18.6687 303.088 19.1336C308.745 20.2515 312.591 21.0558 316.209 23.7932C317.626 24.8636 320.017 26.7241 320.601 29.6183C320.712 30.1782 321.044 31.9304 320.076 33.7481C319.123 35.5436 317.456 36.3801 316.401 36.8928C313.437 38.3364 310.468 38.3604 309.548 38.3838C302.299 38.5334 294.755 40.4247 292.255 42.2009C288.59 44.814 280.561 52.1863 282.467 53.1806L282.474 53.1826Z" stroke="#072811" stroke-width="2" stroke-miterlimit="10"/>
</g>
<defs>
<clipPath id="clip0_121_789">
<rect width="55.2866" height="82.6649" fill="white" transform="matrix(0.960492 0.278309 -0.303764 0.952747 291.11 0)"/>
</clipPath>
</defs>
</svg>
