<svg width="57" height="62" viewBox="0 0 57 62" fill="none" xmlns="http://www.w3.org/2000/svg">
<g clip-path="url(#clip0_99_752)">
<path d="M5.17019 15.72V54C5.09019 54.29 5.02019 54.69 5.17019 55.09C5.17019 55.09 5.37019 55.63 6.03019 55.98C7.33019 56.69 40.8202 56.1 47.6602 55.98C47.6602 55.98 48.3002 56.17 48.9802 55.84C50.3302 55.19 50.5502 52.88 50.6302 51.5C50.8202 47.88 50.8502 33.85 50.6302 14.81C50.6502 14.21 50.5802 13.38 50.0902 12.67C49.1402 11.29 47.2002 11.25 44.6202 11.23C40.9402 11.2 38.0202 11.21 36.0402 11.23C21.6102 11.07 11.1002 11.12 9.46019 11.23C7.98019 11.33 7.14019 11.93 6.89019 12.12C6.72019 12.25 6.37019 12.54 6.03019 13.01C5.29019 14.04 5.19019 15.16 5.17019 15.69V15.72Z" stroke="#072811" stroke-width="2" stroke-miterlimit="10"/>
<path d="M1.10999 12.4V57.3C1.00999 57.64 0.929992 58.11 1.10999 58.58C1.10999 58.58 1.34999 59.21 2.12999 59.63C3.66999 60.46 43.32 59.77 51.42 59.63C51.42 59.63 52.17 59.86 52.98 59.47C54.58 58.71 54.84 56 54.93 54.38C55.16 50.13 55.19 33.67 54.93 11.35C54.96 10.65 54.87 9.66996 54.3 8.83996C53.17 7.21996 50.88 7.16996 47.83 7.14996C43.47 7.11996 40.01 7.12996 37.68 7.14996C20.6 6.96996 8.14999 7.01996 6.19999 7.14996C4.44999 7.26996 3.44999 7.96996 3.14999 8.19996C2.94999 8.34996 2.52999 8.68996 2.12999 9.24996C1.25999 10.46 1.12999 11.77 1.10999 12.4Z" stroke="#072811" stroke-width="2" stroke-miterlimit="10"/>
<path d="M11.0996 26.04H15.6596V30.53H11.0996V26.04Z" stroke="#072811" stroke-width="2" stroke-miterlimit="10"/>
<path d="M21.0996 26.04H25.6596V30.53H21.0996V26.04Z" stroke="#072811" stroke-width="2" stroke-miterlimit="10"/>
<path d="M31.0996 26.04H35.6596V30.53H31.0996V26.04Z" stroke="#072811" stroke-width="2" stroke-miterlimit="10"/>
<path d="M11.0996 36.04H15.6596V40.53H11.0996V36.04Z" stroke="#072811" stroke-width="2" stroke-miterlimit="10"/>
<path d="M21.0996 36.04H25.6596V40.53H21.0996V36.04Z" stroke="#072811" stroke-width="2" stroke-miterlimit="10"/>
<path d="M31.0996 36.04H35.6596V40.53H31.0996V36.04Z" stroke="#072811" stroke-width="2" stroke-miterlimit="10"/>
<path d="M11.0996 47.04H15.6596V51.53H11.0996V47.04Z" stroke="#072811" stroke-width="2" stroke-miterlimit="10"/>
<path d="M21.0996 47.04H25.6596V51.53H21.0996V47.04Z" stroke="#072811" stroke-width="2" stroke-miterlimit="10"/>
<path d="M31.0996 47.04H35.6596V51.53H31.0996V47.04Z" stroke="#072811" stroke-width="2" stroke-miterlimit="10"/>
<path d="M41.0996 26.04H45.6596V30.53H41.0996V26.04Z" stroke="#072811" stroke-width="2" stroke-miterlimit="10"/>
<path d="M6.09961 16.04H50.0996" stroke="#072811" stroke-width="2" stroke-miterlimit="10"/>
<path d="M50.0996 20.04H6.09961" stroke="#072811" stroke-width="2" stroke-miterlimit="10"/>
<path d="M10.1509 1.01592L10.0254 11.0051L15.025 11.068L15.1505 1.07875L10.1509 1.01592Z" stroke="#072811" stroke-width="2" stroke-miterlimit="10"/>
<path d="M40.148 1.01836L40.0225 11.0076L45.0221 11.0704L45.1476 1.08119L40.148 1.01836Z" stroke="#072811" stroke-width="2" stroke-miterlimit="10"/>
</g>
<defs>
<clipPath id="clip0_99_752">
<rect width="56.1" height="61.04" fill="white"/>
</clipPath>
</defs>
</svg>
