<svg width="122" height="106" viewBox="0 0 122 106" fill="none" xmlns="http://www.w3.org/2000/svg">
<g clip-path="url(#clip0_199_161)">
<path d="M49.4903 23.07L80.5303 33.95C80.5303 33.95 82.9203 33.95 82.9203 36.13C82.9203 38.31 59.7303 90.55 59.7303 90.55L16.0603 77.48C16.0603 77.48 13.6703 78 16.0603 73.39C18.4503 68.78 32.7803 29.6 32.7803 29.6L49.4903 23.07Z" stroke="#072811" stroke-width="2" stroke-miterlimit="10"/>
<path d="M34.1699 28.6C36.5599 30.06 38.9499 31.5 41.3299 32.95C42.9299 33.67 44.5099 34.41 46.1099 35.13C47.7099 31.49 49.2899 27.88 50.8899 24.25" stroke="#072811" stroke-width="2" stroke-miterlimit="10"/>
<path d="M78.1497 44.83C81.2497 45.37 88.9697 47.05 90.0897 51.36C90.3297 52.32 90.1897 53.1 90.0897 53.54C88.6997 59.96 82.1597 74 80.5397 77.48C78.1497 83.29 75.7597 89.08 73.3797 94.89C72.7397 96.96 71.4497 99.77 68.5997 101.42C65.2597 103.38 61.4397 102.77 49.4997 99.24C28.1497 92.93 26.0697 90.62 25.6197 88.36C25.3297 86.95 25.5497 84.79 28.0097 81.83" stroke="#072811" stroke-width="2" stroke-miterlimit="10"/>
<path d="M34.4404 56.83H59.9404V73.55H34.4404V56.83Z" stroke="#072811" stroke-width="2" stroke-miterlimit="10"/>
<path d="M38.0801 56.83C38.0801 56.54 38.0801 56.09 38.0801 55.54C38.1401 50.24 38.1601 47.6 39.2901 45.25C40.3401 43.08 42.4701 40.88 45.3601 40.11C46.0801 39.92 49.5201 39.1 52.6501 41.4C54.7901 42.98 56.1501 45.54 56.2901 47.83C56.2901 47.83 56.2901 48.26 56.2901 49.12C56.2901 50.83 56.2901 52.55 56.2901 54.26V56.83" stroke="#072811" stroke-width="2" stroke-miterlimit="10"/>
<path d="M41.1201 56.19C41.1201 55.97 41.1201 55.63 41.1201 55.22C41.1601 51.22 41.1801 49.22 41.9301 47.45C42.6301 45.81 44.0501 44.15 45.9801 43.56C46.4601 43.41 48.7501 42.79 50.8401 44.53C52.2701 45.72 53.1701 47.66 53.2701 49.39C53.2701 49.39 53.2701 49.7134 53.2701 50.36C53.2701 51.66 53.2701 52.95 53.2701 54.25V56.19" stroke="#072811" stroke-width="2" stroke-miterlimit="10"/>
<path d="M44.7601 69.69H49.3301C49.0201 68.4 48.7101 67.12 48.4001 65.83C49.3301 65.2148 49.7201 63.65 49.3301 62.83C49.1001 62.34 48.6501 62.1 48.4001 61.97C48.2501 61.89 47.0801 61.3 45.9701 61.97C45.0501 62.52 44.4801 63.75 44.7601 64.54C45.0001 65.23 45.9701 65.83 45.9701 65.83C45.9701 65.83 45.5501 67.18 44.7601 69.69Z" stroke="#072811" stroke-width="2" stroke-miterlimit="10"/>
</g>
<defs>
<clipPath id="clip0_199_161">
<rect width="77.22" height="81.53" fill="white" transform="translate(14 22)"/>
</clipPath>
</defs>
</svg>
