<svg width="79" height="82" viewBox="0 0 79 82" fill="none" xmlns="http://www.w3.org/2000/svg">
<g clip-path="url(#clip0_99_654)">
<path d="M36.3819 1.06995L67.4219 11.9499C67.4219 11.9499 69.8119 11.9499 69.8119 14.1299C69.8119 16.3099 46.6219 68.5499 46.6219 68.5499L2.95187 55.4799C2.95187 55.4799 0.561871 55.9999 2.95187 51.3899C5.34187 46.7799 19.6719 7.59995 19.6719 7.59995L36.3819 1.06995Z" stroke="#072811" stroke-width="2" stroke-miterlimit="10"/>
<path d="M21.0615 6.6C23.4515 8.06 25.8415 9.5 28.2215 10.95C29.8215 11.67 31.4015 12.41 33.0015 13.13C34.6015 9.49 36.1815 5.88 37.7815 2.25" stroke="#072811" stroke-width="2" stroke-miterlimit="10"/>
<path d="M65.0413 22.83C68.1413 23.37 75.8613 25.05 76.9813 29.36C77.2213 30.32 77.0813 31.1 76.9813 31.54C75.5913 37.96 69.0513 52 67.4313 55.48C65.0413 61.29 62.6513 67.08 60.2713 72.89C59.6313 74.96 58.3413 77.77 55.4913 79.42C52.1513 81.38 48.3313 80.77 36.3913 77.24C15.0413 70.93 12.9613 68.62 12.5113 66.36C12.2213 64.95 12.4413 62.79 14.9013 59.83" stroke="#072811" stroke-width="2" stroke-miterlimit="10"/>
<path d="M21.332 34.83H46.832V51.55H21.332V34.83Z" stroke="#072811" stroke-width="2" stroke-miterlimit="10"/>
<path d="M24.9717 34.83C24.9717 34.54 24.9717 34.09 24.9717 33.54C25.0317 28.24 25.0517 25.6 26.1817 23.25C27.2317 21.08 29.3617 18.88 32.2517 18.11C32.9717 17.92 36.4117 17.1 39.5417 19.4C41.6817 20.98 43.0417 23.54 43.1817 25.83C43.1817 25.83 43.1817 26.26 43.1817 27.12C43.1817 28.83 43.1817 30.55 43.1817 32.26V34.83" stroke="#072811" stroke-width="2" stroke-miterlimit="10"/>
<path d="M28.0117 34.19C28.0117 33.97 28.0117 33.63 28.0117 33.22C28.0517 29.22 28.0717 27.22 28.8217 25.45C29.5217 23.81 30.9417 22.15 32.8717 21.56C33.3517 21.41 35.6417 20.79 37.7317 22.53C39.1617 23.72 40.0617 25.66 40.1617 27.39C40.1617 27.39 40.1617 27.7133 40.1617 28.36C40.1617 29.66 40.1617 30.95 40.1617 32.25V34.19" stroke="#072811" stroke-width="2" stroke-miterlimit="10"/>
<path d="M31.6517 47.6901H36.2217C35.9117 46.4001 35.6017 45.1201 35.2917 43.8301C36.2217 43.2148 36.6117 41.6501 36.2217 40.8301C35.9917 40.3401 35.5417 40.1001 35.2917 39.9701C35.1417 39.8901 33.9717 39.3001 32.8617 39.9701C31.9417 40.5201 31.3717 41.7501 31.6517 42.5401C31.8917 43.2301 32.8617 43.8301 32.8617 43.8301C32.8617 43.8301 32.4417 45.1801 31.6517 47.6901Z" stroke="#072811" stroke-width="2" stroke-miterlimit="10"/>
</g>
<defs>
<clipPath id="clip0_99_654">
<rect width="77.22" height="81.53" fill="white" transform="translate(0.891602)"/>
</clipPath>
</defs>
</svg>
