<svg width="77" height="69" viewBox="0 0 77 69" fill="none" xmlns="http://www.w3.org/2000/svg">
<g clip-path="url(#clip0_79_373)">
<path d="M36.9785 27.6251C36.9613 31.9653 36.9484 39.2225 36.9785 48.4874C37.0043 55.8194 37.0903 63.9955 39.9877 65.2791C40.6669 65.5788 41.8791 65.6737 43.4267 65.7886C45.0946 65.9134 46.2854 65.8335 47.2956 65.7886C48.7959 65.7186 50.9754 65.6687 53.7438 65.7886H57.6127C59.2076 65.9834 61.5977 66.1382 64.4908 65.7886C66.7735 65.5139 67.9169 65.379 68.7896 64.7697C71.0808 63.1814 71.2227 59.5004 71.7987 50.0107C72.1985 43.3929 72.7703 36.7901 73.0884 30.1623C73.0884 30.1623 72.6585 26.0917 73.9481 26.0917C75.4355 26.0917 75.2378 23.04 75.2378 23.04H35.6889C35.5513 23.2898 35.1601 24.0639 35.259 25.0778C35.3708 26.1916 36.0328 27.1606 36.9785 27.6201V27.6251Z" stroke="#072811" stroke-width="2" stroke-miterlimit="10"/>
<path d="M42.9966 2.06779C42.3432 1.54836 41.6339 1.42349 41.2341 1.77811C41.0105 1.97789 40.9203 2.29255 40.8472 2.56725C40.787 2.78701 40.6022 3.46128 40.8472 4.06562C41.1094 4.71991 41.8015 5.11448 42.5667 5.06454C47.6393 7.24716 51.7575 9.18006 54.6033 10.5586C64.1381 15.1686 73.8877 20.5177 73.9479 20.5477C74.7002 21.1121 75.5857 21.0871 76.0973 20.5477C76.4326 20.1931 76.6776 19.5488 76.5272 19.0493C76.3552 18.4949 75.6674 18.0504 75.6674 18.0504C75.6674 18.0504 75.3665 17.8756 74.8077 17.551C74.885 16.7868 74.8936 15.638 74.3778 14.5542C73.6857 13.1008 72.4347 12.5564 71.3686 12.0569C69.7996 11.3227 67.6416 10.2189 64.9204 8.56073C59.1901 5.89863 53.4555 3.23153 47.7253 0.569421C47.2653 0.494502 46.6763 0.45954 46.0057 0.569421C44.5527 0.80916 43.521 1.5983 42.9966 2.06779Z" stroke="#072811" stroke-width="2" stroke-miterlimit="10"/>
<path d="M55.4632 4.06548C55.4159 3.63095 55.3557 2.59208 55.893 2.06765C56.4476 1.52324 57.3503 1.82292 58.0424 2.06765C62.0489 3.4911 65.7717 5.55886 65.7803 5.56385C65.9221 5.72867 66.0683 5.89849 66.2101 6.06331C66.1671 6.79251 65.9694 7.262 65.7803 7.56168C65.4364 8.11108 65.0796 8.47069 64.8646 8.62552" stroke="#072811" stroke-width="4" stroke-miterlimit="10"/>
<path d="M5.16723 63.0013C5.16723 63.0013 3.44771 62.5019 3.87759 60.504C4.30747 58.5062 5.16723 56.4934 5.16723 56.4934C5.5971 56.3336 6.02698 56.1737 6.45686 56.0089C6.74488 55.1748 7.0286 54.3457 7.31662 53.5116C9.50041 52.273 11.0523 50.9544 12.0453 50.0154C14.7449 47.4532 15.854 44.931 19.2802 43.023L21.0728 42.0241C21.0728 42.0241 21.0728 33.5334 21.5026 33.5334C21.9325 33.5334 18.0636 29.5377 18.4935 27.0404C18.9234 24.5431 21.537 19.109 21.537 19.109C21.537 19.109 20.6429 17.0513 21.9325 17.0513C23.2222 17.0513 24.5118 17.0513 24.5118 18.0502C24.5118 19.0491 23.2222 20.5475 23.2222 20.048C23.2222 19.5486 22.7923 20.048 21.9325 23.5442C21.0728 27.0404 20.6429 26.541 21.9325 29.0382C23.2222 31.5355 24.0819 32.035 24.0819 32.035C24.2066 32.0849 24.3828 32.1349 24.5118 32.035C24.8342 31.7952 24.6021 30.8912 24.5118 29.9772C24.4258 29.1182 24.241 27.2552 24.9417 26.541C25.694 25.7718 27.5553 26.2413 28.3807 27.5399C28.9825 28.4888 28.888 29.6426 28.8106 30.5366C28.7547 31.1909 28.7117 31.6954 28.3807 32.035C27.7875 32.6393 26.9148 32.0799 26.6612 32.5344C26.442 32.929 26.9965 33.5284 27.4565 34.8519C27.7574 35.716 28.0411 36.5401 27.9508 37.529C27.809 39.0474 26.8417 40.261 26.2313 41.0252C26.0551 41.245 25.9046 41.4148 25.8014 41.5247L33.9691 42.0241C33.9691 42.0241 35.6328 42.6435 35.5984 43.4226C35.5855 43.7073 35.3491 43.9071 35.2416 43.997C33.4662 45.4554 26.5881 48.9866 26.6612 51.0144C26.6913 51.8484 27.9293 53.197 27.9508 54.0111C27.9508 54.056 27.9465 54.131 27.9078 54.1859C27.6972 54.5056 26.5752 53.7414 26.2313 53.5116C25.565 53.0621 24.6365 52.303 23.652 51.0144C25.2297 49.1813 26.8031 47.3533 28.3807 45.5203C26.5193 45.855 24.6537 46.1846 22.7923 46.5192C19.6413 48.5171 16.486 50.5149 13.3349 52.5127C11.4736 53.8463 9.60788 55.1748 7.7465 56.5084L5.16723 63.0013Z" stroke="#072811" stroke-width="2" stroke-miterlimit="10"/>
<path d="M1.72846 64.5C1.71986 64.6898 1.70267 65.414 2.14544 65.9984C2.6398 66.6527 3.50816 66.8624 4.30774 66.4978" stroke="#072811" stroke-width="2" stroke-miterlimit="10"/>
<path d="M0.438726 66.9971C0.369945 67.8012 0.812721 68.4355 1.29848 68.4954C1.77565 68.5554 2.13245 68.0359 2.15824 67.996" stroke="#072811" stroke-width="2" stroke-miterlimit="10"/>
<path d="M31.8197 1.56836L37.4082 4.06565C37.4082 4.06565 37.838 4.06565 37.838 4.5651C37.838 5.06456 33.6639 17.0515 33.6639 17.0515L25.8014 14.0548C25.8014 14.0548 25.3715 14.1747 25.8014 13.1158C26.2313 12.057 28.8106 3.06673 28.8106 3.06673L31.8197 1.56836Z" stroke="#072811" stroke-width="2" stroke-miterlimit="10"/>
<path d="M29.2402 3.06679C29.6701 3.40142 30.1 3.73106 30.5299 4.0657C30.8179 4.23052 31.1016 4.40034 31.3896 4.56516C31.6777 3.73106 31.9614 2.90196 32.2494 2.06787" stroke="#072811" stroke-width="2" stroke-miterlimit="10"/>
<path d="M36.9789 6.56299C37.5377 6.68785 38.9263 7.07243 39.1283 8.06136C39.1713 8.28112 39.1455 8.46092 39.1283 8.56082C38.879 10.0342 37.7011 13.2557 37.4088 14.0548C36.9789 15.3884 36.549 16.717 36.1191 18.0505C36.0031 18.525 35.7709 19.1693 35.2594 19.5489C34.6576 19.9984 33.9697 19.8585 31.8203 19.0494C27.9772 17.601 27.6032 17.0716 27.5216 16.5521C27.47 16.2275 27.5087 15.733 27.9514 15.0538" stroke="#072811" stroke-width="2" stroke-miterlimit="10"/>
<path d="M41.7166 36H39.7578V30.9091H41.6967C42.2204 30.9091 42.6728 31.011 43.054 31.2148C43.4368 31.417 43.7318 31.7087 43.9389 32.0898C44.1477 32.4693 44.2521 32.9242 44.2521 33.4545C44.2521 33.9848 44.1486 34.4406 43.9414 34.8217C43.7343 35.2012 43.4409 35.4929 43.0614 35.6967C42.6819 35.8989 42.2337 36 41.7166 36ZM41.1399 34.8267H41.6669C41.9188 34.8267 42.1334 34.7861 42.3107 34.7049C42.4897 34.6237 42.6256 34.4837 42.7184 34.2848C42.8129 34.0859 42.8601 33.8092 42.8601 33.4545C42.8601 33.0999 42.812 32.8232 42.7159 32.6243C42.6214 32.4254 42.4822 32.2854 42.2983 32.2042C42.116 32.123 41.8923 32.0824 41.6271 32.0824H41.1399V34.8267ZM46.1337 30.9091V36H44.7516V30.9091H46.1337ZM49.9548 32.5895C49.9333 32.5017 49.8993 32.4246 49.8529 32.3583C49.8065 32.2904 49.7485 32.2332 49.6789 32.1868C49.611 32.1387 49.5314 32.1031 49.4403 32.0799C49.3508 32.055 49.2522 32.0426 49.1444 32.0426C48.9124 32.0426 48.7144 32.0981 48.5503 32.2092C48.3879 32.3202 48.2636 32.4801 48.1775 32.6889C48.093 32.8977 48.0507 33.1496 48.0507 33.4446C48.0507 33.7429 48.0913 33.9981 48.1725 34.2102C48.2537 34.4223 48.3747 34.5848 48.5354 34.6974C48.6962 34.8101 48.8959 34.8665 49.1345 34.8665C49.345 34.8665 49.5198 34.8358 49.659 34.7745C49.7999 34.7132 49.9051 34.6262 49.9747 34.5135C50.0443 34.4008 50.0791 34.2682 50.0791 34.1158L50.3177 34.1406H49.1544V33.1562H51.4115V33.8622C51.4115 34.3262 51.3129 34.7231 51.1157 35.0529C50.9201 35.381 50.65 35.6329 50.3053 35.8086C49.9623 35.9826 49.5687 36.0696 49.1246 36.0696C48.6291 36.0696 48.194 35.9644 47.8195 35.7539C47.445 35.5434 47.1525 35.2435 46.942 34.854C46.7332 34.4646 46.6288 34.0014 46.6288 33.4645C46.6288 33.0436 46.6926 32.6707 46.8202 32.3459C46.9495 32.0211 47.1285 31.7468 47.3572 31.5231C47.5859 31.2977 47.8502 31.1278 48.1501 31.0135C48.4501 30.8975 48.7716 30.8395 49.1146 30.8395C49.4162 30.8395 49.6963 30.8826 49.9548 30.9688C50.215 31.0533 50.4445 31.1742 50.6434 31.3317C50.8439 31.4875 51.0055 31.6722 51.1281 31.886C51.2507 32.0998 51.3253 32.3343 51.3518 32.5895H49.9548ZM53.298 30.9091V36H51.9159V30.9091H53.298ZM53.6738 32.0227V30.9091H58.0986V32.0227H56.5673V36H55.2051V32.0227H53.6738ZM59.1586 36H57.6671L59.3475 30.9091H61.2367L62.9171 36H61.4256L60.312 32.3111H60.2722L59.1586 36ZM58.8802 33.9915H61.6841V35.0256H58.8802V33.9915ZM63.2674 36V30.9091H64.6495V34.8864H66.7078V36H63.2674Z" fill="#072811"/>
<path d="M44.081 41.8084H42.679C42.669 41.6924 42.6425 41.5872 42.5994 41.4927C42.558 41.3983 42.5 41.3171 42.4254 41.2491C42.3525 41.1795 42.2638 41.1265 42.1594 41.09C42.055 41.0519 41.9366 41.0328 41.804 41.0328C41.572 41.0328 41.3756 41.0892 41.2148 41.2019C41.0558 41.3146 40.9348 41.4761 40.8519 41.6866C40.7707 41.8971 40.7301 42.1498 40.7301 42.4448C40.7301 42.7563 40.7715 43.0173 40.8544 43.2278C40.9389 43.4366 41.0607 43.594 41.2198 43.7001C41.3789 43.8045 41.5703 43.8567 41.794 43.8567C41.9216 43.8567 42.036 43.841 42.1371 43.8095C42.2382 43.7763 42.326 43.7291 42.4006 43.6678C42.4751 43.6065 42.5356 43.5327 42.582 43.4466C42.6301 43.3587 42.6624 43.2601 42.679 43.1507L44.081 43.1607C44.0644 43.3761 44.0039 43.5957 43.8995 43.8194C43.7951 44.0415 43.6468 44.247 43.4545 44.4359C43.264 44.6232 43.0278 44.774 42.7461 44.8883C42.4644 45.0027 42.1371 45.0598 41.7642 45.0598C41.2969 45.0598 40.8776 44.9596 40.5064 44.7591C40.1368 44.5585 39.8443 44.2636 39.6289 43.8741C39.4151 43.4847 39.3082 43.0082 39.3082 42.4448C39.3082 41.878 39.4176 41.4007 39.6364 41.013C39.8551 40.6235 40.1501 40.3294 40.5213 40.1305C40.8925 39.93 41.3068 39.8297 41.7642 39.8297C42.0857 39.8297 42.3815 39.8736 42.6516 39.9615C42.9218 40.0493 43.1587 40.1777 43.3626 40.3468C43.5664 40.5141 43.7305 40.7205 43.8548 40.9657C43.979 41.211 44.0545 41.4919 44.081 41.8084ZM44.218 44.9902V39.8993H45.6001V43.8766H47.6583V44.9902H44.218ZM47.727 44.9902V39.8993H51.3961V41.013H49.1091V41.888H51.2071V43.0016H49.1091V43.8766H51.3861V44.9902H47.727ZM52.914 44.9902H51.4225L53.1029 39.8993H54.9921L56.6725 44.9902H55.181L54.0674 41.3013H54.0276L52.914 44.9902ZM52.6356 42.9817H55.4395V44.0158H52.6356V42.9817ZM61.0776 39.8993V44.9902H59.9242L58.0847 42.3155H58.0549V44.9902H56.6728V39.8993H57.8461L59.6558 42.5641H59.6955V39.8993H61.0776ZM64.2542 39.8993H65.6363V43.1607C65.6363 43.5485 65.5435 43.8841 65.3579 44.1674C65.1739 44.4492 64.9171 44.6671 64.5873 44.8212C64.2575 44.9737 63.8747 45.0499 63.4388 45.0499C62.9997 45.0499 62.6152 44.9737 62.2854 44.8212C61.9557 44.6671 61.6988 44.4492 61.5148 44.1674C61.3326 43.8841 61.2414 43.5485 61.2414 43.1607V39.8993H62.6235V43.0414C62.6235 43.1988 62.6583 43.3397 62.7279 43.464C62.7975 43.5866 62.8936 43.6827 63.0163 43.7523C63.1406 43.8219 63.2814 43.8567 63.4388 43.8567C63.5979 43.8567 63.7388 43.8219 63.8614 43.7523C63.9841 43.6827 64.0802 43.5866 64.1498 43.464C64.2194 43.3397 64.2542 43.1988 64.2542 43.0414V39.8993ZM65.8032 44.9902V39.8993H68.0006C68.3784 39.8993 68.7091 39.9739 68.9924 40.123C69.2758 40.2722 69.4962 40.4818 69.6537 40.752C69.8111 41.0221 69.8898 41.3378 69.8898 41.699C69.8898 42.0636 69.8086 42.3793 69.6462 42.6461C69.4855 42.9129 69.2592 43.1184 68.9676 43.2626C68.6776 43.4068 68.3387 43.4789 67.9509 43.4789H66.6384V42.405H67.6725C67.8349 42.405 67.9733 42.3768 68.0876 42.3205C68.2036 42.2625 68.2923 42.1805 68.3536 42.0744C68.4166 41.9683 68.4481 41.8432 68.4481 41.699C68.4481 41.5532 68.4166 41.4289 68.3536 41.3262C68.2923 41.2218 68.2036 41.1422 68.0876 41.0875C67.9733 41.0312 67.8349 41.003 67.6725 41.003H67.1853V44.9902H65.8032Z" fill="#072811"/>
<path d="M41.7166 53.9805H39.7578V48.8896H41.6967C42.2204 48.8896 42.6728 48.9915 43.054 49.1953C43.4368 49.3975 43.7318 49.6892 43.9389 50.0703C44.1477 50.4498 44.2521 50.9047 44.2521 51.435C44.2521 51.9653 44.1486 52.421 43.9414 52.8022C43.7343 53.1817 43.4409 53.4734 43.0614 53.6772C42.6819 53.8794 42.2337 53.9805 41.7166 53.9805ZM41.1399 52.8072H41.6669C41.9188 52.8072 42.1334 52.7666 42.3107 52.6854C42.4897 52.6042 42.6256 52.4641 42.7184 52.2653C42.8129 52.0664 42.8601 51.7897 42.8601 51.435C42.8601 51.0804 42.812 50.8036 42.7159 50.6048C42.6214 50.4059 42.4822 50.2659 42.2983 50.1847C42.116 50.1035 41.8923 50.0629 41.6271 50.0629H41.1399V52.8072ZM45.2628 53.9805H43.7713L45.4517 48.8896H47.3409L49.0213 53.9805H47.5298L46.4162 50.2915H46.3764L45.2628 53.9805ZM44.9843 51.9719H47.7883V53.006H44.9843V51.9719ZM48.1533 48.8896H49.6945L50.6888 50.9577H50.7285L51.7229 48.8896H53.2641L51.3947 52.3796V53.9805H50.0226V52.3796L48.1533 48.8896Z" fill="#072811"/>
<path d="M55.278 52.4482V51.7025L56.7023 50.5242C56.7968 50.4459 56.8776 50.3726 56.9447 50.3042C57.0131 50.2346 57.0653 50.1632 57.1013 50.0898C57.1386 50.0165 57.1572 49.9351 57.1572 49.8456C57.1572 49.7474 57.1361 49.6635 57.0938 49.5939C57.0528 49.5243 56.9956 49.4709 56.9223 49.4336C56.849 49.3951 56.7645 49.3758 56.6688 49.3758C56.5731 49.3758 56.4885 49.3951 56.4152 49.4336C56.3431 49.4721 56.2872 49.5287 56.2474 49.6032C56.2077 49.6778 56.1878 49.7686 56.1878 49.8754H55.2034C55.2034 49.607 55.2637 49.3758 55.3842 49.1819C55.5048 48.988 55.6751 48.8389 55.8951 48.7345C56.1151 48.6301 56.373 48.5779 56.6688 48.5779C56.9745 48.5779 57.2393 48.627 57.463 48.7251C57.6879 48.8221 57.8613 48.9588 57.9831 49.1353C58.1062 49.3118 58.1677 49.5187 58.1677 49.7561C58.1677 49.9028 58.1373 50.0488 58.0763 50.1942C58.0154 50.3384 57.9061 50.4981 57.7482 50.6734C57.5904 50.8486 57.366 51.0574 57.0752 51.2998L56.7172 51.5981V51.6205H58.2087V52.4482H55.278ZM60.335 52.5526C59.9882 52.5514 59.6887 52.4712 59.4364 52.3121C59.1841 52.1531 58.9896 51.9237 58.8528 51.6242C58.7161 51.3247 58.6484 50.9655 58.6496 50.5466C58.6509 50.1265 58.7192 49.7698 58.8547 49.4765C58.9914 49.1831 59.1853 48.96 59.4364 48.8072C59.6887 48.6543 59.9882 48.5779 60.335 48.5779C60.6818 48.5779 60.9813 48.6549 61.2336 48.809C61.4859 48.9619 61.6804 49.185 61.8172 49.4783C61.9539 49.7717 62.0216 50.1278 62.0204 50.5466C62.0204 50.968 61.952 51.3284 61.8153 51.6279C61.6786 51.9275 61.4841 52.1568 61.2318 52.3159C60.9807 52.4737 60.6818 52.5526 60.335 52.5526ZM60.335 51.71C60.514 51.71 60.6606 51.6167 60.775 51.4303C60.8906 51.2426 60.9478 50.9481 60.9465 50.5466C60.9465 50.2844 60.9204 50.07 60.8682 49.9034C60.816 49.7369 60.7439 49.6138 60.6519 49.5343C60.56 49.4535 60.4543 49.4131 60.335 49.4131C60.156 49.4131 60.01 49.5038 59.8969 49.6853C59.7838 49.8667 59.726 50.1539 59.7235 50.5466C59.7223 50.8138 59.7477 51.0338 59.7999 51.2066C59.8521 51.3781 59.9242 51.5049 60.0162 51.5869C60.1094 51.6689 60.2157 51.71 60.335 51.71ZM62.507 52.4482V51.7025L63.9313 50.5242C64.0258 50.4459 64.1066 50.3726 64.1737 50.3042C64.2421 50.2346 64.2943 50.1632 64.3303 50.0898C64.3676 50.0165 64.3862 49.9351 64.3862 49.8456C64.3862 49.7474 64.3651 49.6635 64.3228 49.5939C64.2818 49.5243 64.2247 49.4709 64.1513 49.4336C64.078 49.3951 63.9935 49.3758 63.8978 49.3758C63.8021 49.3758 63.7176 49.3951 63.6442 49.4336C63.5721 49.4721 63.5162 49.5287 63.4764 49.6032C63.4367 49.6778 63.4168 49.7686 63.4168 49.8754H62.4324C62.4324 49.607 62.4927 49.3758 62.6132 49.1819C62.7338 48.988 62.9041 48.8389 63.1241 48.7345C63.3441 48.6301 63.602 48.5779 63.8978 48.5779C64.2035 48.5779 64.4683 48.627 64.692 48.7251C64.9169 48.8221 65.0903 48.9588 65.2121 49.1353C65.3352 49.3118 65.3967 49.5187 65.3967 49.7561C65.3967 49.9028 65.3663 50.0488 65.3054 50.1942C65.2445 50.3384 65.1351 50.4981 64.9772 50.6734C64.8194 50.8486 64.595 51.0574 64.3042 51.2998L63.9462 51.5981V51.6205H65.4377V52.4482H62.507ZM67.4298 52.5004C67.1365 52.5004 66.8761 52.4489 66.6486 52.3457C66.4224 52.2413 66.2441 52.0977 66.1135 51.915C65.9843 51.7323 65.9184 51.5223 65.9159 51.2849H66.9227C66.9264 51.4166 66.9774 51.5217 67.0756 51.6C67.175 51.6783 67.2931 51.7174 67.4298 51.7174C67.5354 51.7174 67.6286 51.695 67.7094 51.6503C67.7902 51.6043 67.8536 51.5397 67.8996 51.4564C67.9456 51.3731 67.968 51.2762 67.9667 51.1656C67.968 51.0537 67.9456 50.9568 67.8996 50.8747C67.8536 50.7915 67.7902 50.7275 67.7094 50.6827C67.6286 50.6367 67.5354 50.6137 67.4298 50.6137C67.3204 50.6137 67.2191 50.6404 67.1259 50.6939C67.0339 50.7461 66.9662 50.8188 66.9227 50.912L66.0129 50.733L66.162 48.6301H68.7274V49.4578H67.0122L66.9376 50.3005H66.96C67.0196 50.1849 67.1228 50.0892 67.2694 50.0134C67.4161 49.9363 67.5864 49.8978 67.7803 49.8978C68.0077 49.8978 68.2103 49.9506 68.3881 50.0563C68.567 50.1619 68.7081 50.308 68.8113 50.4944C68.9157 50.6796 68.9672 50.8934 68.966 51.1357C68.9672 51.4017 68.9039 51.6379 68.7758 51.8442C68.6491 52.0493 68.4707 52.2102 68.2408 52.3271C68.0108 52.4426 67.7405 52.5004 67.4298 52.5004Z" fill="#072811"/>
<path d="M56.1979 53.0634V55.9434H55.416V53.7834H55.3991L54.7691 54.1602V53.4965L55.4779 53.0634H56.1979ZM57.4275 55.9827C57.2063 55.9827 57.0098 55.9438 56.8383 55.866C56.6677 55.7873 56.5331 55.679 56.4347 55.5412C56.3372 55.4034 56.2875 55.2449 56.2856 55.0659H57.045C57.0478 55.1652 57.0863 55.2445 57.1603 55.3035C57.2353 55.3626 57.3244 55.3921 57.4275 55.3921C57.5072 55.3921 57.5775 55.3752 57.6384 55.3415C57.6994 55.3068 57.7472 55.258 57.7819 55.1952C57.8166 55.1324 57.8334 55.0593 57.8325 54.9759C57.8334 54.8915 57.8166 54.8184 57.7819 54.7565C57.7472 54.6937 57.6994 54.6454 57.6384 54.6116C57.5775 54.577 57.5072 54.5596 57.4275 54.5596C57.345 54.5596 57.2686 54.5798 57.1983 54.6201C57.1289 54.6595 57.0778 54.7143 57.045 54.7846L56.3588 54.6496L56.4713 53.0634H58.4063V53.6877H57.1125L57.0563 54.3234H57.0731C57.1181 54.2362 57.1959 54.164 57.3066 54.1068C57.4172 54.0487 57.5456 54.0196 57.6919 54.0196C57.8634 54.0196 58.0163 54.0595 58.1503 54.1391C58.2853 54.2188 58.3917 54.329 58.4695 54.4696C58.5483 54.6093 58.5872 54.7705 58.5863 54.9534C58.5872 55.154 58.5394 55.3321 58.4428 55.4877C58.3472 55.6424 58.2127 55.7638 58.0392 55.852C57.8658 55.9391 57.6619 55.9827 57.4275 55.9827ZM58.6771 53.0634H59.6502L60.3196 54.6946H60.3533L61.0227 53.0634H61.9958V55.9434H61.2308V54.2784H61.2083L60.5671 55.9209H60.1058L59.4646 54.2671H59.4421V55.9434H58.6771V53.0634ZM62.5997 55.9434H61.756L62.7066 53.0634H63.7753L64.726 55.9434H63.8822L63.2522 53.8565H63.2297L62.5997 55.9434ZM62.4422 54.8071H64.0285V55.3921H62.4422V54.8071ZM64.4885 55.9434V53.0634H65.7317C65.9454 53.0634 66.1324 53.1023 66.2928 53.1801C66.4531 53.2579 66.5778 53.3699 66.6668 53.5162C66.7559 53.6624 66.8004 53.8377 66.8004 54.0421C66.8004 54.2484 66.7545 54.4223 66.6626 54.5638C66.5717 54.7054 66.4437 54.8123 66.2787 54.8845C66.1146 54.9566 65.9229 54.9927 65.7035 54.9927H64.961V54.3852H65.546C65.6379 54.3852 65.7162 54.374 65.7809 54.3515C65.8465 54.328 65.8967 54.291 65.9314 54.2404C65.967 54.1898 65.9848 54.1237 65.9848 54.0421C65.9848 53.9596 65.967 53.8926 65.9314 53.841C65.8967 53.7885 65.8465 53.7501 65.7809 53.7257C65.7162 53.7004 65.6379 53.6877 65.546 53.6877H65.2704V55.9434H64.4885ZM66.176 54.6215L66.896 55.9434H66.0467L65.3435 54.6215H66.176ZM68.1714 53.9634C68.1639 53.8696 68.1287 53.7965 68.0659 53.744C68.0041 53.6915 67.9098 53.6652 67.7833 53.6652C67.7026 53.6652 67.6366 53.6751 67.585 53.6948C67.5344 53.7135 67.4969 53.7393 67.4725 53.7721C67.4481 53.8049 67.4355 53.8424 67.4345 53.8846C67.4326 53.9193 67.4387 53.9507 67.4528 53.9788C67.4678 54.006 67.4912 54.0309 67.5231 54.0534C67.555 54.0749 67.5958 54.0946 67.6455 54.1124C67.6951 54.1302 67.7542 54.1462 67.8226 54.1602L68.0589 54.2109C68.2183 54.2446 68.3547 54.2891 68.4681 54.3445C68.5816 54.3998 68.6744 54.4649 68.7466 54.5399C68.8187 54.614 68.8717 54.6974 68.9055 54.7902C68.9401 54.883 68.958 54.9843 68.9589 55.094C68.958 55.2834 68.9106 55.4437 68.8169 55.5749C68.7231 55.7062 68.5891 55.806 68.4147 55.8745C68.2412 55.9429 68.0326 55.9771 67.7889 55.9771C67.5386 55.9771 67.3201 55.9401 67.1336 55.866C66.948 55.792 66.8036 55.678 66.7005 55.5243C66.5983 55.3696 66.5467 55.1718 66.5458 54.9309H67.2883C67.293 55.019 67.315 55.093 67.3544 55.153C67.3937 55.213 67.4491 55.2585 67.5203 55.2895C67.5925 55.3204 67.6783 55.3359 67.7776 55.3359C67.8611 55.3359 67.9309 55.3255 67.9872 55.3049C68.0434 55.2843 68.0861 55.2557 68.1151 55.2191C68.1442 55.1826 68.1592 55.1409 68.1601 55.094C68.1592 55.0499 68.1447 55.0115 68.1166 54.9787C68.0894 54.9449 68.0444 54.9149 67.9816 54.8887C67.9187 54.8615 67.8339 54.8362 67.727 54.8127L67.4401 54.7509C67.1851 54.6955 66.9841 54.6032 66.8369 54.4738C66.6906 54.3435 66.618 54.1659 66.6189 53.9409C66.618 53.758 66.6667 53.5982 66.7651 53.4613C66.8645 53.3235 67.0019 53.2162 67.1772 53.1393C67.3534 53.0624 67.5555 53.024 67.7833 53.024C68.0158 53.024 68.2169 53.0629 68.3866 53.1407C68.5562 53.2185 68.687 53.3282 68.7789 53.4698C68.8717 53.6104 68.9186 53.7749 68.9195 53.9634H68.1714Z" fill="#072811"/>
</g>
<defs>
<clipPath id="clip0_79_373">
<rect width="77" height="69" fill="white"/>
</clipPath>
</defs>
</svg>
