<svg width="51" height="46" viewBox="0 0 51 46" fill="none" xmlns="http://www.w3.org/2000/svg">
<g clip-path="url(#clip0_79_373)">
<path d="M24.4922 18.4165C24.4808 21.3101 24.4722 26.1481 24.4922 32.3248C24.5092 37.2128 24.5662 42.6635 26.4852 43.5193C26.9351 43.719 27.738 43.7823 28.763 43.8589C29.8678 43.9421 30.6565 43.8889 31.3256 43.8589C32.3193 43.8123 33.7628 43.779 35.5964 43.8589H38.159C39.2153 43.9887 40.7984 44.092 42.7146 43.8589C44.2265 43.6757 44.9838 43.5858 45.5618 43.1796C47.0794 42.1208 47.1734 39.6668 47.5549 33.3403C47.8197 28.9284 48.1984 24.5266 48.4091 20.108C48.4091 20.108 48.1244 17.3943 48.9785 17.3943C49.9637 17.3943 49.8327 15.3599 49.8327 15.3599H23.638C23.5469 15.5263 23.2878 16.0425 23.3533 16.7184C23.4273 17.4609 23.8658 18.1069 24.4922 18.4132V18.4165Z" stroke="#072811" stroke-miterlimit="10"/>
<path d="M28.4791 1.37853C28.0463 1.03224 27.5765 0.948995 27.3117 1.1854C27.1637 1.31859 27.1039 1.52837 27.0555 1.7115C27.0156 1.85801 26.8932 2.30752 27.0555 2.71041C27.2291 3.14661 27.6876 3.40965 28.1944 3.37636C31.5541 4.83144 34.2818 6.12004 36.1667 7.03904C42.4819 10.1124 48.9395 13.6785 48.9793 13.6985C49.4776 14.0747 50.0641 14.0581 50.4029 13.6985C50.625 13.4621 50.7873 13.0325 50.6877 12.6996C50.5738 12.33 50.1182 12.0336 50.1182 12.0336C50.1182 12.0336 49.9189 11.9171 49.5488 11.7006C49.6 11.1912 49.6057 10.4254 49.264 9.70281C48.8056 8.73387 47.9771 8.37093 47.271 8.03796C46.2317 7.54849 44.8024 6.81262 43.0001 5.70716C39.2047 3.93242 35.4065 2.15435 31.6111 0.379614C31.3064 0.329668 30.9163 0.30636 30.4722 0.379614C29.5098 0.53944 28.8265 1.06553 28.4791 1.37853Z" stroke="#072811" stroke-miterlimit="10"/>
<path d="M36.7354 2.71064C36.7041 2.42096 36.6642 1.72838 37.0201 1.37876C37.3874 1.01582 37.9853 1.2156 38.4437 1.37876C41.0974 2.32773 43.5631 3.70623 43.5688 3.70956C43.6628 3.81944 43.7596 3.93265 43.8535 4.04253C43.8251 4.52867 43.6941 4.84166 43.5688 5.04144C43.341 5.40771 43.1047 5.64745 42.9623 5.75067" stroke="#072811" stroke-width="2" stroke-miterlimit="10"/>
<path d="M3.42233 42.001C3.42233 42.001 2.28343 41.6681 2.56816 40.3362C2.85288 39.0043 3.42233 37.6624 3.42233 37.6624C3.70706 37.5559 3.99178 37.4493 4.27651 37.3394C4.46728 36.7834 4.65519 36.2306 4.84596 35.6746C6.29236 34.8488 7.32022 33.9698 7.97794 33.3438C9.76601 31.6356 10.5006 29.9541 12.7699 28.6822L13.9572 28.0162C13.9572 28.0162 13.9572 22.3557 14.2419 22.3557C14.5266 22.3557 11.9641 19.692 12.2488 18.0271C12.5335 16.3622 14.2647 12.7395 14.2647 12.7395C14.2647 12.7395 13.6724 11.3677 14.5266 11.3677C15.3808 11.3677 16.235 11.3677 16.235 12.0336C16.235 12.6996 15.3808 13.6985 15.3808 13.3655C15.3808 13.0325 15.0961 13.3655 14.5266 15.6963C13.9572 18.0271 13.6724 17.6941 14.5266 19.359C15.3808 21.0238 15.9502 21.3568 15.9502 21.3568C16.0328 21.3901 16.1496 21.4234 16.235 21.3568C16.4485 21.197 16.2948 20.5943 16.235 19.985C16.178 19.4123 16.0556 18.1703 16.5197 17.6941C17.018 17.1814 18.2508 17.4943 18.7975 18.3601C19.1961 18.9927 19.1335 19.7619 19.0822 20.3579C19.0452 20.7941 19.0167 21.1304 18.7975 21.3568C18.4046 21.7597 17.8266 21.3868 17.6586 21.6898C17.5134 21.9528 17.8807 22.3524 18.1853 23.2348C18.3846 23.8108 18.5726 24.3602 18.5128 25.0195C18.4188 26.0317 17.7782 26.8409 17.3739 27.3503C17.2571 27.4968 17.1575 27.61 17.0891 27.6833L22.4989 28.0162C22.4989 28.0162 23.6008 28.4291 23.578 28.9486C23.5695 29.1384 23.4129 29.2715 23.3417 29.3315C22.1658 30.3038 17.6102 32.6579 17.6586 34.0097C17.6785 34.5658 18.4985 35.4648 18.5128 36.0076C18.5128 36.0375 18.5099 36.0875 18.4843 36.1241C18.3448 36.3372 17.6017 35.8278 17.3739 35.6746C16.9325 35.3749 16.3175 34.8688 15.6655 34.0097C16.7105 32.7877 17.7526 31.5691 18.7975 30.347C17.5646 30.5701 16.3289 30.7899 15.0961 31.013C13.009 32.3449 10.9192 33.6768 8.83211 35.0086C7.59925 35.8977 6.36355 36.7834 5.13069 37.6724L3.42233 42.001Z" stroke="#072811" stroke-miterlimit="10"/>
<path d="M1.14546 43C1.13976 43.1265 1.12837 43.6093 1.42164 43.9989C1.74907 44.4351 2.32422 44.575 2.85381 44.3319" stroke="#072811" stroke-miterlimit="10"/>
<path d="M0.290826 44.665C0.24527 45.2011 0.538537 45.624 0.860276 45.664C1.17632 45.7039 1.41264 45.3576 1.42973 45.331" stroke="#072811" stroke-miterlimit="10"/>
<path d="M21.0756 1.04541L24.777 2.71027C24.777 2.71027 25.0617 2.71027 25.0617 3.04324C25.0617 3.37621 22.2971 11.3675 22.2971 11.3675L17.0894 9.3697C17.0894 9.3697 16.8047 9.44961 17.0894 8.74371C17.3742 8.03781 19.0825 2.04432 19.0825 2.04432L21.0756 1.04541Z" stroke="#072811" stroke-miterlimit="10"/>
<path d="M19.3672 2.04436C19.6519 2.26745 19.9366 2.48721 20.2214 2.7103C20.4121 2.82018 20.6 2.93339 20.7908 3.04328C20.9816 2.48721 21.1695 1.93448 21.3603 1.37842" stroke="#072811" stroke-miterlimit="10"/>
<path d="M24.4924 4.37549C24.8626 4.45873 25.7823 4.71512 25.9161 5.3744C25.9445 5.52091 25.9275 5.64078 25.9161 5.70737C25.7509 6.68964 24.9708 8.83731 24.7772 9.37006C24.4924 10.2591 24.2077 11.1448 23.923 12.0338C23.8461 12.3502 23.6924 12.7797 23.3535 13.0327C22.9549 13.3324 22.4994 13.2392 21.0757 12.6998C18.5303 11.7342 18.2826 11.3812 18.2285 11.0349C18.1943 10.8185 18.2199 10.4888 18.5132 10.036" stroke="#072811" stroke-miterlimit="10"/>
<path d="M27.6335 25H26.2344V21.3636H27.6193C27.9934 21.3636 28.3165 21.4364 28.5888 21.582C28.8622 21.7264 29.0729 21.9348 29.2209 22.207C29.37 22.4781 29.4446 22.803 29.4446 23.1818C29.4446 23.5606 29.3706 23.8861 29.2227 24.1584C29.0747 24.4295 28.8652 24.6378 28.5941 24.7834C28.323 24.9278 28.0028 25 27.6335 25ZM27.2216 24.1619H27.598C27.7779 24.1619 27.9312 24.1329 28.0579 24.0749C28.1857 24.0169 28.2828 23.9169 28.3491 23.7749C28.4165 23.6328 28.4503 23.4351 28.4503 23.1818C28.4503 22.9285 28.416 22.7308 28.3473 22.5888C28.2798 22.4467 28.1804 22.3467 28.049 22.2887C27.9188 22.2307 27.759 22.2017 27.5696 22.2017H27.2216V24.1619ZM30.7886 21.3636V25H29.8014V21.3636H30.7886ZM33.518 22.5639C33.5026 22.5012 33.4783 22.4461 33.4452 22.3988C33.412 22.3503 33.3706 22.3094 33.3209 22.2763C33.2723 22.242 33.2155 22.2165 33.1504 22.1999C33.0865 22.1822 33.0161 22.1733 32.9391 22.1733C32.7734 22.1733 32.6319 22.2129 32.5148 22.2923C32.3988 22.3716 32.31 22.4858 32.2484 22.6349C32.1881 22.7841 32.1579 22.964 32.1579 23.1747C32.1579 23.3878 32.1869 23.5701 32.2449 23.7216C32.3029 23.8731 32.3893 23.9891 32.5041 24.0696C32.6189 24.1501 32.7616 24.1903 32.932 24.1903C33.0823 24.1903 33.2072 24.1684 33.3067 24.1246C33.4073 24.0808 33.4824 24.0187 33.5322 23.9382C33.5819 23.8577 33.6067 23.763 33.6067 23.6541L33.7772 23.6719H32.9462V22.9688H34.5584V23.473C34.5584 23.8045 34.488 24.0879 34.3471 24.3235C34.2075 24.5579 34.0145 24.7378 33.7683 24.8633C33.5233 24.9876 33.2421 25.0497 32.9249 25.0497C32.571 25.0497 32.2603 24.9746 31.9927 24.8242C31.7252 24.6739 31.5163 24.4596 31.366 24.1815C31.2168 23.9033 31.1422 23.5724 31.1422 23.1889C31.1422 22.8883 31.1878 22.6219 31.279 22.3899C31.3713 22.1579 31.4991 21.962 31.6625 21.8022C31.8258 21.6412 32.0146 21.5199 32.2289 21.4382C32.4431 21.3554 32.6728 21.3139 32.9178 21.3139C33.1332 21.3139 33.3333 21.3447 33.518 21.4062C33.7038 21.4666 33.8677 21.553 34.0098 21.6655C34.153 21.7768 34.2684 21.9087 34.356 22.0614C34.4436 22.2141 34.4969 22.3816 34.5158 22.5639H33.518ZM35.906 21.3636V25H34.9187V21.3636H35.906ZM36.1744 22.1591V21.3636H39.3349V22.1591H38.2412V25H37.2681V22.1591H36.1744ZM40.0921 25H39.0267L40.227 21.3636H41.5764L42.7767 25H41.7114L40.9159 22.3651H40.8875L40.0921 25ZM39.8932 23.5653H41.896V24.304H39.8932V23.5653ZM43.027 25V21.3636H44.0142V24.2045H45.4843V25H43.027Z" fill="#072811"/>
<path d="M28.6293 28.7273H27.6278C27.6207 28.6444 27.6018 28.5692 27.571 28.5018C27.5414 28.4343 27.5 28.3763 27.4467 28.3278C27.3946 28.2781 27.3313 28.2402 27.2567 28.2141C27.1822 28.1869 27.0975 28.1733 27.0028 28.1733C26.8371 28.1733 26.6969 28.2135 26.582 28.294C26.4684 28.3745 26.382 28.4899 26.3228 28.6403C26.2648 28.7906 26.2358 28.9711 26.2358 29.1818C26.2358 29.4044 26.2654 29.5908 26.3246 29.7411C26.3849 29.8903 26.4719 30.0027 26.5856 30.0785C26.6992 30.1531 26.8359 30.1903 26.9957 30.1903C27.0869 30.1903 27.1686 30.1791 27.2408 30.1566C27.313 30.1329 27.3757 30.0992 27.429 30.0554C27.4822 30.0116 27.5254 29.9589 27.5586 29.8974C27.5929 29.8346 27.616 29.7642 27.6278 29.6861L28.6293 29.6932C28.6174 29.8471 28.5742 30.0039 28.4996 30.1637C28.4251 30.3223 28.3191 30.4691 28.1818 30.604C28.0457 30.7378 27.877 30.8455 27.6758 30.9272C27.4746 31.0089 27.2408 31.0497 26.9744 31.0497C26.6406 31.0497 26.3411 30.9781 26.076 30.8349C25.812 30.6916 25.6031 30.4809 25.4492 30.2028C25.2965 29.9246 25.2202 29.5843 25.2202 29.1818C25.2202 28.777 25.2983 28.4361 25.4545 28.1591C25.6108 27.8809 25.8215 27.6708 26.0866 27.5288C26.3518 27.3855 26.6477 27.3139 26.9744 27.3139C27.2041 27.3139 27.4154 27.3453 27.6083 27.408C27.8013 27.4708 27.9705 27.5625 28.1161 27.6832C28.2617 27.8028 28.3789 27.9502 28.4677 28.1254C28.5565 28.3005 28.6103 28.5012 28.6293 28.7273ZM28.7271 31V27.3636H29.7144V30.2045H31.1845V31H28.7271ZM31.2336 31V27.3636H33.8543V28.1591H32.2208V28.7841H33.7194V29.5795H32.2208V30.2045H33.8472V31H31.2336ZM34.9385 31H33.8732L35.0735 27.3636H36.4229L37.6232 31H36.5579L35.7624 28.3651H35.734L34.9385 31ZM34.7397 29.5653H36.7425V30.304H34.7397V29.5653ZM40.7697 27.3636V31H39.9459L38.632 29.0895H38.6107V31H37.6234V27.3636H38.4615L39.7541 29.267H39.7825V27.3636H40.7697ZM43.0387 27.3636H44.0259V29.6932C44.0259 29.9702 43.9596 30.2099 43.8271 30.4123C43.6957 30.6135 43.5122 30.7692 43.2766 30.8793C43.0411 30.9882 42.7676 31.0426 42.4563 31.0426C42.1426 31.0426 41.868 30.9882 41.6325 30.8793C41.3969 30.7692 41.2134 30.6135 41.082 30.4123C40.9518 30.2099 40.8867 29.9702 40.8867 29.6932V27.3636H41.8739V29.608C41.8739 29.7204 41.8988 29.821 41.9485 29.9098C41.9982 29.9974 42.0669 30.0661 42.1545 30.1158C42.2433 30.1655 42.3439 30.1903 42.4563 30.1903C42.57 30.1903 42.6706 30.1655 42.7582 30.1158C42.8458 30.0661 42.9144 29.9974 42.9641 29.9098C43.0138 29.821 43.0387 29.7204 43.0387 29.608V27.3636ZM44.1451 31V27.3636H45.7147C45.9846 27.3636 46.2208 27.4169 46.4232 27.5234C46.6256 27.63 46.783 27.7797 46.8955 27.9727C47.0079 28.1656 47.0642 28.3911 47.0642 28.6491C47.0642 28.9096 47.0061 29.1351 46.8901 29.3256C46.7753 29.5162 46.6137 29.663 46.4054 29.766C46.1983 29.869 45.9562 29.9205 45.6792 29.9205H44.7417V29.1534H45.4803C45.5963 29.1534 45.6952 29.1333 45.7769 29.093C45.8597 29.0516 45.9231 28.993 45.9668 28.9173C46.0118 28.8415 46.0343 28.7521 46.0343 28.6491C46.0343 28.545 46.0118 28.4562 45.9668 28.3828C45.9231 28.3082 45.8597 28.2514 45.7769 28.2124C45.6952 28.1721 45.5963 28.152 45.4803 28.152H45.1323V31H44.1451Z" fill="#072811"/>
<path d="M27.7497 36.3198H26.3506V32.6835H27.7355C28.1096 32.6835 28.4327 32.7563 28.705 32.9019C28.9784 33.0463 29.1891 33.2546 29.3371 33.5269C29.4862 33.7979 29.5608 34.1229 29.5608 34.5016C29.5608 34.8804 29.4868 35.206 29.3389 35.4782C29.1909 35.7493 28.9814 35.9576 28.7103 36.1032C28.4392 36.2476 28.1191 36.3198 27.7497 36.3198ZM27.3378 35.4818H27.7142C27.8941 35.4818 28.0474 35.4528 28.1741 35.3948C28.3019 35.3368 28.399 35.2367 28.4653 35.0947C28.5328 34.9526 28.5665 34.755 28.5665 34.5016C28.5665 34.2483 28.5322 34.0506 28.4635 33.9086C28.396 33.7666 28.2966 33.6665 28.1652 33.6085C28.035 33.5505 27.8752 33.5215 27.6858 33.5215H27.3378V35.4818ZM30.2827 36.3198H29.2173L30.4176 32.6835H31.7671L32.9673 36.3198H31.902L31.1066 33.6849H31.0781L30.2827 36.3198ZM30.0838 34.8852H32.0867V35.6238H30.0838V34.8852ZM32.3473 32.6835H33.4482L34.1584 34.1607H34.1868L34.8971 32.6835H35.9979L34.6627 35.1764V36.3198H33.6826V35.1764L32.3473 32.6835Z" fill="#072811"/>
<path d="M36.6023 34.6323V34.1707L37.484 33.4413C37.5425 33.3928 37.5925 33.3474 37.6341 33.3051C37.6764 33.262 37.7087 33.2178 37.731 33.1724C37.7541 33.127 37.7656 33.0766 37.7656 33.0212C37.7656 32.9604 37.7525 32.9085 37.7264 32.8654C37.701 32.8223 37.6656 32.7892 37.6202 32.7661C37.5748 32.7423 37.5225 32.7303 37.4632 32.7303C37.404 32.7303 37.3517 32.7423 37.3063 32.7661C37.2617 32.79 37.227 32.825 37.2024 32.8711C37.1778 32.9173 37.1655 32.9735 37.1655 33.0396H36.5561C36.5561 32.8734 36.5934 32.7303 36.6681 32.6103C36.7427 32.4903 36.8481 32.3979 36.9843 32.3333C37.1205 32.2687 37.2801 32.2364 37.4632 32.2364C37.6525 32.2364 37.8164 32.2668 37.9549 32.3275C38.0942 32.3876 38.2015 32.4722 38.2769 32.5815C38.3531 32.6907 38.3912 32.8188 38.3912 32.9658C38.3912 33.0566 38.3723 33.147 38.3346 33.237C38.2969 33.3262 38.2292 33.4251 38.1315 33.5336C38.0338 33.6421 37.8949 33.7714 37.7148 33.9214L37.4933 34.106V34.1199H38.4165V34.6323H36.6023ZM39.7328 34.697C39.5182 34.6962 39.3327 34.6466 39.1765 34.5481C39.0203 34.4496 38.8999 34.3076 38.8153 34.1222C38.7307 33.9368 38.6887 33.7144 38.6895 33.4551C38.6903 33.1951 38.7326 32.9742 38.8165 32.7927C38.9011 32.6111 39.0211 32.473 39.1765 32.3783C39.3327 32.2837 39.5182 32.2364 39.7328 32.2364C39.9475 32.2364 40.1329 32.2841 40.2891 32.3795C40.4453 32.4741 40.5657 32.6122 40.6503 32.7938C40.735 32.9754 40.7769 33.1958 40.7761 33.4551C40.7761 33.716 40.7338 33.9391 40.6492 34.1245C40.5646 34.3099 40.4441 34.4519 40.288 34.5504C40.1325 34.6481 39.9475 34.697 39.7328 34.697ZM39.7328 34.1753C39.8436 34.1753 39.9344 34.1176 40.0052 34.0022C40.0767 33.886 40.1121 33.7036 40.1114 33.4551C40.1114 33.2928 40.0952 33.1601 40.0629 33.057C40.0306 32.9538 39.986 32.8777 39.929 32.8284C39.8721 32.7784 39.8067 32.7534 39.7328 32.7534C39.622 32.7534 39.5316 32.8096 39.4616 32.9219C39.3916 33.0343 39.3558 33.212 39.3543 33.4551C39.3535 33.6205 39.3693 33.7567 39.4016 33.8637C39.4339 33.9699 39.4785 34.0483 39.5355 34.0991C39.5932 34.1499 39.659 34.1753 39.7328 34.1753ZM41.0774 34.6323V34.1707L41.9591 33.4413C42.0176 33.3928 42.0676 33.3474 42.1092 33.3051C42.1515 33.262 42.1838 33.2178 42.2061 33.1724C42.2292 33.127 42.2407 33.0766 42.2407 33.0212C42.2407 32.9604 42.2276 32.9085 42.2015 32.8654C42.1761 32.8223 42.1407 32.7892 42.0953 32.7661C42.0499 32.7423 41.9976 32.7303 41.9383 32.7303C41.8791 32.7303 41.8268 32.7423 41.7814 32.7661C41.7368 32.79 41.7021 32.825 41.6775 32.8711C41.6529 32.9173 41.6406 32.9735 41.6406 33.0396H41.0312C41.0312 32.8734 41.0685 32.7303 41.1432 32.6103C41.2178 32.4903 41.3232 32.3979 41.4594 32.3333C41.5956 32.2687 41.7552 32.2364 41.9383 32.2364C42.1276 32.2364 42.2915 32.2668 42.43 32.3275C42.5693 32.3876 42.6766 32.4722 42.752 32.5815C42.8282 32.6907 42.8663 32.8188 42.8663 32.9658C42.8663 33.0566 42.8474 33.147 42.8097 33.237C42.772 33.3262 42.7043 33.4251 42.6066 33.5336C42.5089 33.6421 42.37 33.7714 42.1899 33.9214L41.9684 34.106V34.1199H42.8916V34.6323H41.0774ZM44.1248 34.6646C43.9432 34.6646 43.782 34.6327 43.6412 34.5688C43.5012 34.5042 43.3908 34.4153 43.31 34.3022C43.23 34.1891 43.1892 34.0591 43.1877 33.9122H43.8109C43.8132 33.9937 43.8448 34.0587 43.9055 34.1072C43.9671 34.1557 44.0402 34.1799 44.1248 34.1799C44.1902 34.1799 44.2479 34.1661 44.2979 34.1384C44.348 34.1099 44.3872 34.0699 44.4157 34.0183C44.4441 33.9668 44.458 33.9068 44.4572 33.8383C44.458 33.769 44.4441 33.709 44.4157 33.6582C44.3872 33.6067 44.348 33.5671 44.2979 33.5394C44.2479 33.5109 44.1902 33.4967 44.1248 33.4967C44.0571 33.4967 43.9944 33.5132 43.9367 33.5463C43.8798 33.5786 43.8378 33.6236 43.8109 33.6813L43.2477 33.5705L43.34 32.2687H44.9281V32.7811H43.8663L43.8201 33.3028H43.834C43.8709 33.2312 43.9348 33.172 44.0256 33.125C44.1164 33.0773 44.2218 33.0535 44.3418 33.0535C44.4826 33.0535 44.608 33.0862 44.718 33.1516C44.8288 33.217 44.9162 33.3074 44.98 33.4228C45.0447 33.5374 45.0766 33.6698 45.0758 33.8198C45.0766 33.9845 45.0373 34.1307 44.9581 34.2584C44.8796 34.3853 44.7692 34.485 44.6269 34.5573C44.4845 34.6289 44.3172 34.6646 44.1248 34.6646Z" fill="#072811"/>
<path d="M36.1983 35.8473V38H35.6139V36.3855H35.6013L35.1303 36.6672V36.171L35.6601 35.8473H36.1983ZM37.1766 38.0294C37.0113 38.0294 36.8644 38.0004 36.7362 37.9422C36.6087 37.8833 36.5081 37.8024 36.4345 37.6994C36.3616 37.5964 36.3245 37.4779 36.3231 37.3441H36.8907C36.8928 37.4184 36.9216 37.4776 36.9769 37.5217C37.033 37.5659 37.0995 37.588 37.1766 37.588C37.2362 37.588 37.2888 37.5753 37.3343 37.5501C37.3798 37.5242 37.4156 37.4877 37.4415 37.4408C37.4674 37.3938 37.4801 37.3392 37.4794 37.2768C37.4801 37.2137 37.4674 37.1591 37.4415 37.1128C37.4156 37.0659 37.3798 37.0298 37.3343 37.0046C37.2888 36.9786 37.2362 36.9657 37.1766 36.9657C37.115 36.9657 37.0579 36.9807 37.0053 37.0109C36.9534 37.0403 36.9152 37.0813 36.8907 37.1339L36.3778 37.033L36.4619 35.8473H37.9082V36.314H36.9412L36.8991 36.7891H36.9117C36.9454 36.7239 37.0035 36.67 37.0862 36.6272C37.1689 36.5838 37.2649 36.562 37.3742 36.562C37.5025 36.562 37.6167 36.5918 37.7169 36.6514C37.8178 36.711 37.8974 36.7933 37.9555 36.8984C38.0144 37.0028 38.0435 37.1234 38.0428 37.26C38.0435 37.41 38.0077 37.5431 37.9356 37.6594C37.8641 37.7751 37.7635 37.8658 37.6339 37.9317C37.5042 37.9968 37.3518 38.0294 37.1766 38.0294ZM38.2291 35.8473H38.9564L39.4568 37.0666H39.482L39.9824 35.8473H40.7097V38H40.1379V36.7555H40.1211L39.6418 37.9832H39.297L38.8177 36.747H38.8009V38H38.2291V35.8473ZM41.2203 38H40.5896L41.3002 35.8473H42.0991L42.8096 38H42.179L41.708 36.4401H41.6912L41.2203 38ZM41.1026 37.1507H42.2883V37.588H41.1026V37.1507ZM42.6914 38V35.8473H43.6206C43.7804 35.8473 43.9202 35.8764 44.04 35.9345C44.1598 35.9927 44.253 36.0764 44.3196 36.1857C44.3862 36.2951 44.4194 36.4261 44.4194 36.5789C44.4194 36.733 44.3851 36.863 44.3164 36.9688C44.2485 37.0746 44.1528 37.1545 44.0295 37.2085C43.9068 37.2625 43.7635 37.2894 43.5996 37.2894H43.0446V36.8353H43.4818C43.5505 36.8353 43.609 36.8269 43.6574 36.8101C43.7064 36.7926 43.7439 36.7649 43.7698 36.7271C43.7965 36.6892 43.8098 36.6398 43.8098 36.5789C43.8098 36.5172 43.7965 36.4671 43.7698 36.4286C43.7439 36.3893 43.7064 36.3606 43.6574 36.3424C43.609 36.3234 43.5505 36.314 43.4818 36.314H43.2758V38H42.6914ZM43.9527 37.0119L44.4909 38H43.856L43.3305 37.0119H43.9527ZM45.5034 36.52C45.4978 36.4499 45.4715 36.3953 45.4246 36.356C45.3783 36.3168 45.3079 36.2972 45.2133 36.2972C45.153 36.2972 45.1036 36.3045 45.0651 36.3192C45.0273 36.3332 44.9992 36.3525 44.981 36.377C44.9628 36.4016 44.9533 36.4296 44.9526 36.4611C44.9512 36.4871 44.9558 36.5105 44.9663 36.5316C44.9775 36.5519 44.995 36.5705 45.0188 36.5873C45.0427 36.6034 45.0732 36.6181 45.1103 36.6314C45.1474 36.6447 45.1916 36.6566 45.2427 36.6672L45.4193 36.705C45.5385 36.7302 45.6404 36.7635 45.7252 36.8049C45.81 36.8462 45.8794 36.8949 45.9333 36.951C45.9873 37.0063 46.0269 37.0687 46.0521 37.1381C46.078 37.2074 46.0914 37.2831 46.0921 37.3651C46.0914 37.5067 46.056 37.6265 45.9859 37.7246C45.9158 37.8227 45.8156 37.8973 45.6853 37.9485C45.5556 37.9996 45.3997 38.0252 45.2175 38.0252C45.0304 38.0252 44.8671 37.9975 44.7277 37.9422C44.5889 37.8868 44.481 37.8017 44.4039 37.6868C44.3275 37.5711 44.289 37.4233 44.2883 37.2432H44.8433C44.8468 37.3091 44.8633 37.3644 44.8927 37.4093C44.9221 37.4541 44.9635 37.4881 45.0167 37.5112C45.0707 37.5343 45.1348 37.5459 45.2091 37.5459C45.2715 37.5459 45.3237 37.5382 45.3657 37.5228C45.4078 37.5074 45.4396 37.486 45.4614 37.4587C45.4831 37.4313 45.4943 37.4002 45.495 37.3651C45.4943 37.3322 45.4834 37.3034 45.4624 37.2789C45.4421 37.2537 45.4085 37.2313 45.3615 37.2116C45.3146 37.1913 45.2511 37.1724 45.1713 37.1549L44.9568 37.1086C44.7662 37.0673 44.6159 36.9983 44.5059 36.9016C44.3966 36.8042 44.3423 36.6714 44.343 36.5032C44.3423 36.3665 44.3787 36.2471 44.4523 36.1447C44.5266 36.0417 44.6292 35.9615 44.7603 35.904C44.892 35.8466 45.043 35.8178 45.2133 35.8178C45.3871 35.8178 45.5374 35.8469 45.6642 35.9051C45.7911 35.9632 45.8888 36.0452 45.9575 36.1511C46.0269 36.2562 46.0619 36.3791 46.0626 36.52H45.5034Z" fill="#072811"/>
</g>
<defs>
<clipPath id="clip0_79_373">
<rect width="51" height="46" fill="white"/>
</clipPath>
</defs>
</svg>
