<svg width="437" height="364" viewBox="0 0 437 364" fill="none" xmlns="http://www.w3.org/2000/svg">
<path d="M160.247 173.571C156.126 176.983 152.876 179.817 150.796 181.669C140.066 191.187 134.004 195.303 129.516 201.429C125.954 206.292 122.416 208.706 122.428 207.481C122.44 206.257 122.476 202.584 123.708 196.474C124.94 190.365 126.087 192.825 128.441 191.624C130.796 190.422 140.263 180.721 145.008 174.646C149.754 168.57 149.79 164.898 153.352 160.035C156.915 155.173 156.033 125.779 154.922 119.646C153.811 113.513 150.345 108.581 149.338 107.347C148.32 106.112 140.999 106.04 138.645 107.241C136.29 108.443 118.515 129.082 117.332 130.295C116.149 131.507 104.327 142.41 96.0795 147.227C87.8322 152.043 73.6318 166.595 64.1286 179.97C54.6255 193.345 32.0208 228.629 27.2994 232.256C22.578 235.882 20.1871 240.756 20.1871 240.756L10.1809 275.773L10.1656 311.278" stroke="#072811" stroke-miterlimit="10"/>
<path d="M366.552 159.688C371.435 161.12 375.768 162.412 379.401 163.488C392.295 167.325 394.946 168.184 398.069 171.019C402.678 175.202 404.84 180.538 405.023 180.98C405.148 181.288 405.72 182.762 406.135 184.566C406.304 185.29 409.512 199.672 402.404 206.569C398.856 210.011 394.334 210.04 387.141 210.091C378.226 210.15 370.949 208.071 366.094 206.211" stroke="#072811" stroke-miterlimit="10"/>
<path d="M365.587 257.63C383.925 267.802 392.604 271.401 397.067 272.633C397.639 272.798 400.081 273.446 402.899 275.139C404.914 276.347 409.341 278.815 411.014 283.79C411.811 286.173 412.002 289.297 412.113 291.147C412.274 293.818 412.17 296.045 412.049 297.636C412.049 297.636 411.835 319.305 401.294 319.201C389.475 319.085 376.829 313.818 370.934 309.327C368.911 307.777 367.332 306.365 366.287 305.388" stroke="#072811" stroke-miterlimit="10"/>
<path d="M154.813 347.652C156.684 191.12 161.961 46.0682 164.002 30.3549C164.357 27.628 165.207 21.0737 169.992 16.9457C173.737 13.7135 178.155 13.5 189.94 13.4692C198.901 13.4474 206.866 13.5504 213.635 13.7028C213.635 13.7028 215.684 16.1718 215.648 19.8446C215.612 23.5174 214.404 27.1787 220.261 27.2364L295.224 27.9755C295.224 27.9755 297.274 27.9957 299.471 27.2582C302.386 26.2707 303.666 23.6386 304.655 21.9465C306.561 18.6594 306.992 15.3946 307.082 13.3997L348.077 13.8039C349.842 14.1519 351.031 14.7513 351.579 15.0628C362.693 21.3065 359.528 44.0612 358.885 105.74C358.869 107.368 358.853 109.008 358.836 110.637C358.809 113.465 358.234 171.703 358.221 173.074C358.054 190.043 357.138 252.708 357.152 347.562" stroke="#072811" stroke-miterlimit="10"/>
<path d="M167.605 19.2646C169.105 16.7646 170.32 14.8925 175.105 10.7645C178.85 7.53235 185.577 7.80444 197.362 7.77369C206.323 7.75185 214.288 7.85486 221.057 8.0073C252.206 7.91034 283.355 7.80114 314.504 7.70419L355.499 8.10835C357.264 8.45634 358.453 9.05577 359.001 9.36726C370.115 15.611 366.95 38.3657 366.307 100.044C366.291 101.672 366.275 103.313 366.258 104.941C366.258 104.941 365.929 138.315 365.643 167.379C365.471 184.825 366.533 249.019 366.47 350.397" stroke="#072811" stroke-miterlimit="10"/>
<path d="M245.519 178.244L238.395 178.173C238.395 178.173 237.907 178.169 238.181 172.784C238.492 166.671 238.749 154.424 238.749 154.424C238.749 154.424 238.973 153.039 239.941 152.354C240.457 151.988 241.297 152.05 242.084 152.375C244.231 153.253 255.859 161.939 255.859 161.939L267.657 153.484C267.657 153.484 269.818 151.669 271.563 152.911C271.563 152.911 272.342 153.531 272.33 154.755L272.701 176.553C272.701 176.553 272.689 177.777 272.1 178.016L265.073 177.947C265.073 177.947 264.489 177.696 264.495 177.084C264.502 176.472 264.507 175.941 264.514 175.247C264.528 173.778 264.409 165.696 264.409 165.696L255.434 171.766L246.453 165.519L246.332 177.762C246.332 177.762 246.327 178.252 245.519 178.244Z" stroke="#072811" stroke-miterlimit="10"/>
<rect x="265.026" y="139.392" width="23.2661" height="10.2801" rx="5.14003" transform="rotate(0.56485 265.026 139.392)" stroke="#072811"/>
<path d="M270.268 141.804L270.225 146.168L269.302 146.159L269.337 142.671L269.311 142.671L268.306 143.287L268.314 142.469L269.401 141.796L270.268 141.804ZM271.262 146.178L271.269 145.513L272.836 144.091C272.969 143.964 273.081 143.85 273.172 143.749C273.264 143.647 273.334 143.548 273.381 143.45C273.429 143.351 273.454 143.244 273.455 143.129C273.456 143.001 273.428 142.891 273.371 142.798C273.313 142.704 273.235 142.631 273.134 142.581C273.034 142.528 272.92 142.502 272.792 142.501C272.658 142.499 272.542 142.525 272.442 142.578C272.342 142.631 272.264 142.708 272.209 142.808C272.154 142.908 272.126 143.028 272.125 143.167L271.249 143.159C271.252 142.873 271.319 142.626 271.45 142.417C271.582 142.208 271.764 142.047 271.999 141.934C272.233 141.822 272.502 141.767 272.806 141.77C273.118 141.773 273.39 141.831 273.62 141.944C273.852 142.056 274.031 142.209 274.159 142.405C274.286 142.601 274.349 142.825 274.346 143.076C274.344 143.241 274.31 143.403 274.243 143.563C274.178 143.723 274.062 143.9 273.895 144.095C273.728 144.288 273.494 144.519 273.191 144.789L272.548 145.407L272.548 145.436L274.38 145.455L274.373 146.209L271.262 146.178ZM276.668 146.291C276.34 146.288 276.049 146.232 275.794 146.123C275.541 146.012 275.343 145.863 275.2 145.676C275.057 145.488 274.987 145.277 274.989 145.041C274.991 144.859 275.033 144.692 275.117 144.541C275.203 144.389 275.318 144.263 275.462 144.163C275.606 144.062 275.768 143.999 275.945 143.972L275.946 143.942C275.713 143.893 275.525 143.778 275.382 143.598C275.239 143.416 275.169 143.206 275.171 142.967C275.173 142.741 275.241 142.541 275.375 142.366C275.509 142.19 275.692 142.053 275.923 141.954C276.155 141.854 276.419 141.805 276.713 141.808C277.007 141.811 277.268 141.865 277.497 141.969C277.728 142.074 277.908 142.216 278.039 142.395C278.169 142.572 278.234 142.773 278.233 142.997C278.229 143.237 278.153 143.446 278.005 143.624C277.857 143.801 277.668 143.912 277.439 143.957L277.439 143.987C277.613 144.017 277.771 144.084 277.912 144.187C278.055 144.29 278.167 144.418 278.249 144.572C278.333 144.725 278.375 144.892 278.374 145.074C278.371 145.31 278.295 145.52 278.149 145.705C278.002 145.889 277.8 146.034 277.543 146.14C277.288 146.244 276.996 146.294 276.668 146.291ZM276.675 145.614C276.821 145.615 276.949 145.59 277.059 145.538C277.169 145.486 277.255 145.413 277.317 145.319C277.381 145.225 277.413 145.116 277.414 144.992C277.415 144.866 277.385 144.754 277.322 144.657C277.259 144.558 277.173 144.481 277.064 144.424C276.955 144.366 276.83 144.337 276.688 144.335C276.547 144.334 276.421 144.361 276.31 144.417C276.198 144.471 276.11 144.547 276.045 144.644C275.982 144.74 275.95 144.851 275.948 144.978C275.947 145.101 275.977 145.211 276.037 145.307C276.097 145.401 276.182 145.476 276.292 145.531C276.403 145.585 276.53 145.612 276.675 145.614ZM276.694 143.664C276.816 143.665 276.925 143.641 277.021 143.593C277.117 143.544 277.192 143.476 277.247 143.388C277.302 143.301 277.33 143.199 277.331 143.084C277.332 142.971 277.306 142.871 277.253 142.785C277.2 142.698 277.126 142.63 277.033 142.581C276.94 142.53 276.831 142.504 276.706 142.503C276.582 142.502 276.473 142.525 276.377 142.574C276.281 142.622 276.206 142.688 276.151 142.774C276.098 142.859 276.07 142.958 276.069 143.072C276.068 143.187 276.094 143.289 276.147 143.377C276.2 143.466 276.274 143.536 276.369 143.586C276.464 143.637 276.572 143.663 276.694 143.664ZM280.63 141.847C280.855 141.849 281.07 141.889 281.277 141.966C281.485 142.044 281.67 142.165 281.831 142.332C281.995 142.498 282.122 142.718 282.215 142.992C282.309 143.264 282.354 143.598 282.352 143.993C282.348 144.363 282.303 144.694 282.216 144.984C282.131 145.273 282.01 145.518 281.853 145.72C281.697 145.922 281.508 146.075 281.288 146.179C281.069 146.282 280.824 146.332 280.554 146.329C280.263 146.326 280.006 146.268 279.784 146.153C279.563 146.038 279.384 145.882 279.25 145.686C279.117 145.488 279.037 145.267 279.011 145.023L279.921 145.032C279.955 145.191 280.028 145.316 280.141 145.405C280.254 145.493 280.394 145.537 280.562 145.539C280.846 145.542 281.063 145.42 281.213 145.175C281.363 144.927 281.441 144.588 281.447 144.156L281.417 144.156C281.35 144.283 281.261 144.392 281.15 144.484C281.038 144.573 280.91 144.642 280.766 144.691C280.624 144.739 280.472 144.762 280.312 144.761C280.055 144.758 279.826 144.696 279.625 144.573C279.425 144.45 279.267 144.282 279.153 144.07C279.039 143.857 278.983 143.615 278.985 143.344C278.987 143.051 279.057 142.791 279.195 142.564C279.334 142.336 279.526 142.159 279.772 142.032C280.019 141.904 280.305 141.842 280.63 141.847ZM280.629 142.571C280.486 142.57 280.358 142.603 280.245 142.67C280.133 142.737 280.044 142.828 279.978 142.942C279.913 143.057 279.88 143.185 279.88 143.327C279.879 143.47 279.909 143.6 279.97 143.716C280.033 143.83 280.119 143.922 280.228 143.991C280.338 144.059 280.464 144.093 280.606 144.095C280.712 144.096 280.811 144.077 280.903 144.038C280.994 143.999 281.073 143.945 281.141 143.876C281.21 143.806 281.264 143.725 281.303 143.633C281.342 143.541 281.362 143.443 281.363 143.339C281.363 143.202 281.332 143.075 281.269 142.959C281.206 142.843 281.119 142.75 281.008 142.68C280.896 142.609 280.77 142.573 280.629 142.571Z" fill="#072811"/>
<path d="M265.415 144.375C255.849 144.281 243.732 144.433 239.047 144.387C234.362 144.34 230.811 147.979 230.781 151.039L230.492 180.422C230.458 183.85 234.346 185.561 236.294 185.989C248.59 186.314 273.77 186.848 276.118 186.381C278.465 185.915 280.124 184.584 280.284 179.688L280.577 149.994" stroke="#072811"/>
<rect x="176.6" y="67.7694" width="99.4924" height="19.6309" rx="1.5" transform="rotate(0.56485 176.6 67.7694)" stroke="#072811"/>
<path d="M199.06 75.883C199.016 75.727 198.955 75.5889 198.875 75.4688C198.795 75.3466 198.697 75.2434 198.581 75.1591C198.467 75.0727 198.335 75.0065 198.186 74.9602C198.04 74.9141 197.877 74.8901 197.698 74.8883C197.364 74.885 197.069 74.9652 196.814 75.1289C196.561 75.2926 196.362 75.5325 196.218 75.8486C196.075 76.1625 196.001 76.5474 195.996 77.0034C195.992 77.4593 196.057 77.8478 196.192 78.1687C196.328 78.4897 196.521 78.7356 196.773 78.9064C197.025 79.0751 197.324 79.1611 197.669 79.1645C197.982 79.1676 198.25 79.1148 198.473 79.0062C198.697 78.8955 198.869 78.7385 198.989 78.5351C199.11 78.3317 199.172 78.0905 199.175 77.8114L199.456 77.8557L197.768 77.8391L197.778 76.7972L200.517 76.8242L200.509 77.6488C200.503 78.224 200.377 78.7171 200.13 79.1281C199.883 79.5369 199.546 79.851 199.117 80.0705C198.689 80.2879 198.2 80.3939 197.65 80.3885C197.037 80.3824 196.499 80.2418 196.037 79.9666C195.575 79.6894 195.217 79.2991 194.962 78.7958C194.709 78.2905 194.586 77.6926 194.593 77.0023C194.598 76.4718 194.68 75.9996 194.837 75.5856C194.997 75.1696 195.218 74.818 195.5 74.531C195.781 74.244 196.109 74.0267 196.481 73.8791C196.853 73.7315 197.255 73.6598 197.688 73.6641C198.059 73.6677 198.403 73.7255 198.722 73.8373C199.04 73.947 199.322 74.101 199.567 74.2995C199.815 74.4979 200.016 74.7332 200.171 75.0054C200.326 75.2754 200.424 75.5725 200.466 75.8968L199.06 75.883ZM202.896 80.4434C202.582 80.4403 202.304 80.3832 202.06 80.2721C201.816 80.1589 201.624 79.994 201.483 79.7774C201.344 79.5587 201.277 79.2874 201.28 78.9636C201.283 78.6909 201.335 78.4623 201.437 78.278C201.539 78.0936 201.677 77.9458 201.851 77.8346C202.024 77.7234 202.221 77.6401 202.441 77.5847C202.663 77.5294 202.896 77.4912 203.139 77.4701C203.425 77.4431 203.655 77.4177 203.83 77.3938C204.005 77.3679 204.132 77.3286 204.212 77.2762C204.291 77.2237 204.331 77.1452 204.332 77.0408L204.332 77.0216C204.334 76.8192 204.272 76.662 204.145 76.55C204.021 76.4379 203.842 76.3808 203.61 76.3785C203.365 76.3761 203.169 76.4285 203.024 76.5357C202.878 76.6408 202.78 76.7741 202.732 76.9356L201.474 76.8209C201.541 76.5232 201.669 76.2667 201.858 76.0512C202.048 75.8336 202.292 75.6677 202.589 75.5534C202.888 75.437 203.234 75.3808 203.626 75.3846C203.899 75.3873 204.16 75.4219 204.408 75.4882C204.659 75.5546 204.881 75.6559 205.073 75.792C205.268 75.9282 205.421 76.1023 205.532 76.3143C205.642 76.5242 205.696 76.7751 205.693 77.067L205.661 80.3779L204.37 80.3652L204.376 79.6845L204.338 79.6841C204.258 79.8367 204.151 79.971 204.018 80.0869C203.884 80.2006 203.725 80.2896 203.539 80.3538C203.353 80.4159 203.138 80.4458 202.896 80.4434ZM203.295 79.5076C203.495 79.5096 203.672 79.4719 203.826 79.3946C203.981 79.3152 204.102 79.2077 204.191 79.0722C204.279 78.9367 204.325 78.7827 204.326 78.6101L204.331 78.0892C204.289 78.1164 204.23 78.1414 204.155 78.1641C204.082 78.1847 204 78.2042 203.908 78.2224C203.816 78.2386 203.725 78.2536 203.633 78.2677C203.541 78.2795 203.458 78.2904 203.383 78.3004C203.223 78.3222 203.083 78.3581 202.964 78.4081C202.844 78.458 202.75 78.5264 202.683 78.6131C202.617 78.6976 202.582 78.8038 202.581 78.9317C202.579 79.117 202.645 79.2594 202.778 79.3587C202.914 79.4559 203.086 79.5056 203.295 79.5076ZM203.682 74.9217C203.479 74.9197 203.296 74.8711 203.13 74.7757C202.967 74.6803 202.836 74.5533 202.738 74.3947C202.641 74.2339 202.594 74.0566 202.596 73.8627C202.598 73.6688 202.649 73.4924 202.748 73.3336C202.85 73.1727 202.983 73.0451 203.148 72.9508C203.316 72.8545 203.5 72.8073 203.703 72.8093C203.905 72.8113 204.088 72.8621 204.251 72.9617C204.414 73.0592 204.544 73.1894 204.64 73.3523C204.737 73.513 204.784 73.6904 204.782 73.8842C204.78 74.0781 204.729 74.2545 204.63 74.4133C204.53 74.57 204.398 74.6944 204.233 74.7865C204.068 74.8787 203.884 74.9237 203.682 74.9217ZM203.687 74.3529C203.828 74.3521 203.947 74.3054 204.044 74.2126C204.14 74.1176 204.189 74.0062 204.191 73.8784C204.192 73.7506 204.145 73.6372 204.05 73.5382C203.955 73.4371 203.838 73.3859 203.697 73.3845C203.554 73.3852 203.434 73.4341 203.338 73.5312C203.243 73.6283 203.195 73.7407 203.194 73.8686C203.192 73.9964 203.238 74.1087 203.331 74.2055C203.426 74.3024 203.545 74.3515 203.687 74.3529ZM211.459 75.5258L211.449 76.5485L208.493 76.5193L208.503 75.4966L211.459 75.5258ZM209.186 74.3272L210.547 74.3406L210.502 78.9171C210.501 79.0428 210.519 79.141 210.557 79.2117C210.595 79.2802 210.647 79.3287 210.715 79.3571C210.785 79.3854 210.866 79.4001 210.958 79.401C211.022 79.4016 211.086 79.3969 211.15 79.3869C211.214 79.3748 211.263 79.3657 211.297 79.3596L211.501 80.3748C211.433 80.3954 211.337 80.419 211.213 80.4455C211.089 80.4741 210.938 80.4907 210.762 80.4954C210.433 80.5049 210.146 80.4584 209.9 80.3558C209.656 80.2533 209.467 80.0959 209.333 79.8836C209.198 79.6713 209.134 79.4043 209.139 79.0826L209.186 74.3272ZM212.298 80.4434L212.346 75.5345L213.708 75.548L213.659 80.4568L212.298 80.4434ZM213.036 74.9085C212.834 74.9065 212.661 74.8377 212.517 74.702C212.376 74.5642 212.306 74.4006 212.308 74.2109C212.31 74.0234 212.383 73.8633 212.527 73.7305C212.673 73.5955 212.848 73.5291 213.05 73.5311C213.252 73.5331 213.424 73.6029 213.566 73.7407C213.709 73.8764 213.78 74.0379 213.778 74.2254C213.776 74.4151 213.702 74.5773 213.556 74.7123C213.412 74.8451 213.239 74.9105 213.036 74.9085ZM216.176 73.9358L216.111 80.481L214.75 80.4676L214.814 73.9224L216.176 73.9358ZM219.285 80.5123L219.333 75.6034L220.695 75.6168L220.646 80.5257L219.285 80.5123ZM220.023 74.9774C219.821 74.9754 219.648 74.9066 219.504 74.7709C219.363 74.6331 219.293 74.4694 219.295 74.2798C219.297 74.0923 219.37 73.9322 219.514 73.7994C219.66 73.6644 219.835 73.598 220.037 73.6C220.239 73.6019 220.411 73.6718 220.553 73.8096C220.696 73.9452 220.767 74.1068 220.765 74.2943C220.763 74.4839 220.689 74.6462 220.543 74.7811C220.399 74.914 220.226 74.9794 220.023 74.9774ZM223.126 77.7119L223.098 80.5499L221.737 80.5364L221.785 75.6276L223.083 75.6404L223.074 76.5065L223.132 76.507C223.243 76.2226 223.428 75.9986 223.685 75.8349C223.942 75.6691 224.253 75.588 224.617 75.5916C224.958 75.5949 225.255 75.6724 225.507 75.8241C225.759 75.9757 225.954 76.1907 226.092 76.4691C226.23 76.7453 226.297 77.0741 226.293 77.4555L226.262 80.5811L224.901 80.5676L224.929 77.685C224.934 77.3846 224.86 77.1494 224.706 76.9796C224.552 76.8076 224.339 76.7203 224.066 76.7176C223.883 76.7158 223.721 76.7536 223.579 76.8311C223.44 76.9085 223.33 77.0225 223.25 77.173C223.172 77.3214 223.13 77.501 223.126 77.7119ZM229.143 80.6894C228.77 80.6857 228.434 80.5865 228.133 80.3917C227.835 80.1949 227.599 79.9081 227.426 79.5314C227.255 79.1526 227.172 78.6894 227.177 78.1418C227.183 77.5793 227.278 77.1126 227.463 76.7415C227.647 76.3683 227.891 76.0905 228.193 75.9081C228.498 75.7236 228.83 75.6331 229.19 75.6367C229.465 75.6394 229.693 75.6885 229.876 75.7841C230.06 75.8775 230.208 75.994 230.32 76.1336C230.433 76.2711 230.519 76.4062 230.578 76.5389L230.619 76.5393L230.644 74.0785L232.002 74.0919L231.937 80.637L230.595 80.6238L230.603 79.8376L230.545 79.837C230.48 79.9727 230.388 80.1071 230.27 80.2402C230.153 80.3712 230.002 80.4794 229.816 80.5649C229.632 80.6505 229.407 80.692 229.143 80.6894ZM229.585 79.6102C229.805 79.6124 229.991 79.5546 230.143 79.4367C230.298 79.3168 230.417 79.1486 230.5 78.9321C230.585 78.7156 230.629 78.4614 230.632 78.1695C230.635 77.8776 230.597 77.6236 230.518 77.4077C230.439 77.1917 230.324 77.0243 230.171 76.9056C230.019 76.7869 229.833 76.7265 229.614 76.7243C229.39 76.7221 229.201 76.781 229.046 76.9009C228.892 77.0209 228.774 77.188 228.693 77.4024C228.612 77.6169 228.57 77.8657 228.567 78.1491C228.565 78.4346 228.602 78.6875 228.678 78.9077C228.757 79.1258 228.871 79.2974 229.022 79.4225C229.174 79.5454 229.362 79.608 229.585 79.6102ZM233.082 80.6483L233.147 74.1032L234.508 74.1166L234.484 76.5774L234.525 76.5778C234.586 76.4463 234.674 76.3129 234.788 76.1777C234.905 76.0403 235.055 75.9267 235.239 75.8369C235.425 75.745 235.656 75.7004 235.931 75.7031C236.289 75.7066 236.618 75.8037 236.919 75.9941C237.219 76.1825 237.459 76.465 237.636 76.8418C237.813 77.2164 237.899 77.685 237.894 78.2475C237.888 78.795 237.795 79.2565 237.615 79.6318C237.436 80.0051 237.195 80.2872 236.891 80.4781C236.588 80.6669 236.251 80.7594 235.878 80.7558C235.614 80.7532 235.389 80.7073 235.205 80.6181C235.022 80.5289 234.873 80.4177 234.757 80.2845C234.642 80.1491 234.553 80.0129 234.493 79.8759L234.432 79.8753L234.424 80.6615L233.082 80.6483ZM234.439 78.207C234.436 78.4989 234.474 78.7539 234.553 78.972C234.632 79.1901 234.747 79.3607 234.9 79.4836C235.052 79.6044 235.238 79.6659 235.457 79.6681C235.679 79.6703 235.867 79.6114 236.021 79.4915C236.176 79.3694 236.294 79.2001 236.375 78.9836C236.458 78.7649 236.501 78.5129 236.504 78.2274C236.506 77.944 236.469 77.6943 236.393 77.4784C236.316 77.2624 236.202 77.0929 236.049 76.97C235.897 76.847 235.709 76.7844 235.485 76.7822C235.264 76.7801 235.076 76.8368 234.921 76.9525C234.769 77.0682 234.651 77.2332 234.568 77.4476C234.485 77.662 234.442 77.9151 234.439 78.207ZM240.177 80.8109C239.864 80.8078 239.585 80.7508 239.341 80.6397C239.097 80.5265 238.905 80.3616 238.764 80.145C238.626 79.9263 238.558 79.655 238.561 79.3311C238.564 79.0584 238.616 78.8299 238.718 78.6455C238.82 78.4611 238.958 78.3133 239.132 78.2021C239.306 78.0909 239.502 78.0076 239.722 77.9523C239.945 77.8969 240.177 77.8587 240.42 77.8377C240.706 77.8107 240.937 77.7852 241.111 77.7614C241.286 77.7354 241.414 77.6962 241.493 77.6437C241.572 77.5912 241.613 77.5128 241.614 77.4084L241.614 77.3892C241.616 77.1868 241.553 77.0296 241.427 76.9175C241.302 76.8055 241.124 76.7483 240.891 76.746C240.646 76.7436 240.451 76.796 240.305 76.9033C240.159 77.0084 240.062 77.1416 240.013 77.3031L238.755 77.1884C238.822 76.8908 238.95 76.6342 239.14 76.4187C239.33 76.2011 239.573 76.0352 239.87 75.9209C240.17 75.8046 240.516 75.7483 240.908 75.7522C241.18 75.7549 241.441 75.7894 241.69 75.8558C241.94 75.9222 242.162 76.0234 242.355 76.1596C242.549 76.2957 242.702 76.4698 242.813 76.6819C242.924 76.8918 242.978 77.1427 242.975 77.4346L242.942 80.7455L241.651 80.7328L241.658 80.052L241.619 80.0517C241.539 80.2043 241.432 80.3385 241.299 80.4544C241.166 80.5682 241.006 80.6572 240.82 80.7214C240.634 80.7835 240.42 80.8133 240.177 80.8109ZM240.576 79.8752C240.776 79.8772 240.954 79.8395 241.108 79.7622C241.262 79.6827 241.383 79.5752 241.472 79.4397C241.561 79.3043 241.606 79.1502 241.608 78.9776L241.613 78.4567C241.57 78.484 241.511 78.509 241.436 78.5317C241.364 78.5523 241.281 78.5717 241.19 78.59C241.098 78.6061 241.006 78.6212 240.914 78.6352C240.823 78.6471 240.739 78.658 240.665 78.6679C240.505 78.6898 240.365 78.7257 240.245 78.7756C240.125 78.8256 240.032 78.8939 239.965 78.9806C239.898 79.0652 239.864 79.1714 239.863 79.2992C239.861 79.4846 239.926 79.6269 240.06 79.7263C240.195 79.8235 240.367 79.8731 240.576 79.8752ZM245.246 79.3555L245.265 77.7224L245.463 77.7244L247.054 75.8767L248.617 75.8921L246.48 78.3385L246.157 78.3353L245.246 79.3555ZM243.998 80.7559L244.063 74.2108L245.424 74.2242L245.36 80.7693L243.998 80.7559ZM247.067 80.7862L245.643 78.6339L246.56 77.6809L248.661 80.8019L247.067 80.7862ZM250.484 79.4071L250.503 77.7741L250.701 77.776L252.292 75.9283L253.855 75.9438L251.718 78.3901L251.395 78.387L250.484 79.4071ZM249.236 80.8076L249.301 74.2624L250.662 74.2758L250.598 80.821L249.236 80.8076ZM252.305 80.8378L250.881 78.6855L251.798 77.7325L253.899 80.8535L252.305 80.8378ZM256.509 80.9751C256.004 80.9702 255.57 80.8636 255.208 80.6555C254.847 80.4452 254.571 80.1506 254.379 79.7716C254.187 79.3904 254.093 78.9409 254.098 78.4232C254.103 77.9182 254.206 77.4761 254.405 77.0966C254.605 76.7172 254.884 76.4227 255.242 76.2131C255.602 76.0036 256.023 75.9012 256.504 75.906C256.828 75.9091 257.129 75.9643 257.407 76.0715C257.687 76.1765 257.931 76.3334 258.138 76.5421C258.346 76.7509 258.508 77.0124 258.622 77.3268C258.736 77.639 258.791 78.0039 258.787 78.4215L258.783 78.7954L254.638 78.7545L254.647 77.9108L257.51 77.939C257.512 77.743 257.471 77.569 257.387 77.4169C257.304 77.2648 257.187 77.1453 257.036 77.0586C256.888 76.9698 256.715 76.9244 256.517 76.9225C256.31 76.9204 256.126 76.9666 255.965 77.0609C255.807 77.153 255.682 77.2786 255.591 77.4375C255.5 77.5943 255.452 77.7696 255.448 77.9635L255.44 78.7656C255.438 79.0085 255.481 79.2188 255.568 79.3965C255.658 79.5743 255.786 79.7119 255.951 79.8094C256.116 79.9069 256.313 79.9568 256.541 79.9591C256.692 79.9606 256.831 79.9406 256.957 79.8992C257.083 79.8579 257.191 79.795 257.282 79.7107C257.372 79.6263 257.441 79.5226 257.489 79.3995L258.748 79.495C258.681 79.7969 258.547 80.0598 258.347 80.2837C258.149 80.5055 257.893 80.6777 257.581 80.8003C257.271 80.9209 256.913 80.9791 256.509 80.9751Z" fill="#072811"/>
</svg>
