<svg width="441" height="370" viewBox="0 0 441 370" fill="none" xmlns="http://www.w3.org/2000/svg">
<g clip-path="url(#clip0_99_770)">
<path d="M240.766 255.731C240.766 255.731 235.029 254.737 233.542 249.98C232.84 247.736 233.378 245.55 233.624 244.598C239.209 223.369 253.749 176.92 253.749 176.92C262.284 149.656 258.608 141.76 266.628 135.74C271.24 132.275 272.271 135.044 298.238 134.32C300.217 134.263 326.886 135.669 328.678 135.74C333.361 135.938 339.905 136.194 342.727 141.42C343.066 142.044 344.085 144.118 343.897 149.94C343.593 159.411 340.491 166.582 335.702 178.34" stroke="#072811" stroke-width="2" stroke-miterlimit="10"/>
<path d="M271.31 149.94C270.936 150.38 269.882 153.078 267.798 158.46C263.373 169.891 262.752 172.845 263.841 174.392C264.321 175.074 264.941 175.216 266.627 175.5C274.799 176.906 277.164 176.92 277.164 176.92C290.241 176.977 291.646 177.502 293.555 175.5C294.327 174.691 295.241 173.058 297.067 169.82C298.683 166.952 299.713 165.12 300.579 162.72C301.609 159.866 303.6 154.356 301.867 151.161C300.72 149.059 298.32 148.846 293.555 148.52C275.572 147.27 273.371 147.568 271.31 149.94Z" stroke="#072811" stroke-width="2" stroke-miterlimit="10"/>
<path d="M369.654 137.16C350.266 196.346 351.612 213.628 356.775 218.101C358.859 219.904 365.193 222.787 368.483 230.881C369.794 234.104 370.754 238.492 369.654 239.401C367.347 241.304 357.97 226.251 355.605 228.041C353.849 229.361 358.028 238.393 360.288 249.341C363.285 263.882 360.768 278.636 355.605 307.562C350.395 336.786 347.679 338.433 346.239 338.802C337.364 341.074 327.319 307.065 322.824 308.982C318.749 310.714 317.579 342.65 332.19 358.682C351.87 380.281 389.861 361.437 405.947 350.162C415.114 343.73 428.203 334.258 435.216 314.662C436.153 312.035 443.435 290.891 437.558 267.801C434.116 254.283 429.374 252.735 425.85 237.981C422.748 224.973 424.141 216.595 424.679 202.48C425.628 177.715 422.97 159.468 417.655 122.959C414.154 98.9326 410.888 85.8401 409.459 80.3588C405.116 63.7588 404.659 67.4366 401.264 53.3785C396.698 34.4638 395.797 20.6896 386.044 7.93787C385.073 6.65986 384.23 5.68004 383.703 5.09784C334.531 5.56644 285.359 6.04925 236.188 6.51786C232.289 14.3706 228.344 22.8907 224.48 32.0782C220.968 40.4279 217.865 48.5078 215.114 56.2185C205.362 39.6469 195.598 23.0895 185.845 6.51786C120.025 8.88929 87.4199 7.28466 73.4528 3.67782C69.4371 2.6412 52.9529 -2.17266 47.6962 6.51786C46.9352 7.78167 46.6308 8.96029 46.5254 9.35789C42.5449 24.6373 30.7319 43.7223 24.2811 68.9987C24.2811 68.9987 17.9473 100.495 18.4273 148.52C18.4859 154.1 18.6732 160.135 17.2566 168.4C14.0604 187.002 7.53929 188.72 5.51388 205.292V232.301C5.51388 232.301 1.58015 236.561 1.22892 240.821C0.865987 245.081 2.62212 266.381 4.08556 275.611C5.54901 284.841 5.54901 313.242 14.915 320.342C24.2811 327.442 53.55 355.842 62.916 355.842C72.282 355.842 92.6649 359.108 92.6649 359.108C93.6717 359.108 109.934 358.881 114.429 347.322C115.682 344.113 113.715 335.195 109.746 317.502C108.283 310.998 107.124 306.369 105.063 306.142C103.167 305.929 101.364 309.521 100.38 311.822C95.6971 316.323 91.0141 320.811 86.3311 325.312C86.3311 325.312 77.1875 327.442 77.6558 300.462C78.1358 273.481 83.3691 232.301 83.3691 232.301C83.9428 229.546 84.9262 225.073 86.3311 219.521C87.6892 214.125 88.3565 212.066 87.5019 211.001C85.4882 208.515 76.9417 213.841 76.9417 213.841C75.7241 201.131 75.1153 184.617 76.9417 165.56C78.8032 146.063 82.6432 129.846 86.3311 117.663" stroke="#072811" stroke-width="2" stroke-miterlimit="10"/>
<path d="M103.892 304.722L108.575 297.622C108.575 297.622 119.112 304.722 133.161 307.562C147.21 310.402 172.967 299.042 172.967 299.042L178.82 293.362C178.82 293.362 198.723 284.841 202.236 282.001C205.748 279.161 212.772 276.321 212.772 276.321C212.772 276.321 219.797 275.938 220.382 273.283C220.968 270.641 223.309 263.541 217.455 263.541C211.602 263.541 156.576 293.362 156.576 293.362C156.576 293.362 209.26 264.961 216.285 260.701C223.309 256.441 230.334 253.601 227.992 247.921C225.651 242.241 218.626 232.301 216.285 239.401C213.943 246.501 192.869 253.601 192.869 253.601L171.796 263.541L146.039 274.901C153.743 271.266 218.907 240.31 217.853 234.53C217.432 232.201 216.285 229.461 216.285 229.461C215.84 228.396 215.055 226.521 213.943 225.201C212.409 223.369 210.185 222.488 206.919 222.361C198.173 222.02 194.345 227.515 183.316 229.092C179.991 229.56 180.659 229.021 177.65 229.461C168.295 230.852 164.818 235.695 154.235 242.241C150.512 244.541 151.062 243.86 130.819 253.601C130.819 253.601 150.722 237.981 157.747 228.041C164.771 218.101 171.082 216.411 166.176 208.743C161.259 201.06 153.064 202.48 149.552 205.32C146.039 208.16 146.039 208.16 137.844 213.841C129.649 219.521 123.795 220.941 117.941 220.941C112.087 220.941 107.404 208.16 110.917 206.74C114.429 205.32 117.941 199.64 117.941 199.64C114.429 193.492 110.917 187.329 107.404 181.18C99.5954 197.269 91.7982 213.372 83.9893 229.461" stroke="#072811" stroke-width="2" stroke-miterlimit="10"/>
<path d="M125.516 218.669L107.404 176.934C107.053 175.046 107.205 173.611 107.404 172.674C110.109 159.695 137.657 160.931 177.65 162.734C180.764 162.876 186.957 163.259 190.528 168.414C192.413 171.141 192.331 173.413 194.04 181.194C194.766 184.489 196.089 189.075 198.723 198.235C200.199 203.361 202.318 210.362 205.174 218.669C205.76 220.373 206.333 222.077 206.919 223.795" stroke="#072811" stroke-width="2" stroke-miterlimit="10"/>
<path d="M116.77 182.6C116.77 182.6 116.197 181.18 124.088 181.18C133.477 181.18 138.488 179.107 142.785 182.6C144.552 184.034 145.594 185.696 147.21 188.28C148.837 190.879 151.917 195.806 150.722 198.22C149.938 199.797 147.643 199.683 146.039 199.64C130.468 199.172 129.731 201.6 124.931 199.64C121.453 198.22 115.6 184.02 116.77 182.6Z" stroke="#072811" stroke-width="2" stroke-miterlimit="10"/>
<path d="M345.068 331.702L323.995 303.302C323.995 303.302 322.59 314.151 309.829 308.016C297.068 301.882 281.848 293.362 277.165 290.522C272.482 287.682 264.286 279.161 261.945 279.161C259.603 279.161 242.042 272.061 242.042 266.381C242.042 260.701 244.384 252.181 250.237 256.441C256.091 260.701 301.75 286.261 301.75 284.841C301.75 283.421 260.774 253.601 253.75 250.761C246.725 247.921 232.676 240.821 236.188 233.721C239.7 226.621 240.871 222.361 246.725 226.621C252.579 230.881 266.628 240.821 272.482 242.241C278.335 243.661 311.117 262.121 313.458 262.121C315.8 262.121 263.116 233.721 263.116 233.721C263.116 233.721 239.7 226.621 239.7 222.361C239.7 218.101 238.53 202.48 247.896 205.32C257.262 208.16 278.335 215.261 281.848 216.681C285.36 218.101 306.434 230.881 309.946 232.301C313.458 233.721 331.019 242.241 328.678 236.561C326.336 230.881 305.263 213.841 301.75 213.841C298.238 213.841 283.018 203.9 283.018 201.06C283.018 198.22 281.848 182.6 297.067 186.86C300.287 187.755 302.605 188.238 305.954 189.643C310.648 191.603 316.607 194.145 322.824 199.64C325.564 202.069 326.933 203.276 328.678 205.32C332.085 209.325 334.016 213.031 335.702 212.421C336.288 212.208 336.651 211.54 336.873 211.001C336.99 209.978 337.072 208.487 336.873 206.74C336.522 203.645 335.468 201.515 334.532 199.64C333.63 197.837 332.085 195.238 329.591 192.696L335.702 179.76C336.545 180.342 337.798 181.28 339.215 182.6C349.143 191.816 357.713 210.972 353.264 222.361C352.14 225.243 349.728 229.418 350.723 233.863C350.922 234.772 351.355 235.666 352.093 236.561C355.605 240.821 359.176 244.598 359.176 244.598" stroke="#072811" stroke-width="2" stroke-miterlimit="10"/>
</g>
<defs>
<clipPath id="clip0_99_770">
<rect width="441" height="370" fill="white"/>
</clipPath>
</defs>
</svg>
