<svg width="109" height="70" viewBox="0 0 109 70" fill="none" xmlns="http://www.w3.org/2000/svg">
<g clip-path="url(#clip0_99_590)">
<path d="M92.6507 36.5605V37.738V3.59124C92.7052 3.41462 92.8142 2.95541 92.6507 2.41377C92.3891 1.57776 91.6588 1.27162 91.5607 1.2363C44.0472 1.47179 10.0497 1.55421 6.5399 1.2363C5.98399 1.1892 3.62957 0.883054 2.17985 2.41377C1.47135 3.15558 1.20974 4.09756 1.08984 4.76872V50.6902C1.15524 51.5145 1.38415 52.7626 2.25615 53.5279C3.01916 54.1991 3.96747 54.2226 4.35988 54.2226C6.529 54.2462 25.4625 54.2697 51.4483 54.2226" stroke="#072811" stroke-width="2" stroke-miterlimit="10"/>
<path d="M7.63031 55.4001V58.3321C7.57581 58.5087 7.52131 58.7559 7.63031 58.9326C7.95732 59.4978 9.51603 59.015 9.81034 58.9326H53.4108" stroke="#072811" stroke-width="2" stroke-miterlimit="10"/>
<path d="M58.8611 38.9155C58.8611 38.9155 54.1413 43.5665 53.411 50.6903C53.2257 52.4918 53.4001 54.1167 53.411 54.2227C53.411 54.2227 53.7271 57.0251 55.046 59.6862C57.0843 63.772 62.5453 67.6459 68.6712 68.3524C70.4697 68.5643 76.5519 69.2708 81.7513 64.8199C86.7435 60.5457 89.9809 52.3269 87.2013 44.8029C83.5498 34.9003 72.4426 34.2527 71.4071 34.2056C69.892 34.1467 63.8533 34.0054 58.8611 38.9155Z" stroke="#072811" stroke-width="2" stroke-miterlimit="10"/>
<path d="M76.3008 68.3524H104.914C106.178 68.0933 106.636 67.5752 106.821 67.1749C107.072 66.6333 106.897 66.1976 106.821 64.8199C106.723 63.0655 106.952 62.8889 106.821 62.465C106.189 60.4397 99.7251 61.1109 92.6509 61.2875C89.3482 61.3699 86.6668 61.3346 85.0209 61.2875" stroke="#072811" stroke-width="2" stroke-miterlimit="10"/>
<path d="M75.2109 48.3353C75.5706 47.1225 75.3199 46.2747 75.2109 45.9803C74.5787 44.2141 72.584 43.7667 71.9409 43.6254C71.5267 43.5312 70.731 43.3663 69.7609 43.6254C69.3249 43.7431 67.4827 44.2259 66.9159 45.9803C66.3818 47.6406 67.3737 49.1948 67.5808 49.5127C67.9515 50.0897 68.3766 50.4547 68.6709 50.6902C69.2813 51.1965 69.8699 51.4909 70.8509 51.8677C73.3143 52.8214 73.4996 52.4917 74.1209 53.0452C74.9711 53.7987 75.5815 55.2824 75.2109 56.5776C74.6877 58.3909 72.5077 58.8266 71.9409 58.9325C70.0007 59.3093 67.232 58.6499 66.4908 56.5776C66.1747 55.6709 66.3273 54.776 66.4908 54.2226" stroke="#072811" stroke-width="2" stroke-miterlimit="10"/>
<path d="M70.8506 40.093V43.6254" stroke="#072811" stroke-width="2" stroke-miterlimit="10"/>
<path d="M70.8506 58.9326V62.465" stroke="#072811" stroke-width="2" stroke-miterlimit="10"/>
<path d="M37.8451 17.9329C37.8451 17.9329 34.4661 21.4065 33.9429 26.7404C33.8121 28.0945 33.9429 29.3073 33.9429 29.3898C33.9429 29.3898 34.1718 31.4857 35.1092 33.4756C36.5698 36.537 40.4721 39.4336 44.8539 39.9635C46.1401 40.1165 50.4893 40.6464 54.2171 37.3142C57.7923 34.1114 60.1032 27.965 58.1193 22.3367C55.5033 14.9304 47.5571 14.4358 46.8159 14.4005C45.7368 14.3534 41.4095 14.2474 37.8342 17.9212L37.8451 17.9329Z" stroke="#072811" stroke-width="2" stroke-miterlimit="10"/>
<path d="M53.3231 46.4749H14.2026C14.2026 46.4749 14.0936 44.4261 13.0363 43.437C11.979 42.4479 9.79899 41.2704 8.70898 41.2704V14.4005C8.70898 14.4005 11.979 14.1885 13.069 11.8336C14.159 9.47862 14.159 8.30115 14.159 8.30115H79.5597C79.5597 8.30115 79.5597 11.8336 81.7397 13.011C83.9197 14.1885 85.2822 14.4005 85.2822 14.4005V37.2317" stroke="#072811" stroke-width="2" stroke-miterlimit="10"/>
<path d="M93.7412 8.30115H95.9212C96.7278 8.40712 97.7742 8.67794 98.1013 9.47862C98.3084 9.99671 98.134 10.5383 98.1013 10.6561C97.7851 11.7747 97.6652 18.5805 98.1013 37.738" stroke="#072811" stroke-width="2" stroke-miterlimit="10"/>
<path d="M83.0479 37.738H101.447C101.447 37.738 103.551 37.738 103.551 38.9155V44.8029H87.2008" stroke="#072811" stroke-width="2" stroke-miterlimit="10"/>
<path d="M103.551 44.8028C104.031 44.7675 105.742 44.7204 106.821 45.9803C108.62 48.0644 107.486 52.3976 105.731 53.0452C105.339 53.1865 104.946 53.1394 104.641 53.0452H88.291" stroke="#072811" stroke-width="2" stroke-miterlimit="10"/>
<path d="M102.461 53.0452C102.712 53.0334 104.543 52.9628 105.731 54.4346C106.897 55.8947 106.952 58.2614 105.731 60.11C105.001 60.4986 104.281 60.899 103.551 61.2875" stroke="#072811" stroke-width="2" stroke-miterlimit="10"/>
<path d="M50.1622 24.6563C50.4674 23.6319 50.2494 22.9254 50.1622 22.6781C49.6172 21.1945 47.9059 20.8177 47.35 20.7C46.9903 20.6176 46.3145 20.4763 45.4752 20.7C45.0937 20.7942 43.5131 21.2063 43.0335 22.6781C42.5648 24.0676 43.4259 25.3863 43.6003 25.6571C43.9164 26.1517 44.287 26.4461 44.5378 26.6462C45.061 27.0701 45.5733 27.3174 46.4126 27.6353C48.5272 28.436 48.6907 28.1652 49.2248 28.6244C49.9551 29.2602 50.4783 30.5083 50.1622 31.6034C49.7153 33.1341 47.8405 33.4991 47.35 33.5815C45.6823 33.8995 43.2951 33.3461 42.6629 31.6034C42.3904 30.8498 42.5212 30.0962 42.6629 29.6252" stroke="#072811" stroke-width="2" stroke-miterlimit="10"/>
<path d="M46.4131 17.7209V20.7" stroke="#072811" stroke-width="2" stroke-miterlimit="10"/>
<path d="M46.4131 33.5815V36.5606" stroke="#072811" stroke-width="2" stroke-miterlimit="10"/>
</g>
<defs>
<clipPath id="clip0_99_590">
<rect width="108.816" height="69.6947" fill="white"/>
</clipPath>
</defs>
</svg>
