<svg width="122" height="106" viewBox="0 0 122 106" fill="none" xmlns="http://www.w3.org/2000/svg">
<g clip-path="url(#clip0_199_164)">
<path d="M99.6507 64.5606V65.7381V31.5913C99.7052 31.4147 99.8142 30.9555 99.6507 30.4138C99.3891 29.5778 98.6588 29.2717 98.5607 29.2364C51.0472 29.4719 17.0497 29.5543 13.5399 29.2364C12.984 29.1893 10.6296 28.8831 9.17985 30.4138C8.47135 31.1556 8.20974 32.0976 8.08984 32.7688V78.6903C8.15524 79.5145 8.38415 80.7626 9.25615 81.528C10.0192 82.1992 10.9675 82.2227 11.3599 82.2227C13.529 82.2463 32.4625 82.2698 58.4483 82.2227" stroke="#072811" stroke-width="2" stroke-miterlimit="10"/>
<path d="M14.6303 83.4001V86.3321C14.5758 86.5087 14.5213 86.7559 14.6303 86.9326C14.9573 87.4978 16.516 87.015 16.8103 86.9326H60.4108" stroke="#072811" stroke-width="2" stroke-miterlimit="10"/>
<path d="M65.8611 66.9155C65.8611 66.9155 61.1413 71.5665 60.411 78.6903C60.2257 80.4918 60.4001 82.1167 60.411 82.2227C60.411 82.2227 60.7271 85.0251 62.046 87.6862C64.0843 91.772 69.5453 95.6459 75.6712 96.3524C77.4697 96.5643 83.5519 97.2708 88.7513 92.8199C93.7435 88.5457 96.9809 80.3269 94.2013 72.8029C90.5498 62.9003 79.4426 62.2527 78.4071 62.2056C76.892 62.1467 70.8533 62.0054 65.8611 66.9155Z" stroke="#072811" stroke-width="2" stroke-miterlimit="10"/>
<path d="M83.3008 96.3524H111.914C113.178 96.0933 113.636 95.5752 113.821 95.1749C114.072 94.6333 113.897 94.1976 113.821 92.8199C113.723 91.0655 113.952 90.8889 113.821 90.465C113.189 88.4397 106.725 89.1109 99.6509 89.2875C96.3482 89.3699 93.6668 89.3346 92.0209 89.2875" stroke="#072811" stroke-width="2" stroke-miterlimit="10"/>
<path d="M82.2109 76.3353C82.5706 75.1225 82.3199 74.2747 82.2109 73.9804C81.5787 72.2142 79.584 71.7667 78.9409 71.6254C78.5267 71.5312 77.731 71.3664 76.7609 71.6254C76.3249 71.7432 74.4827 72.2259 73.9159 73.9804C73.3818 75.6406 74.3737 77.1949 74.5808 77.5128C74.9515 78.0898 75.3766 78.4548 75.6709 78.6903C76.2813 79.1966 76.8699 79.491 77.8509 79.8677C80.3143 80.8215 80.4996 80.4918 81.1209 81.0452C81.9711 81.7988 82.5815 83.2824 82.2109 84.5776C81.6877 86.391 79.5077 86.8266 78.9409 86.9326C77.0007 87.3094 74.232 86.65 73.4908 84.5776C73.1747 83.671 73.3273 82.7761 73.4908 82.2227" stroke="#072811" stroke-width="2" stroke-miterlimit="10"/>
<path d="M77.8506 68.093V71.6254" stroke="#072811" stroke-width="2" stroke-miterlimit="10"/>
<path d="M77.8506 86.9326V90.465" stroke="#072811" stroke-width="2" stroke-miterlimit="10"/>
<path d="M44.8451 45.9329C44.8451 45.9329 41.4661 49.4065 40.9429 54.7404C40.8121 56.0945 40.9429 57.3073 40.9429 57.3898C40.9429 57.3898 41.1718 59.4857 42.1092 61.4756C43.5698 64.537 47.4721 67.4336 51.8539 67.9635C53.1401 68.1165 57.4893 68.6464 61.2171 65.3142C64.7923 62.1114 67.1032 55.965 65.1193 50.3367C62.5033 42.9304 54.5571 42.4358 53.8159 42.4005C52.7368 42.3534 48.4095 42.2474 44.8342 45.9212L44.8451 45.9329Z" stroke="#072811" stroke-width="2" stroke-miterlimit="10"/>
<path d="M60.3231 74.4749H21.2026C21.2026 74.4749 21.0936 72.4261 20.0363 71.437C18.979 70.448 16.799 69.2705 15.709 69.2705V42.4005C15.709 42.4005 18.979 42.1886 20.069 39.8336C21.159 37.4787 21.159 36.3012 21.159 36.3012H86.5597C86.5597 36.3012 86.5597 39.8336 88.7397 41.0111C90.9197 42.1886 92.2822 42.4005 92.2822 42.4005V65.2318" stroke="#072811" stroke-width="2" stroke-miterlimit="10"/>
<path d="M100.741 36.3012H102.921C103.728 36.4072 104.774 36.678 105.101 37.4787C105.308 37.9968 105.134 38.5384 105.101 38.6562C104.785 39.7748 104.665 46.5806 105.101 65.7381" stroke="#072811" stroke-width="2" stroke-miterlimit="10"/>
<path d="M90.0479 65.738H108.447C108.447 65.738 110.551 65.738 110.551 66.9155V72.8029H94.2008" stroke="#072811" stroke-width="2" stroke-miterlimit="10"/>
<path d="M110.551 72.8029C111.031 72.7676 112.742 72.7205 113.821 73.9804C115.62 76.0645 114.486 80.3976 112.731 81.0452C112.339 81.1865 111.946 81.1394 111.641 81.0452H95.291" stroke="#072811" stroke-width="2" stroke-miterlimit="10"/>
<path d="M109.461 81.0452C109.712 81.0334 111.543 80.9628 112.731 82.4346C113.897 83.8947 113.952 86.2614 112.731 88.11C112.001 88.4986 111.281 88.899 110.551 89.2875" stroke="#072811" stroke-width="2" stroke-miterlimit="10"/>
<path d="M57.1622 52.6563C57.4674 51.6319 57.2494 50.9254 57.1622 50.6781C56.6172 49.1945 54.9059 48.8177 54.35 48.7C53.9903 48.6176 53.3145 48.4763 52.4752 48.7C52.0937 48.7942 50.5131 49.2063 50.0335 50.6781C49.5648 52.0676 50.4259 53.3863 50.6003 53.6571C50.9164 54.1517 51.287 54.4461 51.5378 54.6462C52.061 55.0701 52.5733 55.3174 53.4126 55.6353C55.5272 56.436 55.6907 56.1652 56.2248 56.6244C56.9551 57.2602 57.4783 58.5083 57.1622 59.6034C56.7153 61.1341 54.8405 61.4991 54.35 61.5815C52.6823 61.8995 50.2951 61.3461 49.6629 59.6034C49.3904 58.8498 49.5212 58.0962 49.6629 57.6252" stroke="#072811" stroke-width="2" stroke-miterlimit="10"/>
<path d="M53.4131 45.721V48.7" stroke="#072811" stroke-width="2" stroke-miterlimit="10"/>
<path d="M53.4131 61.5815V64.5606" stroke="#072811" stroke-width="2" stroke-miterlimit="10"/>
</g>
<defs>
<clipPath id="clip0_199_164">
<rect width="108.816" height="69.6947" fill="white" transform="translate(7 28)"/>
</clipPath>
</defs>
</svg>
