<svg width="416" height="631" viewBox="0 0 416 631" fill="none" xmlns="http://www.w3.org/2000/svg">
<path d="M139.894 240.85L95.1639 226.05C94.2139 225.19 93.0539 223.86 92.4339 222C91.2739 218.47 92.7639 215.08 93.1539 214.15C116.854 157.36 152.884 39.45 152.884 39.45L210.594 14L326.024 60.08C326.384 60.21 326.964 60.46 327.434 61C329.504 63.38 327.034 68.66 326.434 70C323.654 76.23 306.074 121.83 281.554 185.62" stroke="#072811" stroke-width="2" stroke-miterlimit="10"/>
<path d="M153.684 38.83C158.924 41.29 164.184 43.78 169.454 46.28C177.854 50.27 186.184 54.27 194.454 58.28L210.434 15" stroke="#072811" stroke-width="2" stroke-miterlimit="10"/>
<path d="M159.894 407.86L115.164 393.06C114.214 392.2 113.054 390.87 112.434 389.01C111.274 385.48 112.764 382.09 113.154 381.16C136.854 324.36 172.874 206.45 172.874 206.45L230.594 181L346.024 227.08C346.384 227.21 346.964 227.46 347.434 228C349.504 230.38 347.034 235.66 346.434 237C343.654 243.23 326.074 288.83 301.554 352.62" stroke="#072811" stroke-width="2" stroke-miterlimit="10"/>
<path d="M173.684 205.84C178.924 208.3 184.184 210.79 189.454 213.29C197.854 217.28 206.184 221.28 214.454 225.29L230.444 182.02" stroke="#072811" stroke-width="2" stroke-miterlimit="10"/>
<path d="M133.164 568.06C132.214 567.2 131.054 565.87 130.434 564.01C129.274 560.48 130.764 557.09 131.154 556.16C154.854 499.36 190.874 381.45 190.874 381.45L248.594 356L364.024 402.08C364.384 402.21 364.964 402.46 365.434 403C367.564 405.44 364.924 410.91 364.434 412C361.624 418.26 330.964 500.08 288.434 614C288.234 614.25 287.904 614.63 287.434 615C281.824 619.5 269.974 613.25 267.434 612C255.914 606.33 206.404 590.44 133.164 568.05V568.06Z" stroke="#072811" stroke-width="2" stroke-miterlimit="10"/>
<path d="M191.684 380.84C196.924 383.3 202.184 385.79 207.454 388.29C215.854 392.28 224.184 396.28 232.454 400.29L248.444 357.02" stroke="#072811" stroke-width="2" stroke-miterlimit="10"/>
</svg>
