<svg width="122" height="106" viewBox="0 0 122 106" fill="none" xmlns="http://www.w3.org/2000/svg">
<path d="M28 81.08V69.08C28.12 68.37 28.67 65.78 31 64.08C33.98 61.92 38.18 62.45 40 64.08C40.35 64.4 41.16 65.23 42 66.08V81.08H28Z" stroke="#072811" stroke-width="2" stroke-miterlimit="10"/>
<path d="M34 71.08V80.08" stroke="#072811" stroke-width="2" stroke-miterlimit="10"/>
<path d="M38.0003 58.08C34.7803 55.85 34.9303 51.3 35.0003 49.08C35.0703 46.83 35.2003 43 38.0003 41.08C40.3003 39.51 43.3003 39.97 44.0003 40.08C44.8503 40.21 45.9403 40.38 47.0003 41.08C50.5403 43.41 50.1303 49.24 50.0003 51.08C49.8503 53.15 49.7003 55.34 48.0003 57.08C46.5603 58.55 44.7703 58.93 44.0003 59.08C43.4603 59.19 40.4403 59.78 38.0003 58.08Z" stroke="#072811" stroke-width="2" stroke-miterlimit="10"/>
<path d="M36 49.5899H43.47C43.47 49.5899 43 48.0699 46 48.0699C49 48.0699 49.68 45.3199 49.68 45.3199" stroke="#072811" stroke-width="2" stroke-miterlimit="10"/>
<path d="M39 59.08V62.65" stroke="#072811" stroke-width="2" stroke-miterlimit="10"/>
<path d="M46 62.65V59.08" stroke="#072811" stroke-width="2" stroke-miterlimit="10"/>
<path d="M42 69.08C43.33 67.08 44.67 65.08 46 63.08C49.45 62.1 52.69 62.33 54 64.08C55.15 65.62 55.07 67.45 55 68.08" stroke="#072811" stroke-width="2" stroke-miterlimit="10"/>
<path d="M54.4096 60.42C50.2596 57.3 50.4496 50.95 50.5396 47.85C50.6296 44.71 50.7896 39.36 54.4096 36.68C57.3796 34.48 61.2496 35.13 62.1496 35.28C63.2496 35.46 64.6496 35.7 66.0196 36.68C70.5896 39.94 70.0596 48.08 69.8896 50.65C69.6996 53.55 69.4996 56.6 67.3096 59.03C65.4496 61.09 63.1496 61.61 62.1496 61.82C61.4596 61.97 57.5696 62.79 54.4096 60.42Z" stroke="#072811" stroke-width="2" stroke-miterlimit="10"/>
<path d="M51 47.08H59C59.48 46.67 60.21 46 61 45.08C62.11 43.79 62.39 43.08 63 43.08C63.62 43.08 63.72 43.82 65 45.08C65.73 45.8 66.64 46.69 68 47.08C68.72 47.28 69.99 47.46 70 47.47" stroke="#072811" stroke-width="2" stroke-miterlimit="10"/>
<path d="M55.9998 51.08H54.5098H56.9998" stroke="#072811" stroke-width="2" stroke-miterlimit="10"/>
<path d="M64.9998 51.08H63.5098H65.9998" stroke="#072811" stroke-width="2" stroke-miterlimit="10"/>
<path d="M59 56.08C59.33 56.81 59.67 57.43 60.33 56.81L61 56.19L59 56.08Z" stroke="#072811" stroke-width="2" stroke-miterlimit="10"/>
<path d="M39 85.92L39.36 71.07C40.12 70.11 41.94 68.1 45 67.07C49.96 65.4 54.24 67.65 55 68.07L60 74.12C61 72.44 62 70.75 63 69.07C66.2 66.34 70.48 65.54 74 67.07C77.17 68.44 78.59 71.2 79 72.07V86.07H60C55.52 86.07 48.75 86.04 39 85.92Z" stroke="#072811" stroke-width="2" stroke-miterlimit="10"/>
<path d="M47 77.08V85.62" stroke="#072811" stroke-width="2" stroke-miterlimit="10"/>
<path d="M73 77.08V85.62" stroke="#072811" stroke-width="2" stroke-miterlimit="10"/>
<path d="M55 61.08V68.08" stroke="#072811" stroke-width="2" stroke-miterlimit="10"/>
<path d="M64 61.08V68.08" stroke="#072811" stroke-width="2" stroke-miterlimit="10"/>
<path d="M92.0002 80.85V68.85C91.8702 68.14 91.3102 65.55 88.8902 63.85C85.8002 61.69 81.4502 62.22 79.5602 63.85C79.1902 64.17 78.3602 65 77.4902 65.85V80.85H92.0002Z" stroke="#072811" stroke-width="2" stroke-miterlimit="10"/>
<path d="M85.7803 70.85V79.85" stroke="#072811" stroke-width="2" stroke-miterlimit="10"/>
<path d="M81.6299 57.85C84.9599 55.62 84.8099 51.07 84.7399 48.85C84.6699 46.6 84.5399 42.77 81.6299 40.85C79.2499 39.28 76.1298 39.74 75.4098 39.85C74.5298 39.98 73.3998 40.15 72.2998 40.85C68.6298 43.18 69.0498 49.01 69.1898 50.85C69.3398 52.92 69.4998 55.11 71.2598 56.85C72.7498 58.32 74.6098 58.7 75.4098 58.85C75.9698 58.96 79.0999 59.55 81.6299 57.85Z" stroke="#072811" stroke-width="2" stroke-miterlimit="10"/>
<path d="M83.7105 49.37H75.9605C75.9605 49.37 76.4505 47.85 73.3405 47.85C70.2305 47.85 69.5205 45.1 69.5205 45.1" stroke="#072811" stroke-width="2" stroke-miterlimit="10"/>
<path d="M80.5996 58.85V62.42" stroke="#072811" stroke-width="2" stroke-miterlimit="10"/>
<path d="M73.3398 62.42V58.85" stroke="#072811" stroke-width="2" stroke-miterlimit="10"/>
<path d="M77.49 68.85C76.11 66.85 74.73 64.85 73.34 62.85C69.77 61.87 66.4 62.1 65.05 63.85C63.86 65.39 63.94 67.22 64.01 67.85" stroke="#072811" stroke-width="2" stroke-miterlimit="10"/>
<path d="M37 31.08V34.08" stroke="#072811" stroke-width="2" stroke-miterlimit="10"/>
<path d="M38 29.08H42" stroke="#072811" stroke-width="2" stroke-miterlimit="10"/>
<path d="M32 29.08H36" stroke="#072811" stroke-width="2" stroke-miterlimit="10"/>
<path d="M37 23.97V27.25" stroke="#072811" stroke-width="2" stroke-miterlimit="10"/>
<path d="M60 20V22.82" stroke="#072811" stroke-width="2" stroke-miterlimit="10"/>
<path d="M60 25.61V31.08" stroke="#072811" stroke-width="2" stroke-miterlimit="10"/>
<path d="M64 28.08L67.81 23.97" stroke="#072811" stroke-width="2" stroke-miterlimit="10"/>
<path d="M52 24.08C53.33 25.41 54.67 26.75 56 28.08" stroke="#072811" stroke-width="2" stroke-miterlimit="10"/>
<path d="M83.2197 31.47V34.47" stroke="#072811" stroke-width="2" stroke-miterlimit="10"/>
<path d="M84.2197 29.47H88.2197" stroke="#072811" stroke-width="2" stroke-miterlimit="10"/>
<path d="M78.2197 29.47H82.2197" stroke="#072811" stroke-width="2" stroke-miterlimit="10"/>
<path d="M83.2197 24.36V27.64" stroke="#072811" stroke-width="2" stroke-miterlimit="10"/>
</svg>
