<svg width="468" height="299" viewBox="0 0 468 299" fill="none" xmlns="http://www.w3.org/2000/svg">
<g clip-path="url(#clip0_95_226)">
<path d="M87.7621 112.055C87.7621 112.055 87.8075 112.055 87.8302 112.055C87.8151 113.511 87.5351 116.504 86.2031 122.2C84.9392 126.173 84.1445 130.168 83.8266 134.062C83.7963 134.451 83.7661 134.826 83.7434 135.18C83.6223 136.989 83.5466 137.66 83.153 138.1C82.5476 138.785 80.9885 138.864 78.0445 138.965C77.0152 139.001 76.1297 139.03 75.3501 139.03C73.1251 139.03 72.8299 138.742 72.7996 138.691C72.6558 138.367 72.8753 136.86 73.0494 135.655C73.1553 134.942 73.2689 134.127 73.39 133.189C73.8365 129.562 73.9954 125.784 73.8668 121.969C73.9197 119.965 74.1998 117.967 74.6917 116.035C75.1534 114.225 75.4864 112.913 75.8269 112.559C75.8648 112.523 75.8875 112.502 75.8875 112.502C76.4854 112.221 79.5505 112.17 83.4255 112.105L84.1596 112.091H84.644C86.0214 112.062 87.0129 112.04 87.7697 112.04M87.7621 109.17C86.8993 109.17 85.7187 109.192 84.0991 109.221C76.2356 109.351 74.8204 109.336 73.5792 110.641C72.7239 111.536 72.3985 112.819 71.7476 115.372C71.0589 118.083 70.8697 120.405 70.8319 121.991C70.9908 126.642 70.6805 130.348 70.3778 132.872C69.8556 137.119 69.2198 138.958 70.3778 140.443C71.3314 141.662 72.9359 141.929 75.3501 141.929C76.1826 141.929 77.1211 141.9 78.1504 141.864C81.6621 141.741 83.9704 141.662 85.4689 139.975C86.7177 138.569 86.6344 136.903 86.8388 134.3C87.0658 131.524 87.6259 127.644 89.1244 122.95C91.8944 111.146 90.4943 109.704 90.4943 109.704C90.0932 109.293 89.7223 109.185 87.7546 109.185L87.7621 109.17Z" fill="#072811"/>
<path d="M59.5323 51.9245C63.8235 51.9245 67.4562 53.1647 69.4921 55.3279C71.2858 57.2316 72.2318 63.0795 73.7833 72.7562C74.9564 80.0463 74.7067 82.945 74.2677 84.9856C73.4428 88.8073 71.6112 92.355 70.4003 94.6985C68.6218 98.1452 67.0173 100.409 66.9492 100.503C65.7382 102.205 63.8916 103.777 61.447 105.183C59.4339 104.822 57.3829 104.31 55.3394 103.647C50.806 102.183 45.6747 100.518 41.656 95.6143C37.8718 90.9994 35.5559 84.1276 35.4575 77.2269C35.3516 69.735 37.7961 63.166 42.3522 58.717C46.651 54.5203 53.2354 51.9172 59.5323 51.9172M94.581 107.923C97.2677 107.923 99.5382 108.514 101.725 109.791C102.308 110.129 102.876 110.411 103.428 110.685C105.464 111.701 107.228 112.574 109.248 116.403C110.482 118.739 111.64 121.883 112.737 125.878C110.845 123.974 108.196 122.647 106.017 122.64C105.752 122.265 105.464 121.905 105.169 121.566C102.475 118.487 98.5543 116.879 96.0644 116.879C95.7238 116.879 95.4135 116.908 95.1259 116.958C94.6642 116.749 94.195 116.569 93.7258 116.417C93.037 116.201 91.9926 115.941 90.9558 115.941C89.1999 115.941 88.216 116.698 87.709 117.297C87.1716 116.915 86.5056 116.698 85.7866 116.698C84.5379 116.698 82.9031 117.326 75.8419 120.268C73.7076 121.155 70.7485 122.388 67.9709 123.477C69.091 121.659 69.8781 119.525 69.7267 117.088C69.5602 114.434 68.5764 112.783 66.8129 112.177C66.4194 112.04 65.9956 111.975 65.5717 111.975C62.446 111.975 59.9485 115.184 54.4312 126.296L54.3631 126.433C42.375 150.567 26.3378 180.65 15.4016 199.578C15.3864 199.564 15.3789 199.55 15.3637 199.535C14.448 197.581 8.18901 183.773 7.00836 169.063C6.68292 164.953 5.97907 160.323 5.23738 155.427C3.22422 142.123 0.711544 125.568 7.08404 121.558C14.6069 116.821 21.8498 116.316 24.6122 116.316C25.3009 116.316 25.702 116.352 25.702 116.352L25.8534 116.367H26.0048L45.0617 116.316H45.2963L45.5234 116.28C48.5128 115.833 55.9525 114.47 62.552 111.204C64.603 111.471 66.6767 111.608 68.7429 111.608C74.8505 111.608 80.0801 110.454 84.6968 109.444C88.3901 108.63 91.5839 107.93 94.5734 107.93M114.955 135.518C115.424 137.905 115.878 140.479 116.325 143.241C117.732 151.966 120.063 158.376 122.296 163.59C121.411 163.006 120.525 162.443 119.647 161.895C114.826 158.852 110.656 156.22 109.96 151.404C109.422 147.683 111.11 144.186 112.752 140.797C113.562 139.117 114.425 137.336 114.955 135.518ZM81.6392 144.15C82.6685 145.729 84.273 147.084 85.8548 148.418C88.1934 150.394 90.8498 152.637 92.9084 156.062C94.9064 159.393 94.9291 161.419 94.967 164.484C95.0124 167.786 95.0578 171.889 97.7445 178.393C99.0614 181.581 101.642 186.657 106.077 191.156C105.464 191.351 104.881 191.632 104.337 191.986C99.2128 195.331 101.09 202.924 103.254 211.707C104.722 217.641 106.38 224.376 105.373 228.753C104.685 231.738 104.859 239.036 114.251 267.821C117.763 278.579 121.441 288.847 123.393 294.212L77.3102 294.133C75.4862 290.419 71.0058 281.045 68.5158 273.496C68.3871 270.467 68.2434 268.073 68.0693 266.364C67.8347 263.977 67.5092 260.711 64.3684 260.711C63.4224 260.711 61.7346 261.093 61.0308 263.646C60.4026 265.917 60.8643 269.371 62.4915 274.476C62.7412 280.865 62.832 288.58 62.8699 292.633L17.498 294.154C13.3127 284.081 7.34893 268.823 7.06134 265.557C7.01593 265.045 6.95538 264.432 6.8797 263.732C6.04719 255.584 3.83725 233.945 14.9929 212.197C15.5 211.217 15.7724 210.726 16.2871 209.861C19.8971 213.466 23.0834 215.233 25.9669 215.233H26.0123H26.0275C34.0498 215.168 39.1055 201.987 45.5158 185.294C50.5563 172.156 57.4661 154.165 63.9597 153.235C64.0278 153.228 64.1111 153.214 64.217 153.199C65.7155 153.004 69.6889 152.492 74.1693 150.041C76.9999 148.491 79.7699 146.255 81.6316 144.157M59.5323 49.0402C52.8722 49.0402 45.3871 51.6288 40.1877 56.7124C29.1077 67.5285 30.8939 87.1633 39.272 97.3953C43.7524 102.861 49.4059 104.779 54.3631 106.38C57.0499 107.252 59.6004 107.836 62.0147 108.204C64.9663 106.639 67.6606 104.642 69.4618 102.118C70.0143 101.34 71.5507 99.0105 73.1173 95.9676C74.4039 93.4799 76.3338 89.7375 77.2345 85.5625C77.7188 83.3272 78.0518 80.2698 76.7804 72.3164C75.0245 61.3994 74.1466 55.9408 71.7475 53.3955C68.9926 50.4751 64.4971 49.033 59.5323 49.033V49.0402ZM94.581 105.039C87.2549 105.039 79.3233 108.716 68.758 108.716C66.6237 108.716 64.3835 108.565 62.0222 108.204C55.1351 111.853 46.8175 113.165 45.0768 113.425L26.0199 113.468C26.0199 113.468 25.5204 113.425 24.6349 113.425C21.5243 113.425 13.623 113.994 5.44172 119.15C-5.07819 125.77 2.69444 152.738 4.01889 169.279C5.34334 185.82 12.7603 200.985 12.7603 200.985C12.8284 201.042 14.0317 202.787 15.7951 204.886C15.9843 204.561 16.1963 204.208 16.4157 203.826C27.9801 184.09 45.1904 151.692 57.1255 127.666C58.9798 123.938 63.4602 114.86 65.5945 114.86C65.6701 114.86 65.7458 114.874 65.8139 114.896C66.5935 115.163 66.707 116.864 66.7297 117.261C67.1081 123.246 59.2825 127.486 59.8653 128.611C59.9409 128.762 60.168 128.834 60.5086 128.834C64.4138 128.834 84.0005 119.583 85.8093 119.583C85.8774 119.583 85.9229 119.597 85.938 119.626C86.2861 120.325 69.863 129.339 70.3852 130.507C70.423 130.593 70.5441 130.63 70.7409 130.63C73.3444 130.63 88.9956 123.729 91.8942 123.729C92.1364 123.729 92.2878 123.779 92.3408 123.88C92.9765 125.243 75.5619 135.107 75.8722 135.706C75.8797 135.728 75.91 135.735 75.9479 135.735C77.0604 135.735 89.4573 129.043 90.8498 129.043C90.9104 129.043 90.9558 129.058 90.9709 129.086C91.4023 129.88 72.7086 141.575 73.1325 142.333C73.1476 142.354 73.1779 142.369 73.2233 142.369C73.9877 142.369 79.013 139.355 80.5267 139.355C80.7083 139.355 80.8445 139.398 80.9051 139.499C81.45 140.299 77.7264 144.77 72.6708 147.539C68.3493 149.904 64.497 150.236 63.5207 150.38C47.7106 152.651 38.4394 212.255 26.0123 212.349C26.0048 212.349 25.9896 212.349 25.982 212.349C22.6823 212.349 18.5424 208.181 15.78 204.893C13.4792 208.801 13.2825 208.988 12.291 210.928C-0.181512 235.214 3.45883 259.038 4.05673 265.795C4.51082 271.001 15.4848 297.104 15.4848 297.104L65.9275 295.416C65.9275 295.416 65.882 283.273 65.5112 273.993C64.1792 269.89 63.4299 266.314 63.9673 264.381C64.1186 263.848 64.2549 263.603 64.376 263.603C64.9284 263.603 65.2841 268.253 65.5112 274C68.7429 283.966 75.4029 297.024 75.4029 297.024L127.67 297.111C127.67 297.111 106.047 239.31 108.333 229.38C110.853 218.427 99.7426 198.49 106.047 194.38C106.811 193.875 107.651 193.687 108.537 193.687C111.526 193.687 115.129 195.872 118.905 195.872C119.08 195.872 119.261 195.872 119.435 195.858C118.338 195.778 116.711 195.339 114.274 193.911C105.472 188.741 101.506 179.655 100.552 177.355C95.6103 165.392 100.318 162.645 95.5194 154.648C90.6152 146.479 82.7063 144.344 83.6297 139.982C83.9551 138.439 84.9693 138.576 89.5783 133.362C94.0436 128.3 94.1723 126.945 94.1496 126.267C94.0588 122.611 89.4118 120.246 90.0324 119.172C90.1687 118.934 90.5168 118.84 90.9558 118.84C91.4931 118.84 92.1743 118.977 92.7797 119.172C93.5668 119.417 94.3085 119.777 95.0124 120.217C95.0275 120.181 95.0502 120.152 95.0729 120.124C95.2394 119.893 95.5951 119.785 96.0719 119.785C97.7067 119.785 100.795 121.083 102.853 123.433C103.67 124.371 104.291 125.431 104.753 126.483C104.821 126.188 104.95 125.95 105.139 125.798C105.351 125.625 105.653 125.546 106.017 125.546C107.561 125.546 110.202 126.995 111.542 129.108C115.424 135.208 105.608 142.369 106.97 151.815C108.756 164.21 127.495 164.455 129.842 177.831C130.311 180.528 130.069 183.455 129.259 186.152C129.849 184.631 130.19 183.426 130.296 183.037C133.3 172.394 122.985 165.558 119.322 142.83C113.956 109.517 108.136 110.158 103.315 107.353C100.416 105.666 97.5553 105.068 94.5886 105.068L94.581 105.039ZM95.0199 120.196C94.1799 121.998 101.029 130.045 101.884 130.045C101.907 130.045 101.922 130.045 101.937 130.031C102.391 129.714 99.7426 123.152 95.0199 120.196ZM104.753 126.462C104.306 128.308 105.933 132.396 106.055 132.396C106.145 132.375 106.062 129.433 104.753 126.462ZM129.251 186.13C128.336 188.496 126.822 191.632 124.627 193.695C126.723 191.913 128.343 189.166 129.251 186.13ZM124.627 193.695C124.105 194.142 123.552 194.524 122.977 194.841C121.797 195.483 120.616 195.778 119.443 195.843C119.587 195.851 119.723 195.858 119.844 195.858C120.177 195.858 120.457 195.829 120.684 195.786C122.183 195.54 123.492 194.762 124.62 193.695H124.627Z" fill="#072811"/>
<path d="M41.1265 69.8287C41.3308 70.3118 41.5654 71.0401 41.7698 72.0135C41.2173 72.0496 40.6118 72.1938 40.0518 72.4606C40.2939 71.5737 40.6118 70.7372 41.0129 70.0234C41.0508 69.9513 41.0886 69.8936 41.1265 69.8287ZM39.7415 78.5392C40.0215 78.6979 40.3242 78.7988 40.6421 78.8205H40.7405H40.801C41.0886 78.8205 41.3459 78.77 41.5881 78.669C41.5881 78.8926 41.5881 79.1161 41.5881 79.3324C41.5957 80.1544 41.6033 81.2144 41.4973 81.7769C40.907 81.5028 40.3923 80.7746 40.0366 79.7218C39.908 79.3468 39.8096 78.943 39.7263 78.5248M41.2097 67.8313C40.9372 67.8313 40.4302 68.0116 39.6885 69.3384C37.1985 73.809 37.4861 81.5028 40.8464 83.082C41.0659 83.1829 41.414 83.3488 41.7925 83.3488C41.9136 83.3488 42.0422 83.3344 42.1709 83.2839C43.8359 82.6998 42.6325 78.532 43.4121 74.7248C43.4499 74.5373 43.5407 74.1118 43.3061 73.8234C43.2153 73.7153 43.0866 73.6287 42.9201 73.5638C42.0044 76.5347 41.3232 77.3783 40.8162 77.3783C40.801 77.3783 40.7934 77.3783 40.7783 77.3783C40.0972 77.3278 39.3025 75.6982 39.8323 74.6094C40.2183 73.8018 41.2551 73.434 42.1179 73.434C42.4206 73.434 42.7007 73.4773 42.9201 73.5638C43.0564 73.1168 43.2002 72.6264 43.344 72.0856C43.1926 71.2925 42.4887 67.9106 41.2627 67.8241C41.2475 67.8241 41.2324 67.8241 41.2173 67.8241L41.2097 67.8313Z" fill="#072811"/>
<path d="M177.076 99.609C177.076 99.609 177.121 99.609 177.144 99.609C177.129 101.066 176.849 104.058 175.517 109.755C174.253 113.728 173.458 117.722 173.14 121.616C173.11 122.006 173.08 122.381 173.057 122.734C172.936 124.544 172.86 125.214 172.467 125.654C171.861 126.339 170.302 126.419 167.358 126.519C166.329 126.556 165.443 126.584 164.664 126.584C162.439 126.584 162.143 126.296 162.113 126.245C161.969 125.921 162.189 124.414 162.363 123.21C162.469 122.496 162.582 121.681 162.703 120.744C163.15 117.117 163.309 113.338 163.18 109.524C163.233 107.519 163.513 105.522 164.005 103.589C164.467 101.779 164.8 100.467 165.14 100.114C165.178 100.078 165.201 100.056 165.201 100.056C165.799 99.7749 168.864 99.7244 172.739 99.6595L173.473 99.6451H173.957C175.335 99.6162 176.334 99.5946 177.083 99.5946M177.076 96.7247C176.213 96.7247 175.032 96.7464 173.413 96.7752C165.549 96.905 164.134 96.8906 162.893 98.1957C162.037 99.0898 161.712 100.373 161.061 102.926C160.372 105.637 160.183 107.959 160.145 109.545C160.304 114.196 159.994 117.903 159.691 120.426C159.169 124.674 158.533 126.512 159.691 127.998C160.645 129.216 162.249 129.483 164.664 129.483C165.496 129.483 166.435 129.454 167.464 129.418C170.976 129.296 173.284 129.216 174.782 127.529C176.031 126.123 175.948 124.457 176.152 121.854C176.379 119.078 176.939 115.199 178.438 110.504C181.208 98.7005 179.808 97.2583 179.808 97.2583C179.407 96.8473 179.036 96.7392 177.068 96.7392L177.076 96.7247Z" fill="#072811"/>
<path d="M130.833 296.628C130.833 296.628 106.963 244.033 111.996 221.802C117.029 199.571 124.188 142.823 121.063 130.276C117.937 117.73 116.567 146.118 116.567 146.118L141.209 125.553C141.209 125.553 150.874 111.117 153.16 111.117C155.445 111.117 165.087 108.276 165.072 111.117C165.057 113.958 149.504 118.689 152.244 120.102C154.984 121.515 170.536 113.951 173.738 115.848C176.939 117.737 155.438 125.553 155.438 125.553C155.438 125.553 172.557 119.359 174.063 121.623C175.569 123.888 155.445 130.514 155.445 130.514C155.445 130.514 168.713 128.149 165.049 130.514C161.394 132.879 153.614 139.03 149.043 139.03C144.471 139.03 125.755 163.539 125.755 163.539C125.755 163.539 109.256 191.539 105.593 165.991C101.93 140.443 89.5861 92.6723 105.593 84.3944C121.6 76.1165 141.27 79.4262 149.504 74.2273C157.739 69.0211 190.108 66.6777 174.154 28.1147C158.2 -10.4483 133.005 27.2061 138.053 44.5696C143.101 61.933 153.167 100.719 170.09 81.7985C187.013 62.8776 208.491 71.5737 210.331 75.7415C212.17 79.9093 221.766 82.6566 224.748 112.978C227.722 143.299 232.301 174.045 217.203 156.069C202.111 138.093 189.434 126.592 184.341 126.433C184.341 126.433 176.039 127.219 174.669 123.902C173.299 120.585 171.467 120.116 176.954 122.013C182.441 123.909 188.844 122.957 188.844 122.957C188.844 122.957 171.467 118.703 172.837 113.973C174.207 109.243 176.493 116.338 179.702 116.814C182.911 117.29 187.936 117.758 187.936 117.758C184.28 116.338 170.098 113.028 170.098 111.139C170.098 109.25 170.552 107.829 173.753 108.774C176.954 109.718 185.189 112.56 187.928 112.084C190.668 111.608 183.811 107.829 180.156 107.829C176.5 107.829 170.09 102.154 175.585 102.623C181.072 103.099 191.591 107.353 190.676 105.933C189.76 104.512 186.104 101.679 183.811 102.147C181.518 102.616 176.039 102.623 176.493 101.203C176.947 99.7821 178.778 99.7821 180.148 98.8375C181.518 97.8929 183.35 94.5832 185.181 97.417C187.013 100.251 194.331 107.822 193.87 110.663C193.408 113.504 203.474 123.909 203.474 123.909C203.474 123.909 213.078 135.735 211.246 128.164C209.415 120.592 204.382 102.147 202.558 115.393C200.734 128.639 213.532 206.688 207.591 215.204C201.642 223.72 208.045 255.887 208.045 255.887L211.7 294.674C211.7 294.674 170.105 299.577 170.09 296.657C170.075 293.736 162.612 254.077 162.688 262.788C162.764 271.498 162.688 296.657 162.688 296.657H130.833V296.628Z" stroke="#072811" stroke-width="3" stroke-miterlimit="10"/>
<path d="M133.543 33.6597C133.846 34.1645 134.232 34.9648 134.625 36.0897C134.625 36.133 134.618 36.1763 134.61 36.2195C133.952 36.3565 133.286 36.6449 132.726 37.0704C132.839 35.996 133.059 34.9576 133.399 34.0491C133.452 33.9049 133.505 33.7751 133.551 33.6597M135.405 43.1923C135.443 43.4663 135.481 43.7403 135.526 43.9999C135.67 44.9878 135.867 46.2929 135.791 46.8914C135.753 46.8842 135.723 46.8698 135.7 46.8625C135.087 46.6751 134.459 46.0261 133.944 45.0382C133.664 44.5046 133.43 43.9134 133.24 43.2716C133.566 43.4375 133.914 43.5312 134.262 43.5312H134.361H134.421C134.792 43.5023 135.117 43.387 135.405 43.1995M133.43 31.684C133.43 31.684 133.392 31.684 133.369 31.684C133.097 31.7056 132.574 31.9219 131.969 33.5732C130.054 38.8226 131.515 47.0933 135.238 48.2398C135.435 48.2975 135.723 48.3912 136.026 48.3912C136.23 48.3912 136.442 48.3552 136.639 48.2398C138.281 47.3312 136.404 43.0264 136.639 38.7793C136.654 38.5702 136.684 38.0943 136.389 37.8275C136.283 37.7266 136.132 37.6544 135.95 37.6112C135.435 41.0579 134.837 42.053 134.3 42.089C134.285 42.089 134.277 42.089 134.262 42.089C133.543 42.089 132.521 40.4955 132.9 39.248C133.233 38.1592 134.557 37.5607 135.526 37.5607C135.677 37.5607 135.821 37.5751 135.95 37.604C136.026 37.0992 136.101 36.544 136.169 35.9383C135.897 35.1235 134.694 31.6768 133.43 31.6768V31.684Z" fill="#072811"/>
<path d="M298.819 36.58C303.806 36.58 308.824 38.9956 313.327 43.5527C319.919 50.2371 320.782 58.9476 315.893 69.4465C311.647 78.5752 304.23 86.7017 299.243 91.5401C295.807 88.8145 291.969 83.666 285.34 74.7608L283.69 72.5471C278.203 65.1849 277.575 55.8903 282.017 47.6989C285.733 40.8415 292.166 36.58 298.811 36.58M300.136 98.7653C303.193 99.9695 306.417 100.243 310.171 100.243C312.086 100.243 314.198 100.164 316.188 100.078C319.76 99.9262 323.567 99.782 327.434 99.782C340.702 99.782 349.102 101.693 353.114 105.623C355.15 107.62 356.096 110.194 356.005 113.497C355.831 119.539 358.767 131.293 362.158 144.907C364.852 155.716 367.637 166.892 369.166 176.346C371.27 189.397 369.946 193.32 368.969 194.495C368.742 194.769 368.538 194.906 368.031 194.906C367.456 194.906 366.146 194.697 363.755 193.32C358.525 190.291 352.773 187.089 346.681 183.7C341.958 181.076 337.099 178.365 332.354 175.668C332.74 173.476 333.277 171.046 333.966 168.392C342.041 172.38 348.497 175.199 348.573 175.235L352.788 177.067L352.864 172.654C352.864 172.538 353.053 161.044 352.917 149.392C352.622 124.724 351.229 123.376 350.109 122.294C349.458 121.667 348.611 121.32 347.71 121.32C346.9 121.32 345.386 121.609 344.372 123.563C342.079 128.019 334.859 144.626 330.121 159.905C320.684 154.966 313.592 150.589 309.392 147.092C309.377 146.262 309.354 145.145 309.301 143.933C309.354 141.784 309.581 141.179 309.581 141.179C310.073 140.162 310.981 138.28 305.471 130.853C303.186 127.774 299.803 123.837 297.169 122.02C295.943 121.169 294.777 120.758 293.604 120.758C292.091 120.758 290.759 121.472 289.964 122.712C289.525 123.397 289.268 124.212 289.207 125.099C288.708 125.12 288.223 125.142 287.762 125.164C286.831 125.207 285.953 125.25 285.332 125.25C283.251 125.25 281.26 126.563 280.284 128.315C278.551 127.94 276.878 127.904 276.273 127.904C273.692 127.904 268.841 128.409 265.337 131.79C262.499 134.53 262.226 137.509 261.939 140.652C261.78 142.419 261.598 144.431 260.917 146.76C259.214 152.601 255.869 155.478 252.637 158.261C251.517 159.227 250.382 160.201 249.337 161.289C249.277 155.081 249.61 148.224 249.928 141.518C250.965 120.015 251.532 108.168 257.413 103.957C259.479 102.472 261.545 101.815 264.103 101.815C266.661 101.815 269.348 102.45 272.489 103.178C276.318 104.072 280.655 105.082 285.597 105.082C287.799 105.082 289.911 104.887 292.045 104.491C293.771 104.166 297.388 101.203 300.105 98.7725M290.221 152.435C293.37 158.369 303.905 166.056 325.807 178.653C325.172 184.465 325.792 188.38 327.73 190.875C330.757 194.791 335.025 209.046 338.59 227.188C342.208 245.568 344.387 263.877 344.281 274.967C344.16 287.773 343.358 292.784 342.874 294.645L297.154 293.794C296.919 289.763 296.442 281.774 295.905 273.849C295.458 267.266 295.05 262.023 294.702 258.252C294.013 250.818 293.801 248.575 290.645 248.561C288.715 248.561 287.61 249.816 287.368 252.296C286.596 260.25 286.331 285.826 286.263 294.609L255.21 293.815C251.358 251.294 253.303 223.417 260.977 210.964C261.083 210.791 261.204 210.604 261.326 210.402C262.93 207.864 266.26 202.585 265.965 195.67C265.859 193.226 265.284 190.904 264.224 188.633C264.444 188.539 264.61 188.46 264.716 188.409C271.073 185.301 272.421 178.559 273.73 172.041C274.956 165.897 276.227 159.552 281.571 156.069C284.431 154.209 287.633 153.134 290.229 152.435M298.819 33.6957C281.661 33.6957 268.364 56.9647 281.23 74.22C290.501 86.6585 294.732 92.5929 299.583 95.2897C312.063 83.7453 332.664 58.9476 315.537 41.5842C310.05 36.0247 304.245 33.7029 298.826 33.7029L298.819 33.6957ZM299.576 95.2897C295.398 99.1547 292.128 101.534 291.493 101.657C289.442 102.039 287.489 102.198 285.62 102.198C277.105 102.198 270.392 98.9383 264.126 98.9383C261.235 98.9383 258.442 99.6306 255.611 101.664C248.596 106.697 248.036 118.263 246.923 141.402C245.947 161.686 244.955 182.165 254.242 186.34C255.483 186.895 256.754 187.097 257.943 187.097C258.586 187.097 259.206 187.039 259.774 186.945C254.945 180.016 246.499 175.877 248.293 168.839C250.389 160.619 260.281 159.768 263.846 147.553C265.761 140.977 264.08 137.141 267.501 133.838C269.855 131.56 273.314 130.81 276.28 130.81C279.436 130.81 282.025 131.661 282.138 132.418C282.373 134.047 271.376 136.535 271.618 137.624C271.671 137.862 272.239 137.956 273.14 137.956C275.614 137.956 280.632 137.242 284.447 136.809C284.174 136.441 284.409 135.951 285.34 135.259C286.551 134.365 288.412 133.946 290.259 133.946C291.553 133.946 292.84 134.156 293.892 134.545C291.811 132.67 289.169 131.343 286.672 131.343C286.225 131.343 285.779 131.387 285.34 131.473C284.886 131.567 284.492 131.61 284.167 131.61C281.223 131.61 283.281 128.163 285.34 128.163C286.861 128.163 289.404 127.954 291.606 127.954C292.711 127.954 293.725 128.005 294.49 128.163C296.775 128.639 299.977 136.203 299.977 136.203C299.977 136.203 300.877 140.869 301.46 140.869C301.596 140.869 301.717 140.616 301.801 139.989C302.24 136.824 295.973 127.154 293.831 127.154C293.733 127.154 293.65 127.176 293.566 127.212C293.445 127.276 293.324 127.305 293.218 127.305C291.992 127.305 291.667 123.664 293.612 123.664C294.073 123.664 294.664 123.866 295.398 124.378C299.515 127.219 307.749 138.093 306.834 139.989C306.455 140.775 306.311 142.376 306.274 143.977C306.364 146.097 306.372 147.95 306.38 148.397C312.048 153.48 322.674 159.436 331.998 164.167C336.713 147.762 344.902 129.079 347.089 124.846C347.309 124.414 347.513 124.212 347.71 124.212C350.646 124.212 349.837 172.625 349.837 172.625C349.837 172.625 341.61 169.041 332.006 164.167C330.674 168.81 329.614 173.267 329.054 177.16C340.338 183.614 352.357 190.111 362.188 195.8C364.564 197.177 366.494 197.812 368.038 197.812C384.007 197.812 358.57 129.894 359.04 113.598C359.448 99.3061 343.093 96.9193 327.442 96.9193C323.514 96.9193 319.624 97.0708 316.067 97.2222C313.857 97.3159 311.92 97.3808 310.186 97.3808C305.623 97.3808 302.497 96.9265 299.591 95.3041L299.576 95.2897ZM293.892 134.523C294.838 135.374 295.67 136.333 296.321 137.335C296.321 137.263 296.321 137.198 296.321 137.126C296.321 135.937 295.322 135.057 293.899 134.523H293.892ZM304.942 136.391C304.82 136.391 304.692 136.477 304.548 136.658C303.572 137.92 303.118 141.604 302.906 144.835C302.936 144.878 302.966 144.914 303.004 144.957C303.534 145.527 304.192 146.219 305.01 147.063C305.426 147.488 305.88 147.928 306.372 148.368C306.342 147.885 306.228 145.916 306.274 143.948C306.13 140.515 305.782 136.384 304.942 136.384V136.391ZM288.488 136.456C287.587 136.456 286.134 136.593 284.454 136.787C284.795 137.242 285.892 137.516 287.406 137.761C288.685 137.285 289.51 136.888 289.464 136.658C289.434 136.513 289.078 136.456 288.496 136.456H288.488ZM296.321 137.343C296.389 139.376 297.449 141.172 297.767 141.172C297.956 141.172 297.888 140.559 297.229 139.023C296.987 138.46 296.677 137.891 296.321 137.343ZM287.398 137.761C283.334 139.282 274.676 141.655 274.82 142.332C274.842 142.455 275.153 142.506 275.675 142.506C277.575 142.506 282.305 141.806 286.293 141.287C286.694 140.306 288.488 138.965 290.153 138.965C290.91 138.965 291.644 139.246 292.204 139.967C292.719 140.631 293.415 140.883 294.028 140.883C295.595 140.883 296.609 139.225 292.666 138.547C290.743 138.215 288.882 137.999 287.406 137.761H287.398ZM291.818 140.739C290.713 140.739 288.632 140.977 286.293 141.287C286.278 141.323 286.263 141.352 286.255 141.388C286.172 141.647 286.339 141.72 286.657 141.72C287.012 141.72 287.55 141.64 288.163 141.64C288.806 141.64 289.517 141.734 290.168 142.102C291.705 141.575 292.711 141.15 292.658 140.919C292.636 140.797 292.325 140.746 291.818 140.746V140.739ZM290.168 142.102C285.415 143.739 275.539 146.378 275.736 147.539C275.804 147.957 277.166 148.094 279.134 148.094C282.865 148.094 288.783 147.604 292.227 147.596C292.227 144.243 291.303 142.751 290.168 142.102ZM301.203 142.902C301.157 142.902 301.619 143.472 302.906 144.856C302.906 144.856 302.906 144.842 302.906 144.835C301.99 143.674 301.248 142.902 301.203 142.902ZM302.906 144.856C302.724 147.683 302.724 150.156 302.724 150.38C302.724 150.733 303.761 154.836 305.048 154.836C305.471 154.836 305.925 154.389 306.38 153.221C307.227 151.021 304.82 147.286 303.004 144.964C302.974 144.928 302.936 144.892 302.906 144.856ZM292.272 147.596C292.272 147.596 292.242 147.596 292.227 147.596C292.227 147.878 292.219 148.173 292.204 148.483C292.204 148.642 292.204 148.808 292.219 148.974C293.93 148.577 294.997 148.332 294.951 148.015C294.906 147.704 293.862 147.596 292.272 147.596ZM306.372 148.375C306.372 148.447 306.372 148.483 306.372 148.483C306.372 148.483 306.372 148.447 306.372 148.382V148.375ZM292.212 148.966C289.215 149.659 284.25 150.82 279.853 153.682C267.501 161.722 273.76 180.737 263.324 185.835C263.074 185.957 261.666 186.621 259.774 186.924C261.515 189.426 262.786 192.281 262.93 195.778C263.21 202.355 259.744 207.243 258.359 209.493C252.191 219.502 247.256 242.006 252.425 296.62L289.26 297.565C289.26 297.565 289.457 262.002 290.373 252.563C290.448 251.799 290.532 251.445 290.637 251.445C291.758 251.445 294.285 296.62 294.285 296.62L344.516 297.551C344.516 297.551 344.539 297.565 344.592 297.565C345.016 297.565 347.112 296.476 347.309 274.981C347.528 251.07 337.485 198.612 330.167 189.152C328.441 186.924 328.267 182.576 329.054 177.131C309.861 166.164 292.802 155.341 292.219 148.959L292.212 148.966Z" fill="#072811"/>
<path d="M279.905 122.272C280.556 122.272 281.404 122.294 282.539 122.308H282.986L283.659 122.33C286.982 122.388 289.616 122.438 290.289 122.669C290.289 122.669 290.304 122.683 290.304 122.69C290.622 123.051 290.94 124.443 291.349 126.209C291.803 128.163 292.06 130.175 292.113 132.201C292 136.009 292.143 139.773 292.544 143.392C292.65 144.323 292.756 145.137 292.855 145.851C293.029 147.149 293.241 148.772 293.052 149.038C292.999 149.075 292.628 149.255 291.023 149.255C290.319 149.255 289.517 149.226 288.586 149.19C285.816 149.082 284.651 148.988 284.189 148.426C283.803 147.95 283.735 147.113 283.629 145.419C283.606 145.065 283.584 144.698 283.553 144.301C283.266 140.414 282.539 136.441 281.396 132.475C280.178 126.772 279.921 123.758 279.905 122.265M279.701 119.388C277.9 119.388 277.567 119.496 277.204 119.907C277.204 119.907 275.932 121.349 278.452 133.153C279.822 137.847 280.337 141.727 280.541 144.503C280.73 147.106 280.655 148.772 281.79 150.178C283.152 151.872 285.264 151.952 288.465 152.067C289.411 152.103 290.259 152.132 291.023 152.132C293.218 152.132 294.686 151.865 295.557 150.646C296.609 149.161 296.033 147.33 295.557 143.075C295.277 140.551 294.997 136.845 295.14 132.194C295.103 130.608 294.936 128.286 294.308 125.575C293.71 123.022 293.415 121.739 292.643 120.845C291.515 119.539 290.221 119.554 283.046 119.424C281.57 119.395 280.496 119.374 279.709 119.374L279.701 119.388Z" fill="#072811"/>
<path d="M324.037 59.2217C324.075 59.3154 324.112 59.4236 324.158 59.5461C324.483 60.4547 324.703 61.4714 324.816 62.5386C324.279 62.142 323.658 61.868 323.038 61.731C323.038 61.6877 323.03 61.6373 323.023 61.594C323.393 60.5196 323.757 59.7336 324.044 59.2289M322.251 68.7326C322.523 68.8985 322.826 68.9994 323.182 69.0282H323.28H323.348C323.681 69.0282 324.007 68.9489 324.309 68.7975C324.112 69.4537 323.878 70.0666 323.598 70.6074C323.098 71.5592 322.508 72.1793 321.925 72.3668C321.91 72.3668 321.895 72.374 321.88 72.3812C321.812 71.7683 322.001 70.4776 322.137 69.4969C322.175 69.2446 322.213 68.985 322.251 68.7254M324.158 57.1882C322.917 57.1882 321.744 60.635 321.471 61.4498C321.539 62.0627 321.615 62.6179 321.691 63.1155C321.819 63.0866 321.956 63.0722 322.107 63.0722C323.053 63.0722 324.355 63.6707 324.68 64.7595C325.051 66.007 324.044 67.6005 323.348 67.6005C323.333 67.6005 323.325 67.6005 323.31 67.6005C322.788 67.5573 322.205 66.5622 321.698 63.1227C321.524 63.1659 321.373 63.238 321.267 63.339C320.979 63.613 321.009 64.0817 321.025 64.2908C321.252 68.5379 319.42 72.8427 321.025 73.7513C321.221 73.8594 321.426 73.9027 321.623 73.9027C321.925 73.9027 322.205 73.8162 322.394 73.7513C326.042 72.6048 327.473 64.3341 325.596 59.0847C325.006 57.4334 324.491 57.2171 324.226 57.1954C324.203 57.1954 324.188 57.1954 324.165 57.1954L324.158 57.1882Z" fill="#072811"/>
<path d="M333.883 107.526C334.534 107.526 335.381 107.548 336.517 107.562H336.963L337.637 107.584C340.959 107.642 343.601 107.692 344.267 107.923C344.267 107.923 344.282 107.937 344.282 107.945C344.6 108.305 344.918 109.697 345.326 111.463C345.78 113.418 346.038 115.429 346.091 117.456C345.977 121.263 346.121 125.027 346.522 128.647C346.628 129.577 346.734 130.392 346.832 131.105C347.006 132.403 347.218 134.026 347.029 134.293C346.976 134.329 346.605 134.509 345.001 134.509C344.297 134.509 343.495 134.48 342.564 134.444C339.794 134.336 338.621 134.242 338.167 133.68C337.781 133.204 337.713 132.367 337.607 130.673C337.584 130.32 337.561 129.952 337.531 129.555C337.243 125.669 336.517 121.695 335.374 117.73C334.155 112.026 333.898 109.012 333.883 107.519M333.679 104.642C331.877 104.642 331.544 104.75 331.181 105.161C331.181 105.161 329.91 106.603 332.43 118.407C333.8 123.102 334.314 126.981 334.519 129.757C334.708 132.36 334.632 134.026 335.767 135.432C337.13 137.126 339.241 137.206 342.443 137.321C343.389 137.357 344.236 137.386 345.001 137.386C347.196 137.386 348.664 137.119 349.534 135.901C350.586 134.415 350.011 132.584 349.534 128.329C349.254 125.806 348.974 122.099 349.118 117.448C349.08 115.862 348.914 113.54 348.285 110.829C347.688 108.276 347.392 106.993 346.62 106.099C345.493 104.794 344.199 104.808 337.024 104.678C335.548 104.649 334.473 104.628 333.686 104.628L333.679 104.642Z" fill="#072811"/>
<path d="M401.634 2.88429C408.483 2.88429 414.735 5.46573 418.36 9.79217C423.045 15.3877 422.636 22.9445 422.28 29.6072C421.834 37.9284 419.526 47.086 415.916 54.9097C412.442 56.4167 409.104 59.1496 405.857 61.8104C402.232 64.774 398.123 68.1414 395.368 68.1414C395.171 68.1414 394.989 68.1269 394.808 68.0909C391.281 67.4059 385.839 59.6399 382.691 46.6029C379.081 31.6479 379.686 13.448 389.184 6.51129C392.325 4.21828 396.866 2.89871 401.642 2.89871M421.145 59.4885C421.705 59.4885 422.227 59.6039 422.727 59.8346L422.893 59.9139C423.529 60.2024 423.991 60.4115 424.733 61.3272C428.01 65.3652 429.849 68.1846 431.468 70.6723C434.564 75.4242 436.796 78.8637 445.788 85.9158C448.8 88.2809 451.577 89.8024 454.022 91.1436C456.898 92.7227 459.176 93.963 460.833 96.0469L461 96.256C461.681 97.0996 462.96 98.6644 463.891 103.034C465.147 108.94 465.306 117.629 464.353 128.877C463.278 141.583 461.583 148.685 459.781 156.206C458.01 163.597 456.186 171.24 454.748 184.638C454.249 189.289 453.999 192.772 453.818 195.317C453.507 199.694 453.363 201.136 452.849 201.468C452.493 201.698 452.137 201.799 451.698 201.799C448.035 201.799 441.08 195.67 433.724 189.188C432.187 187.839 430.613 186.448 428.963 185.02C428.706 181.033 428.479 177.095 428.29 173.252C429.675 174.089 430.886 174.507 432.089 174.507C433.36 174.507 434.511 174.016 435.336 173.122C437.296 171.01 436.675 168.818 435.563 164.844C434.988 162.797 434.201 159.984 433.285 155.939C429.569 139.455 429.788 129.368 430.795 126.729C430.901 126.729 431.022 126.736 431.143 126.736C433.33 126.736 434.216 125.294 434.435 124.854C435.063 123.585 434.829 122.106 433.724 120.448C433.315 119.828 431.12 116.749 428.176 116.749C427.987 116.749 427.79 116.763 427.601 116.785C424.702 117.189 420.404 117.794 421.698 160.057C413.047 152.363 400.93 142.462 388.193 142.462C386.793 142.462 385.4 142.585 384.045 142.816C383.395 142.931 382.698 143.075 381.957 143.234C380.216 143.609 378.241 144.027 376.583 144.027C375.471 144.027 374.858 143.84 374.509 143.652C374.396 141.806 374.245 139.931 374.055 138.057C374.116 136.91 374.108 135.295 373.541 133.593C372.981 129.303 372.254 125.027 371.308 120.542C370.96 114.405 370.249 108.687 369.295 104.419C368.182 99.4431 366.812 96.0901 363.77 95.9387C364.966 90.7903 366.782 86.7523 369.62 84.4665C371.179 83.2118 372.398 83.0387 373.389 83.0387C374.676 83.0387 376.152 83.3776 377.87 83.767C380.261 84.315 382.971 84.9279 386.293 84.9279C389.616 84.9279 392.817 84.315 396.215 83.0604C408.483 78.5104 416.037 68.0188 420.328 59.5606C420.615 59.5101 420.888 59.4885 421.145 59.4885ZM362.029 108.024C362.998 111.615 364.171 116.013 365.291 121.263C365.375 122.813 365.435 124.385 365.473 125.971C364.02 125.373 362.529 124.919 361.114 124.587L361.129 124.234C361.363 118.624 361.598 113.107 362.029 108.024ZM327.397 126.498C327.359 126.584 327.329 126.656 327.306 126.729C327.283 126.801 327.261 126.866 327.238 126.938C327.208 126.837 327.2 126.786 327.2 126.786C327.223 126.707 327.298 126.606 327.404 126.498M323.166 132.288C323.325 132.331 323.582 132.425 323.938 132.612C324.604 133.341 325.391 134.083 326.284 134.833C324.127 134.293 323.091 133.586 322.947 133.052C322.909 132.872 323.022 132.519 323.166 132.288ZM345.137 159.04C346.681 159.263 348.49 159.422 350.541 159.566C350.904 161.232 351.699 162.717 353.75 162.854H353.856H353.954C355.876 162.854 356.792 161.564 357.352 159.963C358.979 160.049 360.629 160.143 362.279 160.244C359.577 172.92 356.648 179.172 355.112 180.557C354.991 180.427 354.824 180.239 354.62 179.958C349.829 173.303 347.021 165.702 345.137 159.033M374.441 161.477C393.967 164.83 409.937 176.475 423.083 187.702C423.862 199.204 424.891 210.849 426.072 221.463C426.329 223.785 426.504 225.22 426.655 226.496C426.859 228.234 427.026 229.604 427.321 232.495C429.44 253.111 430.341 273.705 430.015 293.751H388.738C390.622 284.953 394.036 265.506 389.078 259.254C387.86 257.719 386.21 256.861 384.295 256.767C384.182 256.767 384.068 256.76 383.962 256.76C382.131 256.76 380.466 257.495 379.134 258.894C376.069 262.11 374.562 269.371 374.54 281.103C374.532 286.122 374.797 290.801 375.009 293.751H330.878C334.859 274.238 344.297 232.2 349.973 224.953C364.519 206.371 372.738 185.034 374.441 161.484M401.634 0C396.329 0 391.145 1.42051 387.338 4.21106C368.235 18.171 380.935 68.3216 394.202 70.9103C394.588 70.9824 394.974 71.0184 395.368 71.0184C402.346 71.0184 410.542 59.7481 418.178 57.1378C422.492 48.2037 424.839 38.2673 425.3 29.7515C425.671 22.858 426.125 14.4431 420.729 7.98949C416.226 2.61028 408.816 0 401.634 0ZM421.145 56.6042C420.169 56.6042 419.177 56.7989 418.178 57.1378C413.176 67.4996 405.524 76.513 395.11 80.3708C391.735 81.6182 388.844 82.0436 386.286 82.0436C380.897 82.0436 377.03 80.1544 373.389 80.1544C371.482 80.1544 369.635 80.6736 367.668 82.26C359.176 89.1102 358.82 107.411 357.98 126.909C362.044 127.572 366.048 128.906 368.523 131.228C368.561 127.608 368.478 124.14 368.303 120.902C365.428 107.332 362.029 98.8446 363.551 98.8158C363.551 98.8158 363.551 98.8158 363.558 98.8158C365.359 98.8158 367.584 107.988 368.303 120.902C369.159 124.926 369.961 129.396 370.581 134.228C371.066 135.54 371.111 136.845 371.028 138.107C371.247 140.306 371.429 142.563 371.558 144.885C371.633 144.986 371.709 145.08 371.792 145.174C372.943 146.486 374.684 146.911 376.591 146.911C379.346 146.911 382.449 146.024 384.598 145.649C385.801 145.44 387.005 145.339 388.2 145.339C402.505 145.339 416.377 159.379 424.982 166.928C423.923 140.912 424.604 120.109 428.048 119.626C428.093 119.626 428.138 119.619 428.184 119.619C429.652 119.619 432.134 122.741 431.703 123.606C431.612 123.787 431.408 123.837 431.15 123.837C430.863 123.837 430.5 123.779 430.129 123.779C429.887 123.779 429.644 123.801 429.425 123.887C426.11 125.113 426.405 139.081 430.341 156.523C432.861 167.693 434.481 169.683 433.088 171.19C432.831 171.471 432.498 171.601 432.104 171.601C430.606 171.601 428.153 169.704 424.99 166.928C425.247 173.173 425.595 179.713 426.042 186.347C437.417 196.139 445.863 204.662 451.729 204.662C452.766 204.662 453.719 204.395 454.589 203.826C457.17 202.146 456.224 199.514 457.791 184.905C460.689 157.857 465.268 154.346 467.395 129.086C469.741 101.26 464.769 96.1623 463.263 94.2803C459.653 89.7663 454.181 88.7352 447.733 83.6733C434.465 73.2682 436.759 71.3718 427.147 59.5462C425.883 57.9887 424.884 57.5993 424.059 57.2243C423.105 56.7917 422.144 56.597 421.16 56.597L421.145 56.6042ZM338.643 113.944C337.372 113.944 335.866 115.054 335.654 116.316C335.086 119.684 343.759 123.7 343.426 124.356C343.404 124.399 343.358 124.414 343.275 124.414C342.299 124.414 337.137 121.494 334.345 121.494C333.724 121.494 333.224 121.638 332.907 121.984C332.415 122.525 332.415 123.513 332.664 124.659C333.171 125.265 333.618 125.964 333.989 126.685C338.431 127.507 345.682 131.084 350.745 132.389C351.525 132.591 352.274 132.786 352.985 132.973C352.985 132.497 352.993 132.043 353 131.603C348.323 130.168 343.737 128.596 343.888 127.659C344.002 126.93 347.067 126.346 351.093 126.346C351.721 126.346 352.372 126.361 353.046 126.39C353.038 124.854 352.887 122.582 351.903 122.251C351.827 122.229 351.759 122.215 351.691 122.215C351.04 122.215 350.556 123.224 349.375 123.404C349.262 123.419 349.141 123.433 349.027 123.433C346.628 123.433 343.994 119.878 342.057 117.261C340.52 115.191 340.028 114.066 338.855 113.951C338.787 113.951 338.719 113.944 338.643 113.944ZM329.168 122.82C326.988 122.82 324.574 124.414 324.218 126.253C323.961 127.579 324.771 129.043 325.921 130.377C328.449 131.877 330.848 134.538 331.067 134.754C331.083 134.761 331.083 134.768 331.083 134.768C331.083 134.768 331.083 134.768 331.067 134.754C330.825 134.574 327.881 132.663 325.921 130.377C324.907 129.779 323.878 129.36 322.954 129.36C322.599 129.36 322.25 129.425 321.933 129.562C320.555 130.168 319.609 132.216 320.018 133.752C320.994 137.436 327.859 138.547 334.738 138.547C336.698 138.547 337.781 141.676 338.969 146.536C339.272 146.414 339.589 146.356 339.915 146.356C343.071 146.356 347.423 151.432 349.027 151.432C349.163 151.432 349.284 151.396 349.375 151.317C349.86 150.906 349.443 149.63 349.375 149.428C348.755 147.618 346.734 146.825 346.174 146.587C340.445 144.2 331.559 134.985 332.452 133.341C332.566 133.139 332.808 133.088 333.149 133.023C333.353 132.987 333.55 132.966 333.754 132.966C335.881 132.966 337.69 135.006 339.771 136.65C343.729 139.766 348.255 141.085 349.527 141.085C349.716 141.085 349.829 141.056 349.867 140.999C349.958 140.833 349.398 140.328 348.921 139.96C345.266 137.119 328.797 131.444 330.167 127.659C330.462 126.844 331.249 126.512 332.369 126.512C332.642 126.512 332.937 126.534 333.247 126.57C333.005 125.921 332.801 125.265 332.672 124.659C331.968 123.83 331.136 123.181 330.174 122.928C329.857 122.849 329.524 122.806 329.183 122.806L329.168 122.82ZM353.046 126.397C353.046 126.974 353.031 127.442 353.031 127.666C353.031 128.589 353.016 129.959 353 131.61C354.62 132.108 356.247 132.591 357.693 133.023C357.799 130.976 357.889 128.935 357.98 126.902C356.315 126.628 354.635 126.469 353.046 126.397ZM333.247 126.577C334.155 129.029 335.586 131.452 335.654 131.452C335.707 131.43 335.185 128.971 333.989 126.692C333.732 126.642 333.482 126.606 333.24 126.577H333.247ZM368.53 131.221C368.455 138.049 367.933 145.419 366.76 152.738C366.532 154.173 366.237 155.824 365.897 157.598C367.887 157.749 369.817 157.922 371.611 158.138C371.823 153.56 371.785 149.118 371.558 144.878C370.18 143.003 370.862 140.645 371.028 138.1C370.892 136.78 370.748 135.49 370.581 134.22C370.529 134.083 370.476 133.946 370.415 133.817C369.984 132.836 369.333 131.978 368.53 131.221ZM352.985 132.987C352.91 140.198 352.796 151.432 353.235 156.848C353.825 156.884 354.423 156.92 355.029 156.949C355.203 156.184 355.316 155.571 355.316 155.571C356.603 148.815 357.223 141.511 357.625 134.199C356.3 133.86 354.741 133.442 352.978 132.98L352.985 132.987ZM357.7 133.023C357.678 133.413 357.655 133.809 357.64 134.206C359.721 134.732 361.22 135.064 362.007 135.064C362.43 135.064 362.65 134.97 362.65 134.761C362.65 134.523 360.523 133.867 357.708 133.023H357.7ZM338.969 146.544C338.931 146.558 338.893 146.572 338.855 146.594C338.129 146.94 337.448 147.733 337.485 148.483C337.531 149.392 338.628 150.185 339.975 150.841C339.62 149.298 339.294 147.856 338.969 146.544ZM339.975 150.841C341.989 159.581 344.864 171.507 352.122 181.595C352.751 182.467 353.765 183.621 355.059 183.636C355.059 183.636 355.074 183.636 355.082 183.636C359.789 183.636 363.831 168.313 365.897 157.605C362.302 157.338 358.518 157.151 355.036 156.956C354.741 158.247 354.287 159.984 353.954 159.984C353.629 159.963 353.409 158.773 353.25 156.855C346.749 156.458 341.693 155.961 341.61 154.641C341.595 154.346 341.777 153.264 342.526 152.752C342.866 152.521 343.26 152.442 343.646 152.442C344.426 152.442 345.152 152.752 345.258 152.752H345.273C345.303 152.658 342.276 151.959 339.99 150.856L339.975 150.841ZM371.611 158.146C370.665 178.3 364.724 201.28 347.544 223.222C339.771 233.159 327.215 296.628 327.215 296.628H378.286C378.286 296.628 374.578 259.637 383.955 259.637C384.015 259.637 384.076 259.637 384.136 259.637C393.74 260.113 384.984 296.62 384.984 296.62H432.982C433.315 281.615 433.126 259.442 430.326 232.2C429.803 227.123 429.675 226.583 429.077 221.146C427.843 210.02 426.799 198.035 426.019 186.332C412.722 174.889 395.436 161.708 373.609 158.405C372.966 158.304 372.292 158.218 371.603 158.131L371.611 158.146Z" fill="#072811"/>
<path d="M420.563 23.7377C420.873 23.7377 421.138 23.7954 421.335 23.9035C421.554 24.0261 422.455 24.7256 422.326 27.8406C422.19 27.4368 421.955 27.0474 421.577 26.7446C421.191 26.4489 420.714 26.2903 420.192 26.2903C419.004 26.2903 417.777 27.0907 416.801 28.0497C416.476 27.6459 416.302 27.2493 416.294 26.9032C416.294 26.4129 416.62 25.8072 417.21 25.2447C418.133 24.3578 419.511 23.7377 420.563 23.7377ZM421.819 31.5974C421.009 34.9648 419.162 37.4813 418.103 38.4115C417.914 37.9861 417.687 37.4092 417.467 36.8396L417.414 36.7026C417.316 36.4502 417.217 36.2122 417.164 36.0176C416.839 34.8278 416.953 33.5154 417.497 32.2247C418.057 32.5131 418.776 32.8232 419.556 32.8232C420.146 32.8232 420.691 32.6501 421.138 32.3185C421.418 32.1093 421.645 31.8642 421.819 31.6046M420.563 22.2955C418.027 22.2955 414.758 24.5813 414.78 26.9176C414.796 28.3598 416.059 29.5351 416.937 30.1769C417.974 28.7203 419.367 27.7324 420.192 27.7324C420.358 27.7324 420.51 27.7757 420.616 27.8622C421.244 28.3526 421.145 30.4797 420.207 31.1719C420.01 31.3162 419.791 31.3738 419.556 31.3738C418.935 31.3738 418.232 30.9628 417.747 30.696C417.679 30.66 417.354 30.4725 416.937 30.1697C416.62 30.6167 416.332 31.1143 416.105 31.6406C415.878 32.1814 415.083 34.1139 415.696 36.3709C415.779 36.6882 415.923 37.0198 416.044 37.3371C416.741 39.1037 417.089 39.9835 417.52 40.1493C417.581 40.1709 417.649 40.1854 417.724 40.1854C419.14 40.1854 422.651 36.032 423.522 30.7465C423.749 29.3837 424.619 24.0622 422.091 22.6489C421.645 22.3965 421.115 22.2883 420.555 22.2883L420.563 22.2955Z" fill="#072811"/>
</g>
<defs>
<clipPath id="clip0_95_226">
<rect width="468" height="299" fill="white"/>
</clipPath>
</defs>
</svg>
