<svg width="98" height="58" viewBox="0 0 98 58" fill="none" xmlns="http://www.w3.org/2000/svg">
<g clip-path="url(#clip0_93_529)">
<path d="M27.15 18.6078L24.7544 27.0298H29.6973H10.2051" stroke="#072811" stroke-width="2" stroke-miterlimit="10"/>
<path d="M23.1571 31.2407L16.7688 53.9801C16.7688 53.9801 15.1478 56.3804 19.947 56.8604C24.7462 57.3405 80.5238 56.8604 80.5238 56.8604C80.5238 56.8604 83.8377 57.3489 84.6362 54.8223C85.4348 52.2957 96.6143 12.7124 96.6143 12.7124C96.6143 12.7124 95.8157 9.34358 92.6216 9.34358C89.4274 9.34358 53.9246 10.1858 52.9105 9.34358C51.8963 8.50138 52.6949 4.29039 52.6949 4.29039C52.6949 4.29039 53.4934 1.76379 51.8963 1.76379H34.3925C34.3925 1.76379 31.933 1.76379 31.1344 4.29039C30.3359 6.81699 29.6891 10.4469 29.6891 10.4469L39.9183 10.1858L6.37988 11.028" stroke="#072811" stroke-width="2" stroke-miterlimit="10"/>
<path d="M0 11.028H4.36" stroke="#072811" stroke-width="2" stroke-miterlimit="10"/>
<path d="M12.7764 15.239H36.0297" stroke="#072811" stroke-width="2" stroke-miterlimit="10"/>
<path d="M56.6963 5.13257H90.4344C90.4344 5.13257 92.6303 5.97477 92.6303 6.81697V9.34356" stroke="#072811" stroke-width="2" stroke-miterlimit="10"/>
</g>
<defs>
<clipPath id="clip0_93_529">
<rect width="97.4531" height="57" fill="white" transform="translate(0 0.921631)"/>
</clipPath>
</defs>
</svg>
