<svg width="122" height="106" viewBox="0 0 122 106" fill="none" xmlns="http://www.w3.org/2000/svg">
<g clip-path="url(#clip0_199_163)">
<path d="M28.15 58.6862L25.7544 67.1081H30.6973H11.2051" stroke="#072811" stroke-width="2" stroke-miterlimit="10"/>
<path d="M24.1571 71.3192L17.7688 94.0585C17.7688 94.0585 16.1478 96.4588 20.947 96.9389C25.7462 97.4189 81.5238 96.9389 81.5238 96.9389C81.5238 96.9389 84.8377 97.4273 85.6362 94.9007C86.4348 92.3741 97.6143 52.7908 97.6143 52.7908C97.6143 52.7908 96.8157 49.422 93.6216 49.422C90.4274 49.422 54.9246 50.2642 53.9105 49.422C52.8963 48.5798 53.6949 44.3688 53.6949 44.3688C53.6949 44.3688 54.4934 41.8422 52.8963 41.8422H35.3925C35.3925 41.8422 32.933 41.8422 32.1344 44.3688C31.3359 46.8954 30.6891 50.5253 30.6891 50.5253L40.9183 50.2642L7.37988 51.1064" stroke="#072811" stroke-width="2" stroke-miterlimit="10"/>
<path d="M1 51.1064H5.36" stroke="#072811" stroke-width="2" stroke-miterlimit="10"/>
<path d="M13.7764 55.3174H37.0297" stroke="#072811" stroke-width="2" stroke-miterlimit="10"/>
<path d="M57.6963 45.211H91.4344C91.4344 45.211 93.6303 46.0532 93.6303 46.8954V49.422" stroke="#072811" stroke-width="2" stroke-miterlimit="10"/>
</g>
<defs>
<clipPath id="clip0_199_163">
<rect width="97.4531" height="57" fill="white" transform="translate(1 41)"/>
</clipPath>
</defs>
</svg>
