<svg width="257" height="412" viewBox="0 0 257 412" fill="none" xmlns="http://www.w3.org/2000/svg">
<path d="M16.5604 385.05C16.5604 385.05 -5.10956 379.55 1.89044 351.55C8.89044 323.55 44.0204 131.73 44.0204 131.73L62.3204 24.08C62.3204 24.08 66.8904 7.55002 80.8904 6.55002C94.8904 5.55002 223.89 18.55 223.89 18.55C223.89 18.55 245.26 22.67 245.07 33.61C244.88 44.55 196.86 385.05 196.86 385.05C196.86 385.05 192.05 411.49 179.47 411.02C166.89 410.55 16.5504 385.05 16.5504 385.05H16.5604Z" stroke="black" stroke-miterlimit="10"/>
<path d="M20.8287 384.494C20.8287 384.494 -1.5867 379.196 5.31902 350.87C12.2247 322.545 46.3043 128.643 46.3043 128.643L63.9702 19.8415C63.9702 19.8415 68.4984 3.11437 82.9287 1.94454C97.359 0.774698 230.574 12.404 230.574 12.404C230.574 12.404 252.664 16.3141 252.592 27.352C252.519 38.3898 206.816 382.42 206.816 382.42C206.816 382.42 202.151 409.146 189.169 408.817C176.187 408.487 20.8184 384.494 20.8184 384.494L20.8287 384.494Z" stroke="black" stroke-miterlimit="10"/>
<path d="M38.9314 333.904C41.1074 334.07 43.2365 334.372 44.7651 335.627C45.3517 336.102 45.5473 336.479 45.636 336.741C45.8982 337.479 45.5131 337.744 45.2709 339.719C45.2405 339.967 45.1541 340.672 45.0276 341.704C45.0276 341.704 45.0203 341.764 45.0118 341.833C44.495 345.719 44.2367 347.662 43.1832 348.531C42.6001 349.013 41.768 349.062 40.0838 349.158C39.6882 349.18 37.8638 349.269 35.121 348.55C32.9242 347.978 31.832 347.683 31.2724 347.07C30.1009 345.778 30.4701 343.506 31.2533 339.008C31.9459 335.003 32.5188 334.438 32.8543 334.167C33.7024 333.495 35.4392 333.627 38.9314 333.904Z" fill="#F7FF8F"/>
<path d="M38.0563 345.232C37.0538 345.109 35.9861 344.696 35.1437 344.089C34.8008 343.846 34.5424 343.653 34.3398 343.497C34.3398 343.497 34.3398 343.497 34.3497 343.498C34.95 343.451 35.456 342.939 35.8692 341.952L35.9827 341.683L35.6997 341.608C35.5235 341.567 35.3756 341.458 35.2823 341.315C35.1988 341.174 35.1675 341.019 35.2056 340.873C35.2806 340.59 35.5741 340.414 35.9017 340.454L36.2727 340.55L36.3166 340.193C36.2915 340.069 36.145 338.963 37.0003 338.232C37.2256 338.038 37.8336 337.598 38.6673 337.701C39.4812 337.8 40.2392 338.357 40.4416 339.006C40.5653 339.394 40.4482 339.692 40.3139 340.048C40.1623 340.463 39.9848 340.925 40.2565 341.502C40.3936 341.781 40.5714 341.974 40.7231 342.134C40.794 342.213 40.901 342.327 40.916 342.369C40.8925 342.396 40.7474 342.429 40.6544 342.448C40.4164 342.499 40.0842 342.579 39.8579 342.864C39.6192 343.167 39.5422 343.631 39.6723 344.131C39.7675 344.505 39.9493 344.829 40.178 345.019C39.9574 345.092 39.6463 345.165 39.3685 345.212C38.9569 345.282 38.5129 345.288 38.0563 345.232Z" fill="white"/>
<path d="M38.7077 337.454L38.6468 337.95C39.3416 338.035 40.0262 338.532 40.1999 339.087C40.2949 339.381 40.2185 339.593 40.0817 339.969C39.9178 340.403 39.7107 340.942 40.0298 341.625C40.1582 341.893 40.3249 342.095 40.4679 342.243C40.2187 342.304 39.9027 342.416 39.6541 342.718C39.3672 343.086 39.2717 343.618 39.412 344.199C39.4809 344.46 39.5831 344.694 39.7101 344.891C39.575 344.925 39.4411 344.949 39.3171 344.974C38.9265 345.037 38.5123 345.046 38.0756 344.993C37.1128 344.875 36.0935 344.478 35.2784 343.894C35.1306 343.785 35.0001 343.699 34.8808 343.604C35.3529 343.369 35.7597 342.845 36.0878 342.059L36.3135 341.533L35.7575 341.384C35.6507 341.351 35.5476 341.288 35.4891 341.19C35.4642 341.146 35.4156 341.05 35.4389 340.942C35.4782 340.785 35.6616 340.687 35.8601 340.711C35.8799 340.714 35.8998 340.716 35.9296 340.72L36.6717 340.912L36.5534 340.152C36.537 340.039 36.4044 339.065 37.1583 338.422C37.3601 338.256 37.9024 337.859 38.627 337.947L38.6878 337.451M38.7077 337.454C37.7548 337.337 37.0763 337.858 36.8523 338.042C35.8942 338.872 36.0571 340.091 36.0797 340.234C36.04 340.23 35.9904 340.224 35.9507 340.219C35.514 340.165 35.0904 340.415 34.9797 340.825C34.8642 341.274 35.1592 341.744 35.647 341.874C35.3621 342.554 34.9382 343.218 34.338 343.265C34.2772 343.268 34.2165 343.27 34.147 343.262C33.8194 343.222 33.5598 343.039 33.4704 343.028C33.4605 343.026 33.4506 343.025 33.4506 343.025C33.39 343.109 34.1344 343.693 35.0065 344.304C35.8402 344.9 36.9328 345.356 38.0346 345.491C38.5011 345.549 38.9749 345.546 39.4175 345.47C39.8391 345.4 40.6907 345.192 40.6692 345.039C40.6654 344.988 40.5761 344.977 40.5003 344.937C39.9751 344.702 39.6301 343.571 40.0592 343.03C40.4042 342.598 41.0459 342.788 41.158 342.449C41.2553 342.149 40.7463 341.945 40.4907 341.4C40.0507 340.469 40.9957 339.91 40.6821 338.935C40.4496 338.201 39.601 337.563 38.7077 337.454Z" fill="black"/>
<path d="M54.9557 339.682C54.9617 339.446 54.8783 339.25 54.7056 339.096C54.5331 338.94 54.3024 338.842 54.0135 338.802C53.8067 338.773 53.6232 338.781 53.4631 338.826C53.3032 338.869 53.1736 338.941 53.0742 339.043C52.9767 339.143 52.9181 339.265 52.8983 339.408C52.8817 339.528 52.8953 339.635 52.9391 339.73C52.9845 339.825 53.0491 339.908 53.1329 339.98C53.2185 340.05 53.3119 340.112 53.4132 340.167C53.5147 340.219 53.613 340.264 53.7081 340.303L54.1828 340.499C54.3382 340.56 54.4958 340.637 54.6556 340.727C54.8154 340.818 54.9599 340.928 55.0892 341.058C55.2184 341.188 55.3161 341.341 55.3823 341.515C55.4501 341.69 55.4683 341.891 55.437 342.118C55.3975 342.403 55.2886 342.647 55.1102 342.848C54.9334 343.049 54.6967 343.195 54.3999 343.284C54.1048 343.374 53.7602 343.392 53.3662 343.337C52.9887 343.285 52.6703 343.18 52.4111 343.022C52.1518 342.864 51.9595 342.664 51.8339 342.422C51.7086 342.179 51.6588 341.905 51.6844 341.599L52.4477 341.704C52.4373 341.889 52.4754 342.049 52.562 342.184C52.6505 342.319 52.7719 342.427 52.9262 342.508C53.0825 342.588 53.2582 342.642 53.4536 342.669C53.6686 342.699 53.8645 342.692 54.0413 342.647C54.2199 342.602 54.366 342.525 54.4797 342.417C54.5936 342.307 54.6618 342.17 54.6845 342.006C54.7052 341.857 54.6794 341.729 54.6072 341.622C54.5367 341.515 54.4335 341.42 54.2977 341.338C54.1635 341.256 54.0094 341.178 53.8354 341.106L53.262 340.861C52.8734 340.695 52.5756 340.489 52.3687 340.243C52.1635 339.997 52.0852 339.699 52.1338 339.347C52.1739 339.057 52.2878 338.814 52.4754 338.619C52.6629 338.424 52.8996 338.285 53.1854 338.203C53.4714 338.119 53.7835 338.1 54.1217 338.147C54.4631 338.194 54.7561 338.295 55.0005 338.451C55.2466 338.607 55.4306 338.801 55.5526 339.032C55.6748 339.261 55.7204 339.512 55.6895 339.784L54.9557 339.682ZM57.0025 341.466L56.692 343.712L55.9557 343.61L56.4788 339.828L57.1855 339.925L57.1003 340.541L57.1471 340.547C57.2618 340.359 57.4203 340.217 57.6226 340.121C57.8266 340.026 58.0705 339.998 58.3545 340.037C58.6122 340.072 58.8305 340.158 59.0092 340.293C59.1881 340.427 59.3163 340.607 59.3937 340.833C59.4712 341.06 59.4883 341.329 59.4452 341.641L59.1125 344.046L58.3762 343.945L58.6967 341.627C58.7346 341.353 58.6928 341.129 58.5713 340.955C58.4501 340.779 58.2647 340.674 58.0152 340.64C57.8444 340.616 57.6875 340.632 57.5443 340.688C57.4028 340.743 57.2835 340.837 57.1866 340.969C57.0916 341.1 57.0302 341.266 57.0025 341.466ZM61.0503 344.4C60.8106 344.367 60.6001 344.292 60.4186 344.177C60.2374 344.06 60.102 343.908 60.0123 343.722C59.9243 343.535 59.8974 343.318 59.9317 343.071C59.9612 342.857 60.0265 342.687 60.1277 342.561C60.2288 342.434 60.3547 342.34 60.5054 342.279C60.656 342.218 60.8204 342.179 60.9984 342.162C61.1765 342.144 61.3564 342.138 61.5383 342.141C61.7685 342.146 61.9553 342.15 62.0987 342.153C62.2424 342.155 62.349 342.14 62.4185 342.11C62.4879 342.079 62.5288 342.019 62.5411 341.931L62.5434 341.914C62.5732 341.698 62.5355 341.523 62.4303 341.388C62.3269 341.254 62.1561 341.17 61.9181 341.137C61.6702 341.103 61.4672 341.131 61.3092 341.221C61.1531 341.31 61.0387 341.417 60.9661 341.542L60.296 341.289C60.4099 341.071 60.5554 340.902 60.7325 340.782C60.9115 340.661 61.1088 340.583 61.3245 340.548C61.5404 340.511 61.7624 340.508 61.9906 340.54C62.1417 340.561 62.2992 340.601 62.4633 340.66C62.6293 340.718 62.7796 340.804 62.9144 340.918C63.0509 341.033 63.1547 341.183 63.2258 341.371C63.2972 341.556 63.3138 341.787 63.2757 342.062L62.9283 344.574L62.2093 344.475L62.2808 343.958L62.2513 343.953C62.1905 344.042 62.1062 344.126 61.9982 344.205C61.8903 344.283 61.7575 344.343 61.5997 344.383C61.4419 344.423 61.2588 344.429 61.0503 344.4ZM61.2921 343.831C61.4956 343.859 61.6752 343.843 61.8308 343.782C61.988 343.722 62.1133 343.632 62.2068 343.513C62.3021 343.393 62.3601 343.258 62.3807 343.108L62.4482 342.621C62.4183 342.643 62.364 342.661 62.2853 342.673C62.2085 342.684 62.1213 342.692 62.0238 342.695C61.9266 342.696 61.8319 342.698 61.7398 342.698C61.6479 342.697 61.571 342.697 61.5092 342.696C61.3639 342.695 61.2292 342.707 61.1051 342.733C60.9826 342.76 60.8805 342.809 60.7988 342.879C60.719 342.949 60.67 343.049 60.6518 343.18C60.6266 343.362 60.6748 343.51 60.7965 343.622C60.9184 343.732 61.0836 343.802 61.2921 343.831ZM63.5741 346.109L64.2933 340.908L65.0123 341.008L64.9276 341.621L64.9891 341.629C65.0427 341.557 65.1169 341.474 65.2116 341.382C65.3063 341.289 65.4304 341.214 65.5839 341.157C65.7376 341.098 65.9319 341.085 66.1666 341.117C66.472 341.159 66.7338 341.274 66.9521 341.462C67.1704 341.649 67.3276 341.898 67.4237 342.207C67.5214 342.517 67.542 342.876 67.4855 343.285C67.429 343.693 67.3124 344.034 67.1357 344.308C66.9593 344.579 66.7411 344.778 66.4813 344.902C66.2217 345.025 65.9393 345.066 65.6339 345.024C65.4041 344.992 65.2215 344.927 65.0861 344.83C64.9523 344.733 64.8515 344.627 64.7837 344.512C64.7159 344.397 64.6654 344.297 64.6322 344.21L64.5879 344.204L64.3104 346.211L63.5741 346.109ZM64.7533 342.899C64.7165 343.165 64.7229 343.404 64.7723 343.615C64.8218 343.825 64.9117 343.998 65.0421 344.131C65.1728 344.263 65.344 344.344 65.5558 344.373C65.7758 344.403 65.9677 344.37 66.1315 344.274C66.2956 344.177 66.4294 344.032 66.5328 343.84C66.6379 343.649 66.7079 343.427 66.7429 343.174C66.7774 342.925 66.7706 342.696 66.7226 342.486C66.6762 342.278 66.5862 342.105 66.4527 341.97C66.3209 341.834 66.1441 341.752 65.9225 341.721C65.7091 341.691 65.521 341.721 65.358 341.811C65.1967 341.901 65.0647 342.039 64.9619 342.225C64.8591 342.412 64.7896 342.637 64.7533 342.899ZM69.4938 345.56C69.1277 345.509 68.824 345.383 68.5826 345.18C68.3431 344.977 68.1731 344.718 68.0726 344.405C67.972 344.091 67.948 343.745 68.0004 343.366C68.0536 342.982 68.1727 342.653 68.3578 342.379C68.5431 342.103 68.7785 341.901 69.0641 341.771C69.3497 341.642 69.6706 341.602 70.0268 341.651C70.3141 341.691 70.5628 341.78 70.7729 341.917C70.9833 342.054 71.1443 342.226 71.2558 342.436C71.369 342.646 71.4212 342.879 71.4122 343.138L70.6957 343.038C70.6808 342.856 70.6116 342.691 70.4882 342.543C70.3663 342.396 70.1881 342.306 69.9533 342.273C69.7481 342.245 69.5609 342.274 69.3916 342.361C69.2242 342.447 69.084 342.583 68.9712 342.77C68.8586 342.955 68.7837 343.182 68.7464 343.451C68.7083 343.727 68.7173 343.971 68.7733 344.183C68.8293 344.395 68.926 344.566 69.0635 344.697C69.2026 344.829 69.3764 344.909 69.5849 344.938C69.7244 344.957 69.8543 344.949 69.9746 344.914C70.0968 344.877 70.2032 344.816 70.2937 344.729C70.3859 344.643 70.457 344.535 70.507 344.403L71.2236 344.502C71.1635 344.743 71.0537 344.95 70.8942 345.124C70.7346 345.297 70.5356 345.424 70.2972 345.503C70.0603 345.582 69.7926 345.601 69.4938 345.56ZM72.7536 343.644L72.443 345.89L71.7067 345.788L72.4041 340.745L73.1305 340.846L72.8711 342.722L72.9178 342.728C73.0346 342.537 73.1924 342.394 73.3912 342.3C73.59 342.205 73.8363 342.178 74.1302 342.219C74.3895 342.254 74.6087 342.339 74.7876 342.473C74.9682 342.606 75.0972 342.786 75.1747 343.013C75.2539 343.238 75.2718 343.508 75.2282 343.823L74.8955 346.229L74.1593 346.127L74.4797 343.81C74.5181 343.533 74.4764 343.308 74.3547 343.135C74.2332 342.961 74.0453 342.857 73.7908 342.822C73.6168 342.797 73.4557 342.813 73.3076 342.868C73.1612 342.923 73.0387 343.016 72.9401 343.148C72.8434 343.279 72.7813 343.444 72.7536 343.644ZM76.8284 346.582C76.5887 346.549 76.3782 346.474 76.1967 346.359C76.0155 346.242 75.8801 346.09 75.7904 345.904C75.7024 345.717 75.6755 345.5 75.7098 345.253C75.7393 345.039 75.8047 344.869 75.9058 344.743C76.0069 344.616 76.1328 344.522 76.2835 344.461C76.4342 344.4 76.5985 344.361 76.7766 344.344C76.9546 344.326 77.1346 344.32 77.3164 344.323C77.5466 344.328 77.7334 344.332 77.8769 344.335C78.0205 344.337 78.1271 344.322 78.1966 344.292C78.266 344.261 78.3069 344.201 78.3192 344.113L78.3216 344.096C78.3513 343.88 78.3136 343.705 78.2085 343.57C78.105 343.436 77.9342 343.352 77.6962 343.319C77.4483 343.285 77.2454 343.313 77.0873 343.403C76.9312 343.492 76.8168 343.599 76.7443 343.724L76.0741 343.471C76.188 343.253 76.3335 343.084 76.5106 342.964C76.6896 342.843 76.8869 342.765 77.1026 342.73C77.3185 342.693 77.5406 342.69 77.7687 342.722C77.9198 342.743 78.0773 342.783 78.2414 342.842C78.4074 342.9 78.5578 342.986 78.6926 343.1C78.829 343.215 78.9328 343.365 79.0039 343.553C79.0753 343.738 79.0919 343.969 79.0538 344.244L78.7065 346.756L77.9874 346.657L78.059 346.14L78.0294 346.135C77.9686 346.224 77.8843 346.308 77.7764 346.387C77.6684 346.465 77.5356 346.525 77.3778 346.565C77.22 346.605 77.0369 346.611 76.8284 346.582ZM77.0702 346.013C77.2737 346.041 77.4533 346.025 77.6089 345.964C77.7661 345.904 77.8915 345.814 77.9849 345.695C78.0802 345.575 78.1382 345.44 78.1589 345.29L78.2263 344.803C78.1964 344.825 78.1421 344.843 78.0634 344.855C77.9866 344.866 77.8994 344.874 77.8019 344.877C77.7047 344.878 77.61 344.88 77.5179 344.88C77.426 344.879 77.3492 344.879 77.2873 344.878C77.142 344.877 77.0073 344.889 76.8832 344.915C76.7607 344.942 76.6586 344.991 76.5769 345.061C76.4971 345.131 76.4481 345.231 76.4299 345.362C76.4047 345.544 76.453 345.692 76.5746 345.804C76.6965 345.914 76.8617 345.984 77.0702 346.013ZM81.837 343.334L81.7552 343.925L79.6893 343.64L79.7711 343.049L81.837 343.334ZM80.4504 342.219L81.1866 342.321L80.6919 345.899C80.6721 346.042 80.6786 346.152 80.7113 346.23C80.7442 346.307 80.7925 346.363 80.8562 346.398C80.9217 346.433 80.9947 346.455 81.0751 346.466C81.1342 346.475 81.1865 346.478 81.232 346.475C81.2774 346.473 81.3128 346.472 81.3381 346.47L81.387 347.097C81.342 347.107 81.279 347.115 81.1979 347.121C81.1166 347.128 81.0168 347.124 80.8984 347.109C80.7042 347.086 80.5284 347.026 80.3709 346.931C80.2135 346.836 80.0935 346.705 80.011 346.54C79.9284 346.375 79.9029 346.178 79.9345 345.95L80.4504 342.219Z" fill="black"/>
<path d="M142.622 360.011L142.698 359.459L144.649 357.927C144.858 357.76 145.032 357.613 145.17 357.484C145.31 357.355 145.418 357.229 145.496 357.105C145.573 356.982 145.622 356.847 145.642 356.699C145.665 356.532 145.646 356.382 145.584 356.249C145.522 356.115 145.428 356.006 145.301 355.922C145.174 355.835 145.025 355.781 144.854 355.757C144.673 355.732 144.511 355.747 144.366 355.802C144.221 355.858 144.103 355.948 144.012 356.072C143.922 356.197 143.864 356.349 143.839 356.53L143.112 356.43C143.155 356.123 143.262 355.864 143.435 355.654C143.608 355.443 143.827 355.292 144.09 355.2C144.354 355.106 144.643 355.08 144.957 355.124C145.274 355.168 145.544 355.269 145.768 355.429C145.993 355.587 146.159 355.784 146.266 356.02C146.372 356.254 146.407 356.506 146.369 356.777C146.343 356.964 146.283 357.142 146.187 357.312C146.094 357.481 145.945 357.664 145.743 357.86C145.54 358.054 145.264 358.286 144.914 358.556L143.766 359.466L143.761 359.503L146.032 359.817L145.941 360.47L142.622 360.011ZM149.12 355.699C149.344 355.732 149.56 355.804 149.768 355.915C149.975 356.025 150.154 356.184 150.304 356.39C150.456 356.597 150.563 356.863 150.625 357.188C150.689 357.511 150.69 357.903 150.629 358.362C150.567 358.804 150.469 359.191 150.332 359.523C150.196 359.854 150.029 360.126 149.831 360.34C149.634 360.554 149.409 360.706 149.158 360.796C148.906 360.887 148.633 360.912 148.339 360.871C148.039 360.83 147.78 360.734 147.564 360.583C147.347 360.433 147.18 360.243 147.062 360.015C146.945 359.784 146.888 359.531 146.889 359.253L147.64 359.357C147.66 359.58 147.735 359.77 147.868 359.925C148.002 360.079 148.19 360.173 148.431 360.207C148.801 360.258 149.111 360.137 149.362 359.843C149.614 359.549 149.78 359.112 149.862 358.532L149.823 358.527C149.718 358.656 149.594 358.763 149.452 358.847C149.312 358.931 149.159 358.991 148.994 359.025C148.828 359.059 148.656 359.063 148.477 359.039C148.187 358.998 147.932 358.89 147.714 358.715C147.496 358.539 147.333 358.317 147.227 358.047C147.12 357.778 147.089 357.484 147.133 357.164C147.177 356.845 147.289 356.566 147.47 356.327C147.652 356.088 147.883 355.911 148.165 355.796C148.449 355.68 148.767 355.647 149.12 355.699ZM149.034 356.34C148.842 356.313 148.662 356.337 148.494 356.411C148.329 356.483 148.191 356.594 148.08 356.743C147.969 356.89 147.9 357.061 147.873 357.256C147.846 357.451 147.864 357.635 147.928 357.806C147.993 357.975 148.094 358.117 148.23 358.231C148.368 358.344 148.534 358.414 148.728 358.441C148.873 358.461 149.011 358.452 149.143 358.413C149.276 358.374 149.396 358.312 149.503 358.227C149.61 358.14 149.699 358.036 149.769 357.917C149.839 357.798 149.884 357.669 149.903 357.529C149.929 357.344 149.908 357.165 149.842 356.994C149.777 356.823 149.675 356.678 149.535 356.56C149.396 356.44 149.229 356.367 149.034 356.34ZM151.886 360.589L151.812 360.852C151.76 361.046 151.69 361.245 151.601 361.45C151.514 361.658 151.426 361.849 151.338 362.024C151.252 362.199 151.182 362.339 151.128 362.441L150.606 362.369C150.641 362.27 150.69 362.137 150.751 361.968C150.813 361.801 150.877 361.613 150.942 361.405C151.008 361.196 151.065 360.982 151.114 360.763L151.177 360.491L151.886 360.589ZM154.683 356.539L153.985 361.582L153.222 361.476L153.814 357.197L153.784 357.193L152.469 357.814L152.57 357.085L153.942 356.437L154.683 356.539ZM156.957 362.063C156.619 362.016 156.325 361.916 156.075 361.763C155.827 361.61 155.64 361.419 155.514 361.191C155.39 360.962 155.342 360.709 155.368 360.433L156.141 360.54C156.13 360.691 156.163 360.827 156.238 360.95C156.315 361.071 156.423 361.171 156.562 361.251C156.702 361.33 156.862 361.383 157.043 361.408C157.241 361.435 157.422 361.425 157.584 361.377C157.748 361.329 157.882 361.25 157.986 361.139C158.09 361.026 158.153 360.889 158.176 360.726C158.199 360.557 158.176 360.402 158.107 360.262C158.04 360.121 157.928 360.002 157.772 359.905C157.618 359.808 157.425 359.744 157.192 359.712L156.766 359.653L156.852 359.032L157.278 359.091C157.465 359.117 157.634 359.106 157.784 359.058C157.936 359.011 158.061 358.933 158.158 358.824C158.255 358.714 158.315 358.577 158.337 358.415C158.359 358.259 158.342 358.118 158.288 357.994C158.235 357.868 158.149 357.763 158.03 357.68C157.913 357.596 157.768 357.543 157.595 357.519C157.431 357.496 157.274 357.505 157.122 357.546C156.973 357.586 156.846 357.656 156.742 357.755C156.638 357.853 156.573 357.978 156.545 358.132L155.808 358.03C155.854 357.758 155.968 357.53 156.149 357.344C156.332 357.159 156.558 357.025 156.827 356.943C157.096 356.862 157.385 356.842 157.693 356.885C158.017 356.93 158.287 357.032 158.504 357.19C158.723 357.348 158.882 357.54 158.982 357.766C159.083 357.992 159.115 358.229 159.079 358.477C159.042 358.76 158.93 358.988 158.743 359.163C158.558 359.339 158.33 359.442 158.058 359.473L158.053 359.512C158.38 359.609 158.621 359.778 158.776 360.019C158.931 360.259 158.986 360.539 158.941 360.857C158.904 361.135 158.792 361.373 158.606 361.571C158.421 361.77 158.186 361.914 157.901 362.003C157.617 362.091 157.302 362.111 156.957 362.063ZM165.197 359.617C165.17 359.461 165.124 359.318 165.06 359.189C164.998 359.058 164.918 358.943 164.819 358.844C164.721 358.744 164.604 358.661 164.469 358.598C164.336 358.534 164.185 358.491 164.018 358.467C163.734 358.428 163.468 358.466 163.219 358.58C162.971 358.695 162.761 358.884 162.589 359.148C162.419 359.411 162.305 359.746 162.249 360.153C162.193 360.561 162.211 360.916 162.305 361.217C162.399 361.518 162.552 361.757 162.763 361.935C162.974 362.113 163.228 362.223 163.523 362.264C163.797 362.301 164.044 362.279 164.263 362.195C164.483 362.112 164.664 361.976 164.803 361.788C164.945 361.599 165.035 361.365 165.073 361.088L165.265 361.152L163.822 360.952L163.909 360.324L165.891 360.599L165.812 361.172C165.754 361.596 165.612 361.951 165.389 362.238C165.167 362.524 164.886 362.729 164.546 362.854C164.207 362.98 163.834 363.014 163.427 362.958C162.971 362.895 162.585 362.734 162.269 362.477C161.955 362.219 161.729 361.884 161.59 361.472C161.451 361.058 161.419 360.585 161.493 360.053C161.548 359.651 161.654 359.297 161.81 358.993C161.966 358.688 162.16 358.438 162.393 358.243C162.628 358.046 162.89 357.907 163.181 357.827C163.473 357.745 163.782 357.727 164.109 357.772C164.382 357.81 164.63 357.885 164.853 357.998C165.079 358.111 165.273 358.255 165.436 358.428C165.601 358.601 165.731 358.798 165.824 359.018C165.917 359.237 165.969 359.472 165.977 359.725L165.197 359.617ZM166.362 363.294L167.059 358.251L168.906 358.506C169.264 358.556 169.552 358.656 169.77 358.806C169.989 358.955 170.143 359.138 170.232 359.354C170.321 359.569 170.348 359.801 170.313 360.051C170.284 360.261 170.221 360.433 170.124 360.567C170.027 360.699 169.908 360.799 169.766 360.868C169.626 360.936 169.477 360.979 169.317 360.997L169.31 361.046C169.476 361.078 169.632 361.154 169.778 361.277C169.925 361.397 170.038 361.556 170.118 361.753C170.198 361.95 170.22 362.178 170.184 362.439C170.148 362.697 170.055 362.92 169.906 363.109C169.758 363.296 169.55 363.432 169.282 363.517C169.015 363.6 168.685 363.615 168.295 363.561L166.362 363.294ZM167.213 362.746L168.311 362.898C168.676 362.949 168.946 362.914 169.123 362.795C169.301 362.675 169.404 362.51 169.433 362.298C169.455 362.139 169.435 361.987 169.373 361.843C169.311 361.699 169.211 361.577 169.072 361.478C168.935 361.378 168.765 361.315 168.562 361.287L167.436 361.131L167.213 362.746ZM167.518 360.538L168.538 360.678C168.708 360.702 168.867 360.69 169.012 360.644C169.159 360.597 169.281 360.52 169.377 360.413C169.476 360.305 169.537 360.169 169.559 360.007C169.588 359.798 169.539 359.613 169.413 359.452C169.286 359.29 169.072 359.189 168.77 359.147L167.73 359.003L167.518 360.538Z" fill="black"/>
<path d="M109.583 43.0179L110.032 38.6773L111.236 38.8018L110.787 43.1423L109.583 43.0179ZM110.694 38.1803C110.515 38.1618 110.368 38.0866 110.252 37.9547C110.138 37.8211 110.09 37.6704 110.108 37.5028C110.125 37.337 110.203 37.2013 110.341 37.0956C110.482 36.9883 110.641 36.9439 110.82 36.9624C110.999 36.9809 111.146 37.0569 111.259 37.1906C111.375 37.3225 111.425 37.4713 111.407 37.6371C111.39 37.8048 111.311 37.9423 111.171 38.0496C111.032 38.1553 110.873 38.1988 110.694 38.1803ZM111.615 43.2278L112.213 37.4405L114.496 37.6765C114.935 37.7219 115.301 37.8444 115.592 38.044C115.884 38.2417 116.096 38.4968 116.227 38.8093C116.361 39.1201 116.408 39.4677 116.368 39.852C116.328 40.2364 116.21 40.5669 116.014 40.8436C115.818 41.1204 115.554 41.3245 115.222 41.4558C114.893 41.5874 114.506 41.6302 114.061 41.5843L112.606 41.4338L112.707 40.4533L113.965 40.5833C114.2 40.6076 114.398 40.5871 114.559 40.5219C114.722 40.455 114.849 40.3529 114.939 40.2156C115.032 40.0767 115.088 39.912 115.107 39.7218C115.127 39.5296 115.106 39.3579 115.044 39.2068C114.983 39.0539 114.88 38.93 114.734 38.8349C114.587 38.7379 114.396 38.6771 114.158 38.6526L113.333 38.5673L112.838 43.3543L111.615 43.2278ZM118.048 41.3567L117.789 43.866L116.585 43.7416L117.183 37.9543L118.353 38.0752L118.125 40.2878L118.176 40.2931C118.3 40.047 118.479 39.8627 118.713 39.7402C118.946 39.6159 119.228 39.5707 119.558 39.6048C119.859 39.636 120.115 39.7291 120.326 39.8841C120.538 40.0375 120.694 40.243 120.793 40.5008C120.894 40.7569 120.926 41.0544 120.889 41.3933L120.604 44.157L119.4 44.0325L119.663 41.4836C119.693 41.2163 119.647 41.0011 119.524 40.8381C119.404 40.6752 119.222 40.5811 118.977 40.5558C118.813 40.5389 118.664 40.5587 118.531 40.6154C118.399 40.6722 118.291 40.7638 118.205 40.8902C118.122 41.0149 118.07 41.1704 118.048 41.3567ZM123.344 44.5259C122.905 44.4805 122.535 44.348 122.234 44.1284C121.935 43.9071 121.717 43.6199 121.578 43.2666C121.44 42.9115 121.393 42.5116 121.439 42.067C121.486 41.6186 121.613 41.2357 121.821 40.9183C122.029 40.599 122.302 40.3626 122.639 40.209C122.979 40.0537 123.369 39.9987 123.808 40.0441C124.246 40.0895 124.615 40.2228 124.914 40.4441C125.215 40.6637 125.435 40.9511 125.573 41.3062C125.712 41.6595 125.758 42.0603 125.712 42.5086C125.666 42.9532 125.539 43.3352 125.331 43.6545C125.123 43.9719 124.849 44.2083 124.509 44.3636C124.172 44.5172 123.783 44.5713 123.344 44.5259ZM123.446 43.594C123.646 43.6146 123.819 43.5753 123.964 43.4761C124.11 43.375 124.227 43.2291 124.315 43.0383C124.405 42.8477 124.463 42.6261 124.489 42.3737C124.515 42.1213 124.504 41.8925 124.454 41.6875C124.407 41.4827 124.322 41.3159 124.201 41.1872C124.079 41.0584 123.918 40.9837 123.718 40.9631C123.517 40.9423 123.341 40.9822 123.192 41.0829C123.044 41.1838 122.925 41.3295 122.835 41.5201C122.747 41.7109 122.69 41.9326 122.664 42.185C122.638 42.4375 122.648 42.6661 122.696 42.8709C122.745 43.0759 122.831 43.2429 122.955 43.3718C123.081 43.4991 123.245 43.5731 123.446 43.594ZM127.576 42.3415L127.317 44.8508L126.113 44.7264L126.562 40.3859L127.709 40.5045L127.63 41.2703L127.681 41.2755C127.803 41.033 127.985 40.85 128.226 40.7264C128.467 40.6009 128.749 40.5549 129.071 40.5882C129.373 40.6193 129.629 40.7124 129.839 40.8675C130.05 41.0225 130.204 41.2289 130.304 41.4867C130.403 41.7425 130.435 42.0391 130.4 42.3763L130.114 45.14L128.911 45.0156L129.174 42.4666C129.203 42.2012 129.157 41.987 129.035 41.8239C128.913 41.659 128.731 41.5641 128.49 41.5392C128.328 41.5224 128.181 41.5425 128.05 41.5993C127.92 41.6564 127.814 41.7482 127.73 41.8747C127.649 41.9996 127.597 42.1552 127.576 42.3415ZM132.873 45.5109C132.427 45.4647 132.052 45.3345 131.748 45.1204C131.447 44.9046 131.227 44.621 131.088 44.2696C130.949 43.9163 130.904 43.5108 130.951 43.053C130.997 42.6065 131.124 42.2237 131.333 41.9043C131.541 41.585 131.812 41.3475 132.146 41.1916C132.482 41.0359 132.863 40.9801 133.289 41.0241C133.575 41.0537 133.837 41.1274 134.074 41.2452C134.313 41.3613 134.516 41.5203 134.682 41.7221C134.849 41.9242 134.97 42.169 135.045 42.4566C135.121 42.7424 135.139 43.0699 135.101 43.4391L135.067 43.7698L131.402 43.3909L131.479 42.6449L134.011 42.9066C134.029 42.7333 134.007 42.5759 133.945 42.4343C133.884 42.2928 133.79 42.1774 133.664 42.0882C133.54 41.9973 133.391 41.9429 133.215 41.9247C133.033 41.9059 132.866 41.9315 132.716 42.0017C132.568 42.0702 132.447 42.171 132.354 42.3041C132.26 42.4353 132.204 42.5865 132.184 42.7578L132.111 43.4671C132.088 43.6818 132.109 43.8715 132.172 44.036C132.237 44.2008 132.338 44.3331 132.476 44.4331C132.615 44.533 132.784 44.5934 132.986 44.6143C133.12 44.6281 133.244 44.6219 133.359 44.5957C133.474 44.5695 133.575 44.5229 133.662 44.4557C133.749 44.3885 133.819 44.3024 133.872 44.1974L134.977 44.386C134.893 44.6477 134.753 44.8693 134.557 45.0509C134.364 45.2308 134.123 45.3621 133.837 45.4448C133.552 45.5258 133.231 45.5478 132.873 45.5109ZM138.5 43.1222L138.401 44.0773L135.762 43.8045L135.861 42.8494L138.5 43.1222ZM142.556 40.5768L141.958 46.3642L140.754 46.2398L141.353 40.4524L142.556 40.5768ZM143.993 46.6573C143.716 46.6287 143.474 46.5551 143.267 46.4367C143.061 46.3163 142.904 46.1545 142.798 45.9511C142.693 45.7461 142.656 45.5004 142.685 45.2141C142.71 44.973 142.775 44.775 142.881 44.6203C142.986 44.4655 143.12 44.3461 143.283 44.262C143.446 44.178 143.627 44.1205 143.827 44.0897C144.028 44.0591 144.237 44.0445 144.454 44.046C144.709 44.0457 144.915 44.0423 145.072 44.0356C145.229 44.0271 145.345 44.0029 145.419 43.963C145.494 43.9231 145.536 43.857 145.545 43.7647L145.547 43.7477C145.566 43.5688 145.523 43.4245 145.421 43.3148C145.319 43.2054 145.166 43.14 144.961 43.1188C144.744 43.0964 144.567 43.1266 144.429 43.2095C144.291 43.2904 144.194 43.4003 144.138 43.5392L143.034 43.3337C143.118 43.0758 143.252 42.8594 143.438 42.6843C143.624 42.5074 143.853 42.3807 144.126 42.3041C144.4 42.2259 144.711 42.2047 145.057 42.2405C145.299 42.2655 145.526 42.3176 145.741 42.3969C145.957 42.4764 146.145 42.5843 146.304 42.7207C146.466 42.8573 146.586 43.024 146.667 43.2209C146.748 43.4158 146.775 43.6423 146.748 43.9004L146.445 46.828L145.304 46.71L145.366 46.1081L145.332 46.1046C145.248 46.233 145.143 46.343 145.015 46.4346C144.888 46.5242 144.739 46.5898 144.569 46.6312C144.4 46.6708 144.207 46.6795 143.993 46.6573ZM144.423 45.8621C144.6 45.8804 144.76 45.8617 144.903 45.8061C145.046 45.7485 145.163 45.6634 145.252 45.5508C145.342 45.4382 145.395 45.3057 145.41 45.1531L145.458 44.6924C145.418 44.713 145.364 44.7303 145.296 44.7442C145.23 44.7564 145.155 44.7668 145.072 44.7754C144.99 44.7821 144.907 44.7879 144.825 44.7927C144.743 44.7956 144.668 44.7984 144.601 44.801C144.458 44.8071 144.331 44.8273 144.221 44.8616C144.111 44.8959 144.023 44.9487 143.956 45.0199C143.89 45.0892 143.851 45.1804 143.839 45.2934C143.822 45.4573 143.869 45.5887 143.979 45.6877C144.09 45.7849 144.239 45.8431 144.423 45.8621ZM148.998 48.8283C148.608 48.788 148.279 48.6998 148.012 48.5636C147.746 48.4294 147.54 48.2625 147.395 48.0629C147.25 47.8632 147.165 47.6468 147.139 47.4138L148.268 47.3791C148.293 47.4693 148.339 47.5559 148.404 47.6388C148.47 47.7218 148.561 47.7921 148.677 47.8497C148.794 47.9095 148.941 47.9484 149.116 47.9665C149.378 47.9936 149.6 47.9518 149.783 47.8413C149.967 47.7328 150.075 47.5297 150.106 47.232L150.188 46.438L150.137 46.4327C150.072 46.5478 149.981 46.6536 149.864 46.7501C149.748 46.8466 149.603 46.9202 149.43 46.9708C149.257 47.0215 149.056 47.035 148.826 47.0112C148.5 46.9776 148.211 46.8715 147.959 46.6932C147.709 46.5131 147.522 46.2585 147.396 45.9295C147.272 45.5987 147.235 45.1931 147.284 44.7127C147.335 44.221 147.458 43.8186 147.652 43.5055C147.846 43.1923 148.084 42.9675 148.367 42.8311C148.652 42.6948 148.953 42.6432 149.271 42.6761C149.514 42.7012 149.714 42.7637 149.869 42.8635C150.024 42.9615 150.146 43.0768 150.233 43.2096C150.322 43.3407 150.388 43.4675 150.431 43.5899L150.476 43.5946L150.551 42.8655L151.747 42.9891L151.294 47.372C151.255 47.7412 151.133 48.0408 150.926 48.2708C150.72 48.5008 150.45 48.6614 150.117 48.7526C149.786 48.8459 149.413 48.8712 148.998 48.8283ZM149.301 46.1464C149.495 46.1665 149.664 46.1354 149.808 46.0531C149.953 45.9692 150.071 45.8405 150.162 45.667C150.254 45.4919 150.313 45.2771 150.34 45.0228C150.366 44.7685 150.353 44.5444 150.301 44.3504C150.249 44.1547 150.16 43.9979 150.035 43.8803C149.91 43.7627 149.751 43.6938 149.557 43.6738C149.359 43.6533 149.187 43.6898 149.04 43.7832C148.893 43.8746 148.775 44.011 148.686 44.1921C148.597 44.3733 148.54 44.5873 148.514 44.8341C148.488 45.0847 148.501 45.3049 148.552 45.4949C148.604 45.6831 148.693 45.8341 148.816 45.9478C148.942 46.0597 149.103 46.126 149.301 46.1464ZM152.097 47.4121L152.545 43.0716L153.712 43.1923L153.634 43.9496L153.679 43.9543C153.786 43.693 153.94 43.5033 154.141 43.3851C154.342 43.2649 154.564 43.2174 154.807 43.2425C154.867 43.2488 154.932 43.2593 155.001 43.274C155.07 43.2887 155.13 43.3054 155.181 43.3241L155.071 44.3922C155.016 44.3694 154.939 44.3463 154.841 44.3228C154.742 44.2993 154.652 44.2832 154.569 44.2747C154.392 44.2564 154.229 44.2786 154.082 44.3415C153.937 44.4026 153.817 44.4968 153.722 44.6241C153.628 44.7515 153.573 44.9038 153.554 45.0809L153.301 47.5366L152.097 47.4121ZM155.194 47.7322L155.642 43.3917L156.846 43.5162L156.397 47.8567L155.194 47.7322ZM156.305 42.8947C156.126 42.8762 155.979 42.801 155.863 42.6691C155.749 42.5355 155.701 42.3848 155.718 42.2172C155.735 42.0514 155.813 41.9157 155.951 41.81C156.092 41.7027 156.252 41.6583 156.431 41.6768C156.61 41.6953 156.756 41.7713 156.87 41.9049C156.986 42.0369 157.035 42.1857 157.018 42.3515C157.001 42.5192 156.922 42.6567 156.781 42.764C156.643 42.8696 156.484 42.9132 156.305 42.8947ZM158.666 45.555L158.406 48.0643L157.203 47.9399L157.651 43.5994L158.799 43.718L158.719 44.4838L158.77 44.489C158.892 44.2465 159.074 44.0635 159.315 43.9399C159.557 43.8144 159.839 43.7684 160.161 43.8017C160.462 43.8328 160.718 43.9259 160.929 44.081C161.139 44.236 161.294 44.4424 161.393 44.7002C161.492 44.956 161.525 45.2526 161.49 45.5898L161.204 48.3535L160 48.2291L160.264 45.6801C160.293 45.4147 160.247 45.2005 160.125 45.0374C160.003 44.8725 159.821 44.7776 159.58 44.7526C159.418 44.7359 159.271 44.7559 159.14 44.8128C159.01 44.8698 158.903 44.9616 158.82 45.0882C158.738 45.2131 158.687 45.3687 158.666 45.555ZM163.772 50.3553C163.382 50.315 163.053 50.2268 162.785 50.0906C162.519 49.9565 162.314 49.7896 162.169 49.5899C162.023 49.3902 161.938 49.1739 161.913 48.9408L163.042 48.9061C163.067 48.9963 163.112 49.0829 163.178 49.1658C163.243 49.2488 163.334 49.3191 163.45 49.3768C163.568 49.4365 163.714 49.4754 163.889 49.4936C164.151 49.5206 164.373 49.4789 164.556 49.3683C164.741 49.2598 164.848 49.0567 164.879 48.759L164.961 47.965L164.91 47.9597C164.845 48.0748 164.754 48.1806 164.638 48.2771C164.521 48.3736 164.376 48.4472 164.203 48.4979C164.031 48.5485 163.829 48.562 163.6 48.5383C163.274 48.5046 162.985 48.3985 162.733 48.2202C162.483 48.0401 162.295 47.7856 162.169 47.4565C162.045 47.1257 162.008 46.7201 162.058 46.2397C162.109 45.748 162.231 45.3456 162.425 45.0325C162.62 44.7193 162.858 44.4946 163.141 44.3581C163.425 44.2219 163.726 44.1702 164.045 44.2031C164.288 44.2282 164.487 44.2907 164.642 44.3905C164.798 44.4885 164.919 44.6038 165.006 44.7366C165.096 44.8677 165.162 44.9945 165.204 45.1169L165.249 45.1216L165.325 44.3925L166.52 44.5161L166.067 48.899C166.029 49.2682 165.906 49.5678 165.7 49.7978C165.493 50.0278 165.224 50.1884 164.89 50.2796C164.559 50.3729 164.186 50.3982 163.772 50.3553ZM164.075 47.6734C164.269 47.6935 164.437 47.6624 164.581 47.5801C164.727 47.4962 164.845 47.3675 164.935 47.194C165.028 47.0189 165.087 46.8041 165.113 46.5498C165.139 46.2955 165.126 46.0714 165.074 45.8775C165.022 45.6817 164.933 45.525 164.809 45.4073C164.684 45.2897 164.524 45.2208 164.33 45.2008C164.132 45.1803 163.96 45.2168 163.813 45.3102C163.667 45.4016 163.549 45.538 163.46 45.7192C163.371 45.9003 163.313 46.1143 163.288 46.3611C163.262 46.6117 163.274 46.8319 163.325 47.0219C163.378 47.2101 163.466 47.3611 163.59 47.4748C163.715 47.5868 163.877 47.653 164.075 47.6734ZM170.802 46.2096L169.693 46.1636C169.684 46.0674 169.652 45.9784 169.598 45.8967C169.544 45.813 169.468 45.7433 169.371 45.6876C169.276 45.6302 169.159 45.5942 169.02 45.5798C168.833 45.5606 168.672 45.5839 168.535 45.6497C168.399 45.7137 168.325 45.8107 168.311 45.9407C168.3 46.0443 168.333 46.1362 168.408 46.2164C168.484 46.2965 168.62 46.3687 168.817 46.4329L169.586 46.6723C169.999 46.8026 170.3 46.9745 170.487 47.1881C170.674 47.4017 170.752 47.6648 170.72 47.9776C170.69 48.262 170.581 48.503 170.391 48.7004C170.203 48.898 169.957 49.0421 169.655 49.1327C169.354 49.2216 169.016 49.2466 168.639 49.2076C168.064 49.1483 167.619 48.9813 167.303 48.7068C166.988 48.4306 166.824 48.0823 166.808 47.6618L167.998 47.722C168.016 47.9009 168.089 48.0436 168.217 48.1501C168.345 48.2548 168.517 48.3182 168.731 48.3404C168.942 48.3622 169.116 48.3392 169.253 48.2715C169.391 48.202 169.468 48.1024 169.483 47.9726C169.493 47.8631 169.456 47.7689 169.373 47.6898C169.29 47.6089 169.156 47.5398 168.971 47.4827L168.235 47.2552C167.82 47.1266 167.52 46.9471 167.334 46.7165C167.15 46.4862 167.075 46.209 167.109 45.885C167.138 45.6062 167.238 45.3738 167.409 45.1878C167.583 45.002 167.813 44.8686 168.099 44.7878C168.387 44.7072 168.717 44.686 169.088 44.7244C169.636 44.781 170.056 44.9415 170.346 45.2057C170.639 45.4702 170.791 45.8048 170.802 46.2096ZM171.011 51.0123L171.628 45.044L172.815 45.1667L172.74 45.8958L172.793 45.9013C172.858 45.79 172.947 45.6792 173.059 45.5689C173.173 45.457 173.316 45.3689 173.486 45.3046C173.659 45.2387 173.866 45.2183 174.109 45.2434C174.426 45.2761 174.709 45.3892 174.96 45.5826C175.21 45.7742 175.398 46.044 175.524 46.3921C175.65 46.7384 175.688 47.1601 175.636 47.6575C175.586 48.1417 175.466 48.5424 175.275 48.8597C175.086 49.1753 174.849 49.405 174.564 49.5488C174.281 49.6908 173.974 49.7449 173.645 49.7108C173.411 49.6866 173.216 49.6275 173.06 49.5333C172.906 49.4393 172.784 49.3286 172.692 49.201C172.601 49.0716 172.534 48.9438 172.492 48.8176L172.455 48.8138L172.215 51.1367L171.011 51.0123ZM172.582 47.3361C172.555 47.5942 172.568 47.823 172.62 48.0226C172.671 48.2221 172.76 48.3826 172.884 48.504C173.009 48.6235 173.168 48.6933 173.362 48.7134C173.558 48.7336 173.73 48.6971 173.876 48.6037C174.023 48.5085 174.141 48.3684 174.231 48.1834C174.323 47.9968 174.382 47.7772 174.408 47.5248C174.434 47.2742 174.421 47.0502 174.371 46.8527C174.321 46.6553 174.234 46.4958 174.11 46.3744C173.985 46.253 173.824 46.1821 173.626 46.1616C173.43 46.1414 173.259 46.1761 173.113 46.2657C172.968 46.3554 172.85 46.4918 172.759 46.6746C172.668 46.8575 172.609 47.078 172.582 47.3361ZM177.858 44.2257L177.26 50.013L176.056 49.8886L176.654 44.1013L177.858 44.2257ZM179.294 50.3061C179.017 50.2775 178.775 50.204 178.569 50.0855C178.362 49.9651 178.206 49.8033 178.099 49.6C177.995 49.395 177.957 49.1493 177.987 48.8629C178.012 48.6218 178.077 48.4239 178.182 48.2691C178.288 48.1144 178.422 47.9949 178.585 47.9109C178.748 47.8268 178.929 47.7694 179.128 47.7385C179.33 47.7079 179.539 47.6934 179.755 47.6948C180.011 47.6946 180.217 47.6911 180.373 47.6845C180.53 47.6759 180.646 47.6517 180.721 47.6118C180.795 47.5719 180.837 47.5058 180.847 47.4135L180.849 47.3966C180.867 47.2176 180.825 47.0733 180.722 46.9636C180.621 46.8542 180.468 46.7889 180.263 46.7676C180.046 46.7452 179.869 46.7755 179.731 46.8583C179.593 46.9393 179.496 47.0492 179.439 47.1881L178.335 46.9826C178.419 46.7247 178.554 46.5082 178.74 46.3332C178.925 46.1563 179.155 46.0295 179.427 45.953C179.702 45.8748 180.012 45.8535 180.359 45.8894C180.6 45.9143 180.828 45.9664 181.043 46.0457C181.259 46.1252 181.447 46.2332 181.606 46.3696C181.767 46.5062 181.888 46.6729 181.969 46.8697C182.049 47.0646 182.076 47.2912 182.05 47.5493L181.747 50.4768L180.605 50.3588L180.668 49.7569L180.634 49.7534C180.55 49.8819 180.444 49.9919 180.317 50.0834C180.19 50.1731 180.041 50.2386 179.871 50.2801C179.701 50.3197 179.509 50.3283 179.294 50.3061ZM179.725 49.511C179.902 49.5293 180.062 49.5106 180.205 49.4549C180.348 49.3973 180.464 49.3123 180.554 49.1997C180.644 49.0871 180.696 48.9545 180.712 48.8019L180.76 48.3413C180.719 48.3619 180.665 48.3791 180.597 48.393C180.531 48.4053 180.457 48.4157 180.374 48.4242C180.292 48.4309 180.209 48.4367 180.127 48.4415C180.045 48.4444 179.97 48.4472 179.903 48.4498C179.76 48.4559 179.633 48.4761 179.523 48.5105C179.412 48.5448 179.324 48.5975 179.258 48.6687C179.192 48.738 179.153 48.8292 179.141 48.9423C179.124 49.1062 179.17 49.2376 179.28 49.3365C179.392 49.4337 179.54 49.4919 179.725 49.511ZM184.114 50.7929C183.784 50.7588 183.494 50.6432 183.244 50.446C182.997 50.2471 182.812 49.9738 182.689 49.626C182.569 49.2766 182.534 48.8598 182.584 48.3757C182.636 47.8783 182.759 47.4731 182.953 47.16C183.147 46.8449 183.386 46.6192 183.668 46.4828C183.953 46.3446 184.255 46.292 184.573 46.3249C184.816 46.35 185.014 46.4124 185.168 46.5121C185.323 46.61 185.445 46.7254 185.532 46.8581C185.621 46.9892 185.686 47.1159 185.727 47.2382L185.763 47.242L185.988 45.066L187.189 45.1902L186.591 50.9775L185.404 50.8549L185.476 50.1597L185.425 50.1544C185.356 50.2692 185.264 50.3805 185.148 50.4885C185.034 50.5948 184.891 50.6781 184.719 50.7384C184.549 50.7989 184.348 50.817 184.114 50.7929ZM184.594 49.8744C184.789 49.8944 184.958 49.8586 185.103 49.7669C185.249 49.6736 185.368 49.5345 185.46 49.3498C185.553 49.1652 185.613 48.9439 185.64 48.6858C185.667 48.4277 185.654 48.1998 185.602 48.0021C185.55 47.8044 185.462 47.6468 185.337 47.5292C185.212 47.4115 185.052 47.3427 184.858 47.3226C184.66 47.3022 184.488 47.3386 184.341 47.432C184.195 47.5254 184.077 47.6636 183.987 47.8466C183.898 48.0297 183.84 48.2465 183.814 48.4971C183.788 48.7495 183.8 48.9764 183.85 49.1776C183.901 49.3772 183.988 49.5385 184.111 49.6616C184.235 49.783 184.397 49.8539 184.594 49.8744ZM191.354 48.3339L190.245 48.2878C190.236 48.1916 190.204 48.1027 190.15 48.0209C190.095 47.9372 190.02 47.8675 189.923 47.8118C189.828 47.7544 189.71 47.7185 189.571 47.7041C189.385 47.6848 189.223 47.7081 189.087 47.774C188.951 47.838 188.876 47.935 188.863 48.065C188.852 48.1686 188.884 48.2605 188.96 48.3406C189.035 48.4208 189.172 48.4929 189.369 48.5571L190.138 48.7965C190.551 48.9268 190.851 49.0988 191.038 49.3123C191.226 49.5259 191.303 49.7891 191.271 50.1018C191.242 50.3863 191.132 50.6272 190.942 50.8246C190.754 51.0223 190.509 51.1664 190.206 51.257C189.906 51.3459 189.567 51.3708 189.19 51.3319C188.616 51.2725 188.17 51.1055 187.854 50.831C187.54 50.5549 187.375 50.2065 187.359 49.786L188.55 49.8462C188.568 50.0251 188.64 50.1679 188.768 50.2744C188.897 50.379 189.068 50.4424 189.283 50.4646C189.494 50.4864 189.668 50.4635 189.804 50.3957C189.943 50.3262 190.02 50.2266 190.035 50.0968C190.044 49.9874 190.007 49.8931 189.924 49.8141C189.841 49.7331 189.707 49.6641 189.523 49.6069L188.787 49.3795C188.372 49.2509 188.071 49.0713 187.886 48.8408C187.702 48.6104 187.627 48.3333 187.66 48.0092C187.689 47.7304 187.789 47.498 187.961 47.312C188.134 47.1262 188.364 46.9929 188.65 46.912C188.939 46.8314 189.268 46.8103 189.639 46.8486C190.188 46.9053 190.607 47.0657 190.898 47.33C191.19 47.5944 191.342 47.929 191.354 48.3339Z" fill="black"/>
<path d="M74.6227 93.0148L75.109 89.2277L75.8462 89.3224L75.3599 93.1094L74.6227 93.0148ZM75.5564 88.6912C75.4282 88.6747 75.3235 88.6178 75.2424 88.5205C75.1632 88.4218 75.1313 88.3124 75.1467 88.1925C75.1624 88.0708 75.2209 87.9731 75.3222 87.8992C75.4255 87.8239 75.5412 87.7945 75.6694 87.811C75.7976 87.8274 75.9013 87.885 75.9805 87.9837C76.0616 88.081 76.0943 88.1905 76.0787 88.3121C76.0633 88.4321 76.004 88.5298 75.9007 88.6051C75.7994 88.6789 75.6846 88.7076 75.5564 88.6912ZM76.272 93.2266L76.9204 88.1771L78.7203 88.4083C79.1131 88.4587 79.4294 88.572 79.6691 88.7482C79.9088 88.9243 80.0768 89.1447 80.1731 89.4094C80.2697 89.6724 80.2981 89.9584 80.2584 90.2674C80.2185 90.5781 80.1177 90.8492 79.956 91.0807C79.7961 91.3108 79.577 91.4815 79.2988 91.5928C79.0223 91.7026 78.6885 91.7324 78.2973 91.6822L77.0596 91.5233L77.1426 90.8773L78.3112 91.0274C78.5594 91.0592 78.7663 91.0424 78.9318 90.9767C79.0975 90.9095 79.2261 90.8057 79.3176 90.6654C79.4091 90.5251 79.4671 90.3596 79.4916 90.1689C79.5161 89.9783 79.5017 89.8043 79.4484 89.6471C79.395 89.4899 79.2957 89.3593 79.1503 89.2555C79.0066 89.1518 78.8081 89.0837 78.555 89.0512L77.5984 88.9283L77.0338 93.3244L76.272 93.2266ZM81.541 91.6176L81.2522 93.8661L80.515 93.7715L81.1635 88.722L81.8908 88.8154L81.6495 90.6942L81.6964 90.7002C81.8113 90.5078 81.9677 90.3633 82.1656 90.2667C82.3634 90.1702 82.6095 90.1408 82.9037 90.1786C83.1634 90.2119 83.3834 90.2945 83.5636 90.4262C83.7455 90.5582 83.8762 90.737 83.9558 90.9628C84.0373 91.1871 84.0578 91.4571 84.0172 91.7727L83.7079 94.1815L82.9707 94.0868L83.2686 91.7667C83.3043 91.489 83.2605 91.2645 83.1371 91.0932C83.0139 90.9204 82.825 90.8176 82.5702 90.7848C82.396 90.7625 82.2351 90.7794 82.0875 90.8356C81.9416 90.8921 81.82 90.9867 81.7227 91.1196C81.6273 91.251 81.5667 91.417 81.541 91.6176ZM86.1382 94.5713C85.7831 94.5257 85.4837 94.4045 85.24 94.2078C84.9963 94.0111 84.82 93.7571 84.7113 93.4457C84.6026 93.1344 84.5734 92.7831 84.6236 92.3919C84.6741 91.999 84.7913 91.6649 84.9754 91.3895C85.1595 91.114 85.3943 90.9119 85.6798 90.7832C85.9653 90.6544 86.2856 90.6129 86.6407 90.6585C86.9957 90.7041 87.2951 90.8252 87.5388 91.0219C87.7826 91.2186 87.9587 91.4735 88.0672 91.7865C88.1757 92.0995 88.2047 92.4524 88.1543 92.8453C88.104 93.2365 87.987 93.569 87.8031 93.8428C87.6193 94.1166 87.3846 94.3178 87.099 94.4466C86.8135 94.5753 86.4932 94.6169 86.1382 94.5713ZM86.2201 93.9528C86.4502 93.9823 86.6487 93.946 86.8155 93.8438C86.9824 93.7415 87.115 93.594 87.2132 93.4011C87.3132 93.2084 87.3788 92.9905 87.41 92.7472C87.441 92.5056 87.4325 92.2789 87.3845 92.0672C87.3384 91.8541 87.2476 91.6762 87.1122 91.5335C86.9768 91.3908 86.7941 91.3047 86.564 91.2752C86.3322 91.2454 86.132 91.2823 85.9633 91.386C85.7962 91.4899 85.6626 91.6389 85.5625 91.8333C85.4642 92.0261 85.3995 92.2434 85.3685 92.485C85.3373 92.7283 85.3448 92.9557 85.3912 93.1671C85.4392 93.3788 85.531 93.5552 85.6666 93.6962C85.8038 93.8375 85.9883 93.923 86.2201 93.9528ZM89.6233 92.6555L89.3345 94.9041L88.5973 94.8094L89.0837 91.0223L89.7913 91.1132L89.7121 91.7296L89.759 91.7356C89.8718 91.5463 90.029 91.4027 90.2303 91.3049C90.4333 91.2073 90.677 91.1768 90.9614 91.2133C91.2194 91.2465 91.4385 91.3297 91.6185 91.4631C91.7987 91.5949 91.9286 91.7736 92.0083 91.9994C92.0879 92.2251 92.1076 92.4942 92.0675 92.8065L91.7582 95.2153L91.021 95.1206L91.3189 92.8006C91.3542 92.5261 91.3102 92.3024 91.1871 92.1295C91.0641 91.955 90.8777 91.8517 90.6279 91.8196C90.4569 91.7977 90.3001 91.8151 90.1575 91.872C90.0165 91.9291 89.8982 92.0241 89.8026 92.1572C89.7088 92.2889 89.6491 92.455 89.6233 92.6555ZM94.2304 95.6105C93.8573 95.5626 93.5461 95.4416 93.2971 95.2475C93.0498 95.052 92.8717 94.7994 92.7628 94.4897C92.6557 94.1786 92.6274 93.8266 92.6779 93.4337C92.7277 93.0458 92.8439 92.7132 93.0266 92.4359C93.2108 92.1588 93.4443 91.9541 93.727 91.8216C94.0113 91.6894 94.3293 91.6458 94.6811 91.691C94.8948 91.7185 95.0973 91.7804 95.2888 91.8768C95.4802 91.9733 95.646 92.1073 95.786 92.279C95.926 92.4507 96.0265 92.6633 96.0875 92.9167C96.1488 93.1685 96.1573 93.4662 96.1132 93.8097L96.0797 94.0711L93.0692 93.6845L93.1401 93.1322L95.4282 93.426C95.4531 93.2321 95.4357 93.0552 95.376 92.8955C95.3165 92.7342 95.2209 92.6008 95.0891 92.4953C94.9589 92.39 94.7985 92.3251 94.6078 92.3006C94.4007 92.274 94.2133 92.3018 94.0458 92.3839C93.88 92.4645 93.7448 92.5808 93.6401 92.7327C93.5372 92.8833 93.4736 93.053 93.4493 93.2421L93.3939 93.6735C93.3614 93.9267 93.3781 94.1477 93.4441 94.3366C93.5117 94.5257 93.62 94.6775 93.7691 94.7919C93.9184 94.9046 94.1006 94.9748 94.316 95.0025C94.4557 95.0204 94.5856 95.017 94.7057 94.9924C94.8261 94.966 94.9333 94.918 95.0275 94.8482C95.1217 94.7784 95.1985 94.6872 95.2581 94.5746L95.9397 94.7899C95.8574 94.9882 95.7341 95.1553 95.5696 95.2913C95.4069 95.4258 95.2117 95.5218 94.9837 95.5794C94.7576 95.6356 94.5065 95.646 94.2304 95.6105Z" fill="black"/>
<path d="M134.152 96.2002L133.525 101.252L132.76 101.158L133.292 96.8701L133.263 96.8664L131.956 97.5059L132.047 96.7757L133.409 96.1081L134.152 96.2002ZM137.296 96.5903L136.67 101.643L135.905 101.548L136.437 97.2602L136.407 97.2565L135.1 97.896L135.191 97.1658L136.554 96.4982L137.296 96.5903ZM138.068 101.816L140.814 97.7281L140.819 97.6911L138.268 97.3746L138.349 96.7209L141.689 97.1353L141.605 97.8112L138.864 101.915L138.068 101.816ZM141.968 101.598L141.898 101.863C141.849 102.057 141.781 102.257 141.695 102.464C141.611 102.672 141.526 102.865 141.441 103.041C141.357 103.218 141.289 103.358 141.236 103.461L140.713 103.397C140.747 103.297 140.794 103.163 140.853 102.993C140.913 102.825 140.974 102.636 141.036 102.427C141.099 102.218 141.153 102.003 141.199 101.784L141.258 101.51L141.968 101.598ZM144.347 102.665C144.122 102.634 143.906 102.565 143.697 102.459C143.489 102.353 143.308 102.197 143.154 101.991C142.999 101.785 142.887 101.52 142.819 101.196C142.752 100.872 142.748 100.477 142.805 100.012C142.86 99.5708 142.952 99.1848 143.082 98.8535C143.213 98.5225 143.376 98.2497 143.572 98.0351C143.767 97.8189 143.99 97.6637 144.241 97.5695C144.491 97.4754 144.763 97.4464 145.055 97.4827C145.356 97.5201 145.616 97.6124 145.835 97.7598C146.054 97.9072 146.223 98.0943 146.342 98.3211C146.462 98.5481 146.525 98.7973 146.532 99.0686L145.78 98.9753C145.755 98.7585 145.675 98.5741 145.54 98.4221C145.405 98.2701 145.216 98.179 144.973 98.1488C144.603 98.1029 144.294 98.2283 144.047 98.5249C143.801 98.8217 143.642 99.257 143.569 99.8308L143.606 99.8354C143.711 99.7031 143.833 99.5947 143.972 99.5101C144.113 99.424 144.266 99.3636 144.431 99.329C144.597 99.2928 144.768 99.2857 144.944 99.3075C145.237 99.3438 145.493 99.4482 145.712 99.6207C145.933 99.7917 146.099 100.011 146.209 100.278C146.319 100.546 146.355 100.841 146.315 101.163C146.275 101.486 146.165 101.768 145.986 102.012C145.809 102.255 145.58 102.437 145.298 102.558C145.016 102.676 144.699 102.712 144.347 102.665ZM144.424 102.023C144.619 102.047 144.798 102.021 144.963 101.945C145.128 101.869 145.264 101.755 145.373 101.605C145.482 101.455 145.549 101.28 145.573 101.081C145.597 100.887 145.576 100.705 145.508 100.535C145.443 100.365 145.34 100.223 145.2 100.111C145.062 99.9985 144.897 99.9304 144.705 99.9065C144.558 99.8884 144.419 99.8995 144.287 99.9399C144.157 99.9805 144.039 100.044 143.933 100.131C143.827 100.218 143.739 100.323 143.669 100.444C143.6 100.564 143.557 100.695 143.54 100.837C143.516 101.026 143.538 101.206 143.605 101.378C143.674 101.55 143.779 101.695 143.92 101.813C144.062 101.929 144.23 101.999 144.424 102.023ZM147.04 102.929L149.786 98.8411L149.791 98.8041L147.24 98.4877L147.321 97.834L150.661 98.2483L150.577 98.9243L147.837 103.028L147.04 102.929ZM156.37 100.577C156.341 100.422 156.293 100.28 156.227 100.151C156.163 100.021 156.081 99.9076 155.982 99.8101C155.882 99.7109 155.764 99.6303 155.628 99.5684C155.494 99.5066 155.343 99.4654 155.175 99.4445C154.891 99.4093 154.625 99.4506 154.378 99.5686C154.132 99.6866 153.924 99.8788 153.756 100.145C153.589 100.41 153.481 100.746 153.43 101.154C153.379 101.564 153.403 101.918 153.501 102.218C153.599 102.517 153.755 102.754 153.969 102.929C154.183 103.105 154.438 103.21 154.734 103.247C155.008 103.281 155.255 103.255 155.472 103.169C155.692 103.082 155.87 102.944 156.007 102.754C156.146 102.562 156.233 102.328 156.267 102.05L156.46 102.111L155.015 101.932L155.093 101.303L157.078 101.549L157.007 102.124C156.954 102.548 156.818 102.906 156.599 103.196C156.381 103.484 156.103 103.693 155.764 103.823C155.428 103.954 155.055 103.993 154.647 103.943C154.19 103.886 153.802 103.731 153.483 103.478C153.165 103.225 152.934 102.893 152.79 102.483C152.645 102.071 152.606 101.598 152.672 101.065C152.722 100.662 152.823 100.307 152.975 100.001C153.126 99.6938 153.317 99.4411 153.547 99.2426C153.779 99.0426 154.04 98.9004 154.329 98.816C154.62 98.7303 154.929 98.7077 155.257 98.7483C155.53 98.7821 155.779 98.854 156.004 98.9637C156.231 99.0737 156.427 99.2141 156.593 99.385C156.76 99.556 156.892 99.7511 156.989 99.9701C157.085 100.187 157.14 100.422 157.152 100.674L156.37 100.577ZM157.586 104.237L158.213 99.1852L160.063 99.4147C160.422 99.4592 160.711 99.5552 160.932 99.7028C161.153 99.8487 161.309 100.029 161.401 100.244C161.493 100.458 161.523 100.69 161.492 100.94C161.466 101.15 161.405 101.323 161.31 101.458C161.215 101.592 161.097 101.694 160.957 101.765C160.818 101.834 160.668 101.879 160.509 101.9L160.503 101.949C160.67 101.978 160.827 102.053 160.974 102.173C161.123 102.291 161.238 102.449 161.321 102.644C161.403 102.84 161.429 103.068 161.396 103.33C161.364 103.588 161.274 103.812 161.127 104.003C160.982 104.192 160.776 104.331 160.509 104.42C160.243 104.507 159.914 104.526 159.523 104.478L157.586 104.237ZM158.43 103.678L159.53 103.815C159.895 103.86 160.165 103.822 160.341 103.7C160.516 103.578 160.617 103.411 160.643 103.199C160.663 103.039 160.641 102.888 160.577 102.745C160.513 102.602 160.411 102.481 160.271 102.384C160.133 102.286 159.962 102.225 159.758 102.2L158.631 102.06L158.43 103.678ZM158.704 101.465L159.726 101.592C159.897 101.613 160.054 101.599 160.199 101.551C160.345 101.502 160.466 101.423 160.561 101.315C160.659 101.205 160.717 101.069 160.737 100.906C160.763 100.697 160.712 100.513 160.583 100.353C160.454 100.194 160.239 100.095 159.936 100.058L158.895 99.9285L158.704 101.465ZM164.725 105.208C164.485 105.178 164.274 105.107 164.091 104.994C163.908 104.88 163.77 104.73 163.678 104.545C163.587 104.36 163.557 104.143 163.588 103.895C163.615 103.681 163.678 103.51 163.777 103.382C163.876 103.254 164.001 103.159 164.151 103.095C164.301 103.032 164.464 102.991 164.642 102.971C164.82 102.951 165 102.942 165.182 102.943C165.412 102.945 165.599 102.946 165.742 102.947C165.886 102.947 165.992 102.931 166.061 102.899C166.13 102.868 166.17 102.807 166.181 102.719L166.183 102.701C166.21 102.486 166.17 102.311 166.063 102.178C165.958 102.045 165.786 101.963 165.547 101.934C165.299 101.903 165.096 101.934 164.94 102.026C164.785 102.117 164.672 102.226 164.601 102.352L163.928 102.108C164.038 101.888 164.181 101.717 164.357 101.596C164.534 101.472 164.73 101.391 164.946 101.353C165.161 101.313 165.383 101.307 165.612 101.335C165.763 101.354 165.921 101.392 166.086 101.449C166.253 101.505 166.404 101.589 166.541 101.701C166.679 101.813 166.784 101.963 166.858 102.149C166.932 102.333 166.952 102.564 166.918 102.84L166.606 105.356L165.885 105.267L165.95 104.749L165.92 104.745C165.86 104.835 165.777 104.919 165.67 105C165.564 105.08 165.432 105.141 165.274 105.184C165.117 105.226 164.934 105.234 164.725 105.208ZM164.959 104.636C165.163 104.661 165.342 104.643 165.497 104.58C165.653 104.518 165.777 104.426 165.869 104.306C165.963 104.184 166.019 104.048 166.038 103.898L166.098 103.41C166.069 103.433 166.015 103.451 165.936 103.465C165.859 103.477 165.772 103.485 165.675 103.49C165.578 103.493 165.483 103.495 165.391 103.497C165.299 103.498 165.222 103.498 165.16 103.499C165.015 103.499 164.88 103.513 164.757 103.541C164.635 103.57 164.533 103.62 164.453 103.691C164.374 103.762 164.326 103.863 164.31 103.994C164.287 104.177 164.337 104.323 164.461 104.434C164.584 104.543 164.75 104.61 164.959 104.636ZM169.722 101.895L169.649 102.487L167.508 102.222L167.581 101.63L169.722 101.895ZM167.698 105.492L168.223 101.264C168.252 101.027 168.328 100.837 168.451 100.693C168.575 100.548 168.726 100.448 168.907 100.392C169.088 100.334 169.279 100.317 169.479 100.342C169.627 100.361 169.752 100.389 169.855 100.426C169.957 100.463 170.032 100.494 170.081 100.52L169.834 101.095C169.801 101.081 169.758 101.064 169.705 101.044C169.653 101.023 169.588 101.007 169.511 100.997C169.331 100.975 169.198 101.004 169.109 101.083C169.023 101.162 168.969 101.286 168.948 101.454L168.436 105.583L167.698 105.492ZM171.564 105.971L171.633 105.419L173.562 103.86C173.768 103.69 173.94 103.54 174.076 103.41C174.214 103.278 174.321 103.151 174.397 103.026C174.472 102.902 174.519 102.766 174.538 102.618C174.558 102.45 174.537 102.301 174.473 102.169C174.409 102.036 174.313 101.928 174.185 101.845C174.057 101.761 173.907 101.708 173.736 101.687C173.555 101.665 173.393 101.682 173.249 101.739C173.105 101.797 172.988 101.888 172.899 102.014C172.81 102.14 172.754 102.293 172.732 102.474L172.004 102.384C172.042 102.076 172.146 101.816 172.316 101.604C172.486 101.391 172.703 101.236 172.965 101.14C173.228 101.043 173.516 101.013 173.83 101.052C174.147 101.092 174.419 101.19 174.645 101.346C174.873 101.502 175.042 101.696 175.151 101.93C175.261 102.163 175.299 102.414 175.266 102.686C175.242 102.873 175.184 103.052 175.091 103.223C175 103.393 174.854 103.578 174.654 103.777C174.454 103.975 174.181 104.21 173.835 104.485L172.701 105.411L172.696 105.448L174.971 105.73L174.89 106.384L171.564 105.971ZM177.345 106.759C177.035 106.72 176.765 106.627 176.533 106.478C176.303 106.327 176.127 106.138 176.007 105.911C175.886 105.684 175.838 105.436 175.861 105.167L176.601 105.259C176.592 105.478 176.667 105.668 176.824 105.83C176.981 105.991 177.181 106.087 177.424 106.117C177.618 106.141 177.796 106.118 177.956 106.048C178.119 105.976 178.253 105.867 178.358 105.72C178.464 105.572 178.53 105.398 178.555 105.195C178.581 104.99 178.559 104.801 178.49 104.629C178.422 104.457 178.315 104.315 178.17 104.203C178.027 104.092 177.855 104.023 177.655 103.997C177.502 103.978 177.345 103.985 177.184 104.018C177.022 104.052 176.889 104.105 176.783 104.179L176.098 103.989L176.697 101.478L179.475 101.823L179.394 102.477L177.25 102.211L176.914 103.604L176.944 103.608C177.054 103.525 177.195 103.461 177.366 103.417C177.538 103.374 177.718 103.363 177.906 103.387C178.213 103.425 178.478 103.532 178.7 103.708C178.923 103.884 179.089 104.108 179.195 104.378C179.304 104.647 179.337 104.945 179.295 105.272C179.256 105.6 179.146 105.882 178.964 106.12C178.784 106.359 178.554 106.535 178.272 106.651C177.993 106.765 177.683 106.801 177.345 106.759ZM181.61 107.288C181.385 107.256 181.168 107.188 180.959 107.082C180.752 106.976 180.571 106.82 180.416 106.614C180.261 106.407 180.149 106.142 180.081 105.818C180.014 105.494 180.01 105.1 180.068 104.634C180.122 104.193 180.215 103.807 180.344 103.476C180.475 103.145 180.639 102.872 180.834 102.658C181.029 102.441 181.252 102.286 181.503 102.192C181.753 102.098 182.025 102.069 182.318 102.105C182.619 102.143 182.879 102.235 183.097 102.382C183.316 102.53 183.485 102.717 183.604 102.944C183.724 103.171 183.788 103.42 183.794 103.691L183.042 103.598C183.017 103.381 182.937 103.197 182.802 103.045C182.668 102.893 182.478 102.802 182.235 102.771C181.865 102.725 181.556 102.851 181.309 103.147C181.064 103.444 180.904 103.88 180.832 104.453L180.869 104.458C180.973 104.326 181.095 104.217 181.235 104.133C181.375 104.047 181.528 103.986 181.693 103.952C181.859 103.915 182.031 103.908 182.207 103.93C182.499 103.966 182.755 104.071 182.974 104.243C183.195 104.414 183.361 104.634 183.471 104.901C183.582 105.169 183.617 105.464 183.577 105.786C183.537 106.108 183.428 106.391 183.249 106.634C183.072 106.878 182.842 107.06 182.56 107.18C182.278 107.299 181.961 107.335 181.61 107.288ZM181.687 106.646C181.881 106.67 182.06 106.644 182.225 106.567C182.39 106.491 182.527 106.378 182.635 106.228C182.744 106.077 182.811 105.903 182.836 105.704C182.86 105.51 182.838 105.328 182.771 105.157C182.705 104.987 182.602 104.846 182.463 104.733C182.325 104.621 182.159 104.553 181.967 104.529C181.821 104.511 181.681 104.522 181.549 104.562C181.419 104.603 181.301 104.667 181.195 104.754C181.089 104.841 181.001 104.945 180.931 105.067C180.862 105.187 180.82 105.318 180.802 105.459C180.779 105.648 180.8 105.829 180.868 106.001C180.936 106.173 181.041 106.318 181.182 106.436C181.324 106.552 181.493 106.622 181.687 106.646ZM189.748 104.718C189.719 104.562 189.672 104.42 189.606 104.292C189.542 104.162 189.46 104.048 189.36 103.951C189.26 103.852 189.143 103.771 189.007 103.709C188.872 103.647 188.721 103.606 188.554 103.585C188.269 103.55 188.003 103.591 187.757 103.709C187.51 103.827 187.302 104.02 187.134 104.286C186.968 104.551 186.859 104.887 186.809 105.295C186.758 105.705 186.781 106.059 186.88 106.358C186.978 106.658 187.134 106.895 187.347 107.07C187.561 107.245 187.816 107.351 188.112 107.388C188.387 107.422 188.633 107.396 188.851 107.309C189.07 107.223 189.248 107.085 189.385 106.895C189.524 106.703 189.611 106.468 189.646 106.191L189.838 106.252L188.393 106.073L188.471 105.444L190.457 105.69L190.385 106.265C190.333 106.689 190.197 107.046 189.977 107.336C189.759 107.625 189.481 107.834 189.143 107.964C188.806 108.094 188.434 108.134 188.026 108.084C187.568 108.027 187.18 107.872 186.861 107.619C186.543 107.365 186.312 107.034 186.168 106.623C186.024 106.211 185.985 105.739 186.051 105.206C186.101 104.803 186.201 104.448 186.353 104.141C186.505 103.835 186.695 103.582 186.925 103.383C187.157 103.183 187.418 103.041 187.707 102.957C187.999 102.871 188.308 102.848 188.635 102.889C188.908 102.923 189.157 102.995 189.382 103.104C189.609 103.214 189.805 103.355 189.971 103.526C190.139 103.697 190.271 103.892 190.367 104.111C190.464 104.328 190.518 104.563 190.53 104.815L189.748 104.718ZM190.965 108.378L191.591 103.326L193.442 103.555C193.8 103.6 194.09 103.696 194.31 103.844C194.531 103.989 194.687 104.17 194.779 104.385C194.871 104.599 194.902 104.83 194.871 105.08C194.844 105.291 194.784 105.464 194.689 105.599C194.593 105.732 194.476 105.835 194.335 105.906C194.196 105.975 194.047 106.02 193.887 106.04L193.881 106.09C194.048 106.119 194.205 106.193 194.352 106.313C194.501 106.432 194.617 106.589 194.699 106.785C194.782 106.981 194.807 107.209 194.774 107.471C194.742 107.729 194.653 107.953 194.506 108.144C194.36 108.333 194.154 108.472 193.888 108.56C193.621 108.648 193.293 108.667 192.901 108.618L190.965 108.378ZM191.808 107.819L192.908 107.955C193.273 108.001 193.544 107.962 193.719 107.841C193.895 107.719 193.995 107.552 194.022 107.34C194.042 107.18 194.019 107.029 193.955 106.886C193.891 106.742 193.789 106.622 193.649 106.524C193.511 106.427 193.34 106.366 193.136 106.341L192.009 106.201L191.808 107.819ZM192.083 105.606L193.104 105.733C193.275 105.754 193.433 105.74 193.577 105.691C193.724 105.643 193.845 105.564 193.94 105.456C194.037 105.346 194.096 105.21 194.116 105.047C194.142 104.838 194.09 104.654 193.961 104.494C193.833 104.335 193.617 104.236 193.314 104.198L192.273 104.069L192.083 105.606ZM197.071 109.136L197.697 104.083L198.435 104.175L198.202 106.052L198.246 106.058C198.299 105.984 198.372 105.9 198.465 105.807C198.559 105.713 198.682 105.637 198.835 105.577C198.987 105.516 199.181 105.5 199.417 105.529C199.722 105.567 199.986 105.678 200.207 105.863C200.428 106.047 200.588 106.293 200.689 106.601C200.791 106.909 200.816 107.268 200.766 107.678C200.715 108.087 200.603 108.43 200.43 108.706C200.258 108.98 200.042 109.181 199.784 109.309C199.526 109.436 199.245 109.48 198.939 109.442C198.708 109.414 198.525 109.352 198.388 109.256C198.253 109.161 198.151 109.057 198.081 108.943C198.012 108.829 197.96 108.729 197.926 108.643L197.864 108.635L197.791 109.225L197.071 109.136ZM198.028 107.331C197.995 107.597 198.005 107.835 198.057 108.046C198.11 108.256 198.202 108.427 198.334 108.558C198.467 108.688 198.639 108.767 198.851 108.793C199.072 108.82 199.263 108.785 199.426 108.686C199.588 108.586 199.72 108.44 199.821 108.247C199.923 108.054 199.99 107.831 200.022 107.578C200.053 107.328 200.043 107.099 199.992 106.89C199.942 106.682 199.85 106.511 199.715 106.378C199.581 106.244 199.403 106.164 199.181 106.136C198.967 106.11 198.779 106.142 198.618 106.234C198.458 106.326 198.328 106.466 198.228 106.654C198.127 106.842 198.061 107.068 198.028 107.331ZM201.221 109.65L201.691 105.861L202.404 105.95L202.329 106.552L202.369 106.557C202.463 106.361 202.605 106.216 202.793 106.121C202.984 106.024 203.19 105.99 203.412 106.017C203.459 106.023 203.513 106.031 203.575 106.042C203.638 106.054 203.688 106.064 203.724 106.073L203.636 106.779C203.608 106.767 203.556 106.751 203.482 106.732C203.407 106.711 203.332 106.696 203.257 106.687C203.082 106.665 202.922 106.683 202.777 106.74C202.633 106.796 202.513 106.883 202.418 107.004C202.324 107.122 202.266 107.264 202.246 107.428L201.958 109.742L201.221 109.65ZM206.343 108.69L206.618 106.473L207.358 106.564L206.888 110.354L206.163 110.264L206.245 109.607L206.205 109.602C206.093 109.794 205.932 109.945 205.723 110.056C205.516 110.166 205.27 110.203 204.985 110.168C204.742 110.137 204.533 110.057 204.359 109.927C204.186 109.795 204.06 109.617 203.979 109.391C203.9 109.166 203.88 108.897 203.919 108.585L204.218 106.175L204.956 106.266L204.668 108.588C204.636 108.846 204.682 109.06 204.806 109.231C204.93 109.402 205.106 109.501 205.335 109.53C205.473 109.547 205.615 109.529 205.76 109.477C205.906 109.425 206.034 109.335 206.141 109.206C206.251 109.078 206.318 108.906 206.343 108.69ZM209.143 112.156C208.842 112.119 208.588 112.047 208.381 111.941C208.175 111.836 208.012 111.709 207.892 111.563C207.771 111.416 207.687 111.261 207.639 111.098L208.305 110.915C208.341 110.993 208.39 111.077 208.454 111.166C208.52 111.258 208.613 111.341 208.734 111.414C208.857 111.488 209.02 111.537 209.224 111.563C209.504 111.597 209.743 111.558 209.943 111.444C210.142 111.332 210.26 111.128 210.297 110.831L210.389 110.086L210.342 110.081C210.288 110.156 210.213 110.237 210.117 110.326C210.022 110.414 209.898 110.486 209.744 110.54C209.591 110.594 209.398 110.607 209.166 110.578C208.867 110.541 208.606 110.438 208.383 110.268C208.162 110.097 207.999 109.866 207.893 109.574C207.789 109.28 207.762 108.932 207.812 108.529C207.862 108.126 207.973 107.79 208.145 107.519C208.319 107.248 208.536 107.051 208.795 106.928C209.054 106.803 209.336 106.76 209.64 106.797C209.875 106.827 210.06 106.89 210.195 106.986C210.33 107.082 210.432 107.186 210.5 107.3C210.569 107.414 210.621 107.513 210.656 107.597L210.71 107.604L210.786 106.99L211.509 107.079L211.028 110.952C210.988 111.278 210.879 111.536 210.702 111.726C210.525 111.916 210.301 112.045 210.03 112.113C209.761 112.182 209.465 112.196 209.143 112.156ZM209.405 109.987C209.617 110.013 209.802 109.986 209.961 109.906C210.121 109.824 210.251 109.694 210.35 109.518C210.45 109.34 210.517 109.12 210.549 108.859C210.581 108.604 210.571 108.375 210.519 108.171C210.468 107.968 210.375 107.803 210.242 107.676C210.11 107.548 209.936 107.47 209.72 107.444C209.498 107.416 209.306 107.451 209.144 107.547C208.982 107.642 208.851 107.783 208.751 107.969C208.652 108.156 208.588 108.37 208.558 108.612C208.528 108.86 208.538 109.083 208.591 109.28C208.643 109.477 208.737 109.637 208.872 109.76C209.008 109.884 209.186 109.96 209.405 109.987ZM214.128 107.404L214.054 107.996L211.985 107.739L212.058 107.147L214.128 107.404ZM212.726 106.308L213.463 106.4L213.019 109.984C213.001 110.127 213.009 110.238 213.043 110.315C213.077 110.391 213.126 110.447 213.19 110.482C213.256 110.515 213.329 110.536 213.41 110.546C213.469 110.554 213.521 110.556 213.567 110.553C213.612 110.551 213.648 110.548 213.673 110.546L213.731 111.172C213.686 111.183 213.623 111.192 213.542 111.199C213.461 111.207 213.361 111.205 213.242 111.192C213.048 111.171 212.871 111.114 212.712 111.021C212.554 110.928 212.432 110.799 212.347 110.635C212.262 110.471 212.234 110.274 212.262 110.046L212.726 106.308Z" fill="black"/>
<rect x="70.4363" y="99.557" width="144.506" height="7.24454" transform="rotate(6.97195 70.4363 99.557)" stroke="black"/>
<rect x="70.4363" y="99.557" width="71.0592" height="7.24454" transform="rotate(6.97195 70.4363 99.557)" stroke="black"/>
<rect x="70.4363" y="99.557" width="60.043" height="7.24454" transform="rotate(6.97195 70.4363 99.557)" stroke="black"/>
<rect x="70.4363" y="99.557" width="57.9536" height="7.24454" transform="rotate(6.97195 70.4363 99.557)" stroke="black"/>
<rect x="70.4363" y="99.557" width="55.2055" height="7.24454" transform="rotate(6.97195 70.4363 99.557)" stroke="black"/>
<path d="M18 355.782L173.402 376.981" stroke="black" stroke-opacity="0.51"/>
<path d="M25 319.782L180.402 340.981" stroke="black" stroke-opacity="0.51"/>
</svg>
