<svg width="255" height="412" viewBox="0 0 255 412" fill="none" xmlns="http://www.w3.org/2000/svg">
<path d="M16.5604 385.05C16.5604 385.05 -5.10956 379.55 1.89044 351.55C8.89044 323.55 44.0204 131.73 44.0204 131.73L62.3204 24.08C62.3204 24.08 66.8904 7.55005 80.8904 6.55005C94.8904 5.55005 223.89 18.55 223.89 18.55C223.89 18.55 245.26 22.67 245.07 33.61C244.88 44.55 196.86 385.05 196.86 385.05C196.86 385.05 192.05 411.49 179.47 411.02C166.89 410.55 16.5504 385.05 16.5504 385.05H16.5604Z" stroke="#072811" stroke-miterlimit="10"/>
<path d="M63.9703 19.8415C63.9703 19.8415 68.4984 3.11438 82.9287 1.94454C97.3591 0.7747 230.5 14.5 230.5 14.5C230.5 14.5 250.073 18.4621 250 29.5C249.927 40.5378 202.5 398.5 202.5 398.5C202.5 398.5 194.982 410.829 182 410.5" stroke="#072811" stroke-miterlimit="10"/>
<path d="M38.8919 334.403L38.8934 334.403C41.0788 334.57 43.0551 334.87 44.4478 336.014L44.4478 336.014L44.4505 336.016C44.9707 336.437 45.1067 336.737 45.1623 336.901L45.1622 336.901L45.1649 336.909C45.2486 337.144 45.2412 337.283 45.1555 337.653C45.1415 337.714 45.1257 337.779 45.1087 337.85C45.0146 338.239 44.8805 338.795 44.7747 339.658L44.7745 339.66L44.7743 339.661L44.7741 339.663L44.7739 339.664L44.7738 339.666L44.7736 339.667L44.7734 339.669L44.7732 339.67L44.773 339.672L44.7728 339.673L44.7726 339.675L44.7724 339.676L44.7722 339.678L44.772 339.68L44.7718 339.681L44.7717 339.683L44.7715 339.685L44.7713 339.686L44.771 339.688L44.7708 339.689L44.7706 339.691L44.7704 339.693L44.7702 339.694L44.77 339.696L44.7698 339.698L44.7696 339.7L44.7694 339.701L44.7692 339.703L44.769 339.705L44.7687 339.707L44.7685 339.708L44.7683 339.71L44.7681 339.712L44.7679 339.714L44.7676 339.716L44.7674 339.717L44.7672 339.719L44.767 339.721L44.7667 339.723L44.7665 339.725L44.7663 339.727L44.7661 339.728L44.7658 339.73L44.7656 339.732L44.7654 339.734L44.7651 339.736L44.7649 339.738L44.7646 339.74L44.7644 339.742L44.7642 339.744L44.7639 339.746L44.7637 339.748L44.7634 339.75L44.7632 339.752L44.7629 339.754L44.7627 339.756L44.7624 339.758L44.7622 339.76L44.7619 339.762L44.7617 339.764L44.7614 339.766L44.7612 339.768L44.7609 339.77L44.7607 339.772L44.7604 339.775L44.7601 339.777L44.7599 339.779L44.7596 339.781L44.7594 339.783L44.7591 339.785L44.7588 339.788L44.7586 339.79L44.7583 339.792L44.758 339.794L44.7577 339.796L44.7575 339.799L44.7572 339.801L44.7569 339.803L44.7566 339.805L44.7564 339.808L44.7561 339.81L44.7558 339.812L44.7555 339.814L44.7552 339.817L44.755 339.819L44.7547 339.821L44.7544 339.824L44.7541 339.826L44.7538 339.828L44.7535 339.831L44.7532 339.833L44.7529 339.836L44.7526 339.838L44.7523 339.84L44.7521 339.843L44.7518 339.845L44.7515 339.848L44.7512 339.85L44.7509 339.852L44.7506 339.855L44.7502 339.857L44.7499 339.86L44.7496 339.862L44.7493 339.865L44.749 339.867L44.7487 339.87L44.7484 339.872L44.7481 339.875L44.7478 339.878L44.7475 339.88L44.7471 339.883L44.7468 339.885L44.7465 339.888L44.7462 339.891L44.7459 339.893L44.7456 339.896L44.7452 339.898L44.7449 339.901L44.7446 339.904L44.7443 339.906L44.7439 339.909L44.7436 339.912L44.7433 339.914L44.7429 339.917L44.7426 339.92L44.7423 339.923L44.7419 339.925L44.7416 339.928L44.7413 339.931L44.7409 339.933L44.7406 339.936L44.7402 339.939L44.7399 339.942L44.7396 339.945L44.7392 339.947L44.7389 339.95L44.7385 339.953L44.7382 339.956L44.7378 339.959L44.7375 339.962L44.7371 339.964L44.7368 339.967L44.7364 339.97L44.7361 339.973L44.7357 339.976L44.7354 339.979L44.735 339.982L44.7346 339.985L44.7343 339.988L44.7339 339.991L44.7335 339.994L44.7332 339.997L44.7328 340L44.7325 340.003L44.7321 340.006L44.7317 340.009L44.7313 340.012L44.731 340.015L44.7306 340.018L44.7302 340.021L44.7299 340.024L44.7295 340.027L44.7291 340.03L44.7287 340.033L44.7283 340.036L44.728 340.039L44.7276 340.042L44.7272 340.045L44.7268 340.049L44.7264 340.052L44.726 340.055L44.7257 340.058L44.7253 340.061L44.7249 340.064L44.7245 340.068L44.7241 340.071L44.7237 340.074L44.7233 340.077L44.7229 340.08L44.7225 340.084L44.7221 340.087L44.7217 340.09L44.7213 340.093L44.7209 340.097L44.7205 340.1L44.7201 340.103L44.7197 340.107L44.7193 340.11L44.7189 340.113L44.7185 340.117L44.7181 340.12L44.7177 340.123L44.7172 340.127L44.7168 340.13L44.7164 340.133L44.716 340.137L44.7156 340.14L44.7152 340.144L44.7148 340.147L44.7143 340.15L44.7139 340.154L44.7135 340.157L44.7131 340.161L44.7126 340.164L44.7122 340.168L44.7118 340.171L44.7114 340.175L44.7109 340.178L44.7105 340.182L44.7101 340.185L44.7096 340.189L44.7092 340.192L44.7088 340.196L44.7083 340.199L44.7079 340.203L44.7075 340.206L44.707 340.21L44.7066 340.214L44.7061 340.217L44.7057 340.221L44.7053 340.224L44.7048 340.228L44.7044 340.232L44.7039 340.235L44.7035 340.239L44.703 340.243L44.7026 340.246L44.7021 340.25L44.7017 340.254L44.7012 340.257L44.7008 340.261L44.7003 340.265L44.6998 340.269L44.6994 340.272L44.6989 340.276L44.6985 340.28L44.698 340.284L44.6975 340.287L44.6971 340.291L44.6966 340.295L44.6962 340.299L44.6957 340.303L44.6952 340.306L44.6947 340.31L44.6943 340.314L44.6938 340.318L44.6933 340.322L44.6929 340.326L44.6924 340.329L44.6919 340.333L44.6914 340.337L44.691 340.341L44.6905 340.345L44.69 340.349L44.6895 340.353L44.689 340.357L44.6885 340.361L44.6881 340.365L44.6876 340.369L44.6871 340.373L44.6866 340.377L44.6861 340.381L44.6856 340.385L44.6851 340.389L44.6846 340.393L44.6841 340.397L44.6836 340.401L44.6832 340.405L44.6827 340.409L44.6822 340.413L44.6817 340.417L44.6812 340.421L44.6807 340.425L44.6802 340.429L44.6797 340.433L44.6791 340.437L44.6786 340.442L44.6781 340.446L44.6776 340.45L44.6771 340.454L44.6766 340.458L44.6761 340.462L44.6756 340.466L44.6751 340.471L44.6746 340.475L44.674 340.479L44.6735 340.483L44.673 340.487L44.6725 340.492L44.672 340.496L44.6715 340.5L44.6709 340.504L44.6704 340.509L44.6699 340.513L44.6694 340.517L44.6688 340.522L44.6683 340.526L44.6678 340.53L44.6672 340.534L44.6667 340.539L44.6662 340.543L44.6657 340.547L44.6651 340.552L44.6646 340.556L44.6641 340.561L44.6635 340.565L44.663 340.569L44.6624 340.574L44.6619 340.578L44.6614 340.583L44.6608 340.587L44.6603 340.591L44.6597 340.596L44.6592 340.6L44.6586 340.605L44.6581 340.609L44.6575 340.614L44.657 340.618L44.6564 340.623L44.6559 340.627L44.6553 340.632L44.6548 340.636L44.6542 340.641L44.6537 340.645L44.6531 340.65L44.6526 340.654L44.652 340.659L44.6514 340.663L44.6509 340.668L44.6503 340.673L44.6498 340.677L44.6492 340.682L44.6486 340.686L44.6481 340.691L44.6475 340.696L44.6469 340.7L44.6464 340.705L44.6458 340.71L44.6452 340.714L44.6446 340.719L44.6441 340.724L44.6435 340.728L44.6429 340.733L44.6423 340.738L44.6418 340.742L44.6412 340.747L44.6406 340.752L44.64 340.757L44.6394 340.761L44.6389 340.766L44.6383 340.771L44.6377 340.776L44.6371 340.78L44.6365 340.785L44.6359 340.79L44.6353 340.795L44.6347 340.8L44.6342 340.804L44.6336 340.809L44.633 340.814L44.6324 340.819L44.6318 340.824L44.6312 340.829L44.6306 340.833L44.63 340.838L44.6294 340.843L44.6288 340.848L44.6282 340.853L44.6276 340.858L44.627 340.863L44.6264 340.868L44.6258 340.873L44.6252 340.878L44.6246 340.883L44.624 340.888L44.6233 340.893L44.6227 340.898L44.6221 340.903L44.6215 340.908L44.6209 340.913L44.6203 340.918L44.6197 340.923L44.619 340.928L44.6184 340.933L44.6178 340.938L44.6172 340.943L44.6166 340.948L44.616 340.953L44.6153 340.958L44.6147 340.963L44.6141 340.968L44.6135 340.973L44.6128 340.978L44.6122 340.983L44.6116 340.989L44.6109 340.994L44.6103 340.999L44.6097 341.004L44.609 341.009L44.6084 341.014L44.6078 341.02L44.6071 341.025L44.6065 341.03L44.6059 341.035L44.6052 341.04L44.6046 341.046L44.6039 341.051L44.6033 341.056L44.6027 341.061L44.602 341.066L44.6014 341.072L44.6007 341.077L44.6001 341.082L44.5994 341.088L44.5988 341.093L44.5981 341.098L44.5975 341.103L44.5968 341.109L44.5962 341.114L44.5955 341.119L44.5949 341.125L44.5942 341.13L44.5936 341.135L44.5929 341.141L44.5922 341.146L44.5916 341.152L44.5909 341.157L44.5903 341.162L44.5896 341.168L44.5889 341.173L44.5883 341.179L44.5876 341.184L44.5869 341.189L44.5863 341.195L44.5856 341.2L44.5849 341.206L44.5843 341.211L44.5836 341.217L44.5829 341.222L44.5823 341.228L44.5816 341.233L44.5809 341.239L44.5802 341.244L44.5796 341.25L44.5789 341.255L44.5782 341.261L44.5775 341.266L44.5768 341.272L44.5762 341.277L44.5755 341.283L44.5748 341.289L44.5741 341.294L44.5734 341.3L44.5727 341.305L44.572 341.311L44.5714 341.317L44.5707 341.322L44.57 341.328L44.5693 341.334L44.5686 341.339L44.5679 341.345L44.5672 341.35L44.5665 341.356L44.5658 341.362L44.5651 341.368L44.5644 341.373L44.5637 341.379L44.563 341.385L44.5623 341.39L44.5616 341.396L44.5609 341.402L44.5602 341.408L44.5595 341.413L44.5588 341.419L44.5581 341.425L44.5574 341.431L44.5567 341.436L44.556 341.442L44.5553 341.448L44.5545 341.454L44.5538 341.46L44.5531 341.465L44.5524 341.471L44.5517 341.477L44.551 341.483L44.5503 341.489L44.5495 341.495L44.5488 341.5L44.5481 341.506L44.5474 341.512L44.5467 341.518L44.5459 341.524L44.5452 341.53L44.5445 341.536L44.5438 341.542L44.543 341.548L44.5423 341.554L44.5416 341.559L44.5409 341.565L44.5401 341.571L44.5394 341.577L44.5387 341.583L44.5379 341.589L44.5372 341.595L44.5365 341.601L44.5357 341.607L44.535 341.613L44.5343 341.619L44.5335 341.625L44.5328 341.631L44.532 341.637L44.5313 341.643L44.5313 341.643L44.5313 341.643L44.5313 341.643L44.5313 341.643L44.5313 341.643L44.5313 341.643L44.5313 341.643L44.5313 341.644L44.5313 341.644L44.5313 341.644L44.5313 341.644L44.5313 341.644L44.5313 341.644L44.5313 341.644L44.5313 341.644L44.5313 341.644L44.5313 341.644L44.5313 341.644L44.5312 341.644L44.5312 341.644L44.5312 341.644L44.5312 341.644L44.5312 341.644L44.5312 341.644L44.5312 341.644L44.5312 341.644L44.5312 341.644L44.5312 341.644L44.5312 341.644L44.5312 341.644L44.5312 341.644L44.5312 341.644L44.5312 341.644L44.5312 341.644L44.5312 341.644L44.5312 341.644L44.5312 341.645L44.5311 341.645L44.5311 341.645L44.5311 341.645L44.5311 341.645L44.5311 341.645L44.5311 341.645L44.5311 341.645L44.5311 341.645L44.5311 341.645L44.5311 341.645L44.5311 341.645L44.5311 341.645L44.5311 341.645L44.531 341.645L44.531 341.645L44.531 341.646L44.531 341.646L44.531 341.646L44.531 341.646L44.531 341.646L44.531 341.646L44.531 341.646L44.531 341.646L44.531 341.646L44.5309 341.646L44.5309 341.646L44.5309 341.646L44.5309 341.647L44.5309 341.647L44.5309 341.647L44.5309 341.647L44.5309 341.647L44.5309 341.647L44.5308 341.647L44.5308 341.647L44.5308 341.647L44.5308 341.647L44.5308 341.647L44.5308 341.648L44.5308 341.648L44.5308 341.648L44.5307 341.648L44.5307 341.648L44.5307 341.648L44.5307 341.648L44.5307 341.648L44.5307 341.648L44.5307 341.649L44.5306 341.649L44.5306 341.649L44.5306 341.649L44.5306 341.649L44.5306 341.649L44.5306 341.649L44.5306 341.649L44.5305 341.649L44.5305 341.65L44.5305 341.65L44.5305 341.65L44.5305 341.65L44.5305 341.65L44.5305 341.65L44.5304 341.65L44.5304 341.651L44.5304 341.651L44.5304 341.651L44.5304 341.651L44.5304 341.651L44.5303 341.651L44.5303 341.651L44.5303 341.651L44.5303 341.652L44.5303 341.652L44.5303 341.652L44.5302 341.652L44.5302 341.652L44.5302 341.652L44.5302 341.652L44.5302 341.653L44.5301 341.653L44.5301 341.653L44.5301 341.653L44.5301 341.653L44.5301 341.653L44.5301 341.653L44.53 341.654L44.53 341.654L44.53 341.654L44.53 341.654L44.53 341.654L44.5299 341.654L44.5299 341.655L44.5299 341.655L44.5299 341.655L44.5299 341.655L44.5298 341.655L44.5298 341.655L44.5298 341.656L44.5298 341.656L44.5298 341.656L44.5297 341.656L44.5297 341.656L44.5297 341.656L44.5297 341.657L44.5297 341.657L44.5296 341.657L44.5296 341.657L44.5296 341.657L44.5296 341.658L44.5295 341.658L44.5295 341.658L44.5295 341.658L44.5295 341.658L44.5295 341.658L44.5294 341.659L44.5294 341.659L44.5294 341.659L44.5294 341.659L44.5293 341.659L44.5293 341.66L44.5293 341.66L44.5293 341.66L44.5292 341.66L44.5292 341.66L44.5292 341.661L44.5292 341.661L44.5291 341.661L44.5291 341.661L44.5291 341.661L44.5291 341.661L44.529 341.662L44.529 341.662L44.529 341.662L44.529 341.662L44.529 341.663L44.5289 341.663L44.5289 341.663L44.5289 341.663L44.5288 341.663L44.5288 341.664L44.5288 341.664L44.5288 341.664L44.5287 341.664L44.5287 341.664L44.5287 341.665L44.5287 341.665L44.5286 341.665L44.5286 341.665L44.5286 341.665L44.5286 341.666L44.5285 341.666L44.5285 341.666L44.5285 341.666L44.5285 341.667L44.5284 341.667L44.5284 341.667L44.5284 341.667L44.5283 341.667L44.5283 341.668L44.5283 341.668L44.5283 341.668L44.5282 341.668L44.5282 341.669L44.5282 341.669L44.5281 341.669L44.5281 341.669L44.5281 341.67L44.5281 341.67L44.528 341.67L44.528 341.67L44.528 341.671L44.5279 341.671L44.5279 341.671L44.5279 341.671L44.5278 341.671L44.5278 341.672L44.5278 341.672L44.5278 341.672L44.5277 341.672L44.5277 341.673L44.5277 341.673L44.5276 341.673L44.5276 341.673L44.5276 341.674L44.5275 341.674L44.5275 341.674L44.5275 341.674L44.5275 341.675L44.5274 341.675L44.5274 341.675L44.5274 341.675L44.5273 341.676L44.5273 341.676L44.5273 341.676L44.5272 341.677L44.5272 341.677L44.5272 341.677L44.5271 341.677L44.5271 341.678L44.5271 341.678L44.527 341.678L44.527 341.678L44.527 341.679L44.5269 341.679L44.5269 341.679L44.5269 341.679L44.5268 341.68L44.5268 341.68L44.5268 341.68L44.5267 341.681L44.5267 341.681L44.5267 341.681L44.5266 341.681L44.5266 341.682L44.5266 341.682L44.5265 341.682L44.5265 341.682L44.5265 341.683L44.5264 341.683L44.5264 341.683L44.5264 341.684L44.5263 341.684L44.5263 341.684L44.5263 341.684L44.5262 341.685L44.5262 341.685L44.5262 341.685L44.5261 341.686L44.5261 341.686L44.5261 341.686L44.526 341.686L44.526 341.687L44.526 341.687L44.5259 341.687L44.5259 341.688L44.5258 341.688L44.5258 341.688L44.5258 341.688L44.5257 341.689L44.5257 341.689L44.5257 341.689L44.5256 341.69L44.5256 341.69L44.5256 341.69L44.5255 341.691L44.5255 341.691L44.5254 341.691L44.5254 341.691L44.5254 341.692L44.5253 341.692L44.5253 341.692L44.5253 341.693L44.5252 341.693L44.5252 341.693L44.5251 341.694L44.5251 341.694L44.5251 341.694L44.525 341.694L44.525 341.695L44.525 341.695L44.5249 341.695L44.5249 341.696L44.5248 341.696L44.5248 341.696L44.5248 341.697L44.5247 341.697L44.5247 341.697L44.5247 341.698L44.5246 341.698L44.5246 341.698L44.5245 341.699L44.5245 341.699L44.5245 341.699L44.5244 341.699L44.5244 341.7L44.5243 341.7L44.5243 341.7L44.5243 341.701L44.5242 341.701L44.5242 341.701L44.5241 341.702L44.5241 341.702L44.5241 341.702L44.524 341.703L44.524 341.703L44.5239 341.703L44.5239 341.704L44.5239 341.704L44.5238 341.704L44.5238 341.705L44.5237 341.705L44.5237 341.705L44.5237 341.706L44.5236 341.706L44.5236 341.706L44.5235 341.707L44.5235 341.707L44.5235 341.707L44.5234 341.708L44.5234 341.708L44.5233 341.708L44.5233 341.709L44.5232 341.709L44.5232 341.709L44.5232 341.71L44.5231 341.71L44.5231 341.71L44.523 341.711L44.523 341.711L44.523 341.711L44.5229 341.712L44.5229 341.712L44.5228 341.712L44.5228 341.713L44.5227 341.713L44.5227 341.713L44.5227 341.714L44.5226 341.714L44.5226 341.714L44.5225 341.715L44.5225 341.715L44.5224 341.716L44.5224 341.716L44.5224 341.716L44.5223 341.717L44.5223 341.717L44.5222 341.717L44.5222 341.718L44.5221 341.718L44.5221 341.718L44.5221 341.719L44.522 341.719L44.522 341.719L44.5219 341.72L44.5219 341.72L44.5218 341.72L44.5218 341.721L44.5218 341.721L44.5217 341.722L44.5217 341.722L44.5216 341.722L44.5216 341.723L44.5215 341.723L44.5215 341.723L44.5214 341.724L44.5214 341.724L44.5214 341.724L44.5213 341.725L44.5213 341.725L44.5212 341.726L44.5212 341.726L44.5211 341.726L44.5211 341.727L44.521 341.727L44.521 341.727L44.521 341.728L44.5209 341.728L44.5209 341.728L44.5208 341.729L44.5208 341.729L44.5207 341.73L44.5207 341.73L44.5206 341.73L44.5206 341.731L44.5206 341.731L44.5205 341.731L44.5205 341.732L44.5204 341.732L44.5204 341.733L44.5203 341.733L44.5203 341.733L44.5202 341.734L44.5202 341.734L44.5201 341.734L44.5201 341.735L44.52 341.735L44.52 341.735L44.52 341.736L44.5199 341.736L44.5199 341.737L44.5198 341.737L44.5198 341.737L44.5197 341.738L44.5197 341.738L44.5196 341.739L44.5196 341.739L44.5195 341.739L44.5195 341.74L44.5194 341.74L44.5194 341.74L44.5194 341.741L44.5193 341.741L44.5193 341.742L44.5192 341.742L44.5192 341.742L44.5191 341.743L44.5191 341.743L44.519 341.743L44.519 341.744L44.5189 341.744L44.5189 341.745L44.5188 341.745L44.5188 341.745L44.5187 341.746L44.5187 341.746L44.5186 341.747L44.5186 341.747L44.5185 341.747L44.5185 341.748L44.5185 341.748L44.5184 341.749L44.5184 341.749L44.5183 341.749L44.5183 341.75L44.5182 341.75L44.5182 341.75L44.5181 341.751L44.5181 341.751L44.518 341.752L44.518 341.752L44.5179 341.752L44.5179 341.753L44.5178 341.753L44.5178 341.754L44.5177 341.754L44.5177 341.754L44.5176 341.755L44.5176 341.755L44.5175 341.756L44.5175 341.756L44.5174 341.756L44.5174 341.757L44.5173 341.757L44.5173 341.758L44.5172 341.758L44.5172 341.758L44.5172 341.759L44.5171 341.759L44.5171 341.76L44.517 341.76L44.517 341.76L44.5169 341.761L44.5169 341.761L44.5168 341.762L44.5168 341.762L44.5167 341.762L44.5167 341.763L44.5166 341.763L44.5166 341.764L44.5165 341.764L44.5165 341.764L44.5164 341.765L44.5164 341.765L44.5163 341.766L44.5163 341.766L44.5162 341.766L44.5162 341.767L44.5161 341.767L44.5161 341.768L44.516 341.768L44.516 341.768L44.5159 341.769L44.5159 341.769L44.5158 341.77L44.5158 341.77C44.2561 343.723 44.0658 345.148 43.8127 346.196C43.5584 347.249 43.2623 347.817 42.8652 348.145L42.8644 348.145C42.6655 348.31 42.4066 348.42 41.9616 348.497C41.5048 348.575 40.9091 348.61 40.056 348.659C39.695 348.679 37.9258 348.768 35.2478 348.066L35.2469 348.066C34.1407 347.778 33.3434 347.567 32.7517 347.355C32.1599 347.142 31.8394 346.949 31.6421 346.734C31.1876 346.232 30.9874 345.503 31.0296 344.258C31.0719 343.009 31.352 341.356 31.7459 339.094L31.746 339.093C32.4277 335.15 32.9745 334.712 33.1594 334.563C33.1618 334.561 33.1641 334.559 33.1664 334.558C33.4515 334.333 33.9487 334.196 34.9096 334.18C35.8566 334.164 37.1356 334.264 38.8919 334.403Z" stroke="#072811"/>
<path d="M38.7077 337.454L38.6468 337.95C39.3416 338.035 40.0262 338.532 40.1999 339.087C40.2949 339.381 40.2185 339.593 40.0817 339.969C39.9178 340.403 39.7107 340.942 40.0298 341.625C40.1582 341.893 40.3249 342.095 40.4679 342.243C40.2187 342.304 39.9027 342.416 39.6541 342.718C39.3672 343.086 39.2717 343.618 39.412 344.199C39.4809 344.46 39.5831 344.694 39.7101 344.891C39.575 344.925 39.4411 344.949 39.3171 344.974C38.9265 345.037 38.5123 345.046 38.0756 344.993C37.1128 344.875 36.0935 344.478 35.2784 343.894C35.1306 343.785 35.0001 343.699 34.8808 343.604C35.3529 343.369 35.7597 342.845 36.0878 342.059L36.3135 341.533L35.7575 341.384C35.6507 341.351 35.5476 341.288 35.4891 341.19C35.4642 341.146 35.4156 341.05 35.4389 340.942C35.4782 340.785 35.6616 340.687 35.8601 340.711C35.8799 340.714 35.8998 340.716 35.9296 340.72L36.6717 340.912L36.5534 340.152C36.537 340.039 36.4044 339.065 37.1583 338.422C37.3601 338.256 37.9024 337.859 38.627 337.947L38.6878 337.451M38.7077 337.454C37.7548 337.337 37.0763 337.858 36.8523 338.042C35.8942 338.872 36.0571 340.091 36.0797 340.234C36.04 340.23 35.9904 340.224 35.9507 340.219C35.514 340.165 35.0904 340.415 34.9797 340.825C34.8642 341.274 35.1592 341.744 35.647 341.874C35.3621 342.554 34.9382 343.218 34.338 343.265C34.2772 343.268 34.2165 343.27 34.147 343.262C33.8194 343.222 33.5598 343.039 33.4704 343.028C33.4605 343.026 33.4506 343.025 33.4506 343.025C33.39 343.109 34.1344 343.693 35.0065 344.304C35.8402 344.9 36.9328 345.356 38.0346 345.491C38.5011 345.549 38.9749 345.546 39.4175 345.47C39.8391 345.4 40.6907 345.192 40.6692 345.039C40.6654 344.988 40.5761 344.977 40.5003 344.937C39.9751 344.702 39.6301 343.571 40.0592 343.03C40.4042 342.598 41.0459 342.788 41.158 342.449C41.2553 342.149 40.7463 341.945 40.4907 341.4C40.0507 340.469 40.9957 339.91 40.6821 338.935C40.4496 338.201 39.601 337.563 38.7077 337.454Z" fill="#072811"/>
<path d="M51.6911 343.02L52.3885 337.977L54.2353 338.233C54.5931 338.282 54.8812 338.382 55.0996 338.533C55.3183 338.682 55.472 338.864 55.5609 339.081C55.65 339.296 55.6772 339.528 55.6427 339.777C55.6137 339.987 55.5506 340.159 55.4534 340.293C55.3565 340.425 55.2372 340.526 55.0955 340.595C54.9557 340.663 54.8059 340.705 54.6461 340.724L54.6393 340.773C54.8056 340.804 54.9615 340.881 55.1068 341.003C55.2541 341.124 55.3676 341.283 55.4475 341.479C55.5274 341.676 55.5493 341.905 55.5132 342.166C55.4775 342.424 55.3848 342.647 55.2349 342.835C55.0869 343.022 54.8791 343.158 54.6113 343.243C54.3438 343.327 54.0147 343.341 53.624 343.287L51.6911 343.02ZM52.5422 342.473L53.6404 342.625C54.0048 342.675 54.2756 342.641 54.4527 342.521C54.6298 342.402 54.733 342.236 54.7623 342.024C54.7843 341.865 54.7643 341.714 54.7023 341.569C54.6402 341.425 54.54 341.304 54.4015 341.204C54.2646 341.105 54.0944 341.041 53.8909 341.013L52.7656 340.857L52.5422 342.473ZM52.8476 340.264L53.8671 340.405C54.0378 340.429 54.1958 340.417 54.3411 340.37C54.4881 340.324 54.61 340.247 54.7068 340.14C54.8054 340.031 54.866 339.896 54.8885 339.733C54.9173 339.525 54.8684 339.34 54.7418 339.178C54.6153 339.017 54.401 338.915 54.0989 338.874L53.0598 338.73L52.8476 340.264ZM56.0302 343.62L56.5533 339.838L57.2895 339.94L56.7665 343.722L56.0302 343.62ZM57.0058 339.306C56.8777 339.288 56.7736 339.23 56.6935 339.132C56.6153 339.033 56.5844 338.923 56.601 338.803C56.6178 338.682 56.6772 338.584 56.7793 338.512C56.8833 338.437 56.9993 338.409 57.1273 338.427C57.2554 338.444 57.3585 338.503 57.4368 338.603C57.5169 338.701 57.5486 338.81 57.5318 338.932C57.5152 339.052 57.4549 339.149 57.351 339.223C57.2489 339.296 57.1338 339.323 57.0058 339.306ZM59.0519 338.899L58.3545 343.942L57.6183 343.84L58.3157 338.797L59.0519 338.899ZM60.6399 339.118L59.9426 344.161L59.2063 344.059L59.9037 339.016L60.6399 339.118ZM62.4139 344.581C62.0412 344.529 61.7313 344.405 61.4841 344.209C61.2388 344.011 61.0632 343.757 60.9573 343.446C60.8532 343.134 60.8283 342.781 60.8826 342.389C60.9361 342.002 61.0556 341.67 61.2409 341.395C61.4279 341.119 61.6633 340.917 61.9473 340.787C62.2329 340.658 62.5513 340.617 62.9026 340.666C63.116 340.695 63.3179 340.759 63.5085 340.858C63.699 340.956 63.8634 341.091 64.0017 341.265C64.1401 341.438 64.2385 341.651 64.2971 341.905C64.3559 342.157 64.3616 342.455 64.3141 342.798L64.278 343.059L61.2715 342.644L61.3477 342.092L63.6328 342.408C63.6596 342.214 63.6439 342.037 63.5858 341.877C63.5279 341.715 63.4335 341.581 63.3028 341.474C63.1736 341.367 63.0138 341.301 62.8234 341.275C62.6166 341.246 62.429 341.272 62.2606 341.352C62.0941 341.431 61.9577 341.546 61.8515 341.697C61.7472 341.847 61.682 342.016 61.6559 342.205L61.5963 342.636C61.5613 342.889 61.5759 343.11 61.64 343.299C61.7058 343.489 61.8126 343.642 61.9606 343.758C62.1087 343.872 62.2903 343.944 62.5054 343.974C62.6449 343.993 62.7749 343.991 62.8952 343.967C63.0158 343.942 63.1235 343.895 63.2184 343.826C63.3132 343.757 63.391 343.667 63.4516 343.555L64.1311 343.777C64.0469 343.974 63.9219 344.14 63.7561 344.275C63.5922 344.407 63.396 344.502 63.1675 344.557C62.9409 344.611 62.6897 344.619 62.4139 344.581ZM66.131 345.092C65.8257 345.05 65.5639 344.934 65.3458 344.745C65.1296 344.555 64.9734 344.305 64.8774 343.995C64.7832 343.685 64.7643 343.325 64.8209 342.916C64.8774 342.507 64.9939 342.167 65.1703 341.895C65.3484 341.624 65.5679 341.428 65.8289 341.306C66.0899 341.185 66.3723 341.146 66.676 341.188C66.9107 341.22 67.0941 341.286 67.226 341.384C67.3598 341.481 67.4589 341.587 67.5234 341.701C67.5895 341.816 67.6393 341.916 67.6727 342.001L67.7171 342.007L67.9762 340.133L68.7125 340.235L68.0151 345.278L67.296 345.178L67.3774 344.59L67.3159 344.581C67.2604 344.655 67.1837 344.738 67.0857 344.83C66.9893 344.922 66.8635 344.997 66.7084 345.054C66.5533 345.111 66.3608 345.124 66.131 345.092ZM66.3803 344.487C66.5921 344.516 66.7787 344.485 66.9403 344.394C67.1037 344.301 67.237 344.159 67.3402 343.97C67.4451 343.78 67.5159 343.552 67.5526 343.286C67.589 343.024 67.583 342.789 67.5347 342.581C67.4865 342.374 67.3969 342.205 67.266 342.075C67.1351 341.945 66.9621 341.865 66.7471 341.835C66.5255 341.804 66.3328 341.836 66.1692 341.931C66.0056 342.025 65.8723 342.166 65.7693 342.355C65.668 342.543 65.6 342.762 65.5655 343.012C65.5306 343.264 65.5369 343.497 65.5845 343.709C65.6321 343.922 65.7215 344.097 65.8529 344.236C65.9862 344.373 66.162 344.457 66.3803 344.487ZM70.5467 345.705C70.1741 345.654 69.8642 345.53 69.617 345.333C69.3716 345.136 69.196 344.881 69.0901 344.57C68.986 344.258 68.9611 343.906 69.0154 343.514C69.069 343.126 69.1884 342.795 69.3738 342.519C69.5607 342.244 69.7962 342.042 70.0801 341.912C70.3657 341.782 70.6841 341.742 71.0354 341.791C71.2488 341.82 71.4508 341.884 71.6413 341.982C71.8318 342.081 71.9962 342.216 72.1346 342.389C72.2729 342.562 72.3714 342.776 72.4299 343.03C72.4887 343.282 72.4944 343.58 72.4469 343.923L72.4108 344.184L69.4043 343.768L69.4806 343.217L71.7657 343.533C71.7924 343.339 71.7768 343.162 71.7186 343.002C71.6607 342.84 71.5664 342.705 71.4356 342.599C71.3064 342.492 71.1467 342.426 70.9562 342.399C70.7494 342.371 70.5618 342.397 70.3934 342.477C70.2269 342.556 70.0905 342.671 69.9843 342.822C69.88 342.972 69.8148 343.141 69.7887 343.33L69.7291 343.76C69.6941 344.013 69.7087 344.234 69.7728 344.424C69.8386 344.614 69.9455 344.767 70.0934 344.882C70.2416 344.997 70.4232 345.069 70.6382 345.098C70.7777 345.118 70.9077 345.115 71.0281 345.092C71.1486 345.067 71.2564 345.02 71.3512 344.951C71.446 344.882 71.5238 344.792 71.5845 344.68L72.2639 344.902C72.1798 345.099 72.0548 345.265 71.889 345.399C71.725 345.532 71.5288 345.626 71.3003 345.682C71.0737 345.736 70.8225 345.744 70.5467 345.705ZM72.8582 345.947L73.3812 342.165L74.0928 342.264L74.0098 342.864L74.0492 342.87C74.1463 342.676 74.2899 342.533 74.48 342.44C74.672 342.346 74.8788 342.315 75.1004 342.345C75.1464 342.352 75.2003 342.361 75.2622 342.373C75.3258 342.385 75.3753 342.396 75.4107 342.406L75.3133 343.11C75.2849 343.098 75.2336 343.081 75.1595 343.061C75.0856 343.039 75.0109 343.023 74.9353 343.012C74.7613 342.988 74.6011 343.004 74.4546 343.059C74.31 343.112 74.1894 343.199 74.0926 343.317C73.9961 343.435 73.9365 343.575 73.9138 343.739L73.5944 346.049L72.8582 345.947Z" fill="#072811"/>
<path d="M142.622 360.011L142.698 359.459L144.649 357.927C144.858 357.76 145.032 357.613 145.17 357.484C145.31 357.355 145.418 357.229 145.496 357.105C145.573 356.982 145.622 356.847 145.642 356.699C145.665 356.532 145.646 356.382 145.584 356.249C145.522 356.115 145.428 356.006 145.301 355.922C145.174 355.835 145.025 355.781 144.854 355.757C144.673 355.732 144.511 355.747 144.366 355.802C144.221 355.858 144.103 355.948 144.012 356.072C143.922 356.197 143.864 356.349 143.839 356.53L143.112 356.43C143.155 356.123 143.262 355.864 143.435 355.654C143.608 355.443 143.827 355.292 144.09 355.2C144.354 355.106 144.643 355.08 144.957 355.124C145.274 355.168 145.544 355.269 145.768 355.429C145.993 355.587 146.159 355.784 146.266 356.02C146.372 356.254 146.407 356.506 146.369 356.777C146.343 356.964 146.283 357.142 146.187 357.312C146.094 357.481 145.945 357.664 145.743 357.86C145.54 358.054 145.264 358.286 144.914 358.556L143.766 359.466L143.761 359.503L146.032 359.817L145.941 360.47L142.622 360.011ZM149.12 355.699C149.344 355.732 149.56 355.804 149.768 355.915C149.975 356.025 150.154 356.184 150.304 356.39C150.456 356.597 150.563 356.863 150.625 357.188C150.689 357.511 150.69 357.903 150.629 358.362C150.567 358.804 150.469 359.191 150.332 359.523C150.196 359.854 150.029 360.126 149.831 360.34C149.634 360.554 149.409 360.706 149.158 360.796C148.906 360.887 148.633 360.912 148.339 360.871C148.039 360.83 147.78 360.734 147.564 360.583C147.347 360.433 147.18 360.243 147.062 360.015C146.945 359.784 146.888 359.531 146.889 359.253L147.64 359.357C147.66 359.58 147.735 359.77 147.868 359.925C148.002 360.079 148.19 360.173 148.431 360.207C148.801 360.258 149.111 360.137 149.362 359.843C149.614 359.549 149.78 359.112 149.862 358.532L149.823 358.527C149.718 358.656 149.594 358.763 149.452 358.847C149.312 358.931 149.159 358.991 148.994 359.025C148.828 359.059 148.656 359.063 148.477 359.039C148.187 358.998 147.932 358.89 147.714 358.715C147.496 358.539 147.333 358.317 147.227 358.047C147.12 357.778 147.089 357.484 147.133 357.164C147.177 356.845 147.289 356.566 147.47 356.327C147.652 356.088 147.883 355.911 148.165 355.796C148.449 355.68 148.767 355.647 149.12 355.699ZM149.034 356.34C148.842 356.313 148.662 356.337 148.494 356.411C148.329 356.483 148.191 356.594 148.08 356.743C147.969 356.89 147.9 357.061 147.873 357.256C147.846 357.451 147.864 357.635 147.928 357.806C147.993 357.975 148.094 358.117 148.23 358.231C148.368 358.344 148.534 358.414 148.728 358.441C148.873 358.461 149.011 358.452 149.143 358.413C149.276 358.374 149.396 358.312 149.503 358.227C149.61 358.14 149.699 358.036 149.769 357.917C149.839 357.798 149.884 357.669 149.903 357.529C149.929 357.344 149.908 357.165 149.842 356.994C149.777 356.823 149.675 356.678 149.535 356.56C149.396 356.44 149.229 356.367 149.034 356.34ZM151.886 360.589L151.812 360.852C151.76 361.046 151.69 361.245 151.601 361.45C151.514 361.658 151.426 361.849 151.338 362.024C151.252 362.199 151.182 362.339 151.128 362.441L150.606 362.369C150.641 362.27 150.69 362.137 150.751 361.968C150.813 361.801 150.877 361.613 150.942 361.405C151.008 361.196 151.065 360.982 151.114 360.763L151.177 360.491L151.886 360.589ZM154.683 356.539L153.985 361.582L153.222 361.476L153.814 357.197L153.784 357.193L152.469 357.814L152.57 357.085L153.942 356.437L154.683 356.539ZM156.957 362.063C156.619 362.016 156.325 361.916 156.075 361.763C155.827 361.61 155.64 361.419 155.514 361.191C155.39 360.962 155.342 360.709 155.368 360.433L156.141 360.54C156.13 360.691 156.163 360.827 156.238 360.95C156.315 361.071 156.423 361.171 156.562 361.251C156.702 361.33 156.862 361.383 157.043 361.408C157.241 361.435 157.422 361.425 157.584 361.377C157.748 361.329 157.882 361.25 157.986 361.139C158.09 361.026 158.153 360.889 158.176 360.726C158.199 360.557 158.176 360.402 158.107 360.262C158.04 360.121 157.928 360.002 157.772 359.905C157.618 359.808 157.425 359.744 157.192 359.712L156.766 359.653L156.852 359.032L157.278 359.091C157.465 359.117 157.634 359.106 157.784 359.058C157.936 359.011 158.061 358.933 158.158 358.824C158.255 358.714 158.315 358.577 158.337 358.415C158.359 358.259 158.342 358.118 158.288 357.994C158.235 357.868 158.149 357.763 158.03 357.68C157.913 357.596 157.768 357.543 157.595 357.519C157.431 357.496 157.274 357.505 157.122 357.546C156.973 357.586 156.846 357.656 156.742 357.755C156.638 357.853 156.573 357.978 156.545 358.132L155.808 358.03C155.854 357.758 155.968 357.53 156.149 357.344C156.332 357.159 156.558 357.025 156.827 356.943C157.096 356.862 157.385 356.842 157.693 356.885C158.017 356.93 158.287 357.032 158.504 357.19C158.723 357.348 158.882 357.54 158.982 357.766C159.083 357.992 159.115 358.229 159.079 358.477C159.042 358.76 158.93 358.988 158.743 359.163C158.558 359.339 158.33 359.442 158.058 359.473L158.053 359.512C158.38 359.609 158.621 359.778 158.776 360.019C158.931 360.259 158.986 360.539 158.941 360.857C158.904 361.135 158.792 361.373 158.606 361.571C158.421 361.77 158.186 361.914 157.901 362.003C157.617 362.091 157.302 362.111 156.957 362.063ZM165.197 359.617C165.17 359.461 165.124 359.318 165.06 359.189C164.998 359.058 164.918 358.943 164.819 358.844C164.721 358.744 164.604 358.661 164.469 358.598C164.336 358.534 164.185 358.491 164.018 358.467C163.734 358.428 163.468 358.466 163.219 358.58C162.971 358.695 162.761 358.884 162.589 359.148C162.419 359.411 162.305 359.746 162.249 360.153C162.193 360.561 162.211 360.916 162.305 361.217C162.399 361.518 162.552 361.757 162.763 361.935C162.974 362.113 163.228 362.223 163.523 362.264C163.797 362.301 164.044 362.279 164.263 362.195C164.483 362.112 164.664 361.976 164.803 361.788C164.945 361.599 165.035 361.365 165.073 361.088L165.265 361.152L163.822 360.952L163.909 360.324L165.891 360.599L165.812 361.172C165.754 361.596 165.612 361.951 165.389 362.238C165.167 362.524 164.886 362.729 164.546 362.854C164.207 362.98 163.834 363.014 163.427 362.958C162.971 362.895 162.585 362.734 162.269 362.477C161.955 362.219 161.729 361.884 161.59 361.472C161.451 361.058 161.419 360.585 161.493 360.053C161.548 359.651 161.654 359.297 161.81 358.993C161.966 358.688 162.16 358.438 162.393 358.243C162.628 358.046 162.89 357.907 163.181 357.827C163.473 357.745 163.782 357.727 164.109 357.772C164.382 357.81 164.63 357.885 164.853 357.998C165.079 358.111 165.273 358.255 165.436 358.428C165.601 358.601 165.731 358.798 165.824 359.018C165.917 359.237 165.969 359.472 165.977 359.725L165.197 359.617ZM166.362 363.294L167.059 358.251L168.906 358.506C169.264 358.556 169.552 358.656 169.77 358.806C169.989 358.955 170.143 359.138 170.232 359.354C170.321 359.569 170.348 359.801 170.313 360.051C170.284 360.261 170.221 360.433 170.124 360.567C170.027 360.699 169.908 360.799 169.766 360.868C169.626 360.936 169.477 360.979 169.317 360.997L169.31 361.046C169.476 361.078 169.632 361.154 169.778 361.277C169.925 361.397 170.038 361.556 170.118 361.753C170.198 361.95 170.22 362.178 170.184 362.439C170.148 362.697 170.055 362.92 169.906 363.109C169.758 363.296 169.55 363.432 169.282 363.517C169.015 363.6 168.685 363.615 168.295 363.561L166.362 363.294ZM167.213 362.746L168.311 362.898C168.676 362.949 168.946 362.914 169.123 362.795C169.301 362.675 169.404 362.51 169.433 362.298C169.455 362.139 169.435 361.987 169.373 361.843C169.311 361.699 169.211 361.577 169.072 361.478C168.935 361.378 168.765 361.315 168.562 361.287L167.436 361.131L167.213 362.746ZM167.518 360.538L168.538 360.678C168.708 360.702 168.867 360.69 169.012 360.644C169.159 360.597 169.281 360.52 169.377 360.413C169.476 360.305 169.537 360.169 169.559 360.007C169.588 359.798 169.539 359.613 169.413 359.452C169.286 359.29 169.072 359.189 168.77 359.147L167.73 359.003L167.518 360.538Z" fill="#072811"/>
<path d="M109.606 43.0202L110.204 37.2328L112.487 37.4689C112.926 37.5142 113.292 37.6367 113.583 37.8363C113.875 38.034 114.087 38.2891 114.218 38.6017C114.352 38.9125 114.399 39.2601 114.359 39.6444C114.319 40.0287 114.201 40.3592 114.005 40.636C113.809 40.9127 113.545 41.1168 113.213 41.2482C112.884 41.3798 112.497 41.4226 112.052 41.3766L110.597 41.2262L110.698 40.2456L111.956 40.3756C112.191 40.3999 112.389 40.3795 112.55 40.3143C112.713 40.2473 112.84 40.1452 112.93 40.008C113.023 39.869 113.079 39.7044 113.098 39.5141C113.118 39.322 113.097 39.1503 113.035 38.9991C112.974 38.8463 112.871 38.7223 112.725 38.6272C112.578 38.5303 112.387 38.4695 112.149 38.445L111.324 38.3597L110.829 43.1467L109.606 43.0202ZM116.04 41.149L115.78 43.6584L114.576 43.534L115.175 37.7466L116.344 37.8675L116.116 40.0802L116.167 40.0854C116.291 39.8393 116.47 39.6551 116.704 39.5326C116.937 39.4082 117.219 39.3631 117.549 39.3972C117.85 39.4283 118.106 39.5214 118.317 39.6765C118.529 39.8298 118.685 40.0354 118.784 40.2931C118.885 40.5492 118.917 40.8467 118.88 41.1856L118.595 43.9493L117.391 43.8249L117.654 41.2759C117.684 41.0086 117.638 40.7934 117.515 40.6304C117.395 40.4676 117.213 40.3735 116.968 40.3482C116.804 40.3312 116.655 40.3511 116.522 40.4077C116.39 40.4646 116.282 40.5562 116.196 40.6826C116.113 40.8072 116.061 40.9627 116.04 41.149ZM121.335 44.3183C120.896 44.2729 120.526 44.1404 120.225 43.9208C119.926 43.6995 119.708 43.4122 119.569 43.059C119.431 42.7038 119.384 42.304 119.43 41.8594C119.477 41.411 119.604 41.0281 119.812 40.7107C120.02 40.3914 120.293 40.1549 120.631 40.0013C120.97 39.846 121.36 39.7911 121.799 39.8364C122.237 39.8818 122.606 40.0152 122.905 40.2365C123.206 40.4561 123.426 40.7434 123.564 41.0986C123.703 41.4518 123.749 41.8526 123.703 42.301C123.657 42.7456 123.53 43.1275 123.322 43.4469C123.114 43.7643 122.84 44.0006 122.5 44.1559C122.163 44.3095 121.774 44.3636 121.335 44.3183ZM121.437 43.3863C121.637 43.4069 121.81 43.3677 121.955 43.2685C122.101 43.1674 122.218 43.0214 122.306 42.8306C122.396 42.64 122.454 42.4185 122.48 42.166C122.506 41.9136 122.495 41.6849 122.445 41.4799C122.398 41.275 122.313 41.1083 122.192 40.9795C122.07 40.8508 121.909 40.7761 121.709 40.7554C121.508 40.7346 121.332 40.7745 121.183 40.8752C121.035 40.9761 120.916 41.1219 120.826 41.3125C120.738 41.5033 120.681 41.7249 120.655 41.9774C120.629 42.2298 120.639 42.4584 120.687 42.6632C120.736 42.8683 120.822 43.0352 120.946 43.1642C121.072 43.2914 121.236 43.3655 121.437 43.3863ZM125.567 42.1338L125.308 44.6432L124.104 44.5188L124.553 40.1782L125.7 40.2968L125.621 41.0626L125.672 41.0679C125.794 40.8254 125.976 40.6423 126.217 40.5188C126.458 40.3933 126.74 40.3472 127.062 40.3805C127.364 40.4117 127.62 40.5048 127.83 40.6598C128.041 40.8149 128.196 41.0213 128.295 41.279C128.394 41.5349 128.426 41.8314 128.391 42.1687L128.105 44.9323L126.902 44.8079L127.165 42.259C127.194 41.9936 127.148 41.7793 127.026 41.6163C126.904 41.4514 126.722 41.3564 126.481 41.3315C126.319 41.3148 126.172 41.3348 126.041 41.3917C125.911 41.4487 125.805 41.5405 125.721 41.6671C125.64 41.7919 125.588 41.9475 125.567 42.1338ZM130.864 45.3032C130.418 45.257 130.043 45.1269 129.739 44.9127C129.438 44.6969 129.218 44.4133 129.079 44.0619C128.94 43.7087 128.895 43.3032 128.942 42.8454C128.988 42.3989 129.115 42.016 129.324 41.6967C129.532 41.3774 129.803 41.1398 130.137 40.9839C130.473 40.8283 130.854 40.7724 131.28 40.8164C131.566 40.846 131.828 40.9197 132.065 41.0376C132.304 41.1537 132.507 41.3127 132.673 41.5145C132.84 41.7165 132.962 41.9613 133.036 42.249C133.112 42.5347 133.13 42.8622 133.092 43.2315L133.058 43.5621L129.393 43.1833L129.47 42.4372L132.002 42.699C132.02 42.5256 131.998 42.3682 131.936 42.2267C131.875 42.0851 131.781 41.9697 131.655 41.8806C131.531 41.7897 131.382 41.7352 131.206 41.7171C131.024 41.6982 130.857 41.7238 130.707 41.794C130.559 41.8625 130.438 41.9633 130.345 42.0964C130.251 42.2276 130.195 42.3789 130.175 42.5501L130.102 43.2594C130.08 43.4742 130.1 43.6638 130.163 43.8284C130.228 43.9931 130.329 44.1255 130.467 44.2254C130.606 44.3254 130.775 44.3858 130.977 44.4066C131.111 44.4204 131.235 44.4143 131.35 44.3881C131.465 44.3619 131.566 44.3152 131.653 44.248C131.74 44.1808 131.81 44.0948 131.863 43.9898L132.968 44.1783C132.884 44.44 132.744 44.6616 132.548 44.8432C132.355 45.0231 132.115 45.1544 131.828 45.2371C131.544 45.3182 131.222 45.3402 130.864 45.3032ZM136.491 42.9145L136.392 43.8696L133.753 43.5968L133.852 42.6417L136.491 42.9145ZM140.547 40.3692L139.949 46.1565L138.745 46.0321L139.344 40.2448L140.547 40.3692ZM141.984 46.4496C141.707 46.421 141.465 46.3475 141.258 46.229C141.052 46.1086 140.895 45.9468 140.789 45.7435C140.684 45.5385 140.647 45.2928 140.676 45.0064C140.701 44.7653 140.766 44.5674 140.872 44.4126C140.977 44.2579 141.111 44.1385 141.274 44.0544C141.437 43.9703 141.618 43.9129 141.818 43.8821C142.019 43.8514 142.228 43.8369 142.445 43.8383C142.7 43.8381 142.906 43.8346 143.063 43.828C143.22 43.8194 143.336 43.7952 143.41 43.7553C143.485 43.7154 143.527 43.6493 143.536 43.557L143.538 43.5401C143.557 43.3611 143.514 43.2168 143.412 43.1072C143.311 42.9977 143.157 42.9324 142.952 42.9111C142.735 42.8887 142.558 42.919 142.42 43.0018C142.282 43.0828 142.185 43.1927 142.129 43.3316L141.025 43.1261C141.109 42.8682 141.243 42.6517 141.429 42.4767C141.615 42.2998 141.844 42.173 142.117 42.0965C142.391 42.0183 142.702 41.9971 143.048 42.0329C143.29 42.0578 143.517 42.1099 143.732 42.1892C143.949 42.2687 144.136 42.3767 144.295 42.5131C144.457 42.6497 144.577 42.8164 144.658 43.0132C144.739 43.2082 144.766 43.4347 144.739 43.6928L144.436 46.6204L143.295 46.5023L143.357 45.9004L143.323 45.8969C143.239 46.0254 143.134 46.1354 143.006 46.2269C142.879 46.3166 142.73 46.3821 142.56 46.4236C142.391 46.4632 142.198 46.4718 141.984 46.4496ZM142.414 45.6545C142.591 45.6728 142.751 45.6541 142.894 45.5984C143.037 45.5408 143.154 45.4558 143.243 45.3432C143.333 45.2306 143.386 45.098 143.401 44.9454L143.449 44.4848C143.409 44.5054 143.355 44.5226 143.287 44.5365C143.221 44.5488 143.146 44.5592 143.063 44.5677C142.981 44.5744 142.898 44.5802 142.816 44.585C142.734 44.5879 142.659 44.5907 142.592 44.5933C142.449 44.5994 142.322 44.6197 142.212 44.654C142.102 44.6883 142.014 44.741 141.947 44.8122C141.881 44.8815 141.842 44.9727 141.83 45.0858C141.813 45.2497 141.86 45.3811 141.97 45.48C142.081 45.5772 142.23 45.6354 142.414 45.6545ZM146.989 48.6207C146.599 48.5804 146.27 48.4921 146.003 48.3559C145.737 48.2218 145.531 48.0549 145.386 47.8552C145.241 47.6555 145.156 47.4392 145.13 47.2062L146.259 47.1715C146.284 47.2616 146.33 47.3482 146.395 47.4312C146.461 47.5141 146.552 47.5844 146.668 47.6421C146.785 47.7018 146.932 47.7408 147.107 47.7589C147.369 47.786 147.591 47.7442 147.774 47.6336C147.958 47.5251 148.066 47.322 148.097 47.0244L148.179 46.2303L148.128 46.2251C148.063 46.3402 147.972 46.446 147.855 46.5425C147.739 46.6389 147.594 46.7125 147.421 46.7632C147.248 46.8139 147.047 46.8273 146.817 46.8036C146.491 46.7699 146.202 46.6639 145.95 46.4855C145.7 46.3055 145.513 46.0509 145.387 45.7218C145.263 45.391 145.226 44.9854 145.275 44.5051C145.326 44.0134 145.449 43.6109 145.643 43.2978C145.837 42.9847 146.076 42.7599 146.358 42.6234C146.643 42.4872 146.944 42.4355 147.262 42.4684C147.505 42.4936 147.705 42.556 147.86 42.6559C148.015 42.7538 148.137 42.8692 148.224 43.0019C148.313 43.133 148.379 43.2598 148.422 43.3822L148.467 43.3869L148.542 42.6579L149.738 42.7814L149.285 47.1643C149.246 47.5335 149.124 47.8332 148.917 48.0631C148.711 48.2931 148.441 48.4537 148.108 48.545C147.777 48.6383 147.404 48.6635 146.989 48.6207ZM147.292 45.9387C147.486 45.9588 147.655 45.9277 147.799 45.8454C147.944 45.7615 148.062 45.6328 148.153 45.4594C148.245 45.2842 148.304 45.0695 148.331 44.8151C148.357 44.5608 148.344 44.3367 148.292 44.1428C148.24 43.947 148.151 43.7903 148.026 43.6727C147.901 43.555 147.742 43.4862 147.548 43.4661C147.35 43.4457 147.178 43.4821 147.031 43.5755C146.884 43.667 146.766 43.8033 146.677 43.9845C146.588 44.1657 146.531 44.3797 146.505 44.6265C146.479 44.877 146.492 45.0973 146.543 45.2872C146.595 45.4755 146.684 45.6264 146.807 45.7401C146.933 45.8521 147.094 45.9183 147.292 45.9387ZM150.088 47.2045L150.536 42.864L151.703 42.9846L151.625 43.7419L151.67 43.7466C151.777 43.4854 151.931 43.2957 152.132 43.1774C152.333 43.0573 152.555 43.0098 152.798 43.0349C152.858 43.0411 152.923 43.0516 152.992 43.0663C153.061 43.0811 153.121 43.0978 153.172 43.1164L153.062 44.1846C153.007 44.1618 152.93 44.1386 152.832 44.1151C152.733 44.0916 152.643 44.0756 152.56 44.067C152.383 44.0487 152.22 44.071 152.073 44.1338C151.928 44.1949 151.808 44.2892 151.713 44.4164C151.619 44.5439 151.564 44.6962 151.545 44.8732L151.292 47.3289L150.088 47.2045ZM153.185 47.5246L153.633 43.1841L154.837 43.3085L154.389 47.649L153.185 47.5246ZM154.296 42.6871C154.117 42.6686 153.97 42.5934 153.854 42.4614C153.74 42.3278 153.692 42.1772 153.709 42.0095C153.726 41.8437 153.804 41.708 153.942 41.6024C154.083 41.495 154.243 41.4506 154.422 41.4691C154.601 41.4876 154.747 41.5637 154.861 41.6973C154.977 41.8292 155.026 41.9781 155.009 42.1439C154.992 42.3115 154.913 42.449 154.772 42.5564C154.634 42.662 154.475 42.7056 154.296 42.6871ZM156.657 45.3473L156.397 47.8567L155.194 47.7322L155.642 43.3917L156.79 43.5103L156.71 44.2761L156.761 44.2814C156.884 44.0389 157.065 43.8558 157.306 43.7322C157.548 43.6068 157.83 43.5607 158.152 43.594C158.453 43.6252 158.709 43.7183 158.92 43.8733C159.13 44.0283 159.285 44.2347 159.384 44.4925C159.483 44.7484 159.516 45.0449 159.481 45.3821L159.195 48.1458L157.991 48.0214L158.255 45.4725C158.284 45.207 158.238 44.9928 158.116 44.8298C157.994 44.6648 157.812 44.5699 157.571 44.545C157.409 44.5282 157.262 44.5483 157.131 44.6051C157.001 44.6622 156.894 44.754 156.811 44.8805C156.729 45.0054 156.678 45.161 156.657 45.3473ZM161.763 50.1477C161.373 50.1074 161.044 50.0191 160.776 49.8829C160.51 49.7488 160.305 49.5819 160.16 49.3822C160.015 49.1825 159.929 48.9662 159.904 48.7332L161.033 48.6985C161.058 48.7887 161.103 48.8752 161.169 48.9582C161.234 49.0411 161.325 49.1114 161.441 49.1691C161.559 49.2289 161.705 49.2678 161.88 49.2859C162.142 49.313 162.364 49.2712 162.547 49.1606C162.732 49.0521 162.839 48.8491 162.87 48.5514L162.952 47.7573L162.901 47.7521C162.836 47.8672 162.745 47.973 162.629 48.0695C162.512 48.1659 162.367 48.2395 162.195 48.2902C162.022 48.3409 161.82 48.3544 161.591 48.3306C161.265 48.2969 160.976 48.1909 160.724 48.0125C160.474 47.8325 160.286 47.5779 160.16 47.2488C160.036 46.918 159.999 46.5125 160.049 46.0321C160.1 45.5404 160.222 45.138 160.416 44.8248C160.611 44.5117 160.849 44.2869 161.132 44.1505C161.416 44.0142 161.717 43.9625 162.036 43.9954C162.279 44.0206 162.478 44.083 162.633 44.1829C162.789 44.2808 162.91 44.3962 162.997 44.529C163.087 44.66 163.153 44.7868 163.195 44.9093L163.24 44.9139L163.316 44.1849L164.511 44.3084L164.058 48.6913C164.02 49.0606 163.898 49.3602 163.691 49.5902C163.484 49.8201 163.215 49.9807 162.881 50.072C162.55 50.1653 162.177 50.1905 161.763 50.1477ZM162.066 47.4658C162.26 47.4858 162.428 47.4547 162.572 47.3725C162.718 47.2885 162.836 47.1598 162.926 46.9864C163.019 46.8112 163.078 46.5965 163.104 46.3422C163.13 46.0878 163.117 45.8637 163.065 45.6698C163.013 45.474 162.924 45.3173 162.8 45.1997C162.675 45.082 162.515 45.0132 162.321 44.9931C162.123 44.9727 161.951 45.0091 161.804 45.1025C161.658 45.194 161.54 45.3303 161.451 45.5115C161.362 45.6927 161.304 45.9067 161.279 46.1535C161.253 46.404 161.265 46.6243 161.316 46.8142C161.369 47.0025 161.457 47.1534 161.581 47.2671C161.706 47.3791 161.868 47.4453 162.066 47.4658ZM168.793 46.002L167.684 45.9559C167.675 45.8598 167.643 45.7708 167.589 45.689C167.535 45.6053 167.459 45.5357 167.362 45.4799C167.267 45.4225 167.15 45.3866 167.011 45.3722C166.824 45.3529 166.663 45.3762 166.526 45.4421C166.39 45.5061 166.316 45.6031 166.302 45.7331C166.291 45.8367 166.324 45.9286 166.399 46.0087C166.475 46.0889 166.611 46.161 166.808 46.2252L167.577 46.4647C167.99 46.5949 168.291 46.7669 168.478 46.9804C168.665 47.194 168.743 47.4572 168.711 47.7699C168.681 48.0544 168.572 48.2953 168.382 48.4928C168.194 48.6904 167.948 48.8345 167.646 48.9251C167.345 49.014 167.007 49.0389 166.63 49C166.055 48.9406 165.61 48.7737 165.294 48.4992C164.979 48.223 164.815 47.8746 164.799 47.4541L165.99 47.5143C166.007 47.6932 166.08 47.836 166.208 47.9425C166.336 48.0471 166.508 48.1106 166.722 48.1327C166.933 48.1546 167.107 48.1316 167.244 48.0638C167.382 47.9944 167.459 47.8947 167.474 47.7649C167.484 47.6555 167.447 47.5612 167.364 47.4822C167.281 47.4012 167.147 47.3322 166.962 47.275L166.226 47.0476C165.811 46.919 165.511 46.7394 165.325 46.5089C165.141 46.2786 165.066 46.0014 165.1 45.6773C165.129 45.3985 165.229 45.1661 165.4 44.9801C165.574 44.7943 165.804 44.661 166.09 44.5802C166.378 44.4995 166.708 44.4784 167.079 44.5167C167.627 44.5734 168.047 44.7338 168.337 44.9981C168.63 45.2625 168.782 45.5972 168.793 46.002ZM169.002 50.8046L169.619 44.8364L170.806 44.9591L170.731 45.6881L170.784 45.6937C170.849 45.5823 170.938 45.4715 171.05 45.3613C171.164 45.2494 171.307 45.1613 171.477 45.097C171.65 45.031 171.857 45.0106 172.1 45.0357C172.417 45.0685 172.7 45.1815 172.951 45.375C173.201 45.5665 173.389 45.8364 173.515 46.1845C173.641 46.5307 173.679 46.9525 173.627 47.4498C173.577 47.934 173.457 48.3347 173.266 48.652C173.077 48.9676 172.84 49.1973 172.555 49.3411C172.272 49.4832 171.965 49.5372 171.636 49.5031C171.402 49.479 171.207 49.4198 171.052 49.3256C170.897 49.2317 170.775 49.1209 170.683 48.9934C170.592 48.864 170.525 48.7362 170.483 48.61L170.446 48.6062L170.206 50.929L169.002 50.8046ZM170.573 47.1285C170.546 47.3865 170.559 47.6154 170.611 47.8149C170.662 48.0145 170.751 48.175 170.875 48.2964C171 48.4159 171.159 48.4857 171.353 48.5057C171.549 48.526 171.721 48.4894 171.867 48.3961C172.014 48.3008 172.132 48.1607 172.222 47.9758C172.314 47.7891 172.373 47.5696 172.399 47.3171C172.425 47.0666 172.412 46.8426 172.362 46.6451C172.312 46.4476 172.225 46.2882 172.101 46.1668C171.976 46.0454 171.815 45.9744 171.617 45.954C171.421 45.9337 171.25 45.9684 171.104 46.058C170.959 46.1478 170.841 46.2841 170.75 46.467C170.659 46.6499 170.6 46.8704 170.573 47.1285ZM175.849 44.018L175.251 49.8054L174.047 49.681L174.645 43.8936L175.849 44.018ZM177.285 50.0985C177.008 50.0699 176.766 49.9963 176.56 49.8778C176.353 49.7575 176.197 49.5956 176.09 49.3923C175.986 49.1873 175.948 48.9416 175.978 48.6553C176.003 48.4141 176.068 48.2162 176.173 48.0615C176.279 47.9067 176.413 47.7873 176.576 47.7032C176.739 47.6191 176.92 47.5617 177.119 47.5309C177.321 47.5003 177.53 47.4857 177.746 47.4872C178.002 47.4869 178.208 47.4834 178.364 47.4768C178.521 47.4683 178.637 47.4441 178.712 47.4042C178.786 47.3643 178.828 47.2982 178.838 47.2059L178.84 47.1889C178.858 47.01 178.816 46.8656 178.713 46.756C178.612 46.6465 178.459 46.5812 178.254 46.56C178.037 46.5376 177.86 46.5678 177.722 46.6506C177.584 46.7316 177.487 46.8415 177.43 46.9804L176.326 46.7749C176.41 46.517 176.545 46.3005 176.731 46.1255C176.916 45.9486 177.146 45.8219 177.418 45.7453C177.693 45.6671 178.003 45.6459 178.35 45.6817C178.591 45.7066 178.819 45.7588 179.034 45.8381C179.25 45.9176 179.438 46.0255 179.597 46.1619C179.758 46.2985 179.879 46.4652 179.96 46.6621C180.04 46.857 180.067 47.0835 180.041 47.3416L179.738 50.2692L178.596 50.1512L178.659 49.5493L178.625 49.5458C178.541 49.6742 178.435 49.7842 178.308 49.8757C178.181 49.9654 178.032 50.031 177.862 50.0724C177.692 50.112 177.5 50.1207 177.285 50.0985ZM177.716 49.3033C177.893 49.3216 178.053 49.3029 178.196 49.2473C178.339 49.1897 178.455 49.1046 178.545 48.992C178.635 48.8794 178.687 48.7468 178.703 48.5942L178.751 48.1336C178.71 48.1542 178.656 48.1715 178.588 48.1854C178.522 48.1976 178.448 48.208 178.365 48.2166C178.283 48.2233 178.2 48.229 178.118 48.2339C178.036 48.2368 177.961 48.2396 177.894 48.2422C177.751 48.2483 177.624 48.2685 177.514 48.3028C177.403 48.3371 177.315 48.3899 177.249 48.4611C177.183 48.5304 177.144 48.6216 177.132 48.7346C177.115 48.8985 177.161 49.0299 177.271 49.1288C177.383 49.2261 177.531 49.2842 177.716 49.3033ZM182.105 50.5852C181.775 50.5512 181.485 50.4355 181.235 50.2383C180.988 50.0394 180.803 49.7661 180.68 49.4184C180.56 49.069 180.525 48.6522 180.576 48.168C180.627 47.6707 180.75 47.2654 180.944 46.9523C181.138 46.6373 181.377 46.4116 181.659 46.2751C181.944 46.137 182.246 46.0844 182.564 46.1173C182.807 46.1424 183.005 46.2048 183.159 46.3044C183.314 46.4024 183.436 46.5177 183.523 46.6505C183.612 46.7816 183.677 46.9083 183.718 47.0305L183.754 47.0343L183.979 44.8584L185.18 44.9825L184.582 50.7699L183.395 50.6472L183.467 49.952L183.416 49.9468C183.347 50.0615 183.255 50.1729 183.139 50.2808C183.025 50.3871 182.882 50.4704 182.71 50.5307C182.54 50.5912 182.339 50.6094 182.105 50.5852ZM182.585 49.6667C182.78 49.6868 182.949 49.651 183.094 49.5593C183.24 49.4659 183.359 49.3269 183.451 49.1421C183.544 48.9575 183.604 48.7362 183.631 48.4781C183.658 48.22 183.645 47.9921 183.593 47.7945C183.541 47.5968 183.453 47.4391 183.328 47.3215C183.203 47.2039 183.043 47.135 182.849 47.115C182.651 47.0945 182.479 47.131 182.332 47.2243C182.186 47.3177 182.068 47.4559 181.978 47.639C181.889 47.8221 181.831 48.0389 181.805 48.2894C181.779 48.5419 181.791 48.7687 181.841 48.97C181.892 49.1695 181.979 49.3308 182.102 49.4539C182.227 49.5753 182.388 49.6463 182.585 49.6667ZM189.345 48.1262L188.236 48.0801C188.227 47.984 188.195 47.895 188.141 47.8133C188.086 47.7296 188.011 47.6599 187.914 47.6042C187.819 47.5467 187.701 47.5108 187.562 47.4964C187.376 47.4771 187.214 47.5004 187.078 47.5663C186.942 47.6303 186.867 47.7273 186.854 47.8573C186.843 47.9609 186.875 48.0528 186.951 48.133C187.026 48.2131 187.163 48.2853 187.36 48.3494L188.129 48.5889C188.542 48.7192 188.842 48.8911 189.029 49.1047C189.217 49.3183 189.294 49.5814 189.262 49.8941C189.233 50.1786 189.123 50.4196 188.933 50.617C188.745 50.8146 188.5 50.9587 188.197 51.0493C187.897 51.1382 187.558 51.1632 187.181 51.1242C186.607 51.0648 186.161 50.8979 185.845 50.6234C185.531 50.3472 185.366 49.9989 185.35 49.5784L186.541 49.6386C186.559 49.8175 186.631 49.9602 186.759 50.0667C186.888 50.1714 187.059 50.2348 187.274 50.257C187.485 50.2788 187.659 50.2558 187.795 50.188C187.934 50.1186 188.011 50.019 188.026 49.8892C188.035 49.7797 187.998 49.6855 187.915 49.6064C187.832 49.5255 187.698 49.4564 187.514 49.3993L186.778 49.1718C186.363 49.0432 186.062 48.8637 185.877 48.6331C185.693 48.4028 185.618 48.1256 185.651 47.8016C185.68 47.5228 185.78 47.2903 185.952 47.1044C186.125 46.9185 186.355 46.7852 186.641 46.7044C186.93 46.6237 187.259 46.6026 187.63 46.641C188.179 46.6976 188.598 46.8581 188.889 47.1223C189.181 47.3868 189.333 47.7214 189.345 48.1262Z" fill="#072811"/>
<path d="M74.6819 93.0224L75.3303 87.9729L77.1302 88.2041C77.523 88.2545 77.8393 88.3678 78.079 88.544C78.3187 88.7201 78.4867 88.9405 78.583 89.2052C78.6796 89.4682 78.708 89.7542 78.6683 90.0632C78.6284 90.3739 78.5276 90.645 78.3659 90.8765C78.206 91.1066 77.9869 91.2773 77.7087 91.3886C77.4322 91.4984 77.0984 91.5282 76.7072 91.478L75.4695 91.319L75.5525 90.6731L76.7211 90.8232C76.9693 90.855 77.1762 90.8382 77.3417 90.7725C77.5074 90.7052 77.636 90.6015 77.7275 90.4612C77.819 90.3209 77.877 90.1554 77.9015 89.9647C77.926 89.7741 77.9116 89.6001 77.8583 89.4429C77.8049 89.2857 77.7056 89.1551 77.5602 89.0513C77.4165 88.9476 77.218 88.8795 76.9649 88.847L76.0083 88.7241L75.4437 93.1202L74.6819 93.0224ZM79.9509 91.4134L79.6621 93.6619L78.9249 93.5673L79.5733 88.5178L80.3007 88.6112L80.0594 90.49L80.1063 90.496C80.2212 90.3036 80.3776 90.1591 80.5754 90.0625C80.7733 89.966 81.0193 89.9366 81.3136 89.9744C81.5733 90.0077 81.7932 90.0903 81.9735 90.222C82.1554 90.354 82.2861 90.5328 82.3657 90.7586C82.4472 90.9829 82.4677 91.2529 82.4271 91.5685L82.1178 93.9773L81.3806 93.8826L81.6785 91.5625C81.7142 91.2848 81.6703 91.0603 81.547 90.889C81.4238 90.7162 81.2349 90.6134 80.9801 90.5806C80.8058 90.5583 80.6449 90.5752 80.4974 90.6314C80.3515 90.6879 80.2299 90.7825 80.1326 90.9154C80.0372 91.0468 79.9766 91.2128 79.9509 91.4134ZM84.5481 94.3671C84.193 94.3215 83.8936 94.2003 83.6499 94.0036C83.4062 93.8069 83.2299 93.5529 83.1212 93.2415C83.0125 92.9302 82.9833 92.5789 83.0335 92.1877C83.084 91.7948 83.2012 91.4607 83.3853 91.1852C83.5694 90.9098 83.8042 90.7077 84.0897 90.579C84.3752 90.4502 84.6955 90.4087 85.0506 90.4543C85.4056 90.4999 85.705 90.621 85.9487 90.8177C86.1925 91.0144 86.3686 91.2693 86.4771 91.5823C86.5856 91.8953 86.6146 92.2482 86.5642 92.6411C86.5139 93.0323 86.3969 93.3648 86.213 93.6386C86.0292 93.9124 85.7945 94.1136 85.5089 94.2424C85.2234 94.3711 84.9031 94.4127 84.5481 94.3671ZM84.63 93.7486C84.8601 93.7781 85.0586 93.7418 85.2254 93.6396C85.3923 93.5373 85.5248 93.3898 85.6231 93.1969C85.7231 93.0042 85.7886 92.7863 85.8199 92.543C85.8509 92.3014 85.8424 92.0747 85.7944 91.863C85.7483 91.6499 85.6575 91.472 85.5221 91.3293C85.3867 91.1866 85.204 91.1005 84.9739 91.071C84.7421 91.0412 84.5419 91.0781 84.3732 91.1818C84.2061 91.2856 84.0725 91.4347 83.9724 91.6291C83.8741 91.8219 83.8094 92.0392 83.7784 92.2808C83.7472 92.5241 83.7547 92.7515 83.8011 92.9629C83.8491 93.1746 83.9409 93.351 84.0765 93.492C84.2137 93.6333 84.3982 93.7188 84.63 93.7486ZM88.0332 92.4513L87.7444 94.6999L87.0072 94.6052L87.4936 90.8181L88.2012 90.909L88.122 91.5254L88.1689 91.5314C88.2817 91.3421 88.4389 91.1985 88.6402 91.1007C88.8432 91.0031 89.0869 90.9726 89.3713 91.0091C89.6293 91.0423 89.8484 91.1255 90.0284 91.2589C90.2086 91.3907 90.3385 91.5694 90.4182 91.7952C90.4978 92.0209 90.5175 92.29 90.4774 92.6023L90.1681 95.0111L89.4309 94.9164L89.7288 92.5964C89.7641 92.3219 89.7201 92.0982 89.5969 91.9253C89.474 91.7508 89.2876 91.6475 89.0378 91.6154C88.8668 91.5935 88.71 91.6109 88.5674 91.6678C88.4264 91.7249 88.3081 91.8199 88.2125 91.953C88.1187 92.0847 88.0589 92.2508 88.0332 92.4513ZM92.6403 95.4063C92.2671 95.3584 91.956 95.2374 91.7069 95.0433C91.4597 94.8478 91.2816 94.5952 91.1727 94.2855C91.0656 93.9744 91.0373 93.6224 91.0878 93.2295C91.1376 92.8416 91.2538 92.509 91.4365 92.2317C91.6207 91.9546 91.8542 91.7499 92.1369 91.6174C92.4212 91.4852 92.7392 91.4416 93.091 91.4868C93.3047 91.5143 93.5072 91.5762 93.6987 91.6726C93.8901 91.7691 94.0559 91.9031 94.1959 92.0748C94.3359 92.2465 94.4364 92.4591 94.4974 92.7125C94.5587 92.9643 94.5672 93.262 94.5231 93.6055L94.4896 93.8669L91.4791 93.4803L91.55 92.928L93.8381 93.2218C93.863 93.0279 93.8456 92.851 93.7859 92.6913C93.7264 92.53 93.6308 92.3966 93.499 92.2911C93.3688 92.1858 93.2084 92.1209 93.0177 92.0964C92.8106 92.0698 92.6232 92.0976 92.4556 92.1796C92.2899 92.2603 92.1547 92.3766 92.0499 92.5285C91.9471 92.6791 91.8835 92.8488 91.8592 93.0379L91.8038 93.4693C91.7713 93.7225 91.788 93.9435 91.854 94.1324C91.9216 94.3215 92.0299 94.4733 92.179 94.5877C92.3283 94.7004 92.5105 94.7706 92.7259 94.7983C92.8656 94.8162 92.9955 94.8128 93.1156 94.7882C93.236 94.7618 93.3432 94.7138 93.4374 94.644C93.5316 94.5742 93.6084 94.483 93.668 94.3704L94.3496 94.5857C94.2673 94.784 94.144 94.9511 93.9795 95.0871C93.8168 95.2216 93.6216 95.3176 93.3936 95.3752C93.1675 95.4314 92.9164 95.4418 92.6403 95.4063Z" fill="#072811"/>
<path d="M134.152 96.2002L133.525 101.252L132.76 101.158L133.292 96.8701L133.263 96.8664L131.956 97.5059L132.047 96.7757L133.409 96.1081L134.152 96.2002ZM137.296 96.5903L136.67 101.643L135.905 101.548L136.437 97.2602L136.407 97.2565L135.1 97.896L135.191 97.1658L136.554 96.4982L137.296 96.5903ZM138.068 101.816L140.814 97.7281L140.819 97.6911L138.268 97.3746L138.349 96.7209L141.689 97.1353L141.605 97.8112L138.864 101.915L138.068 101.816ZM141.968 101.598L141.898 101.863C141.849 102.057 141.781 102.257 141.695 102.464C141.611 102.672 141.526 102.865 141.441 103.041C141.357 103.218 141.289 103.358 141.236 103.461L140.713 103.397C140.747 103.297 140.794 103.163 140.853 102.993C140.913 102.825 140.974 102.636 141.036 102.427C141.099 102.218 141.153 102.003 141.199 101.784L141.258 101.51L141.968 101.598ZM144.347 102.665C144.122 102.634 143.906 102.565 143.697 102.459C143.489 102.353 143.308 102.197 143.154 101.991C142.999 101.785 142.887 101.52 142.819 101.196C142.752 100.872 142.748 100.477 142.805 100.012C142.86 99.5708 142.952 99.1848 143.082 98.8535C143.213 98.5225 143.376 98.2497 143.572 98.0351C143.767 97.8189 143.99 97.6637 144.241 97.5695C144.491 97.4754 144.763 97.4464 145.055 97.4827C145.356 97.5201 145.616 97.6124 145.835 97.7598C146.054 97.9072 146.223 98.0943 146.342 98.3211C146.462 98.5481 146.525 98.7973 146.532 99.0686L145.78 98.9753C145.755 98.7585 145.675 98.5741 145.54 98.4221C145.405 98.2701 145.216 98.179 144.973 98.1488C144.603 98.1029 144.294 98.2283 144.047 98.5249C143.801 98.8217 143.642 99.257 143.569 99.8308L143.606 99.8354C143.711 99.7031 143.833 99.5947 143.972 99.5101C144.113 99.424 144.266 99.3636 144.431 99.329C144.597 99.2928 144.768 99.2857 144.944 99.3075C145.237 99.3438 145.493 99.4482 145.712 99.6207C145.933 99.7917 146.099 100.011 146.209 100.278C146.319 100.546 146.355 100.841 146.315 101.163C146.275 101.486 146.165 101.768 145.986 102.012C145.809 102.255 145.58 102.437 145.298 102.558C145.016 102.676 144.699 102.712 144.347 102.665ZM144.424 102.023C144.619 102.047 144.798 102.021 144.963 101.945C145.128 101.869 145.264 101.755 145.373 101.605C145.482 101.455 145.549 101.28 145.573 101.081C145.597 100.887 145.576 100.705 145.508 100.535C145.443 100.365 145.34 100.223 145.2 100.111C145.062 99.9985 144.897 99.9304 144.705 99.9065C144.558 99.8884 144.419 99.8995 144.287 99.9399C144.157 99.9805 144.039 100.044 143.933 100.131C143.827 100.218 143.739 100.323 143.669 100.444C143.6 100.564 143.557 100.695 143.54 100.837C143.516 101.026 143.538 101.206 143.605 101.378C143.674 101.55 143.779 101.695 143.92 101.813C144.062 101.929 144.23 101.999 144.424 102.023ZM147.04 102.929L149.786 98.8411L149.791 98.8041L147.24 98.4877L147.321 97.834L150.661 98.2483L150.577 98.9243L147.837 103.028L147.04 102.929ZM156.37 100.577C156.341 100.422 156.293 100.28 156.227 100.151C156.163 100.021 156.081 99.9076 155.982 99.8101C155.882 99.7109 155.764 99.6303 155.628 99.5684C155.494 99.5066 155.343 99.4654 155.175 99.4445C154.891 99.4093 154.625 99.4506 154.378 99.5686C154.132 99.6866 153.924 99.8788 153.756 100.145C153.589 100.41 153.481 100.746 153.43 101.154C153.379 101.564 153.403 101.918 153.501 102.218C153.599 102.517 153.755 102.754 153.969 102.929C154.183 103.105 154.438 103.21 154.734 103.247C155.008 103.281 155.255 103.255 155.472 103.169C155.692 103.082 155.87 102.944 156.007 102.754C156.146 102.562 156.233 102.328 156.267 102.05L156.46 102.111L155.015 101.932L155.093 101.303L157.078 101.549L157.007 102.124C156.954 102.548 156.818 102.906 156.599 103.196C156.381 103.484 156.103 103.693 155.764 103.823C155.428 103.954 155.055 103.993 154.647 103.943C154.19 103.886 153.802 103.731 153.483 103.478C153.165 103.225 152.934 102.893 152.79 102.483C152.645 102.071 152.606 101.598 152.672 101.065C152.722 100.662 152.823 100.307 152.975 100.001C153.126 99.6938 153.317 99.4411 153.547 99.2426C153.779 99.0426 154.04 98.9004 154.329 98.816C154.62 98.7303 154.929 98.7077 155.257 98.7483C155.53 98.7821 155.779 98.854 156.004 98.9637C156.231 99.0737 156.427 99.2141 156.593 99.385C156.76 99.556 156.892 99.7511 156.989 99.9701C157.085 100.187 157.14 100.422 157.152 100.674L156.37 100.577ZM157.586 104.237L158.213 99.1852L160.063 99.4147C160.422 99.4592 160.711 99.5552 160.932 99.7028C161.153 99.8487 161.309 100.029 161.401 100.244C161.493 100.458 161.523 100.69 161.492 100.94C161.466 101.15 161.405 101.323 161.31 101.458C161.215 101.592 161.097 101.694 160.957 101.765C160.818 101.834 160.668 101.879 160.509 101.9L160.503 101.949C160.67 101.978 160.827 102.053 160.974 102.173C161.123 102.291 161.238 102.449 161.321 102.644C161.403 102.84 161.429 103.068 161.396 103.33C161.364 103.588 161.274 103.812 161.127 104.003C160.982 104.192 160.776 104.331 160.509 104.42C160.243 104.507 159.914 104.526 159.523 104.478L157.586 104.237ZM158.43 103.678L159.53 103.815C159.895 103.86 160.165 103.822 160.341 103.7C160.516 103.578 160.617 103.411 160.643 103.199C160.663 103.039 160.641 102.888 160.577 102.745C160.513 102.602 160.411 102.481 160.271 102.384C160.133 102.286 159.962 102.225 159.758 102.2L158.631 102.06L158.43 103.678ZM158.704 101.465L159.726 101.592C159.897 101.613 160.054 101.599 160.199 101.551C160.345 101.502 160.466 101.423 160.561 101.315C160.659 101.205 160.717 101.069 160.737 100.906C160.763 100.697 160.712 100.513 160.583 100.353C160.454 100.194 160.239 100.095 159.936 100.058L158.895 99.9285L158.704 101.465ZM164.725 105.208C164.485 105.178 164.274 105.107 164.091 104.994C163.908 104.88 163.77 104.73 163.678 104.545C163.587 104.36 163.557 104.143 163.588 103.895C163.615 103.681 163.678 103.51 163.777 103.382C163.876 103.254 164.001 103.159 164.151 103.095C164.301 103.032 164.464 102.991 164.642 102.971C164.82 102.951 165 102.942 165.182 102.943C165.412 102.945 165.599 102.946 165.742 102.947C165.886 102.947 165.992 102.931 166.061 102.899C166.13 102.868 166.17 102.807 166.181 102.719L166.183 102.701C166.21 102.486 166.17 102.311 166.063 102.178C165.958 102.045 165.786 101.963 165.547 101.934C165.299 101.903 165.096 101.934 164.94 102.026C164.785 102.117 164.672 102.226 164.601 102.352L163.928 102.108C164.038 101.888 164.181 101.717 164.357 101.596C164.534 101.472 164.73 101.391 164.946 101.353C165.161 101.313 165.383 101.307 165.612 101.335C165.763 101.354 165.921 101.392 166.086 101.449C166.253 101.505 166.404 101.589 166.541 101.701C166.679 101.813 166.784 101.963 166.858 102.149C166.932 102.333 166.952 102.564 166.918 102.84L166.606 105.356L165.885 105.267L165.95 104.749L165.92 104.745C165.86 104.835 165.777 104.919 165.67 105C165.564 105.08 165.432 105.141 165.274 105.184C165.117 105.226 164.934 105.234 164.725 105.208ZM164.959 104.636C165.163 104.661 165.342 104.643 165.497 104.58C165.653 104.518 165.777 104.426 165.869 104.306C165.963 104.184 166.019 104.048 166.038 103.898L166.098 103.41C166.069 103.433 166.015 103.451 165.936 103.465C165.859 103.477 165.772 103.485 165.675 103.49C165.578 103.493 165.483 103.495 165.391 103.497C165.299 103.498 165.222 103.498 165.16 103.499C165.015 103.499 164.88 103.513 164.757 103.541C164.635 103.57 164.533 103.62 164.453 103.691C164.374 103.762 164.326 103.863 164.31 103.994C164.287 104.177 164.337 104.323 164.461 104.434C164.584 104.543 164.75 104.61 164.959 104.636ZM169.722 101.895L169.649 102.487L167.508 102.222L167.581 101.63L169.722 101.895ZM167.698 105.492L168.223 101.264C168.252 101.027 168.328 100.837 168.451 100.693C168.575 100.548 168.726 100.448 168.907 100.392C169.088 100.334 169.279 100.317 169.479 100.342C169.627 100.361 169.752 100.389 169.855 100.426C169.957 100.463 170.032 100.494 170.081 100.52L169.834 101.095C169.801 101.081 169.758 101.064 169.705 101.044C169.653 101.023 169.588 101.007 169.511 100.997C169.331 100.975 169.198 101.004 169.109 101.083C169.023 101.162 168.969 101.286 168.948 101.454L168.436 105.583L167.698 105.492ZM171.564 105.971L171.633 105.419L173.562 103.86C173.768 103.69 173.94 103.54 174.076 103.41C174.214 103.278 174.321 103.151 174.397 103.026C174.472 102.902 174.519 102.766 174.538 102.618C174.558 102.45 174.537 102.301 174.473 102.169C174.409 102.036 174.313 101.928 174.185 101.845C174.057 101.761 173.907 101.708 173.736 101.687C173.555 101.665 173.393 101.682 173.249 101.739C173.105 101.797 172.988 101.888 172.899 102.014C172.81 102.14 172.754 102.293 172.732 102.474L172.004 102.384C172.042 102.076 172.146 101.816 172.316 101.604C172.486 101.391 172.703 101.236 172.965 101.14C173.228 101.043 173.516 101.013 173.83 101.052C174.147 101.092 174.419 101.19 174.645 101.346C174.873 101.502 175.042 101.696 175.151 101.93C175.261 102.163 175.299 102.414 175.266 102.686C175.242 102.873 175.184 103.052 175.091 103.223C175 103.393 174.854 103.578 174.654 103.777C174.454 103.975 174.181 104.21 173.835 104.485L172.701 105.411L172.696 105.448L174.971 105.73L174.89 106.384L171.564 105.971ZM177.345 106.759C177.035 106.72 176.765 106.627 176.533 106.478C176.303 106.327 176.127 106.138 176.007 105.911C175.886 105.684 175.838 105.436 175.861 105.167L176.601 105.259C176.592 105.478 176.667 105.668 176.824 105.83C176.981 105.991 177.181 106.087 177.424 106.117C177.618 106.141 177.796 106.118 177.956 106.048C178.119 105.976 178.253 105.867 178.358 105.72C178.464 105.572 178.53 105.398 178.555 105.195C178.581 104.99 178.559 104.801 178.49 104.629C178.422 104.457 178.315 104.315 178.17 104.203C178.027 104.092 177.855 104.023 177.655 103.997C177.502 103.978 177.345 103.985 177.184 104.018C177.022 104.052 176.889 104.105 176.783 104.179L176.098 103.989L176.697 101.478L179.475 101.823L179.394 102.477L177.25 102.211L176.914 103.604L176.944 103.608C177.054 103.525 177.195 103.461 177.366 103.417C177.538 103.374 177.718 103.363 177.906 103.387C178.213 103.425 178.478 103.532 178.7 103.708C178.923 103.884 179.089 104.108 179.195 104.378C179.304 104.647 179.337 104.945 179.295 105.272C179.256 105.6 179.146 105.882 178.964 106.12C178.784 106.359 178.554 106.535 178.272 106.651C177.993 106.765 177.683 106.801 177.345 106.759ZM181.61 107.288C181.385 107.256 181.168 107.188 180.959 107.082C180.752 106.976 180.571 106.82 180.416 106.614C180.261 106.407 180.149 106.142 180.081 105.818C180.014 105.494 180.01 105.1 180.068 104.634C180.122 104.193 180.215 103.807 180.344 103.476C180.475 103.145 180.639 102.872 180.834 102.658C181.029 102.441 181.252 102.286 181.503 102.192C181.753 102.098 182.025 102.069 182.318 102.105C182.619 102.143 182.879 102.235 183.097 102.382C183.316 102.53 183.485 102.717 183.604 102.944C183.724 103.171 183.788 103.42 183.794 103.691L183.042 103.598C183.017 103.381 182.937 103.197 182.802 103.045C182.668 102.893 182.478 102.802 182.235 102.771C181.865 102.725 181.556 102.851 181.309 103.147C181.064 103.444 180.904 103.88 180.832 104.453L180.869 104.458C180.973 104.326 181.095 104.217 181.235 104.133C181.375 104.047 181.528 103.986 181.693 103.952C181.859 103.915 182.031 103.908 182.207 103.93C182.499 103.966 182.755 104.071 182.974 104.243C183.195 104.414 183.361 104.634 183.471 104.901C183.582 105.169 183.617 105.464 183.577 105.786C183.537 106.108 183.428 106.391 183.249 106.634C183.072 106.878 182.842 107.06 182.56 107.18C182.278 107.299 181.961 107.335 181.61 107.288ZM181.687 106.646C181.881 106.67 182.06 106.644 182.225 106.567C182.39 106.491 182.527 106.378 182.635 106.228C182.744 106.077 182.811 105.903 182.836 105.704C182.86 105.51 182.838 105.328 182.771 105.157C182.705 104.987 182.602 104.846 182.463 104.733C182.325 104.621 182.159 104.553 181.967 104.529C181.821 104.511 181.681 104.522 181.549 104.562C181.419 104.603 181.301 104.667 181.195 104.754C181.089 104.841 181.001 104.945 180.931 105.067C180.862 105.187 180.82 105.318 180.802 105.459C180.779 105.648 180.8 105.829 180.868 106.001C180.936 106.173 181.041 106.318 181.182 106.436C181.324 106.552 181.493 106.622 181.687 106.646ZM189.748 104.718C189.719 104.562 189.672 104.42 189.606 104.292C189.542 104.162 189.46 104.048 189.36 103.951C189.26 103.852 189.143 103.771 189.007 103.709C188.872 103.647 188.721 103.606 188.554 103.585C188.269 103.55 188.003 103.591 187.757 103.709C187.51 103.827 187.302 104.02 187.134 104.286C186.968 104.551 186.859 104.887 186.809 105.295C186.758 105.705 186.781 106.059 186.88 106.358C186.978 106.658 187.134 106.895 187.347 107.07C187.561 107.245 187.816 107.351 188.112 107.388C188.387 107.422 188.633 107.396 188.851 107.309C189.07 107.223 189.248 107.085 189.385 106.895C189.524 106.703 189.611 106.468 189.646 106.191L189.838 106.252L188.393 106.073L188.471 105.444L190.457 105.69L190.385 106.265C190.333 106.689 190.197 107.046 189.977 107.336C189.759 107.625 189.481 107.834 189.143 107.964C188.806 108.094 188.434 108.134 188.026 108.084C187.568 108.027 187.18 107.872 186.861 107.619C186.543 107.365 186.312 107.034 186.168 106.623C186.024 106.211 185.985 105.739 186.051 105.206C186.101 104.803 186.201 104.448 186.353 104.141C186.505 103.835 186.695 103.582 186.925 103.383C187.157 103.183 187.418 103.041 187.707 102.957C187.999 102.871 188.308 102.848 188.635 102.889C188.908 102.923 189.157 102.995 189.382 103.104C189.609 103.214 189.805 103.355 189.971 103.526C190.139 103.697 190.271 103.892 190.367 104.111C190.464 104.328 190.518 104.563 190.53 104.815L189.748 104.718ZM190.965 108.378L191.591 103.326L193.442 103.555C193.8 103.6 194.09 103.696 194.31 103.844C194.531 103.989 194.687 104.17 194.779 104.385C194.871 104.599 194.902 104.83 194.871 105.08C194.844 105.291 194.784 105.464 194.689 105.599C194.593 105.732 194.476 105.835 194.335 105.906C194.196 105.975 194.047 106.02 193.887 106.04L193.881 106.09C194.048 106.119 194.205 106.193 194.352 106.313C194.501 106.432 194.617 106.589 194.699 106.785C194.782 106.981 194.807 107.209 194.774 107.471C194.742 107.729 194.653 107.953 194.506 108.144C194.36 108.333 194.154 108.472 193.888 108.56C193.621 108.648 193.293 108.667 192.901 108.618L190.965 108.378ZM191.808 107.819L192.908 107.955C193.273 108.001 193.544 107.962 193.719 107.841C193.895 107.719 193.995 107.552 194.022 107.34C194.042 107.18 194.019 107.029 193.955 106.886C193.891 106.742 193.789 106.622 193.649 106.524C193.511 106.427 193.34 106.366 193.136 106.341L192.009 106.201L191.808 107.819ZM192.083 105.606L193.104 105.733C193.275 105.754 193.433 105.74 193.577 105.691C193.724 105.643 193.845 105.564 193.94 105.456C194.037 105.346 194.096 105.21 194.116 105.047C194.142 104.838 194.09 104.654 193.961 104.494C193.833 104.335 193.617 104.236 193.314 104.198L192.273 104.069L192.083 105.606ZM197.071 109.136L197.697 104.083L198.435 104.175L198.202 106.052L198.246 106.058C198.299 105.984 198.372 105.9 198.465 105.807C198.559 105.713 198.682 105.637 198.835 105.577C198.987 105.516 199.181 105.5 199.417 105.529C199.722 105.567 199.986 105.678 200.207 105.863C200.428 106.047 200.588 106.293 200.689 106.601C200.791 106.909 200.816 107.268 200.766 107.678C200.715 108.087 200.603 108.43 200.43 108.706C200.258 108.98 200.042 109.181 199.784 109.309C199.526 109.436 199.245 109.48 198.939 109.442C198.708 109.414 198.525 109.352 198.388 109.256C198.253 109.161 198.151 109.057 198.081 108.943C198.012 108.829 197.96 108.729 197.926 108.643L197.864 108.635L197.791 109.225L197.071 109.136ZM198.028 107.331C197.995 107.597 198.005 107.835 198.057 108.046C198.11 108.256 198.202 108.427 198.334 108.558C198.467 108.688 198.639 108.767 198.851 108.793C199.072 108.82 199.263 108.785 199.426 108.686C199.588 108.586 199.72 108.44 199.821 108.247C199.923 108.054 199.99 107.831 200.022 107.578C200.053 107.328 200.043 107.099 199.992 106.89C199.942 106.682 199.85 106.511 199.715 106.378C199.581 106.244 199.403 106.164 199.181 106.136C198.967 106.11 198.779 106.142 198.618 106.234C198.458 106.326 198.328 106.466 198.228 106.654C198.127 106.842 198.061 107.068 198.028 107.331ZM201.221 109.65L201.691 105.861L202.404 105.95L202.329 106.552L202.369 106.557C202.463 106.361 202.605 106.216 202.793 106.121C202.984 106.024 203.19 105.99 203.412 106.017C203.459 106.023 203.513 106.031 203.575 106.042C203.638 106.054 203.688 106.064 203.724 106.073L203.636 106.779C203.608 106.767 203.556 106.751 203.482 106.732C203.407 106.711 203.332 106.696 203.257 106.687C203.082 106.665 202.922 106.683 202.777 106.74C202.633 106.796 202.513 106.883 202.418 107.004C202.324 107.122 202.266 107.264 202.246 107.428L201.958 109.742L201.221 109.65ZM206.343 108.69L206.618 106.473L207.358 106.564L206.888 110.354L206.163 110.264L206.245 109.607L206.205 109.602C206.093 109.794 205.932 109.945 205.723 110.056C205.516 110.166 205.27 110.203 204.985 110.168C204.742 110.137 204.533 110.057 204.359 109.927C204.186 109.795 204.06 109.617 203.979 109.391C203.9 109.166 203.88 108.897 203.919 108.585L204.218 106.175L204.956 106.266L204.668 108.588C204.636 108.846 204.682 109.06 204.806 109.231C204.93 109.402 205.106 109.501 205.335 109.53C205.473 109.547 205.615 109.529 205.76 109.477C205.906 109.425 206.034 109.335 206.141 109.206C206.251 109.078 206.318 108.906 206.343 108.69ZM209.143 112.156C208.842 112.119 208.588 112.047 208.381 111.941C208.175 111.836 208.012 111.709 207.892 111.563C207.771 111.416 207.687 111.261 207.639 111.098L208.305 110.915C208.341 110.993 208.39 111.077 208.454 111.166C208.52 111.258 208.613 111.341 208.734 111.414C208.857 111.488 209.02 111.537 209.224 111.563C209.504 111.597 209.743 111.558 209.943 111.444C210.142 111.332 210.26 111.128 210.297 110.831L210.389 110.086L210.342 110.081C210.288 110.156 210.213 110.237 210.117 110.326C210.022 110.414 209.898 110.486 209.744 110.54C209.591 110.594 209.398 110.607 209.166 110.578C208.867 110.541 208.606 110.438 208.383 110.268C208.162 110.097 207.999 109.866 207.893 109.574C207.789 109.28 207.762 108.932 207.812 108.529C207.862 108.126 207.973 107.79 208.145 107.519C208.319 107.248 208.536 107.051 208.795 106.928C209.054 106.803 209.336 106.76 209.64 106.797C209.875 106.827 210.06 106.89 210.195 106.986C210.33 107.082 210.432 107.186 210.5 107.3C210.569 107.414 210.621 107.513 210.656 107.597L210.71 107.604L210.786 106.99L211.509 107.079L211.028 110.952C210.988 111.278 210.879 111.536 210.702 111.726C210.525 111.916 210.301 112.045 210.03 112.113C209.761 112.182 209.465 112.196 209.143 112.156ZM209.405 109.987C209.617 110.013 209.802 109.986 209.961 109.906C210.121 109.824 210.251 109.694 210.35 109.518C210.45 109.34 210.517 109.12 210.549 108.859C210.581 108.604 210.571 108.375 210.519 108.171C210.468 107.968 210.375 107.803 210.242 107.676C210.11 107.548 209.936 107.47 209.72 107.444C209.498 107.416 209.306 107.451 209.144 107.547C208.982 107.642 208.851 107.783 208.751 107.969C208.652 108.156 208.588 108.37 208.558 108.612C208.528 108.86 208.538 109.083 208.591 109.28C208.643 109.477 208.737 109.637 208.872 109.76C209.008 109.884 209.186 109.96 209.405 109.987ZM214.128 107.404L214.054 107.996L211.985 107.739L212.058 107.147L214.128 107.404ZM212.726 106.308L213.463 106.4L213.019 109.984C213.001 110.127 213.009 110.238 213.043 110.315C213.077 110.391 213.126 110.447 213.19 110.482C213.256 110.515 213.329 110.536 213.41 110.546C213.469 110.554 213.521 110.556 213.567 110.553C213.612 110.551 213.648 110.548 213.673 110.546L213.731 111.172C213.686 111.183 213.623 111.192 213.542 111.199C213.461 111.207 213.361 111.205 213.242 111.192C213.048 111.171 212.871 111.114 212.712 111.021C212.554 110.928 212.432 110.799 212.347 110.635C212.262 110.471 212.234 110.274 212.262 110.046L212.726 106.308Z" fill="#072811"/>
<rect x="70.4363" y="99.557" width="144.506" height="7.24454" transform="rotate(6.97195 70.4363 99.557)" stroke="#072811"/>
<rect x="70.4363" y="99.557" width="71.0592" height="7.24454" transform="rotate(6.97195 70.4363 99.557)" stroke="#072811"/>
<rect x="70.4363" y="99.557" width="60.043" height="7.24454" transform="rotate(6.97195 70.4363 99.557)" stroke="#072811"/>
<rect x="70.4363" y="99.557" width="57.9536" height="7.24454" transform="rotate(6.97195 70.4363 99.557)" stroke="#072811"/>
<rect x="70.4363" y="99.557" width="55.2055" height="7.24454" transform="rotate(6.97195 70.4363 99.557)" stroke="#072811"/>
<path d="M18 355.782L173.402 376.981" stroke="#A7BD96"/>
<path d="M25 319.782L180.402 340.981" stroke="#A7BD96"/>
</svg>
